<svg width="25" height="25" viewBox="0 0 25 25" fill="none" xmlns="http://www.w3.org/2000/svg">
<rect width="25" height="25" fill="white"/>
<path d="M21.875 4.6875V20.3125H3.125V4.6875H21.875ZM21.875 3.125H3.125C2.7106 3.125 2.31317 3.28962 2.02015 3.58265C1.72712 3.87567 1.5625 4.2731 1.5625 4.6875V20.3125C1.5625 20.7269 1.72712 21.1243 2.02015 21.4174C2.31317 21.7104 2.7106 21.875 3.125 21.875H21.875C22.2894 21.875 22.6868 21.7104 22.9799 21.4174C23.2729 21.1243 23.4375 20.7269 23.4375 20.3125V4.6875C23.4375 4.2731 23.2729 3.87567 22.9799 3.58265C22.6868 3.28962 22.2894 3.125 21.875 3.125Z" fill="#8F00FF"/>
<path d="M4.6875 7.8125H10.1562V9.375H4.6875V7.8125Z" fill="#8F00FF"/>
<path d="M4.6875 10.9375H7.8125V12.5H4.6875V10.9375Z" fill="#8F00FF"/>
<path d="M17.9688 14.0625H13.2812C12.6596 14.0625 12.0635 14.3094 11.624 14.749C11.1844 15.1885 10.9375 15.7846 10.9375 16.4062V17.9688H12.5V16.4062C12.5 16.199 12.5823 16.0003 12.7288 15.8538C12.8753 15.7073 13.074 15.625 13.2812 15.625H17.9688C18.176 15.625 18.3747 15.7073 18.5212 15.8538C18.6677 16.0003 18.75 16.199 18.75 16.4062V17.9688H20.3125V16.4062C20.3125 15.7846 20.0656 15.1885 19.626 14.749C19.1865 14.3094 18.5904 14.0625 17.9688 14.0625Z" fill="#8F00FF"/>
<path d="M15.625 13.2813C16.2431 13.2813 16.8473 13.098 17.3612 12.7546C17.8751 12.4112 18.2756 11.9232 18.5121 11.3521C18.7486 10.7811 18.8105 10.1528 18.69 9.54659C18.5694 8.9404 18.2717 8.38358 17.8347 7.94654C17.3977 7.5095 16.8408 7.21188 16.2347 7.0913C15.6285 6.97072 15.0001 7.0326 14.4291 7.26913C13.8581 7.50565 13.37 7.90619 13.0267 8.4201C12.6833 8.934 12.5 9.53819 12.5 10.1563C12.5 10.9851 12.8292 11.7799 13.4153 12.366C14.0013 12.952 14.7962 13.2813 15.625 13.2813ZM15.625 8.59375C15.934 8.59375 16.2361 8.68539 16.4931 8.85708C16.75 9.02877 16.9503 9.2728 17.0686 9.55831C17.1868 9.84382 17.2178 10.158 17.1575 10.4611C17.0972 10.7642 16.9484 11.0426 16.7299 11.2611C16.5113 11.4796 16.2329 11.6284 15.9298 11.6887C15.6267 11.749 15.3126 11.7181 15.0271 11.5998C14.7415 11.4816 14.4975 11.2813 14.3258 11.0243C14.1541 10.7674 14.0625 10.4653 14.0625 10.1563C14.0625 9.74185 14.2271 9.34442 14.5201 9.0514C14.8132 8.75837 15.2106 8.59375 15.625 8.59375Z" fill="#8F00FF"/>
</svg>
