<svg width="40" height="40" viewBox="0 0 40 40" fill="none" xmlns="http://www.w3.org/2000/svg">
<g clip-path="url(#clip0_363_5887)">
<path d="M37.5 22.5L35 22.5C34.2969 22.5 33.7044 22.2591 33.2227 21.7773C32.7409 21.2956 32.5 20.7031 32.5 20C32.5 19.2969 32.7474 18.7044 33.2422 18.2227C33.737 17.7409 34.3229 17.5 35 17.5L37.5 17.5C38.1771 17.5 38.763 17.7409 39.2578 18.2227C39.7526 18.7044 40 19.2904 40 19.9805C40 20.6706 39.7591 21.263 39.2773 21.7578C38.7956 22.2526 38.2031 22.5 37.5 22.5ZM32.6953 10.5469C32.2266 11.0156 31.6732 11.25 31.0352 11.25C30.3971 11.25 29.8568 11.0221 29.4141 10.5664C28.9714 10.1107 28.75 9.5638 28.75 8.92578C28.75 8.28776 28.9714 7.73438 29.4141 7.26563L31.0547 5.66406C31.4974 5.19531 32.0378 4.96094 32.6758 4.96094C33.3138 4.96094 33.8607 5.1888 34.3164 5.64453C34.7721 6.10026 35 6.64714 35 7.28516C35 7.92318 34.7786 8.46354 34.3359 8.90625L32.6953 10.5469ZM30 31.25C30 31.5885 29.8763 31.8815 29.6289 32.1289C29.3815 32.3763 29.0885 32.5 28.75 32.5L11.25 32.5C10.9115 32.5 10.6185 32.3763 10.3711 32.1289C10.1237 31.8815 10 31.5885 10 31.25L10 20C10 17.2396 10.9766 14.8828 12.9297 12.9297C14.8828 10.9766 17.2396 10 20 10C22.7604 10 25.1172 10.9766 27.0703 12.9297C29.0234 14.8828 30 17.2396 30 20L30 31.25ZM20.0195 7.5C19.3294 7.5 18.737 7.2526 18.2422 6.75781C17.7474 6.26302 17.5 5.67708 17.5 5L17.5 2.5C17.5 1.79688 17.7409 1.20443 18.2227 0.722657C18.7044 0.240886 19.2969 6.3763e-07 20 6.60863e-07C20.7031 6.84097e-07 21.2956 0.240886 21.7773 0.722657C22.2591 1.20443 22.5 1.79688 22.5 2.5L22.5 5C22.5 5.67708 22.2591 6.26302 21.7773 6.75781C21.2956 7.2526 20.7096 7.5 20.0195 7.5ZM7.30469 10.5469L5.70313 8.90625C5.23438 8.46354 5 7.92318 5 7.28516C5 6.64714 5.22787 6.10026 5.68359 5.64453C6.13932 5.1888 6.6862 4.96094 7.32422 4.96094C7.96224 4.96094 8.5026 5.19531 8.94531 5.66406L10.5859 7.26563C11.0286 7.73438 11.25 8.28776 11.25 8.92578C11.25 9.5638 11.0286 10.1042 10.5859 10.5469C10.1432 10.9896 9.60286 11.2109 8.96484 11.2109C8.32682 11.2109 7.77344 10.9896 7.30469 10.5469ZM7.5 19.9805C7.5 20.6706 7.25912 21.263 6.77735 21.7578C6.29558 22.2526 5.70313 22.5 5 22.5L2.5 22.5C1.82292 22.5 1.23698 22.2526 0.74219 21.7578C0.247399 21.263 2.79857e-06 20.6706 2.70514e-06 19.9805C2.61171e-06 19.2904 0.247398 18.7044 0.74219 18.2227C1.23698 17.7409 1.82292 17.5 2.5 17.5L5 17.5C5.70313 17.5 6.29557 17.7409 6.77735 18.2227C7.25912 18.7044 7.5 19.2904 7.5 19.9805ZM2.5 35L37.5 35C38.1771 35 38.763 35.2409 39.2578 35.7227C39.7526 36.2044 40 36.7969 40 37.5C40 38.2031 39.7526 38.7956 39.2578 39.2773C38.763 39.7591 38.1771 40 37.5 40L2.50001 40C1.82292 40 1.23698 39.7591 0.742193 39.2773C0.247401 38.7956 5.17229e-06 38.2031 5.0771e-06 37.5C4.9819e-06 36.7969 0.247401 36.2044 0.742192 35.7227C1.23698 35.2409 1.82292 35 2.5 35Z" fill="#FF0000"/>
</g>
<defs>
<clipPath id="clip0_363_5887">
<rect width="40" height="40" fill="white"/>
</clipPath>
</defs>
</svg>
