<svg width="160" height="221" viewBox="0 0 160 221" fill="none" xmlns="http://www.w3.org/2000/svg">
<path d="M56.6858 67.4264C64.351 45.4612 95.4147 45.4612 103.08 67.4264V67.4264C104.851 72.5012 108.237 76.8552 112.72 79.8211L128.799 90.4602C143.481 100.175 143.481 121.725 128.799 131.44L112.72 142.079C108.237 145.045 104.851 149.399 103.08 154.473V154.473C95.4147 176.439 64.351 176.439 56.6858 154.473V154.473C54.9149 149.399 51.5286 145.045 47.0461 142.079L30.9669 131.44C16.2848 121.725 16.2848 100.175 30.9669 90.4602L47.0461 79.8211C51.5286 76.8552 54.9149 72.5012 56.6858 67.4264V67.4264Z" fill="white"/>
<circle cx="122.166" cy="110" r="12" stroke="#8F00FF" stroke-width="2"/>
<path fill-rule="evenodd" clip-rule="evenodd" d="M124.943 114.609C125.203 114.349 125.203 113.927 124.943 113.667L121.414 110.138L124.943 106.609C125.203 106.349 125.203 105.927 124.943 105.667L124.471 105.195C124.211 104.935 123.789 104.935 123.529 105.195L119.293 109.431C118.902 109.821 118.902 110.455 119.293 110.845L123.529 115.081C123.789 115.341 124.211 115.341 124.471 115.081L124.943 114.609Z" fill="#8F00FF"/>
</svg>
