<svg width="160" height="221" viewBox="0 0 160 221" fill="none" xmlns="http://www.w3.org/2000/svg">
<path d="M56.6858 67.4264C64.351 45.4612 95.4147 45.4612 103.08 67.4264V67.4264C104.851 72.5012 108.237 76.8552 112.72 79.8211L128.799 90.4602C143.481 100.175 143.481 121.725 128.799 131.44L112.72 142.079C108.237 145.045 104.851 149.399 103.08 154.473V154.473C95.4147 176.439 64.351 176.439 56.6858 154.473V154.473C54.9149 149.399 51.5286 145.045 47.0461 142.079L30.9669 131.44C16.2848 121.725 16.2848 100.175 30.9669 90.4602L47.0461 79.8211C51.5286 76.8552 54.9149 72.5012 56.6858 67.4264V67.4264Z" fill="white"/>
<circle cx="122.166" cy="110" r="12" stroke="#8F00FF" stroke-width="2"/>
<path fill-rule="evenodd" clip-rule="evenodd" d="M119.556 105.609C119.296 105.87 119.296 106.292 119.556 106.552L123.085 110.081L119.556 113.609C119.296 113.87 119.296 114.292 119.556 114.552L120.028 115.023C120.288 115.284 120.71 115.284 120.97 115.023L125.206 110.788C125.597 110.397 125.597 109.764 125.206 109.374L120.97 105.138C120.71 104.878 120.288 104.878 120.028 105.138L119.556 105.609Z" fill="#8F00FF"/>
</svg>
