<svg width="19" height="16" viewBox="0 0 19 16" fill="none" xmlns="http://www.w3.org/2000/svg">
<path d="M11.4016 5.31532C11.2566 5.31532 11.1357 5.26643 11.039 5.16866C10.9423 5.07089 10.894 4.95139 10.894 4.81016C10.894 4.66893 10.9423 4.55215 11.039 4.4598C11.1357 4.36203 11.2566 4.31315 11.4016 4.31315H15.8011C15.9408 4.31315 16.0589 4.36203 16.1556 4.4598C16.2523 4.55215 16.3007 4.66893 16.3007 4.81016C16.3007 4.95139 16.2523 5.07089 16.1556 5.16866C16.0589 5.26643 15.9408 5.31532 15.8011 5.31532H11.4016ZM11.4016 8.50923C11.2566 8.50923 11.1357 8.46035 11.039 8.36258C10.9423 8.2648 10.894 8.14259 10.894 7.99593C10.894 7.86013 10.9423 7.74606 11.039 7.65372C11.1357 7.55595 11.2566 7.50706 11.4016 7.50706H15.8011C15.9408 7.50706 16.0589 7.55595 16.1556 7.65372C16.2523 7.74606 16.3007 7.86013 16.3007 7.99593C16.3007 8.14259 16.2523 8.2648 16.1556 8.36258C16.0589 8.46035 15.9408 8.50923 15.8011 8.50923H11.4016ZM11.4016 11.695C11.2566 11.695 11.1357 11.6488 11.039 11.5565C10.9423 11.4587 10.894 11.3419 10.894 11.2061C10.894 11.0649 10.9423 10.9454 11.039 10.8476C11.1357 10.7444 11.2566 10.6928 11.4016 10.6928H15.8011C15.9408 10.6928 16.0589 10.7444 16.1556 10.8476C16.2523 10.9454 16.3007 11.0649 16.3007 11.2061C16.3007 11.3419 16.2523 11.4587 16.1556 11.5565C16.0589 11.6488 15.9408 11.695 15.8011 11.695H11.4016ZM3.00551 11.695C2.87659 11.695 2.77721 11.6543 2.70738 11.5728C2.64292 11.4913 2.61069 11.3908 2.61069 11.2713C2.61069 11.0812 2.68052 10.8341 2.82019 10.5299C2.96522 10.2257 3.18278 9.92151 3.47286 9.61733C3.76831 9.30771 4.13627 9.0497 4.57676 8.84329C5.02262 8.63688 5.54637 8.53368 6.14801 8.53368C6.74965 8.53368 7.2734 8.63688 7.71925 8.84329C8.16511 9.0497 8.53308 9.30771 8.82316 9.61733C9.1186 9.92151 9.33616 10.2257 9.47583 10.5299C9.62087 10.8341 9.69338 11.0812 9.69338 11.2713C9.69338 11.3908 9.65847 11.4913 9.58863 11.5728C9.52417 11.6543 9.42748 11.695 9.29856 11.695H3.00551ZM6.14801 7.96334C5.66455 7.96334 5.24823 7.77865 4.89907 7.40929C4.55527 7.03992 4.38338 6.5755 4.38338 6.01602C4.38338 5.66839 4.46127 5.35062 4.61705 5.06274C4.7782 4.77485 4.99307 4.544 5.26166 4.37018C5.53025 4.19636 5.8257 4.10945 6.14801 4.10945C6.47569 4.10945 6.77113 4.19636 7.03435 4.37018C7.30294 4.544 7.51513 4.77485 7.67091 5.06274C7.83206 5.35062 7.91264 5.66839 7.91264 6.01602C7.91264 6.5755 7.74074 7.03992 7.39695 7.40929C7.05315 7.77865 6.63684 7.96334 6.14801 7.96334ZM2.53011 15.5C1.68674 15.5 1.05287 15.2882 0.628499 14.8645C0.2095 14.4462 0 13.8188 0 12.9823V3.0258C0 2.18387 0.2095 1.55378 0.628499 1.13552C1.05287 0.711841 1.68674 0.5 2.53011 0.5H16.4699C17.3186 0.5 17.9525 0.711841 18.3715 1.13552C18.7905 1.55921 19 2.1893 19 3.0258V12.9823C19 13.8188 18.7905 14.4462 18.3715 14.8645C17.9525 15.2882 17.3186 15.5 16.4699 15.5H2.53011ZM2.54623 14.1882H16.4538C16.8513 14.1882 17.1575 14.0823 17.3724 13.8705C17.5926 13.6532 17.7027 13.3327 17.7027 12.909V3.09913C17.7027 2.67545 17.5926 2.35497 17.3724 2.1377C17.1575 1.92042 16.8513 1.81179 16.4538 1.81179H2.54623C2.14334 1.81179 1.83446 1.92042 1.61959 2.1377C1.40472 2.35497 1.29729 2.67545 1.29729 3.09913V12.909C1.29729 13.3327 1.40472 13.6532 1.61959 13.8705C1.83446 14.0823 2.14334 14.1882 2.54623 14.1882Z" fill="black"/>
</svg>
