<svg width="19" height="20" viewBox="0 0 19 20" fill="none" xmlns="http://www.w3.org/2000/svg">
<path d="M8.60327 19.5C8.25997 19.5 7.96402 19.4022 7.71542 19.2067C7.47274 19.0171 7.31293 18.7565 7.23598 18.4247L6.84533 16.7629L6.56121 16.6651L5.1229 17.5538C4.83287 17.7374 4.531 17.8085 4.21729 17.7671C3.90358 17.7256 3.62539 17.5834 3.38271 17.3405L2.1486 16.1052C1.9 15.8623 1.75498 15.5839 1.71355 15.2699C1.67804 14.9559 1.75202 14.6567 1.93551 14.3723L2.83224 12.9326L2.73458 12.666L1.0743 12.275C0.748754 12.198 0.488318 12.0351 0.292991 11.7862C0.0976636 11.5374 0 11.2442 0 10.9065V9.14687C0 8.80917 0.094704 8.5159 0.284112 8.26707C0.479439 8.01824 0.742835 7.85532 1.0743 7.7783L2.71682 7.37839L2.82336 7.09401L1.92664 5.65435C1.74315 5.36997 1.66916 5.07374 1.70467 4.76567C1.74611 4.45167 1.89112 4.17025 2.13972 3.92142L3.37383 2.67727C3.61651 2.44029 3.89174 2.30106 4.19953 2.25959C4.51324 2.21812 4.81511 2.28625 5.10514 2.46398L6.54346 3.35267L6.84533 3.23714L7.23598 1.5753C7.31293 1.24945 7.47274 0.988775 7.71542 0.793265C7.96402 0.597755 8.25997 0.5 8.60327 0.5H10.3967C10.74 0.5 11.033 0.597755 11.2757 0.793265C11.5243 0.988775 11.6871 1.24945 11.764 1.5753L12.1458 3.23714L12.4477 3.35267L13.8949 2.46398C14.179 2.28625 14.4779 2.21812 14.7916 2.25959C15.1053 2.30106 15.3805 2.44029 15.6173 2.67727L16.8603 3.92142C17.103 4.17025 17.245 4.45167 17.2864 4.76567C17.3279 5.07374 17.2569 5.36997 17.0734 5.65435L16.1678 7.09401L16.2832 7.37839L17.9257 7.7783C18.2512 7.85532 18.5117 8.01824 18.707 8.26707C18.9023 8.5159 19 8.80917 19 9.14687V10.9065C19 11.2442 18.9023 11.5374 18.707 11.7862C18.5117 12.0351 18.2512 12.198 17.9257 12.275L16.2654 12.666L16.1589 12.9326L17.0645 14.3723C17.248 14.6567 17.319 14.9559 17.2776 15.2699C17.2361 15.5839 17.0941 15.8623 16.8514 16.1052L15.6084 17.3405C15.3657 17.5834 15.0875 17.7256 14.7738 17.7671C14.4601 17.8085 14.1612 17.7374 13.8771 17.5538L12.4299 16.6651L12.1458 16.7629L11.764 18.4247C11.6871 18.7565 11.5243 19.0171 11.2757 19.2067C11.033 19.4022 10.74 19.5 10.3967 19.5H8.60327ZM8.74533 18.1137H10.2547C10.4026 18.1137 10.4855 18.0455 10.5033 17.9093L11.0449 15.7053C11.3171 15.6402 11.5746 15.5572 11.8173 15.4565C12.06 15.3499 12.276 15.2373 12.4654 15.1188L14.4009 16.3096C14.5134 16.3867 14.6259 16.3718 14.7383 16.2652L15.7771 15.2166C15.8777 15.1277 15.8896 15.0181 15.8126 14.8877L14.6229 12.9682C14.7294 12.7786 14.833 12.5624 14.9336 12.3195C15.0402 12.0766 15.129 11.8188 15.2 11.5463L17.4107 11.022C17.5469 10.9983 17.615 10.9124 17.615 10.7643V9.28017C17.615 9.13798 17.5469 9.05207 17.4107 9.02245L15.2089 8.48924C15.1379 8.19894 15.0461 7.92937 14.9336 7.68054C14.8212 7.43171 14.7235 7.22435 14.6407 7.05847L15.8215 5.13891C15.9044 5.00857 15.8955 4.89305 15.7949 4.79233L14.7472 3.76146C14.6407 3.66667 14.5252 3.65186 14.4009 3.71703L12.4743 4.89008C12.279 4.78344 12.06 4.67976 11.8173 4.57905C11.5805 4.4724 11.3231 4.38354 11.0449 4.31244L10.5033 2.09074C10.4855 1.95447 10.4026 1.88634 10.2547 1.88634H8.74533C8.59735 1.88634 8.51153 1.95447 8.48785 2.09074L7.96402 4.29467C7.69766 4.36576 7.43427 4.45463 7.17383 4.56127C6.91931 4.66791 6.69735 4.77456 6.50794 4.8812L4.59019 3.71703C4.47181 3.65186 4.35935 3.66667 4.2528 3.76146L3.19626 4.79233C3.10156 4.89305 3.09268 5.00857 3.16963 5.13891L4.35047 7.05847C4.27352 7.22435 4.17586 7.43171 4.05748 7.68054C3.94502 7.92937 3.85327 8.19894 3.78224 8.48924L1.58925 9.02245C1.45312 9.05207 1.38505 9.13798 1.38505 9.28017V10.7643C1.38505 10.9124 1.45312 10.9983 1.58925 11.022L3.79112 11.5463C3.86215 11.8188 3.95093 12.0766 4.05748 12.3195C4.16402 12.5624 4.2676 12.7786 4.36822 12.9682L3.1785 14.8877C3.10748 15.0181 3.11931 15.1277 3.21402 15.2166L4.26168 16.2652C4.37414 16.3718 4.48364 16.3867 4.59019 16.3096L6.5257 15.1188C6.71511 15.2373 6.93115 15.3499 7.17383 15.4565C7.42243 15.5572 7.68287 15.6402 7.95514 15.7053L8.48785 17.9093C8.51153 18.0455 8.59735 18.1137 8.74533 18.1137ZM9.5 13.3948C8.8785 13.3948 8.31028 13.2407 7.79533 12.9326C7.28629 12.6246 6.87788 12.2158 6.57009 11.7063C6.26231 11.1908 6.10841 10.6221 6.10841 10C6.10841 9.38385 6.26231 8.82102 6.57009 8.31151C6.87788 7.79607 7.28629 7.38728 7.79533 7.08513C8.31028 6.77705 8.8785 6.62301 9.5 6.62301C10.1215 6.62301 10.6868 6.77705 11.1958 7.08513C11.7107 7.38728 12.1192 7.79607 12.421 8.31151C12.7288 8.82102 12.8827 9.38385 12.8827 10C12.8827 10.6221 12.7288 11.1908 12.421 11.7063C12.1192 12.2217 11.7107 12.6335 11.1958 12.9415C10.6868 13.2437 10.1215 13.3948 9.5 13.3948ZM9.5 12.0173C9.86106 12.0173 10.1925 11.9255 10.4944 11.7418C10.7963 11.5582 11.036 11.3152 11.2136 11.0131C11.397 10.705 11.4888 10.3673 11.4888 10C11.4888 9.63268 11.397 9.29794 11.2136 8.99579C11.036 8.69364 10.7963 8.45369 10.4944 8.27596C10.1925 8.0923 9.86106 8.00047 9.5 8.00047C9.13302 8.00047 8.79564 8.0923 8.48785 8.27596C8.18598 8.45369 7.9433 8.69364 7.75981 8.99579C7.58224 9.29794 7.49346 9.63268 7.49346 10C7.49346 10.3732 7.58224 10.7139 7.75981 11.022C7.9433 11.3241 8.18598 11.567 8.48785 11.7507C8.79564 11.9284 9.13302 12.0173 9.5 12.0173Z" fill="black"/>
</svg>
