<svg width="19" height="20" viewBox="0 0 19 20" fill="none" xmlns="http://www.w3.org/2000/svg">
<path d="M9.5 19.5C8.20229 19.5 6.97908 19.2516 5.83039 18.7549C4.68791 18.2582 3.67892 17.5721 2.80343 16.6966C1.92794 15.8211 1.24183 14.8121 0.745098 13.6696C0.248366 12.5209 0 11.2977 0 10C0 8.70229 0.248366 7.48219 0.745098 6.33971C1.24183 5.19101 1.92484 4.17892 2.79412 3.30343C3.66961 2.42794 4.67859 1.74183 5.82108 1.2451C6.96977 0.748366 8.19297 0.5 9.49069 0.5C10.7884 0.5 12.0116 0.748366 13.1603 1.2451C14.309 1.74183 15.3211 2.42794 16.1966 3.30343C17.0721 4.17892 17.7582 5.19101 18.2549 6.33971C18.7516 7.48219 19 8.70229 19 10C19 11.2977 18.7516 12.5209 18.2549 13.6696C17.7582 14.8121 17.0721 15.8211 16.1966 16.6966C15.3211 17.5721 14.309 18.2582 13.1603 18.7549C12.0178 19.2516 10.7977 19.5 9.5 19.5ZM9.5 17.9167C10.599 17.9167 11.6266 17.7118 12.5828 17.302C13.5391 16.8922 14.3804 16.3271 15.1069 15.6069C15.8333 14.8804 16.3984 14.0391 16.802 13.0828C17.2118 12.1266 17.4167 11.099 17.4167 10C17.4167 8.90098 17.2118 7.87337 16.802 6.91716C16.3922 5.96095 15.824 5.11961 15.0975 4.39314C14.3773 3.66667 13.5359 3.10163 12.5735 2.69804C11.6173 2.28824 10.5897 2.08333 9.49069 2.08333C8.39167 2.08333 7.36405 2.28824 6.40784 2.69804C5.45163 3.10163 4.6134 3.66667 3.89314 4.39314C3.17288 5.11961 2.60784 5.96095 2.19804 6.91716C1.79444 7.87337 1.59265 8.90098 1.59265 10C1.59265 11.099 1.79444 12.1266 2.19804 13.0828C2.60784 14.0391 3.17288 14.8804 3.89314 15.6069C4.61961 16.3271 5.46095 16.8922 6.41716 17.302C7.37337 17.7118 8.40098 17.9167 9.5 17.9167ZM9.31373 11.9279C8.81699 11.9279 8.56863 11.6827 8.56863 11.1922C8.56863 11.1735 8.56863 11.1549 8.56863 11.1363C8.56863 11.1114 8.56863 11.0897 8.56863 11.0711C8.56863 10.6116 8.67729 10.2422 8.89461 9.96274C9.11814 9.68333 9.39755 9.42876 9.73284 9.19902C10.1426 8.9134 10.4469 8.67124 10.6456 8.47255C10.8443 8.26765 10.9436 8.00686 10.9436 7.6902C10.9436 7.33627 10.8163 7.05065 10.5618 6.83333C10.3072 6.6098 9.96569 6.49804 9.53726 6.49804C9.33235 6.49804 9.13987 6.53219 8.9598 6.60049C8.78595 6.66879 8.62761 6.76814 8.4848 6.89853C8.34199 7.02271 8.21471 7.17484 8.10294 7.3549L7.93529 7.57843C7.85458 7.6902 7.75833 7.78023 7.64657 7.84853C7.54101 7.91683 7.41062 7.95098 7.25539 7.95098C7.10016 7.95098 6.95425 7.8982 6.81765 7.79265C6.68105 7.68088 6.61275 7.51944 6.61275 7.30833C6.61275 7.22761 6.61895 7.15 6.63137 7.07549C6.64379 7.00098 6.66242 6.92647 6.68725 6.85196C6.81765 6.42353 7.13431 6.04788 7.63725 5.725C8.14641 5.39592 8.80147 5.23137 9.60245 5.23137C10.1302 5.23137 10.6176 5.32451 11.0647 5.51078C11.5118 5.69085 11.8719 5.95784 12.1451 6.31176C12.4245 6.66569 12.5642 7.10033 12.5642 7.61569C12.5642 8.17451 12.4183 8.61536 12.1265 8.93824C11.8346 9.26111 11.4652 9.57157 11.0181 9.86961C10.6891 10.0869 10.4469 10.2918 10.2917 10.4843C10.1364 10.6706 10.0588 10.8941 10.0588 11.1549C10.0588 11.1673 10.0588 11.1859 10.0588 11.2108C10.0588 11.2294 10.0588 11.248 10.0588 11.2667C10.0588 11.4467 9.99052 11.602 9.85392 11.7324C9.72353 11.8627 9.54346 11.9279 9.31373 11.9279ZM9.28578 14.7034C9.01879 14.7034 8.78595 14.6103 8.58725 14.424C8.38856 14.2315 8.28922 14.0018 8.28922 13.7348C8.28922 13.4678 8.38546 13.2412 8.57794 13.0549C8.77663 12.8624 9.01258 12.7662 9.28578 12.7662C9.55899 12.7662 9.79493 12.8593 9.99363 13.0456C10.1923 13.2319 10.2917 13.4616 10.2917 13.7348C10.2917 14.008 10.1923 14.2377 9.99363 14.424C9.79493 14.6103 9.55899 14.7034 9.28578 14.7034Z" fill="black"/>
</svg>
