<svg width="19" height="16" viewBox="0 0 19 16" fill="none" xmlns="http://www.w3.org/2000/svg">
<path d="M1.91852 7.65491C1.5679 7.65491 1.24691 7.56544 0.955556 7.3865C0.664198 7.20757 0.432099 6.96728 0.259259 6.66564C0.0864198 6.36401 0 6.02914 0 5.66104C0 5.29806 0.0864198 4.9683 0.259259 4.67178C0.432099 4.37014 0.664198 4.12986 0.955556 3.95092C1.24691 3.77198 1.5679 3.68252 1.91852 3.68252C2.26914 3.68252 2.59012 3.77454 2.88148 3.95859C3.17284 4.13753 3.40247 4.37781 3.57037 4.67945C3.74321 4.97597 3.82963 5.30317 3.82963 5.66104C3.82963 6.02914 3.74321 6.36401 3.57037 6.66564C3.40247 6.96728 3.17284 7.20757 2.88148 7.3865C2.59012 7.56544 2.26914 7.65491 1.91852 7.65491ZM1.91852 6.45859C2.13086 6.45859 2.30864 6.3819 2.45185 6.22853C2.6 6.07004 2.67407 5.88088 2.67407 5.66104C2.67407 5.45143 2.6 5.26994 2.45185 5.11656C2.3037 4.95808 2.12593 4.87883 1.91852 4.87883C1.71111 4.87883 1.53086 4.95552 1.37778 5.1089C1.22963 5.26227 1.15556 5.44632 1.15556 5.66104C1.15556 5.88088 1.22963 6.07004 1.37778 6.22853C1.53086 6.3819 1.71111 6.45859 1.91852 6.45859ZM9.5037 4.46472C9.15309 4.46472 8.8321 4.37526 8.54074 4.19632C8.24938 4.01738 8.01728 3.77965 7.84444 3.48313C7.67161 3.18149 7.58519 2.84663 7.58519 2.47853C7.58519 2.11554 7.66914 1.78579 7.83704 1.48926C8.00988 1.18763 8.24197 0.947342 8.53333 0.768405C8.82469 0.589468 9.14815 0.5 9.5037 0.5C9.85432 0.5 10.1728 0.589468 10.4593 0.768405C10.7506 0.947342 10.9827 1.18763 11.1556 1.48926C11.3284 1.78579 11.4148 2.11554 11.4148 2.47853C11.4148 2.84663 11.3284 3.18149 11.1556 3.48313C10.9827 3.77965 10.7506 4.01738 10.4593 4.19632C10.1728 4.37526 9.85432 4.46472 9.5037 4.46472ZM9.5037 3.2684C9.71605 3.2684 9.89383 3.19172 10.037 3.03834C10.1852 2.87986 10.2593 2.69325 10.2593 2.47853C10.2593 2.26892 10.1827 2.08742 10.0296 1.93405C9.88148 1.77556 9.70617 1.69632 9.5037 1.69632C9.2963 1.69632 9.11605 1.77301 8.96296 1.92638C8.81481 2.07464 8.74074 2.25869 8.74074 2.47853C8.74074 2.69325 8.81481 2.87986 8.96296 3.03834C9.11605 3.19172 9.2963 3.2684 9.5037 3.2684ZM17.0815 7.65491C16.7309 7.65491 16.4099 7.56544 16.1185 7.3865C15.8272 7.20757 15.5951 6.96728 15.4222 6.66564C15.2543 6.36401 15.1704 6.02914 15.1704 5.66104C15.1704 5.30317 15.2543 4.97597 15.4222 4.67945C15.5951 4.37781 15.8272 4.13753 16.1185 3.95859C16.4099 3.77454 16.7309 3.68252 17.0815 3.68252C17.4321 3.68252 17.7531 3.77198 18.0444 3.95092C18.3358 4.12986 18.5679 4.37014 18.7407 4.67178C18.9136 4.9683 19 5.29806 19 5.66104C19 6.02914 18.9136 6.36401 18.7407 6.66564C18.5679 6.96728 18.3358 7.20757 18.0444 7.3865C17.7531 7.56544 17.4321 7.65491 17.0815 7.65491ZM17.0815 6.45859C17.2889 6.45859 17.4667 6.3819 17.6148 6.22853C17.7679 6.07004 17.8444 5.88088 17.8444 5.66104C17.8444 5.44632 17.7679 5.26227 17.6148 5.1089C17.4667 4.95552 17.2889 4.87883 17.0815 4.87883C16.8741 4.87883 16.6963 4.95808 16.5481 5.11656C16.4 5.26994 16.3259 5.45143 16.3259 5.66104C16.3259 5.88088 16.3975 6.07004 16.5407 6.22853C16.6889 6.3819 16.8691 6.45859 17.0815 6.45859ZM2.8 7.14877L3.39259 6.16718L5.55556 7.54755C5.67901 7.62935 5.78025 7.66258 5.85926 7.64724C5.93827 7.62679 6.01235 7.568 6.08148 7.47086L8.63704 3.92025L9.6963 4.38804L6.8963 8.27607C6.64938 8.6135 6.35556 8.79755 6.01481 8.82822C5.67407 8.8589 5.38519 8.79755 5.14815 8.64417L2.8 7.14877ZM16.2 7.1411L13.8 8.66718C13.5877 8.80521 13.3136 8.8589 12.9778 8.82822C12.642 8.79755 12.3556 8.61605 12.1185 8.28374L9.31111 4.38037L10.363 3.90491L12.8963 7.44018C12.9704 7.54243 13.0494 7.60378 13.1333 7.62423C13.2173 7.64468 13.3259 7.61145 13.4593 7.52454L15.6074 6.15951L16.2 7.1411ZM3.73333 12.7699V11.612H15.2741V12.7699H3.73333ZM1.88148 7.31748L2.91852 6.82669L4.5037 13.5445C4.62716 14.0762 4.96049 14.342 5.5037 14.342H13.5037C14.042 14.342 14.3753 14.0762 14.5037 13.5445L16.0815 6.82669L17.1259 7.31748L15.6148 13.6902C15.4716 14.2935 15.2346 14.7459 14.9037 15.0475C14.5728 15.3492 14.1012 15.5 13.4889 15.5H5.51111C4.89877 15.5 4.42716 15.3492 4.0963 15.0475C3.77037 14.7459 3.5358 14.2935 3.39259 13.6902L1.88148 7.31748Z" fill="black"/>
</svg>
