<svg width="19" height="18" viewBox="0 0 19 18" fill="none" xmlns="http://www.w3.org/2000/svg">
<path d="M16.4623 17.5C17.3082 17.5 17.944 17.2938 18.3697 16.8815C18.7899 16.4692 19 15.8481 19 15.0182V2.98974C19 2.16511 18.7899 1.544 18.3697 1.1264C17.944 0.7088 17.3082 0.5 16.4623 0.5H7.76863C6.92274 0.5 6.28967 0.7088 5.86945 1.1264C5.44378 1.544 5.23094 2.16511 5.23094 2.98974V6.83535H6.5489V3.01353C6.5489 2.61707 6.65805 2.31312 6.87635 2.10168C7.08919 1.88495 7.40845 1.77659 7.83412 1.77659H16.3968C16.8225 1.77659 17.1445 1.88495 17.3628 2.10168C17.5756 2.31312 17.682 2.61707 17.682 3.01353V14.9944C17.682 15.3909 17.5756 15.6948 17.3628 15.9063C17.1445 16.1177 16.8225 16.2234 16.3968 16.2234H7.83412C7.40845 16.2234 7.08919 16.1177 6.87635 15.9063C6.65805 15.6948 6.5489 15.3909 6.5489 14.9944V11.1646H5.23094V15.0182C5.23094 15.8481 5.44378 16.4692 5.86945 16.8815C6.28967 17.2938 6.92274 17.5 7.76863 17.5H16.4623ZM11.4278 9.6264C11.597 9.6264 11.7444 9.56561 11.8699 9.44403C11.9954 9.31716 12.0582 9.16916 12.0582 9C12.0582 8.83085 11.9954 8.68284 11.8699 8.55597C11.7444 8.4291 11.597 8.36567 11.4278 8.36567H3.02068L1.79276 8.42118L2.37398 7.882L3.69194 6.67677C3.82292 6.56577 3.88841 6.4204 3.88841 6.24067C3.88841 6.0768 3.83657 5.94201 3.73287 5.83629C3.62373 5.72528 3.48456 5.66978 3.31538 5.66978C3.15712 5.66978 3.0125 5.73321 2.88152 5.86007L0.212839 8.54011C0.13098 8.6194 0.0764046 8.69605 0.049118 8.77006C0.0163727 8.84406 0 8.92071 0 9C0 9.07929 0.0163727 9.15594 0.049118 9.22994C0.0764046 9.30395 0.13098 9.3806 0.212839 9.45989L2.88152 12.1399C3.0125 12.2615 3.15712 12.3223 3.31538 12.3223C3.48456 12.3223 3.62373 12.2668 3.73287 12.1558C3.83657 12.0448 3.88841 11.9073 3.88841 11.7435C3.88841 11.569 3.82292 11.4263 3.69194 11.3153L2.37398 10.118L1.79276 9.57882L3.02068 9.6264H11.4278Z" fill="black"/>
</svg>
