<svg width="42" height="27" viewBox="0 0 42 27" fill="none" xmlns="http://www.w3.org/2000/svg">
<path d="M21.0077 27C18.9587 27 17.0172 26.7427 15.1833 26.2281C13.3597 25.724 11.6641 25.0572 10.0966 24.2275C8.53933 23.3874 7.14087 22.4632 5.90121 21.4551C4.66154 20.4469 3.60117 19.4387 2.72009 18.4306C1.839 17.4119 1.16282 16.472 0.691548 15.6109C0.230516 14.7392 0 14.0356 0 13.5C0 12.9644 0.230516 12.266 0.691548 11.4049C1.16282 10.5333 1.839 9.59335 2.72009 8.58518C3.60117 7.56651 4.66154 6.55309 5.90121 5.54492C7.15112 4.53676 8.5547 3.61785 10.112 2.78821C11.6795 1.94807 13.375 1.27596 15.1987 0.771879C17.0326 0.257293 18.9689 0 21.0077 0C23.067 0 25.0135 0.257293 26.8474 0.771879C28.6915 1.27596 30.3922 1.94807 31.9495 2.78821C33.517 3.61785 34.9155 4.53676 36.1449 5.54492C37.3846 6.55309 38.4398 7.56651 39.3106 8.58518C40.1815 9.59335 40.8474 10.5333 41.3085 11.4049C41.7695 12.266 42 12.9644 42 13.5C42 14.0356 41.7695 14.7392 41.3085 15.6109C40.8474 16.472 40.1815 17.4119 39.3106 18.4306C38.4398 19.4387 37.3846 20.4469 36.1449 21.4551C34.9155 22.4632 33.5221 23.3874 31.9649 24.2275C30.4076 25.0572 28.7069 25.724 26.8628 26.2281C25.0289 26.7427 23.0772 27 21.0077 27ZM21.0077 24.5111C22.6879 24.5111 24.3015 24.2958 25.8485 23.8652C27.4058 23.4347 28.8657 22.8676 30.2283 22.1639C31.5909 21.4498 32.8255 20.6727 33.9319 19.8326C35.0487 18.9924 36.0066 18.1628 36.8057 17.3436C37.6048 16.514 38.2195 15.7579 38.6498 15.0753C39.0904 14.3926 39.3106 13.8676 39.3106 13.5C39.3106 13.1849 39.0904 12.7019 38.6498 12.0508C38.2195 11.3996 37.6048 10.6593 36.8057 9.82964C36.0066 8.9895 35.0487 8.14411 33.9319 7.29347C32.8255 6.44282 31.5909 5.65519 30.2283 4.93057C28.8657 4.19545 27.4058 3.60735 25.8485 3.16628C24.3015 2.7147 22.6879 2.48891 21.0077 2.48891C19.3172 2.48891 17.6934 2.7147 16.1361 3.16628C14.5789 3.60735 13.1189 4.19545 11.7563 4.93057C10.3937 5.65519 9.15917 6.44282 8.05269 7.29347C6.94621 8.14411 5.98829 8.9895 5.17892 9.82964C4.3798 10.6593 3.76509 11.3996 3.3348 12.0508C2.9045 12.7019 2.68935 13.1849 2.68935 13.5C2.68935 13.8676 2.9045 14.3926 3.3348 15.0753C3.76509 15.7579 4.3798 16.514 5.17892 17.3436C5.98829 18.1628 6.94621 18.9924 8.05269 19.8326C9.15917 20.6727 10.3937 21.4498 11.7563 22.1639C13.1189 22.8676 14.5789 23.4347 16.1361 23.8652C17.6934 24.2958 19.3172 24.5111 21.0077 24.5111ZM21.0077 22.3215C19.7988 22.3215 18.6718 22.0904 17.6268 21.6284C16.5818 21.1663 15.6648 20.5309 14.876 19.7223C14.0871 18.9031 13.4673 17.9632 13.0165 16.9026C12.5759 15.8314 12.3557 14.6972 12.3557 13.5C12.3557 12.2713 12.5759 11.1214 13.0165 10.0502C13.4673 8.979 14.0871 8.04434 14.876 7.24621C15.6648 6.43757 16.5818 5.80747 17.6268 5.35589C18.6718 4.90432 19.7988 4.67853 21.0077 4.67853C22.1961 4.67853 23.3128 4.90432 24.3578 5.35589C25.4029 5.80747 26.3198 6.43757 27.1087 7.24621C27.8975 8.04434 28.5123 8.979 28.9528 10.0502C29.4036 11.1214 29.629 12.2713 29.629 13.5C29.629 14.6972 29.4036 15.8314 28.9528 16.9026C28.5123 17.9632 27.8975 18.9031 27.1087 19.7223C26.3198 20.5309 25.4029 21.1663 24.3578 21.6284C23.3128 22.0904 22.1961 22.3215 21.0077 22.3215ZM21.0077 16.43C21.7966 16.43 22.4727 16.1412 23.0362 15.5636C23.5997 14.986 23.8814 14.2981 23.8814 13.5C23.8814 12.6914 23.5997 12.0035 23.0362 11.4364C22.4727 10.8588 21.7966 10.57 21.0077 10.57C20.2086 10.57 19.5273 10.8588 18.9638 11.4364C18.4003 12.0035 18.1186 12.6914 18.1186 13.5C18.1186 14.2981 18.4003 14.986 18.9638 15.5636C19.5273 16.1412 20.2086 16.43 21.0077 16.43Z" fill="#4D4950"/>
</svg>
