<svg width="22" height="32" viewBox="0 0 22 32" fill="none" xmlns="http://www.w3.org/2000/svg">
<path d="M3.51562 31.3203C2.36979 31.3203 1.49479 31.0078 0.890625 30.3828C0.296875 29.7682 0 28.8411 0 27.6016V16.8359C0 15.6068 0.296875 14.6849 0.890625 14.0703C1.49479 13.4453 2.36979 13.1328 3.51562 13.1328H17.8125C18.9583 13.1328 19.8281 13.4453 20.4219 14.0703C21.026 14.6849 21.3281 15.6068 21.3281 16.8359V27.6016C21.3281 28.8411 21.026 29.7682 20.4219 30.3828C19.8281 31.0078 18.9583 31.3203 17.8125 31.3203H3.51562ZM3.59375 28.9609H17.7344C18.0781 28.9609 18.3385 28.8568 18.5156 28.6484C18.7031 28.4505 18.7969 28.1589 18.7969 27.7734V16.6641C18.7969 16.2786 18.7031 15.987 18.5156 15.7891C18.3385 15.5911 18.0781 15.4922 17.7344 15.4922H3.59375C3.26042 15.4922 3 15.5911 2.8125 15.7891C2.625 15.987 2.53125 16.2786 2.53125 16.6641V27.7734C2.53125 28.1589 2.625 28.4505 2.8125 28.6484C3 28.8568 3.26042 28.9609 3.59375 28.9609ZM2.73438 14.3359V9.39844C2.73438 7.4401 3.10938 5.8151 3.85938 4.52344C4.61979 3.23177 5.60417 2.26823 6.8125 1.63281C8.02083 0.997396 9.30208 0.679688 10.6562 0.679688C12.0208 0.679688 13.3073 0.997396 14.5156 1.63281C15.724 2.26823 16.7031 3.23177 17.4531 4.52344C18.2135 5.8151 18.5938 7.4401 18.5938 9.39844V14.3359H16.125V9.07031C16.125 7.75781 15.8698 6.65365 15.3594 5.75781C14.8594 4.86198 14.1927 4.1849 13.3594 3.72656C12.5365 3.26823 11.6354 3.03906 10.6562 3.03906C9.6875 3.03906 8.78646 3.26823 7.95312 3.72656C7.13021 4.1849 6.46875 4.86198 5.96875 5.75781C5.46875 6.65365 5.21875 7.75781 5.21875 9.07031V14.3359H2.73438Z" fill="#4D4950"/>
</svg>
