<svg width="25" height="25" viewBox="0 0 25 25" fill="none" xmlns="http://www.w3.org/2000/svg">
<g clip-path="url(#clip0_390_2452)">
<path d="M22.2222 0.173584C22.9167 0.173584 23.505 0.414711 23.9873 0.896964C24.4695 1.37922 24.7106 1.94828 24.7106 2.60414V16.2037C24.7106 16.8981 24.4695 17.4865 23.9873 17.9687C23.505 18.451 22.9167 18.6921 22.2222 18.6921H17.3032V24.8264L12.3264 22.3958L7.40741 24.8264V18.6921H2.48843C1.79398 18.6921 1.20563 18.451 0.72338 17.9687C0.241127 17.4865 0 16.8981 0 16.2037V2.60414C0 1.94828 0.241127 1.37922 0.72338 0.896964C1.20563 0.414711 1.79398 0.173584 2.48843 0.173584H22.2222ZM22.2222 16.2037V13.7153H2.48843V16.2037H22.2222ZM22.2222 10.0115V2.60414H2.48843V10.0115H22.2222Z" fill="#FFB800"/>
</g>
<defs>
<clipPath id="clip0_390_2452">
<rect width="25" height="25" fill="white"/>
</clipPath>
</defs>
</svg>
