<svg width="198" height="138" viewBox="0 0 198 138" fill="none" xmlns="http://www.w3.org/2000/svg">
<g filter="url(#filter0_d_1427_1461)">
<path d="M60.278 48V35.4H62.528L66.794 43.788L71.042 35.4H73.292V48H71.384V38.694L67.532 46.2H66.056L62.186 38.712V48H60.278ZM79.0742 48.216C77.9942 48.216 77.1422 47.88 76.5182 47.208C75.9062 46.536 75.6002 45.534 75.6002 44.202V39.072H77.5082V44.004C77.5082 45.732 78.2162 46.596 79.6322 46.596C80.3402 46.596 80.9222 46.344 81.3782 45.84C81.8342 45.336 82.0622 44.616 82.0622 43.68V39.072H83.9702V48H82.2782L82.1342 46.434C81.8582 46.986 81.4502 47.424 80.9102 47.748C80.3822 48.06 79.7702 48.216 79.0742 48.216ZM86.3974 48V39.072H88.1074L88.2694 40.764C88.5814 40.176 89.0134 39.714 89.5654 39.378C90.1294 39.03 90.8074 38.856 91.5994 38.856V40.854H91.0774C90.5494 40.854 90.0754 40.944 89.6554 41.124C89.2474 41.292 88.9174 41.586 88.6654 42.006C88.4254 42.414 88.3054 42.984 88.3054 43.716V48H86.3974ZM96.2593 48.216C95.5033 48.216 94.8793 48.09 94.3873 47.838C93.8953 47.586 93.5293 47.256 93.2893 46.848C93.0493 46.428 92.9293 45.972 92.9293 45.48C92.9293 44.616 93.2653 43.932 93.9373 43.428C94.6093 42.924 95.5693 42.672 96.8173 42.672H99.1573V42.51C99.1573 41.814 98.9653 41.292 98.5813 40.944C98.2093 40.596 97.7233 40.422 97.1233 40.422C96.5953 40.422 96.1333 40.554 95.7373 40.818C95.3533 41.07 95.1193 41.448 95.0353 41.952H93.1273C93.1873 41.304 93.4033 40.752 93.7753 40.296C94.1593 39.828 94.6393 39.474 95.2153 39.234C95.8033 38.982 96.4453 38.856 97.1413 38.856C98.3893 38.856 99.3553 39.186 100.039 39.846C100.723 40.494 101.065 41.382 101.065 42.51V48H99.4093L99.2473 46.47C98.9953 46.962 98.6293 47.376 98.1493 47.712C97.6693 48.048 97.0393 48.216 96.2593 48.216ZM96.6373 46.668C97.1533 46.668 97.5853 46.548 97.9333 46.308C98.2933 46.056 98.5693 45.726 98.7613 45.318C98.9653 44.91 99.0913 44.46 99.1393 43.968H97.0153C96.2593 43.968 95.7193 44.1 95.3953 44.364C95.0833 44.628 94.9273 44.958 94.9273 45.354C94.9273 45.762 95.0773 46.086 95.3773 46.326C95.6893 46.554 96.1093 46.668 96.6373 46.668ZM107.358 48.216C106.494 48.216 105.732 48.012 105.072 47.604C104.412 47.196 103.896 46.638 103.524 45.93C103.152 45.222 102.966 44.418 102.966 43.518C102.966 42.618 103.152 41.82 103.524 41.124C103.896 40.416 104.412 39.864 105.072 39.468C105.744 39.06 106.512 38.856 107.376 38.856C108.084 38.856 108.702 38.994 109.23 39.27C109.77 39.546 110.19 39.936 110.49 40.44V35.04H112.398V48H110.688L110.49 46.614C110.202 47.034 109.806 47.406 109.302 47.73C108.798 48.054 108.15 48.216 107.358 48.216ZM107.7 46.56C108.516 46.56 109.182 46.278 109.698 45.714C110.226 45.15 110.49 44.424 110.49 43.536C110.49 42.636 110.226 41.91 109.698 41.358C109.182 40.794 108.516 40.512 107.7 40.512C106.884 40.512 106.212 40.794 105.684 41.358C105.156 41.91 104.892 42.636 104.892 43.536C104.892 44.124 105.012 44.646 105.252 45.102C105.492 45.558 105.822 45.918 106.242 46.182C106.674 46.434 107.16 46.56 107.7 46.56ZM124.883 48.216C123.695 48.216 122.657 47.946 121.769 47.406C120.881 46.866 120.191 46.11 119.699 45.138C119.207 44.166 118.961 43.032 118.961 41.736C118.961 40.452 119.213 39.318 119.717 38.334C120.221 37.35 120.935 36.582 121.859 36.03C122.795 35.466 123.899 35.184 125.171 35.184C126.611 35.184 127.811 35.532 128.771 36.228C129.731 36.924 130.355 37.884 130.643 39.108H128.483C128.291 38.436 127.913 37.908 127.349 37.524C126.785 37.14 126.059 36.948 125.171 36.948C123.851 36.948 122.813 37.374 122.057 38.226C121.301 39.078 120.923 40.254 120.923 41.754C120.923 43.254 121.295 44.424 122.039 45.264C122.783 46.104 123.773 46.524 125.009 46.524C126.257 46.524 127.193 46.17 127.817 45.462C128.453 44.754 128.825 43.812 128.933 42.636H125.513V41.16H130.859V48H129.113L128.951 46.146C128.531 46.806 128.003 47.316 127.367 47.676C126.731 48.036 125.903 48.216 124.883 48.216ZM133.858 48.108C133.498 48.108 133.198 47.994 132.958 47.766C132.73 47.526 132.616 47.244 132.616 46.92C132.616 46.584 132.73 46.302 132.958 46.074C133.198 45.834 133.498 45.714 133.858 45.714C134.218 45.714 134.512 45.834 134.74 46.074C134.968 46.302 135.082 46.584 135.082 46.92C135.082 47.244 134.968 47.526 134.74 47.766C134.512 47.994 134.218 48.108 133.858 48.108Z" fill="#8F00FF"/>
<path fill-rule="evenodd" clip-rule="evenodd" d="M127 56C123.686 56 121 58.6863 121 62C121 63.5217 121.566 64.911 122.5 65.9687V73.25C122.5 73.5174 122.642 73.7645 122.874 73.8987C123.105 74.0329 123.39 74.0338 123.622 73.9012L127 71.971L130.378 73.9012C130.61 74.0338 130.895 74.0329 131.126 73.8987C131.358 73.7645 131.5 73.5174 131.5 73.25V65.9687C132.434 64.911 133 63.5217 133 62C133 58.6863 130.314 56 127 56ZM122.5 62C122.5 59.5147 124.515 57.5 127 57.5C129.485 57.5 131.5 59.5147 131.5 62C131.5 64.4853 129.485 66.5 127 66.5C124.515 66.5 122.5 64.4853 122.5 62ZM130 67.1973C129.117 67.7078 128.093 68 127 68C125.907 68 124.883 67.7078 124 67.1973V71.9576L126.628 70.456C126.858 70.3242 127.142 70.3242 127.372 70.456L130 71.9576V67.1973Z" fill="#8F00FF"/>
<path d="M85.656 71V60.44L86.344 61.192H83.128V59.8H87.24V71H85.656ZM91.5779 71V60.44L92.2659 61.192H89.0499V59.8H93.1619V71H91.5779ZM99.0358 71.128C98.2464 71.128 97.4784 71.0053 96.7318 70.76C95.9958 70.5147 95.3931 70.184 94.9238 69.768L95.6598 68.504C96.0331 68.856 96.5184 69.144 97.1158 69.368C97.7131 69.592 98.3531 69.704 99.0358 69.704C99.8678 69.704 100.513 69.528 100.972 69.176C101.441 68.8133 101.676 68.328 101.676 67.72C101.676 67.1333 101.452 66.664 101.004 66.312C100.566 65.9493 99.8678 65.768 98.9078 65.768H98.0118V64.648L101.34 60.552L101.564 61.192H95.4358V59.8H102.828V60.888L99.5158 64.968L98.6838 64.472H99.2118C100.566 64.472 101.58 64.776 102.252 65.384C102.934 65.992 103.276 66.7653 103.276 67.704C103.276 68.3333 103.121 68.9093 102.812 69.432C102.502 69.9547 102.033 70.3707 101.404 70.68C100.785 70.9787 99.9958 71.128 99.0358 71.128ZM109.344 71.128C108.469 71.128 107.685 70.904 106.992 70.456C106.309 70.008 105.765 69.3573 105.36 68.504C104.965 67.6507 104.768 66.616 104.768 65.4C104.768 64.184 104.965 63.1493 105.36 62.296C105.765 61.4427 106.309 60.792 106.992 60.344C107.685 59.896 108.469 59.672 109.344 59.672C110.208 59.672 110.987 59.896 111.68 60.344C112.373 60.792 112.917 61.4427 113.312 62.296C113.707 63.1493 113.904 64.184 113.904 65.4C113.904 66.616 113.707 67.6507 113.312 68.504C112.917 69.3573 112.373 70.008 111.68 70.456C110.987 70.904 110.208 71.128 109.344 71.128ZM109.344 69.704C109.931 69.704 110.443 69.544 110.88 69.224C111.328 68.904 111.675 68.424 111.92 67.784C112.176 67.144 112.304 66.3493 112.304 65.4C112.304 64.4507 112.176 63.656 111.92 63.016C111.675 62.376 111.328 61.896 110.88 61.576C110.443 61.256 109.931 61.096 109.344 61.096C108.757 61.096 108.24 61.256 107.792 61.576C107.344 61.896 106.992 62.376 106.736 63.016C106.491 63.656 106.368 64.4507 106.368 65.4C106.368 66.3493 106.491 67.144 106.736 67.784C106.992 68.424 107.344 68.904 107.792 69.224C108.24 69.544 108.757 69.704 109.344 69.704Z" fill="#8F00FF"/>
</g>
<defs>
<filter id="filter0_d_1427_1461" x="0.27832" y="-20.96" width="195.722" height="158.96" filterUnits="userSpaceOnUse" color-interpolation-filters="sRGB">
<feFlood flood-opacity="0" result="BackgroundImageFix"/>
<feColorMatrix in="SourceAlpha" type="matrix" values="0 0 0 0 0 0 0 0 0 0 0 0 0 0 0 0 0 0 127 0" result="hardAlpha"/>
<feOffset dy="4"/>
<feGaussianBlur stdDeviation="30"/>
<feComposite in2="hardAlpha" operator="out"/>
<feColorMatrix type="matrix" values="0 0 0 0 0 0 0 0 0 0 0 0 0 0 0 0 0 0 0.15 0"/>
<feBlend mode="normal" in2="BackgroundImageFix" result="effect1_dropShadow_1427_1461"/>
<feBlend mode="normal" in="SourceGraphic" in2="effect1_dropShadow_1427_1461" result="shape"/>
</filter>
</defs>
</svg>
