<svg width="25" height="25" viewBox="0 0 25 25" fill="none" xmlns="http://www.w3.org/2000/svg">
<path fill-rule="evenodd" clip-rule="evenodd" d="M2.34375 12.5C2.34375 6.89275 6.89275 2.34375 12.5 2.34375C18.1073 2.34375 22.6562 6.89275 22.6562 12.5C22.6562 18.1073 18.1073 22.6562 12.5 22.6562C6.89275 22.6562 2.34375 18.1073 2.34375 12.5ZM12.5 3.90625C7.75569 3.90625 3.90625 7.75569 3.90625 12.5C3.90625 17.2443 7.75569 21.0938 12.5 21.0938C17.2443 21.0938 21.0938 17.2443 21.0938 12.5C21.0938 7.75569 17.2443 3.90625 12.5 3.90625Z" fill="#FF0000"/>
<path d="M12.5003 17.5781C12.3435 17.578 12.1904 17.5307 12.0608 17.4424C10.1419 16.1396 9.31084 15.2451 8.85283 14.688C7.87627 13.498 7.40849 12.2759 7.42217 10.9526C7.4373 9.43604 8.65361 8.20215 10.1336 8.20215C11.1297 8.20215 11.8426 8.72119 12.2869 9.19873C12.3143 9.22769 12.3473 9.25076 12.3839 9.26653C12.4205 9.2823 12.4599 9.29043 12.4998 9.29043C12.5397 9.29043 12.5791 9.2823 12.6157 9.26653C12.6523 9.25076 12.6853 9.22769 12.7127 9.19873C13.1575 8.72119 13.8699 8.20215 14.866 8.20215C16.346 8.20215 17.5623 9.43604 17.5774 10.9526C17.5911 12.2759 17.1228 13.498 16.1468 14.688C15.6888 15.2466 14.8577 16.1396 12.9388 17.4424C12.8095 17.5305 12.6567 17.5778 12.5003 17.5781Z" fill="#FF0000"/>
</svg>
