<svg width="25" height="25" viewBox="0 0 25 25" fill="none" xmlns="http://www.w3.org/2000/svg">
<path d="M12.4997 2.08333C6.75592 2.08333 2.08301 6.75625 2.08301 12.5V16.8156C2.08301 17.8823 3.01738 18.75 4.16634 18.75H5.20801C5.48428 18.75 5.74923 18.6403 5.94458 18.4449C6.13993 18.2496 6.24967 17.9846 6.24967 17.7083V12.351C6.24967 12.0748 6.13993 11.8098 5.94458 11.6145C5.74923 11.4191 5.48428 11.3094 5.20801 11.3094H4.26217C4.84134 7.27813 8.31009 4.16667 12.4997 4.16667C16.6893 4.16667 20.158 7.27813 20.7372 11.3094H19.7913C19.5151 11.3094 19.2501 11.4191 19.0548 11.6145C18.8594 11.8098 18.7497 12.0748 18.7497 12.351V18.75C18.7497 19.899 17.8153 20.8333 16.6663 20.8333H14.583V19.7917H10.4163V22.9167H16.6663C18.9643 22.9167 20.833 21.0479 20.833 18.75C21.982 18.75 22.9163 17.8823 22.9163 16.8156V12.5C22.9163 6.75625 18.2434 2.08333 12.4997 2.08333Z" fill="#0057FF"/>
</svg>
