<svg width="25" height="25" viewBox="0 0 25 25" fill="none" xmlns="http://www.w3.org/2000/svg">
<path fill-rule="evenodd" clip-rule="evenodd" d="M2.34375 12.5C2.34375 6.89275 6.89275 2.34375 12.5 2.34375C18.1073 2.34375 22.6562 6.89275 22.6562 12.5C22.6562 18.1073 18.1073 22.6562 12.5 22.6562C6.89275 22.6562 2.34375 18.1073 2.34375 12.5ZM12.5 3.90625C7.75569 3.90625 3.90625 7.75569 3.90625 12.5C3.90625 17.2443 7.75569 21.0938 12.5 21.0938C17.2443 21.0938 21.0938 17.2443 21.0938 12.5C21.0938 7.75569 17.2443 3.90625 12.5 3.90625Z" fill="#8F00FF"/>
<path d="M17.8317 15.2832C17.0343 14.3389 16.4714 13.9419 16.4714 11.3379C16.4714 8.95215 15.2126 8.104 14.1764 7.69189C14.105 7.66207 14.0405 7.61766 13.9872 7.56149C13.9339 7.50533 13.8929 7.43865 13.8669 7.36572C13.6857 6.76758 13.1774 6.25 12.4997 6.25C11.8219 6.25 11.3127 6.76758 11.1325 7.36621C11.1066 7.43915 11.0657 7.50585 11.0125 7.56203C10.9593 7.61821 10.8948 7.66261 10.8234 7.69238C9.7863 8.10547 8.52848 8.95215 8.52848 11.3384C8.52848 13.9424 7.96501 14.3394 7.16764 15.2837C6.83708 15.6743 7.13591 16.4067 7.71403 16.4067H17.2848C17.8595 16.4062 18.1608 15.6738 17.8317 15.2832Z" fill="#8F00FF"/>
<path d="M10.754 17.1875C10.7265 17.1874 10.6993 17.193 10.6742 17.2041C10.6491 17.2151 10.6265 17.2314 10.6081 17.2518C10.5897 17.2721 10.5758 17.2962 10.5672 17.3223C10.5587 17.3484 10.5558 17.376 10.5587 17.4033C10.6686 18.3174 11.4801 18.75 12.5001 18.75C13.5094 18.75 14.3136 18.3032 14.4366 17.4063C14.44 17.3787 14.4374 17.3508 14.4291 17.3243C14.4208 17.2978 14.4069 17.2734 14.3884 17.2527C14.3699 17.232 14.3473 17.2155 14.3219 17.2043C14.2965 17.193 14.2691 17.1873 14.2413 17.1875H10.754Z" fill="#8F00FF"/>
</svg>
