<svg width="25" height="25" viewBox="0 0 25 25" fill="none" xmlns="http://www.w3.org/2000/svg">
<path d="M3.125 15.625V17.1875H6.70781L1.5625 22.3328L2.66719 23.4375L7.8125 18.2922V21.875H9.375V15.625H3.125Z" fill="#8F00FF"/>
<path d="M21.875 9.375H17.1875C16.7732 9.37459 16.376 9.20983 16.0831 8.9169C15.7902 8.62396 15.6254 8.22677 15.625 7.8125V3.125C15.6254 2.71073 15.7902 2.31354 16.0831 2.0206C16.376 1.72767 16.7732 1.56291 17.1875 1.5625H21.875C22.2893 1.56291 22.6865 1.72767 22.9794 2.0206C23.2723 2.31354 23.4371 2.71073 23.4375 3.125V7.8125C23.4371 8.22677 23.2723 8.62396 22.9794 8.9169C22.6865 9.20983 22.2893 9.37459 21.875 9.375ZM17.1875 3.125V7.8125H21.875V3.125H17.1875Z" fill="#8F00FF"/>
<path d="M18.75 20.3125H12.5V18.75H18.75V13.2812H6.25C5.83573 13.2808 5.43854 13.1161 5.1456 12.8231C4.85267 12.5302 4.68791 12.133 4.6875 11.7188V6.25C4.68791 5.83573 4.85267 5.43854 5.1456 5.1456C5.43854 4.85267 5.83573 4.68791 6.25 4.6875H14.0625V6.25H6.25V11.7188H18.75C19.1643 11.7192 19.5615 11.8839 19.8544 12.1769C20.1473 12.4698 20.3121 12.867 20.3125 13.2812V18.75C20.3121 19.1643 20.1473 19.5615 19.8544 19.8544C19.5615 20.1473 19.1643 20.3121 18.75 20.3125Z" fill="#8F00FF"/>
</svg>
