<svg width="21" height="21" viewBox="0 0 21 21" fill="none" xmlns="http://www.w3.org/2000/svg">
<path fill-rule="evenodd" clip-rule="evenodd" d="M0.125 9.76043C0.125 4.43894 4.43892 0.125015 9.76042 0.125015C15.0819 0.125015 19.3958 4.43894 19.3958 9.76043C19.3958 11.158 19.144 12.2354 18.8825 12.9762C18.7575 13.3303 18.6307 13.6066 18.5289 13.8036L20.3974 19.4092C20.491 19.6899 20.4179 19.9994 20.2087 20.2087C19.9994 20.4179 19.6899 20.491 19.4092 20.3974L13.8119 18.5316C13.62 18.634 13.3544 18.7587 13.0131 18.8812C12.2781 19.145 11.1993 19.3958 9.76042 19.3958C4.43892 19.3958 0.125 15.0819 0.125 9.76043ZM13.2544 17.0488L13.255 17.0484L13.2561 17.0476L13.2579 17.0463L13.2595 17.0451L13.2602 17.0446L13.2608 17.0442C13.2608 17.0442 13.2605 17.0443 13.26 17.0447C13.2599 17.0448 13.2597 17.0449 13.2595 17.0451C13.2567 17.047 13.249 17.0522 13.2366 17.0602C13.2118 17.0762 13.1677 17.1033 13.1041 17.1381C12.977 17.2076 12.7716 17.3078 12.4853 17.4105C11.9143 17.6155 11.0139 17.8333 9.76042 17.8333C5.30187 17.8333 1.6875 14.219 1.6875 9.76043C1.6875 5.30188 5.30187 1.68752 9.76042 1.68752C14.2189 1.68752 17.8333 5.30188 17.8333 9.76043C17.8333 10.967 17.6164 11.8688 17.4091 12.4561C17.3053 12.7504 17.2035 12.9668 17.1316 13.1037C17.0957 13.1722 17.0674 13.2208 17.05 13.2493C17.0414 13.2635 17.0355 13.2727 17.0328 13.2769L17.0323 13.2776L17.0312 13.2793C17.031 13.2796 17.0311 13.2794 17.0315 13.2788C17.0318 13.2784 17.0322 13.2778 17.0328 13.2769M17.0344 13.2746C17.0344 13.2746 17.0344 13.2746 17.0344 13.2746L17.0342 13.2749C17.0342 13.2748 17.0343 13.2747 17.0344 13.2746ZM17.0335 13.2759L17.0333 13.2761L17.0333 13.2762C17.0334 13.2761 17.0334 13.276 17.0335 13.2759ZM4.8125 9.76043C4.8125 9.32896 5.16228 8.97918 5.59375 8.97918H5.60417C6.03564 8.97918 6.38542 9.32896 6.38542 9.76043C6.38542 10.1919 6.03564 10.5417 5.60417 10.5417H5.59375C5.16228 10.5417 4.8125 10.1919 4.8125 9.76043ZM8.97917 9.76043C8.97917 9.32896 9.32894 8.97918 9.76042 8.97918H9.77083C10.2023 8.97918 10.5521 9.32896 10.5521 9.76043C10.5521 10.1919 10.2023 10.5417 9.77083 10.5417H9.76042C9.32894 10.5417 8.97917 10.1919 8.97917 9.76043ZM13.1458 9.76043C13.1458 9.32896 13.4956 8.97918 13.9271 8.97918H13.9375C14.369 8.97918 14.7188 9.32896 14.7188 9.76043C14.7188 10.1919 14.369 10.5417 13.9375 10.5417H13.9271C13.4956 10.5417 13.1458 10.1919 13.1458 9.76043Z" fill="#8F00FF"/>
</svg>
