<svg width="30" height="30" viewBox="0 0 30 30" fill="none" xmlns="http://www.w3.org/2000/svg">
<path d="M25 5L25 10.0125L27.5 10.0125L27.5 2.5L20 2.5L20 5L25 5ZM10 5L10 2.5L2.5 2.5L2.5 10.0125L5 10.0125L5 5L10 5ZM5 25L5 20L2.5 20L2.5 27.5L10 27.5L10 25L5 25ZM25 20L25 25L20 25L20 27.5L27.5 27.5L27.5 20L25 20Z" fill="#8F00FF"/>
<path d="M16.25 6.25L16.25 13.75L23.75 13.75L23.75 6.25L16.25 6.25ZM21.25 8.75L21.25 11.25L18.75 11.25L18.75 8.75L21.25 8.75ZM6.25 6.25L6.25 13.75L13.75 13.75L13.75 6.25L6.25 6.25ZM11.25 8.75L11.25 11.25L8.75 11.25L8.75 8.75L11.25 8.75ZM23.75 23.75L23.75 16.25L16.25 16.25L16.25 23.75L23.75 23.75ZM18.75 21.25L18.75 18.75L21.25 18.75L21.25 21.25L18.75 21.25ZM13.75 16.2625L13.75 18.7625L11.25 18.7625L11.25 16.2625L13.75 16.2625ZM11.25 18.7625L11.25 21.2625L8.75 21.2625L8.75 18.7625L11.25 18.7625ZM8.75 21.2625L8.75 23.7625L6.25 23.7625L6.25 21.2625L8.75 21.2625ZM13.75 21.2625L13.75 23.7625L11.25 23.7625L11.25 21.2625L13.75 21.2625Z" fill="#8F00FF"/>
</svg>
