<svg width="22" height="21" viewBox="0 0 22 21" fill="none" xmlns="http://www.w3.org/2000/svg">
<path fill-rule="evenodd" clip-rule="evenodd" d="M9.7573 0C4.73848 0 0.669922 4.02944 0.669922 9C0.669922 13.9706 4.73848 18 9.7573 18C11.9029 18 13.8749 17.2635 15.4295 16.0319L20.1501 20.7071C20.5444 21.0976 21.1838 21.0976 21.5781 20.7071C21.9724 20.3166 21.9724 19.6834 21.5781 19.2929L16.8575 14.6177C18.1011 13.078 18.8447 11.125 18.8447 9C18.8447 4.02944 14.7761 0 9.7573 0ZM2.68934 9C2.68934 5.13401 5.85377 2 9.7573 2C13.6608 2 16.8253 5.13401 16.8253 9C16.8253 12.866 13.6608 16 9.7573 16C5.85377 16 2.68934 12.866 2.68934 9Z" fill="#505050"/>
</svg>
