<svg width="25" height="25" viewBox="0 0 25 25" fill="none" xmlns="http://www.w3.org/2000/svg">
<path d="M10.9375 12.9609L8.91406 10.9375L7.8125 12.0391L10.9375 15.1641L17.1875 8.91406L16.0859 7.8125L10.9375 12.9609Z" fill="#8F00FF"/>
<path d="M12.5 23.4375L7.675 20.8648C6.29948 20.1331 5.1492 19.0405 4.3476 17.7045C3.546 16.3684 3.12335 14.8393 3.125 13.2812V3.125C3.12542 2.71073 3.29017 2.31354 3.58311 2.0206C3.87604 1.72767 4.27323 1.56291 4.6875 1.5625H20.3125C20.7268 1.56291 21.124 1.72767 21.4169 2.0206C21.7098 2.31354 21.8746 2.71073 21.875 3.125V13.2812C21.8767 14.8393 21.454 16.3684 20.6524 17.7045C19.8508 19.0405 18.7005 20.1331 17.325 20.8648L12.5 23.4375ZM4.6875 3.125V13.2812C4.68621 14.5561 5.03212 15.8072 5.6881 16.9004C6.34409 17.9935 7.28538 18.8873 8.41094 19.4859L12.5 21.6664L16.5891 19.4867C17.7147 18.888 18.6561 17.9941 19.3121 16.9008C19.9681 15.8075 20.3139 14.5562 20.3125 13.2812V3.125H4.6875Z" fill="#8F00FF"/>
</svg>
