<svg width="25" height="25" viewBox="0 0 25 25" fill="none" xmlns="http://www.w3.org/2000/svg">
<g clip-path="url(#clip0_369_596)">
<path fill-rule="evenodd" clip-rule="evenodd" d="M13.3178 0.468719C14.4003 0.468719 15.3302 1.21401 15.5338 2.24473L15.6244 2.70307C15.9803 4.5046 17.9023 5.58043 19.6895 4.97853L20.1444 4.82534C21.1669 4.48098 22.2976 4.88913 22.8388 5.79796L23.6563 7.17067C24.1975 8.07953 23.9967 9.23297 23.1778 9.91929L22.8136 10.2245C21.3823 11.4241 21.3823 13.5758 22.8136 14.7754L23.1778 15.0806C23.9967 15.767 24.1975 16.9204 23.6563 17.8293L22.8388 19.2019C22.2976 20.1108 21.1669 20.5189 20.1443 20.1745L19.6896 20.0214C17.9023 19.4194 15.9803 20.4952 15.6244 22.2968L15.5338 22.7552C15.3302 23.7859 14.4003 24.5312 13.3178 24.5312H11.6828C10.6004 24.5312 9.67045 23.786 9.46679 22.7553L9.37618 22.2967C9.02022 20.4952 7.09819 19.4194 5.31097 20.0214L4.85636 20.1745C3.83383 20.5189 2.70308 20.1108 2.16184 19.2019L1.34439 17.8292C0.803158 16.9204 1.00392 15.767 1.82279 15.0806L2.18701 14.7754C3.61828 13.5758 3.61828 11.4242 2.18701 10.2246L1.82279 9.9193C1.00392 9.23297 0.803158 8.07955 1.34439 7.17071L2.16187 5.79798C2.7031 4.88914 3.8338 4.48099 4.85632 4.82537L5.31106 4.97852C7.09825 5.58043 9.02021 4.50467 9.37618 2.70318L9.46678 2.24465C9.67044 1.21397 10.6004 0.468719 11.6828 0.468719H13.3178ZM12.5003 15.9375C14.3988 15.9375 15.9378 14.3984 15.9378 12.5C15.9378 10.6015 14.3988 9.06247 12.5003 9.06247C10.6018 9.06247 9.0628 10.6015 9.0628 12.5C9.0628 14.3984 10.6018 15.9375 12.5003 15.9375Z" stroke="black" stroke-width="2"/>
</g>
<defs>
<clipPath id="clip0_369_596">
<rect width="25" height="25" fill="white"/>
</clipPath>
</defs>
</svg>
