<svg width="33" height="36" viewBox="0 0 33 36" fill="none" xmlns="http://www.w3.org/2000/svg">
<path d="M26.7501 23C25.8145 23.0047 24.8918 23.2194 24.0502 23.6283C23.2086 24.0372 22.4696 24.6299 21.8876 25.3625L12.7501 19.65C13.0831 18.5752 13.0831 17.4248 12.7501 16.35L21.8876 10.6375C22.815 11.7859 24.119 12.569 25.5685 12.848C27.018 13.1271 28.5195 12.8841 29.807 12.162C31.0945 11.44 32.0849 10.2856 32.6028 8.90332C33.1206 7.52102 33.1325 6.00003 32.6363 4.6098C32.1401 3.21957 31.1679 2.04984 29.8918 1.3078C28.6158 0.565762 27.1182 0.299324 25.6646 0.555681C24.2109 0.812039 22.8948 1.57465 21.9496 2.70841C21.0043 3.84218 20.4908 5.27392 20.5001 6.75001C20.506 7.30899 20.5902 7.86438 20.7501 8.40001L11.6126 14.1125C10.8059 13.097 9.70328 12.3576 8.45755 11.9968C7.21181 11.6359 5.88469 11.6716 4.66012 12.0988C3.43556 12.526 2.37422 13.3235 1.62322 14.3809C0.872214 15.4383 0.46875 16.7031 0.46875 18C0.46875 19.2969 0.872214 20.5618 1.62322 21.6191C2.37422 22.6765 3.43556 23.4741 4.66012 23.9012C5.88469 24.3284 7.21181 24.3641 8.45755 24.0033C9.70328 23.6425 10.8059 22.903 11.6126 21.8875L20.7501 27.6C20.5902 28.1356 20.506 28.691 20.5001 29.25C20.5001 30.4861 20.8667 31.6945 21.5534 32.7223C22.2402 33.7501 23.2163 34.5512 24.3583 35.0243C25.5004 35.4973 26.757 35.6211 27.9694 35.3799C29.1818 35.1388 30.2954 34.5435 31.1695 33.6694C32.0436 32.7954 32.6389 31.6817 32.88 30.4693C33.1212 29.2569 32.9974 28.0003 32.5244 26.8582C32.0513 25.7162 31.2502 24.7401 30.2224 24.0533C29.1946 23.3666 27.9862 23 26.7501 23ZM26.7501 3.00001C27.4918 3.00001 28.2168 3.21995 28.8335 3.632C29.4502 4.04406 29.9308 4.62973 30.2147 5.31495C30.4985 6.00017 30.5728 6.75417 30.4281 7.4816C30.2834 8.20903 29.9262 8.87722 29.4018 9.40166C28.8773 9.92611 28.2091 10.2833 27.4817 10.428C26.7543 10.5727 26.0003 10.4984 25.315 10.2146C24.6298 9.93073 24.0442 9.45008 23.6321 8.8334C23.22 8.21672 23.0001 7.49169 23.0001 6.75001C23.0001 5.75545 23.3952 4.80162 24.0985 4.09836C24.8017 3.3951 25.7555 3.00001 26.7501 3.00001ZM6.75011 21.75C6.00843 21.75 5.2834 21.5301 4.66672 21.118C4.05004 20.706 3.56939 20.1203 3.28556 19.4351C3.00173 18.7499 2.92747 17.9959 3.07216 17.2684C3.21686 16.541 3.57401 15.8728 4.09846 15.3484C4.6229 14.8239 5.29109 14.4668 6.01852 14.3221C6.74595 14.1774 7.49995 14.2516 8.18517 14.5355C8.87039 14.8193 9.45606 15.2999 9.86812 15.9166C10.2802 16.5333 10.5001 17.2583 10.5001 18C10.5001 18.9946 10.105 19.9484 9.40176 20.6517C8.6985 21.3549 7.74467 21.75 6.75011 21.75ZM26.7501 33C26.0084 33 25.2834 32.7801 24.6667 32.368C24.05 31.956 23.5694 31.3703 23.2856 30.6851C23.0017 29.9999 22.9275 29.2459 23.0722 28.5184C23.2169 27.791 23.574 27.1228 24.0985 26.5984C24.6229 26.0739 25.2911 25.7168 26.0185 25.5721C26.7459 25.4274 27.4999 25.5016 28.1852 25.7855C28.8704 26.0693 29.4561 26.5499 29.8681 27.1666C30.2802 27.7833 30.5001 28.5083 30.5001 29.25C30.5001 30.2446 30.105 31.1984 29.4018 31.9017C28.6985 32.6049 27.7447 33 26.7501 33Z" fill="white"/>
</svg>
