<svg width="499" height="237" viewBox="0 0 499 237" fill="none" xmlns="http://www.w3.org/2000/svg">
<rect x="2" y="2" width="495" height="233" rx="24" fill="#9643D8" fill-opacity="0.1" stroke="#8F00FF" stroke-width="3" stroke-linejoin="round" stroke-dasharray="15 15"/>
<path d="M255.137 81.6903H266.649C269.172 81.6903 271.071 81.1216 272.348 79.9842C273.64 78.8316 274.286 77.3833 274.286 75.6393C274.286 73.6829 273.655 72.0678 272.394 70.7939C271.148 69.52 269.479 68.6555 267.387 68.2006C267.111 68.1551 266.988 67.9807 267.018 67.6773C267.064 67.1465 267.095 66.593 267.111 66.0167C267.141 65.4253 267.141 64.8717 267.111 64.3561C266.988 62.0964 266.357 60.0036 265.219 58.0775C264.081 56.1515 262.543 54.6046 260.605 53.4369C258.667 52.2539 256.436 51.6625 253.914 51.6625C251.93 51.6625 250.2 51.9885 248.723 52.6407C247.262 53.2928 246.008 54.1648 244.963 55.2567C243.917 56.3335 243.017 57.5316 242.263 58.851C242.14 59.0633 241.948 59.1315 241.687 59.0557C240.102 58.6007 238.557 58.5401 237.049 58.8737C235.542 59.1922 234.296 59.9808 233.312 61.2396C232.327 62.4831 231.835 64.2727 231.835 66.6082C231.835 66.9266 231.689 67.0859 231.397 67.0859C228.951 67.0859 227.06 67.8063 225.722 69.247C224.383 70.6725 223.714 72.4773 223.714 74.6611C223.714 75.9653 224.03 77.1483 224.66 78.2098C225.291 79.2714 226.221 80.1207 227.452 80.7577C228.698 81.3794 230.228 81.6903 232.043 81.6903H243.071V85.3528H232.066C229.544 85.3528 227.383 84.8751 225.583 83.9197C223.784 82.9491 222.399 81.66 221.43 80.0525C220.477 78.4297 220 76.6326 220 74.6611C220 72.8716 220.338 71.2413 221.015 69.7702C221.707 68.2991 222.684 67.0859 223.945 66.1305C225.222 65.1599 226.729 64.5457 228.467 64.2878C228.498 62.6803 228.882 61.2471 229.621 59.9884C230.374 58.7297 231.343 57.6908 232.527 56.8719C233.712 56.0378 234.996 55.4766 236.38 55.1885C237.78 54.9003 239.133 54.9307 240.441 55.2795C241.364 53.9601 242.471 52.7468 243.763 51.6397C245.07 50.5327 246.562 49.653 248.239 49.0009C249.931 48.3336 251.822 48 253.914 48C256.283 48 258.482 48.4322 260.512 49.2967C262.558 50.1611 264.342 51.3743 265.865 52.9364C267.403 54.4985 268.595 56.3487 269.441 58.487C270.287 60.6102 270.71 62.9381 270.71 65.4708C272.971 66.3807 274.747 67.7304 276.039 69.52C277.346 71.2943 278 73.3341 278 75.6393C278 77.4743 277.546 79.1274 276.639 80.5984C275.747 82.0543 274.455 83.2145 272.763 84.0789C271.071 84.9282 269.041 85.3528 266.672 85.3528H255.137V81.6903ZM249.115 97C248.608 97 248.169 96.8256 247.8 96.4768C247.447 96.128 247.27 95.7185 247.27 95.2484V73.9104L247.408 69.702L245.862 71.3171L242.356 74.7521C241.986 75.1161 241.564 75.298 241.087 75.298C240.61 75.298 240.21 75.154 239.887 74.8658C239.579 74.5625 239.426 74.1758 239.426 73.7057C239.426 73.2204 239.61 72.8185 239.979 72.5L247.777 65.3115C248.023 65.0992 248.246 64.9475 248.446 64.8565C248.646 64.7656 248.869 64.7201 249.115 64.7201C249.346 64.7201 249.561 64.7656 249.761 64.8565C249.977 64.9475 250.2 65.0992 250.43 65.3115L258.228 72.5C258.597 72.8185 258.782 73.2204 258.782 73.7057C258.782 74.1758 258.621 74.5625 258.298 74.8658C257.975 75.154 257.575 75.298 257.098 75.298C256.636 75.298 256.221 75.1161 255.852 74.7521L252.345 71.3171L250.8 69.702L250.938 73.9104V95.2484C250.938 95.7185 250.753 96.128 250.384 96.4768C250.03 96.8256 249.608 97 249.115 97Z" fill="#8F00FF"/>
<path d="M153.136 129V117.8H160.16V119.176H154.832V122.712H159.248V124.072H154.832V129H153.136ZM164.798 129.192C164.126 129.192 163.571 129.08 163.134 128.856C162.697 128.632 162.371 128.339 162.158 127.976C161.945 127.603 161.838 127.197 161.838 126.76C161.838 125.992 162.137 125.384 162.734 124.936C163.331 124.488 164.185 124.264 165.294 124.264H167.374V124.12C167.374 123.501 167.203 123.037 166.862 122.728C166.531 122.419 166.099 122.264 165.566 122.264C165.097 122.264 164.686 122.381 164.334 122.616C163.993 122.84 163.785 123.176 163.71 123.624H162.014C162.067 123.048 162.259 122.557 162.59 122.152C162.931 121.736 163.358 121.421 163.87 121.208C164.393 120.984 164.963 120.872 165.582 120.872C166.691 120.872 167.55 121.165 168.158 121.752C168.766 122.328 169.07 123.117 169.07 124.12V129H167.598L167.454 127.64C167.23 128.077 166.905 128.445 166.478 128.744C166.051 129.043 165.491 129.192 164.798 129.192ZM165.134 127.816C165.593 127.816 165.977 127.709 166.286 127.496C166.606 127.272 166.851 126.979 167.022 126.616C167.203 126.253 167.315 125.853 167.358 125.416H165.47C164.798 125.416 164.318 125.533 164.03 125.768C163.753 126.003 163.614 126.296 163.614 126.648C163.614 127.011 163.747 127.299 164.014 127.512C164.291 127.715 164.665 127.816 165.134 127.816ZM172.686 132.52L174.59 128.344H174.126L170.99 121.064H172.83L175.262 126.936L177.806 121.064H179.598L174.478 132.52H172.686ZM181.952 129V117.48H183.648V129H181.952ZM186.756 129V121.064H188.452V129H186.756ZM199.719 129.192C198.716 129.192 197.889 128.947 197.239 128.456C196.588 127.965 196.215 127.315 196.119 126.504H197.831C197.916 126.867 198.119 127.181 198.439 127.448C198.759 127.704 199.18 127.832 199.703 127.832C200.215 127.832 200.588 127.725 200.823 127.512C201.057 127.299 201.175 127.053 201.175 126.776C201.175 126.371 201.009 126.099 200.679 125.96C200.359 125.811 199.911 125.677 199.335 125.56C198.887 125.464 198.439 125.336 197.991 125.176C197.553 125.016 197.185 124.792 196.887 124.504C196.599 124.205 196.455 123.805 196.455 123.304C196.455 122.611 196.721 122.035 197.255 121.576C197.788 121.107 198.535 120.872 199.495 120.872C200.38 120.872 201.095 121.085 201.639 121.512C202.193 121.939 202.519 122.541 202.615 123.32H200.983C200.929 122.979 200.769 122.712 200.503 122.52C200.247 122.328 199.9 122.232 199.463 122.232C199.036 122.232 198.705 122.323 198.471 122.504C198.236 122.675 198.119 122.899 198.119 123.176C198.119 123.453 198.279 123.672 198.599 123.832C198.929 123.992 199.361 124.136 199.895 124.264C200.428 124.381 200.919 124.52 201.367 124.68C201.825 124.829 202.193 125.053 202.471 125.352C202.748 125.651 202.887 126.088 202.887 126.664C202.897 127.389 202.615 127.992 202.039 128.472C201.473 128.952 200.7 129.192 199.719 129.192ZM208.626 129.192C207.666 129.192 206.909 128.893 206.354 128.296C205.81 127.699 205.538 126.808 205.538 125.624V121.064H207.234V125.448C207.234 126.984 207.864 127.752 209.122 127.752C209.752 127.752 210.269 127.528 210.674 127.08C211.08 126.632 211.282 125.992 211.282 125.16V121.064H212.978V129H211.474L211.346 127.608C211.101 128.099 210.738 128.488 210.258 128.776C209.789 129.053 209.245 129.192 208.626 129.192ZM210.594 119.912C210.349 119.912 210.136 119.827 209.954 119.656C209.784 119.485 209.698 119.277 209.698 119.032C209.698 118.776 209.784 118.563 209.954 118.392C210.136 118.221 210.349 118.136 210.594 118.136C210.84 118.136 211.048 118.221 211.218 118.392C211.389 118.563 211.474 118.776 211.474 119.032C211.474 119.277 211.389 119.485 211.218 119.656C211.048 119.827 210.84 119.912 210.594 119.912ZM207.874 119.912C207.618 119.912 207.405 119.827 207.234 119.656C207.064 119.485 206.978 119.277 206.978 119.032C206.978 118.776 207.064 118.563 207.234 118.392C207.405 118.221 207.618 118.136 207.874 118.136C208.12 118.136 208.328 118.221 208.498 118.392C208.68 118.563 208.77 118.776 208.77 119.032C208.77 119.277 208.68 119.485 208.498 119.656C208.328 119.827 208.12 119.912 207.874 119.912ZM216.096 129V121.064H217.616L217.76 122.568C218.037 122.045 218.421 121.635 218.912 121.336C219.413 121.027 220.016 120.872 220.72 120.872V122.648H220.256C219.786 122.648 219.365 122.728 218.992 122.888C218.629 123.037 218.336 123.299 218.112 123.672C217.898 124.035 217.792 124.541 217.792 125.192V129H216.096ZM226.062 129.192C225.102 129.192 224.345 128.893 223.79 128.296C223.246 127.699 222.974 126.808 222.974 125.624V121.064H224.67V125.448C224.67 126.984 225.299 127.752 226.558 127.752C227.187 127.752 227.705 127.528 228.11 127.08C228.515 126.632 228.718 125.992 228.718 125.16V121.064H230.414V129H228.91L228.782 127.608C228.537 128.099 228.174 128.488 227.694 128.776C227.225 129.053 226.681 129.192 226.062 129.192ZM228.03 119.912C227.785 119.912 227.571 119.827 227.39 119.656C227.219 119.485 227.134 119.277 227.134 119.032C227.134 118.776 227.219 118.563 227.39 118.392C227.571 118.221 227.785 118.136 228.03 118.136C228.275 118.136 228.483 118.221 228.654 118.392C228.825 118.563 228.91 118.776 228.91 119.032C228.91 119.277 228.825 119.485 228.654 119.656C228.483 119.827 228.275 119.912 228.03 119.912ZM225.31 119.912C225.054 119.912 224.841 119.827 224.67 119.656C224.499 119.485 224.414 119.277 224.414 119.032C224.414 118.776 224.499 118.563 224.67 118.392C224.841 118.221 225.054 118.136 225.31 118.136C225.555 118.136 225.763 118.221 225.934 118.392C226.115 118.563 226.206 118.776 226.206 119.032C226.206 119.277 226.115 119.485 225.934 119.656C225.763 119.827 225.555 119.912 225.31 119.912ZM236.699 129.192C235.697 129.192 234.87 128.947 234.219 128.456C233.569 127.965 233.195 127.315 233.099 126.504H234.811C234.897 126.867 235.099 127.181 235.419 127.448C235.739 127.704 236.161 127.832 236.683 127.832C237.195 127.832 237.569 127.725 237.803 127.512C238.038 127.299 238.155 127.053 238.155 126.776C238.155 126.371 237.99 126.099 237.659 125.96C237.339 125.811 236.891 125.677 236.315 125.56C235.867 125.464 235.419 125.336 234.971 125.176C234.534 125.016 234.166 124.792 233.867 124.504C233.579 124.205 233.435 123.805 233.435 123.304C233.435 122.611 233.702 122.035 234.235 121.576C234.769 121.107 235.515 120.872 236.475 120.872C237.361 120.872 238.075 121.085 238.619 121.512C239.174 121.939 239.499 122.541 239.595 123.32H237.963C237.91 122.979 237.75 122.712 237.483 122.52C237.227 122.328 236.881 122.232 236.443 122.232C236.017 122.232 235.686 122.323 235.451 122.504C235.217 122.675 235.099 122.899 235.099 123.176C235.099 123.453 235.259 123.672 235.579 123.832C235.91 123.992 236.342 124.136 236.875 124.264C237.409 124.381 237.899 124.52 238.347 124.68C238.806 124.829 239.174 125.053 239.451 125.352C239.729 125.651 239.867 126.088 239.867 126.664C239.878 127.389 239.595 127.992 239.019 128.472C238.454 128.952 237.681 129.192 236.699 129.192ZM235.307 133.192V132.168H236.939C237.59 132.168 237.915 131.944 237.915 131.496C237.915 131.08 237.59 130.872 236.939 130.872H236.059V128.904H237.147V129.912C237.723 129.901 238.209 130.029 238.603 130.296C239.009 130.563 239.211 130.973 239.211 131.528C239.211 132.072 239.014 132.483 238.619 132.76C238.235 133.048 237.766 133.192 237.211 133.192H235.307ZM246.295 129.192C245.527 129.192 244.85 129.011 244.263 128.648C243.676 128.285 243.218 127.789 242.887 127.16C242.556 126.531 242.391 125.816 242.391 125.016C242.391 124.216 242.556 123.507 242.887 122.888C243.218 122.259 243.676 121.768 244.263 121.416C244.86 121.053 245.543 120.872 246.311 120.872C246.94 120.872 247.49 120.995 247.959 121.24C248.439 121.485 248.812 121.832 249.079 122.28V117.48H250.775V129H249.255L249.079 127.768C248.823 128.141 248.471 128.472 248.023 128.76C247.575 129.048 246.999 129.192 246.295 129.192ZM246.599 127.72C247.324 127.72 247.916 127.469 248.375 126.968C248.844 126.467 249.079 125.821 249.079 125.032C249.079 124.232 248.844 123.587 248.375 123.096C247.916 122.595 247.324 122.344 246.599 122.344C245.874 122.344 245.276 122.595 244.807 123.096C244.338 123.587 244.103 124.232 244.103 125.032C244.103 125.555 244.21 126.019 244.423 126.424C244.636 126.829 244.93 127.149 245.303 127.384C245.687 127.608 246.119 127.72 246.599 127.72ZM256.801 129.192C255.841 129.192 255.084 128.893 254.529 128.296C253.985 127.699 253.713 126.808 253.713 125.624V121.064H255.409V125.448C255.409 126.984 256.039 127.752 257.297 127.752C257.927 127.752 258.444 127.528 258.849 127.08C259.255 126.632 259.457 125.992 259.457 125.16V121.064H261.153V129H259.649L259.521 127.608C259.276 128.099 258.913 128.488 258.433 128.776C257.964 129.053 257.42 129.192 256.801 129.192ZM258.769 119.912C258.524 119.912 258.311 119.827 258.129 119.656C257.959 119.485 257.873 119.277 257.873 119.032C257.873 118.776 257.959 118.563 258.129 118.392C258.311 118.221 258.524 118.136 258.769 118.136C259.015 118.136 259.223 118.221 259.393 118.392C259.564 118.563 259.649 118.776 259.649 119.032C259.649 119.277 259.564 119.485 259.393 119.656C259.223 119.827 259.015 119.912 258.769 119.912ZM256.049 119.912C255.793 119.912 255.58 119.827 255.409 119.656C255.239 119.485 255.153 119.277 255.153 119.032C255.153 118.776 255.239 118.563 255.409 118.392C255.58 118.221 255.793 118.136 256.049 118.136C256.295 118.136 256.503 118.221 256.673 118.392C256.855 118.563 256.945 118.776 256.945 119.032C256.945 119.277 256.855 119.485 256.673 119.656C256.503 119.827 256.295 119.912 256.049 119.912ZM264.271 129V121.064H265.791L265.935 122.568C266.212 122.045 266.596 121.635 267.087 121.336C267.588 121.027 268.191 120.872 268.895 120.872V122.648H268.431C267.961 122.648 267.54 122.728 267.167 122.888C266.804 123.037 266.511 123.299 266.287 123.672C266.073 124.035 265.967 124.541 265.967 125.192V129H264.271ZM278.524 129L275.548 121.064H277.324L279.532 127.384L281.74 121.064H283.5L280.54 129H278.524ZM288.904 129.192C288.125 129.192 287.448 129.021 286.872 128.68C286.296 128.328 285.848 127.864 285.528 127.288C285.218 126.712 285.064 126.077 285.064 125.384C285.064 125.277 285.064 125.165 285.064 125.048C285.064 124.92 285.069 124.781 285.08 124.632H291.256C291.213 123.864 290.962 123.283 290.504 122.888C290.056 122.483 289.533 122.28 288.936 122.28C288.456 122.28 288.05 122.392 287.72 122.616C287.389 122.829 287.149 123.123 287 123.496H285.288C285.501 122.749 285.922 122.125 286.552 121.624C287.192 121.123 287.981 120.872 288.92 120.872C289.709 120.872 290.402 121.048 291 121.4C291.608 121.741 292.082 122.221 292.424 122.84C292.765 123.459 292.936 124.179 292.936 125C292.936 125.832 292.765 126.563 292.424 127.192C292.093 127.821 291.624 128.312 291.016 128.664C290.408 129.016 289.704 129.192 288.904 129.192ZM288.92 127.8C289.496 127.8 290.002 127.635 290.44 127.304C290.877 126.963 291.144 126.456 291.24 125.784H286.76C286.792 126.403 287.01 126.893 287.416 127.256C287.821 127.619 288.322 127.8 288.92 127.8ZM305.207 129.192C304.588 129.192 304.039 129.069 303.559 128.824C303.089 128.579 302.716 128.232 302.439 127.784L302.263 129H300.743V117.48H302.439V122.296C302.695 121.923 303.047 121.592 303.495 121.304C303.943 121.016 304.519 120.872 305.223 120.872C305.991 120.872 306.668 121.053 307.255 121.416C307.841 121.779 308.3 122.275 308.631 122.904C308.972 123.533 309.143 124.248 309.143 125.048C309.143 125.848 308.972 126.563 308.631 127.192C308.3 127.811 307.841 128.301 307.255 128.664C306.668 129.016 305.985 129.192 305.207 129.192ZM304.919 127.72C305.644 127.72 306.241 127.475 306.711 126.984C307.18 126.483 307.415 125.832 307.415 125.032C307.415 124.509 307.308 124.045 307.095 123.64C306.881 123.235 306.588 122.92 306.215 122.696C305.841 122.461 305.409 122.344 304.919 122.344C304.193 122.344 303.596 122.595 303.127 123.096C302.668 123.597 302.439 124.243 302.439 125.032C302.439 125.832 302.668 126.483 303.127 126.984C303.596 127.475 304.193 127.72 304.919 127.72ZM314.865 129.192C313.905 129.192 313.148 128.893 312.593 128.296C312.049 127.699 311.777 126.808 311.777 125.624V121.064H313.473V125.448C313.473 126.984 314.102 127.752 315.361 127.752C315.99 127.752 316.508 127.528 316.913 127.08C317.318 126.632 317.521 125.992 317.521 125.16V121.064H319.217V129H317.713L317.585 127.608C317.34 128.099 316.977 128.488 316.497 128.776C316.028 129.053 315.484 129.192 314.865 129.192ZM322.334 129V121.064H323.854L323.998 122.568C324.276 122.045 324.66 121.635 325.15 121.336C325.652 121.027 326.254 120.872 326.958 120.872V122.648H326.494C326.025 122.648 325.604 122.728 325.23 122.888C324.868 123.037 324.574 123.299 324.35 123.672C324.137 124.035 324.03 124.541 324.03 125.192V129H322.334ZM332.061 129.192C331.389 129.192 330.834 129.08 330.397 128.856C329.959 128.632 329.634 128.339 329.421 127.976C329.207 127.603 329.101 127.197 329.101 126.76C329.101 125.992 329.399 125.384 329.997 124.936C330.594 124.488 331.447 124.264 332.557 124.264H334.637V124.12C334.637 123.501 334.466 123.037 334.125 122.728C333.794 122.419 333.362 122.264 332.829 122.264C332.359 122.264 331.949 122.381 331.597 122.616C331.255 122.84 331.047 123.176 330.973 123.624H329.277C329.33 123.048 329.522 122.557 329.853 122.152C330.194 121.736 330.621 121.421 331.133 121.208C331.655 120.984 332.226 120.872 332.845 120.872C333.954 120.872 334.813 121.165 335.421 121.752C336.029 122.328 336.333 123.117 336.333 124.12V129H334.861L334.717 127.64C334.493 128.077 334.167 128.445 333.741 128.744C333.314 129.043 332.754 129.192 332.061 129.192ZM332.397 127.816C332.855 127.816 333.239 127.709 333.549 127.496C333.869 127.272 334.114 126.979 334.285 126.616C334.466 126.253 334.578 125.853 334.621 125.416H332.733C332.061 125.416 331.581 125.533 331.293 125.768C331.015 126.003 330.877 126.296 330.877 126.648C330.877 127.011 331.01 127.299 331.277 127.512C331.554 127.715 331.927 127.816 332.397 127.816ZM338.502 129L341.318 125.032L338.502 121.064H340.31L342.438 124.104L344.55 121.064H346.374L343.558 125.032L346.374 129H344.55L342.438 125.96L340.31 129H338.502Z" fill="black"/>
<line x1="203" y1="153.25" x2="227" y2="153.25" stroke="#838383" stroke-width="0.5"/>
<path d="M234.472 156L232.24 150.048H233.572L235.228 154.788L236.884 150.048H238.204L235.984 156H234.472ZM242.257 156.144C241.673 156.144 241.165 156.016 240.733 155.76C240.301 155.496 239.965 155.148 239.725 154.716C239.493 154.284 239.377 153.808 239.377 153.288C239.377 153.208 239.377 153.124 239.377 153.036C239.377 152.94 239.381 152.836 239.389 152.724H244.021C243.989 152.148 243.801 151.712 243.457 151.416C243.121 151.112 242.729 150.96 242.281 150.96C241.921 150.96 241.617 151.044 241.369 151.212C241.121 151.372 240.941 151.592 240.829 151.872H239.545C239.705 151.312 240.021 150.844 240.493 150.468C240.973 150.092 241.565 149.904 242.269 149.904C242.861 149.904 243.381 150.036 243.829 150.3C244.285 150.556 244.641 150.916 244.897 151.38C245.153 151.844 245.281 152.384 245.281 153C245.281 153.624 245.153 154.172 244.897 154.644C244.649 155.116 244.297 155.484 243.841 155.748C243.385 156.012 242.857 156.144 242.257 156.144ZM242.269 155.1C242.701 155.1 243.081 154.976 243.409 154.728C243.737 154.472 243.937 154.092 244.009 153.588H240.649C240.673 154.052 240.837 154.42 241.141 154.692C241.445 154.964 241.821 155.1 242.269 155.1ZM251.832 158.64L253.26 155.508H252.912L250.56 150.048H251.94L253.764 154.452L255.672 150.048H257.016L253.176 158.64H251.832ZM260.376 156.144C259.872 156.144 259.456 156.06 259.128 155.892C258.8 155.724 258.556 155.504 258.396 155.232C258.236 154.952 258.156 154.648 258.156 154.32C258.156 153.744 258.38 153.288 258.828 152.952C259.276 152.616 259.916 152.448 260.748 152.448H262.308V152.34C262.308 151.876 262.18 151.528 261.924 151.296C261.676 151.064 261.352 150.948 260.952 150.948C260.6 150.948 260.292 151.036 260.028 151.212C259.772 151.38 259.616 151.632 259.56 151.968H258.288C258.328 151.536 258.472 151.168 258.72 150.864C258.976 150.552 259.296 150.316 259.68 150.156C260.072 149.988 260.5 149.904 260.964 149.904C261.796 149.904 262.44 150.124 262.896 150.564C263.352 150.996 263.58 151.588 263.58 152.34V156H262.476L262.368 154.98C262.2 155.308 261.956 155.584 261.636 155.808C261.316 156.032 260.896 156.144 260.376 156.144ZM260.628 155.112C260.972 155.112 261.26 155.032 261.492 154.872C261.732 154.704 261.916 154.484 262.044 154.212C262.18 153.94 262.264 153.64 262.296 153.312H260.88C260.376 153.312 260.016 153.4 259.8 153.576C259.592 153.752 259.488 153.972 259.488 154.236C259.488 154.508 259.588 154.724 259.788 154.884C259.996 155.036 260.276 155.112 260.628 155.112Z" fill="#4D4950"/>
<line x1="272" y1="153.25" x2="296" y2="153.25" stroke="#838383" stroke-width="0.5"/>
<rect x="220.5" y="173" width="58" height="28" rx="8" fill="#8F00FF"/>
<path d="M233.972 192V188.276L230.78 182.2H232.11L234.56 187.156L237.01 182.2H238.326L235.148 188.276V192H233.972ZM242.565 192.168C241.743 192.168 241.09 191.921 240.605 191.426C240.119 190.922 239.877 190.152 239.877 189.116V185.056H241.053V188.99C241.053 190.437 241.645 191.16 242.831 191.16C243.437 191.16 243.937 190.945 244.329 190.516C244.73 190.077 244.931 189.457 244.931 188.654V185.056H246.107V192H245.043L244.959 190.754C244.744 191.193 244.422 191.538 243.993 191.79C243.573 192.042 243.097 192.168 242.565 192.168ZM244.063 184.006C243.867 184.006 243.699 183.941 243.559 183.81C243.428 183.67 243.363 183.502 243.363 183.306C243.363 183.119 243.428 182.956 243.559 182.816C243.699 182.676 243.867 182.606 244.063 182.606C244.259 182.606 244.422 182.676 244.553 182.816C244.683 182.956 244.749 183.119 244.749 183.306C244.749 183.502 244.683 183.67 244.553 183.81C244.422 183.941 244.259 184.006 244.063 184.006ZM241.823 184.006C241.627 184.006 241.459 183.941 241.319 183.81C241.188 183.67 241.123 183.502 241.123 183.306C241.123 183.119 241.188 182.956 241.319 182.816C241.459 182.676 241.627 182.606 241.823 182.606C242.009 182.606 242.173 182.676 242.313 182.816C242.453 182.956 242.523 183.119 242.523 183.306C242.523 183.502 242.453 183.67 242.313 183.81C242.173 183.941 242.009 184.006 241.823 184.006ZM248.882 192V181.92H250.058V187.982L252.9 185.056H254.342L251.262 188.192L254.734 192H253.236L250.058 188.402V192H248.882ZM256.777 192V181.92H257.953V192H256.777ZM263.605 192.168C262.933 192.168 262.349 192.019 261.855 191.72C261.369 191.412 260.996 191.011 260.735 190.516C260.473 190.021 260.343 189.489 260.343 188.92C260.343 188.817 260.343 188.715 260.343 188.612C260.352 188.509 260.361 188.393 260.371 188.262H265.901C265.873 187.73 265.747 187.291 265.523 186.946C265.308 186.591 265.033 186.325 264.697 186.148C264.361 185.971 264.006 185.882 263.633 185.882C263.157 185.882 262.751 185.994 262.415 186.218C262.088 186.442 261.85 186.745 261.701 187.128H260.539C260.725 186.484 261.08 185.952 261.603 185.532C262.135 185.103 262.811 184.888 263.633 184.888C264.295 184.888 264.883 185.042 265.397 185.35C265.91 185.649 266.311 186.069 266.601 186.61C266.899 187.151 267.049 187.791 267.049 188.528C267.049 189.256 266.904 189.895 266.615 190.446C266.325 190.987 265.919 191.412 265.397 191.72C264.883 192.019 264.286 192.168 263.605 192.168ZM263.633 191.174C264.202 191.174 264.701 191.006 265.131 190.67C265.56 190.325 265.812 189.825 265.887 189.172H261.505C261.533 189.797 261.747 190.287 262.149 190.642C262.55 190.997 263.045 191.174 263.633 191.174Z" fill="#F7F7F7"/>
</svg>
