<svg width="49" height="48" viewBox="0 0 49 48" fill="none" xmlns="http://www.w3.org/2000/svg">
<rect x="1.15874" y="0.795455" width="46.1364" height="46.1364" rx="15.1136" stroke="#8F00FF" stroke-width="1.59091"/>
<g clip-path="url(#clip0_363_5980)">
<path d="M27.209 10.1552L10.1008 23.4897C9.84877 23.6861 9.68507 23.9747 9.64575 24.2919C9.60643 24.609 9.69472 24.9288 9.89119 25.1809L12.8544 28.9827L13.7032 28.3212C14.6498 27.5834 16.0325 27.5461 16.9128 28.3619C17.1718 28.5986 17.3759 28.889 17.5111 29.2127C17.6463 29.5365 17.7092 29.8858 17.6954 30.2364C17.6816 30.587 17.5915 30.9303 17.4313 31.2425C17.2712 31.5547 17.0448 31.8281 16.7681 32.0437L15.8176 32.7845L18.7808 36.5864C18.9773 36.8384 19.2658 37.0021 19.583 37.0415C19.9002 37.0808 20.22 36.9925 20.4721 36.796L37.5802 23.4616C37.8323 23.2651 37.996 22.9765 38.0353 22.6594C38.0746 22.3422 37.9863 22.0224 37.7899 21.7703L34.8267 17.9685L33.8762 18.7093C33.5995 18.925 33.2791 19.0778 32.9373 19.1569C32.5955 19.236 32.2405 19.2395 31.8972 19.1673C31.5538 19.095 31.2304 18.9488 30.9494 18.7386C30.6685 18.5285 30.4368 18.2596 30.2705 17.9507C29.6943 16.8978 30.0681 15.5661 31.0147 14.8282L31.8635 14.1667L28.9003 10.3649C28.7038 10.1128 28.4152 9.94911 28.098 9.9098C27.7809 9.87048 27.4611 9.95877 27.209 10.1552ZM18.7668 22.8467C19.0188 22.6502 19.3386 22.5619 19.6558 22.6012C19.973 22.6405 20.2615 22.8042 20.458 23.0563C20.6545 23.3084 20.7428 23.6282 20.7035 23.9454C20.6641 24.2625 20.5004 24.5511 20.2484 24.7476C19.9963 24.944 19.6765 25.0323 19.3593 24.993C19.0422 24.9537 18.7536 24.79 18.5571 24.5379C18.3606 24.2858 18.2724 23.966 18.3117 23.6489C18.351 23.3317 18.5147 23.0431 18.7668 22.8467ZM22.7475 29.5222L22.5238 17.4738L24.9335 17.429L25.1572 29.4775L22.7475 29.5222ZM28.9143 24.1046C28.6622 24.3011 28.3424 24.3893 28.0252 24.35C27.7081 24.3107 27.4195 24.147 27.223 23.8949C27.0266 23.6429 26.9383 23.3231 26.9776 23.0059C27.0169 22.6887 27.1806 22.4001 27.4327 22.2037C27.6848 22.0072 28.0046 21.9189 28.3217 21.9582C28.6389 21.9975 28.9275 22.1613 29.1239 22.4133C29.3204 22.6654 29.4087 22.9852 29.3694 23.3024C29.3301 23.6195 29.1664 23.9081 28.9143 24.1046Z" fill="#8F00FF"/>
</g>
<defs>
<clipPath id="clip0_363_5980">
<rect width="28.9212" height="28.9212" fill="white" transform="translate(3.54492 20.9609) rotate(-37.9335)"/>
</clipPath>
</defs>
</svg>
