<svg width="28" height="28" viewBox="0 0 28 28" fill="none" xmlns="http://www.w3.org/2000/svg">
<g filter="url(#filter0_b_1086_702)">
<rect x="0.367188" y="4.17184" width="24.8158" height="23" rx="7" fill="white"/>
<rect x="0.867188" y="4.67184" width="23.8158" height="22" rx="6.5" stroke="#8F00FF"/>
</g>
<circle cx="23.1836" cy="5.00003" r="4" fill="white"/>
<circle cx="23.1836" cy="5.00003" r="4" fill="#FF0000"/>
<path d="M23.1876 6.87616C22.8596 6.87616 22.5656 6.79216 22.3056 6.62416C22.0496 6.45616 21.8456 6.21216 21.6936 5.89216C21.5456 5.57216 21.4716 5.18416 21.4716 4.72816C21.4716 4.27216 21.5456 3.88416 21.6936 3.56416C21.8456 3.24416 22.0496 3.00016 22.3056 2.83216C22.5656 2.66416 22.8596 2.58016 23.1876 2.58016C23.5116 2.58016 23.8036 2.66416 24.0636 2.83216C24.3236 3.00016 24.5276 3.24416 24.6756 3.56416C24.8236 3.88416 24.8976 4.27216 24.8976 4.72816C24.8976 5.18416 24.8236 5.57216 24.6756 5.89216C24.5276 6.21216 24.3236 6.45616 24.0636 6.62416C23.8036 6.79216 23.5116 6.87616 23.1876 6.87616ZM23.1876 6.34216C23.4076 6.34216 23.5996 6.28216 23.7636 6.16216C23.9316 6.04216 24.0616 5.86216 24.1536 5.62216C24.2496 5.38216 24.2976 5.08416 24.2976 4.72816C24.2976 4.37216 24.2496 4.07416 24.1536 3.83416C24.0616 3.59416 23.9316 3.41416 23.7636 3.29416C23.5996 3.17416 23.4076 3.11416 23.1876 3.11416C22.9676 3.11416 22.7736 3.17416 22.6056 3.29416C22.4376 3.41416 22.3056 3.59416 22.2096 3.83416C22.1176 4.07416 22.0716 4.37216 22.0716 4.72816C22.0716 5.08416 22.1176 5.38216 22.2096 5.62216C22.3056 5.86216 22.4376 6.04216 22.6056 6.16216C22.7736 6.28216 22.9676 6.34216 23.1876 6.34216Z" fill="white"/>
<path d="M18.8398 14.4219C18.9642 14.4219 19.0834 14.3725 19.1713 14.2846C19.2592 14.1967 19.3086 14.0774 19.3086 13.9531V11.6094C19.3086 11.3607 19.2098 11.1223 19.034 10.9465C18.8582 10.7706 18.6197 10.6719 18.3711 10.6719H7.12109C6.87245 10.6719 6.634 10.7706 6.45818 10.9465C6.28237 11.1223 6.18359 11.3607 6.18359 11.6094V13.9531C6.18359 14.0774 6.23298 14.1967 6.32089 14.2846C6.4088 14.3725 6.52802 14.4219 6.65234 14.4219C6.90098 14.4219 7.13944 14.5206 7.31526 14.6965C7.49107 14.8723 7.58984 15.1107 7.58984 15.3594C7.58984 15.608 7.49107 15.8465 7.31526 16.0223C7.13944 16.1981 6.90098 16.2969 6.65234 16.2969C6.52802 16.2969 6.4088 16.3463 6.32089 16.4342C6.23298 16.5221 6.18359 16.6413 6.18359 16.7656V19.1094C6.18359 19.358 6.28237 19.5965 6.45818 19.7723C6.634 19.9481 6.87245 20.0469 7.12109 20.0469H18.3711C18.6197 20.0469 18.8582 19.9481 19.034 19.7723C19.2098 19.5965 19.3086 19.358 19.3086 19.1094V16.7656C19.3086 16.6413 19.2592 16.5221 19.1713 16.4342C19.0834 16.3463 18.9642 16.2969 18.8398 16.2969C18.5912 16.2969 18.3527 16.1981 18.1769 16.0223C18.0011 15.8465 17.9023 15.608 17.9023 15.3594C17.9023 15.1107 18.0011 14.8723 18.1769 14.6965C18.3527 14.5206 18.5912 14.4219 18.8398 14.4219ZM18.3711 17.1734V19.1094H15.0898V17.7031H14.1523V19.1094H7.12109V17.1734C7.52234 17.0686 7.8775 16.8336 8.13098 16.5054C8.38446 16.1771 8.52196 15.7741 8.52196 15.3594C8.52196 14.9446 8.38446 14.5416 8.13098 14.2134C7.8775 13.8851 7.52234 13.6502 7.12109 13.5453V11.6094H14.1523V13.0156H15.0898V11.6094H18.3711V13.5453C17.9698 13.6502 17.6147 13.8851 17.3612 14.2134C17.1077 14.5416 16.9702 14.9446 16.9702 15.3594C16.9702 15.7741 17.1077 16.1771 17.3612 16.5054C17.6147 16.8336 17.9698 17.0686 18.3711 17.1734Z" fill="black"/>
<path d="M14.0898 14.7656H15.0273V17.5781H14.0898V14.7656Z" fill="black"/>
<defs>
<filter id="filter0_b_1086_702" x="-3.63281" y="0.171844" width="32.8164" height="31" filterUnits="userSpaceOnUse" color-interpolation-filters="sRGB">
<feFlood flood-opacity="0" result="BackgroundImageFix"/>
<feGaussianBlur in="BackgroundImageFix" stdDeviation="2"/>
<feComposite in2="SourceAlpha" operator="in" result="effect1_backgroundBlur_1086_702"/>
<feBlend mode="normal" in="SourceGraphic" in2="effect1_backgroundBlur_1086_702" result="shape"/>
</filter>
</defs>
</svg>
