<svg width="220" height="41" viewBox="0 0 220 41" fill="none" xmlns="http://www.w3.org/2000/svg">
<path d="M10.33 30.24C9.71 30.24 9.23 30.07 8.89 29.73C8.57 29.37 8.41 28.88 8.41 28.26V12.06H2.56C2.04 12.06 1.63 11.92 1.33 11.64C1.05 11.34 0.91 10.94 0.91 10.44C0.91 9.92 1.05 9.53 1.33 9.27C1.63 8.99 2.04 8.85 2.56 8.85H18.1C18.62 8.85 19.02 8.99 19.3 9.27C19.6 9.53 19.75 9.92 19.75 10.44C19.75 10.94 19.6 11.34 19.3 11.64C19.02 11.92 18.62 12.06 18.1 12.06H12.25V28.26C12.25 28.88 12.09 29.37 11.77 29.73C11.45 30.07 10.97 30.24 10.33 30.24ZM25.1491 30.3C23.7091 30.3 22.4791 30.01 21.4591 29.43C20.4591 28.85 19.6891 28.01 19.1491 26.91C18.6091 25.79 18.3391 24.46 18.3391 22.92C18.3391 22.56 18.4591 22.29 18.6991 22.11C18.9591 21.91 19.3191 21.81 19.7791 21.81H29.4091V23.97H20.9791L21.5791 23.52C21.5991 24.42 21.7291 25.19 21.9691 25.83C22.2291 26.45 22.6091 26.93 23.1091 27.27C23.6291 27.59 24.2791 27.75 25.0591 27.75C25.8991 27.75 26.5991 27.56 27.1591 27.18C27.7391 26.78 28.1691 26.22 28.4491 25.5C28.7491 24.78 28.8991 23.94 28.8991 22.98V22.77C28.8991 21.11 28.5091 19.88 27.7291 19.08C26.9691 18.28 25.8391 17.88 24.3391 17.88C23.8391 17.88 23.2591 17.95 22.5991 18.09C21.9591 18.21 21.3491 18.44 20.7691 18.78C20.3491 19.02 19.9791 19.13 19.6591 19.11C19.3391 19.07 19.0791 18.95 18.8791 18.75C18.6991 18.55 18.5891 18.3 18.5491 18C18.5091 17.7 18.5591 17.4 18.6991 17.1C18.8391 16.8 19.0891 16.54 19.4491 16.32C20.1491 15.88 20.9491 15.56 21.8491 15.36C22.7691 15.14 23.6191 15.03 24.3991 15.03C26.0591 15.03 27.4891 15.34 28.6891 15.96C29.8891 16.58 30.8091 17.46 31.4491 18.6C32.1091 19.74 32.4391 21.09 32.4391 22.65C32.4391 24.15 32.1291 25.48 31.5091 26.64C30.8891 27.78 30.0291 28.68 28.9291 29.34C27.8491 29.98 26.5891 30.3 25.1491 30.3ZM40.5381 30.3C38.8781 30.3 37.6281 29.83 36.7881 28.89C35.9481 27.93 35.5281 26.53 35.5281 24.69V10.5C35.5281 9.88 35.6881 9.41 36.0081 9.09C36.3281 8.77 36.7881 8.61 37.3881 8.61C37.9881 8.61 38.4481 8.77 38.7681 9.09C39.1081 9.41 39.2781 9.88 39.2781 10.5V24.51C39.2781 25.43 39.4681 26.11 39.8481 26.55C40.2481 26.99 40.8081 27.21 41.5281 27.21C41.6881 27.21 41.8381 27.21 41.9781 27.21C42.1181 27.19 42.2581 27.17 42.3981 27.15C42.6781 27.11 42.8681 27.19 42.9681 27.39C43.0681 27.57 43.1181 27.95 43.1181 28.53C43.1181 29.03 43.0181 29.42 42.8181 29.7C42.6181 29.98 42.2881 30.15 41.8281 30.21C41.6281 30.23 41.4181 30.25 41.1981 30.27C40.9781 30.29 40.7581 30.3 40.5381 30.3ZM50.8717 30.3C49.4317 30.3 48.2017 30.01 47.1817 29.43C46.1817 28.85 45.4117 28.01 44.8717 26.91C44.3317 25.79 44.0617 24.46 44.0617 22.92C44.0617 22.56 44.1817 22.29 44.4217 22.11C44.6817 21.91 45.0417 21.81 45.5017 21.81H55.1317V23.97H46.7017L47.3017 23.52C47.3217 24.42 47.4517 25.19 47.6917 25.83C47.9517 26.45 48.3317 26.93 48.8317 27.27C49.3517 27.59 50.0017 27.75 50.7817 27.75C51.6217 27.75 52.3217 27.56 52.8817 27.18C53.4617 26.78 53.8917 26.22 54.1717 25.5C54.4717 24.78 54.6217 23.94 54.6217 22.98V22.77C54.6217 21.11 54.2317 19.88 53.4517 19.08C52.6917 18.28 51.5617 17.88 50.0617 17.88C49.5617 17.88 48.9817 17.95 48.3217 18.09C47.6817 18.21 47.0717 18.44 46.4917 18.78C46.0717 19.02 45.7017 19.13 45.3817 19.11C45.0617 19.07 44.8017 18.95 44.6017 18.75C44.4217 18.55 44.3117 18.3 44.2717 18C44.2317 17.7 44.2817 17.4 44.4217 17.1C44.5617 16.8 44.8117 16.54 45.1717 16.32C45.8717 15.88 46.6717 15.56 47.5717 15.36C48.4917 15.14 49.3417 15.03 50.1217 15.03C51.7817 15.03 53.2117 15.34 54.4117 15.96C55.6117 16.58 56.5317 17.46 57.1717 18.6C57.8317 19.74 58.1617 21.09 58.1617 22.65C58.1617 24.15 57.8517 25.48 57.2317 26.64C56.6117 27.78 55.7517 28.68 54.6517 29.34C53.5717 29.98 52.3117 30.3 50.8717 30.3ZM69.7108 30.3C68.4708 30.3 67.3808 29.99 66.4408 29.37C65.5208 28.75 64.9108 27.92 64.6108 26.88L64.9408 26.13V28.32C64.9408 28.94 64.7808 29.42 64.4608 29.76C64.1408 30.08 63.6908 30.24 63.1108 30.24C62.5108 30.24 62.0508 30.08 61.7308 29.76C61.4108 29.42 61.2508 28.94 61.2508 28.32V10.5C61.2508 9.88 61.4108 9.41 61.7308 9.09C62.0508 8.77 62.5108 8.61 63.1108 8.61C63.7108 8.61 64.1708 8.77 64.4908 9.09C64.8308 9.41 65.0008 9.88 65.0008 10.5V18.3H64.6408C64.9608 17.32 65.5808 16.53 66.5008 15.93C67.4208 15.33 68.4908 15.03 69.7108 15.03C71.0108 15.03 72.1408 15.34 73.1008 15.96C74.0608 16.58 74.8108 17.46 75.3508 18.6C75.8908 19.72 76.1608 21.07 76.1608 22.65C76.1608 24.21 75.8908 25.57 75.3508 26.73C74.8108 27.87 74.0508 28.75 73.0708 29.37C72.1108 29.99 70.9908 30.3 69.7108 30.3ZM68.6608 27.45C69.4008 27.45 70.0508 27.27 70.6108 26.91C71.1708 26.55 71.6008 26.02 71.9008 25.32C72.2208 24.6 72.3808 23.71 72.3808 22.65C72.3808 21.05 72.0408 19.86 71.3608 19.08C70.6808 18.28 69.7808 17.88 68.6608 17.88C67.9208 17.88 67.2708 18.06 66.7108 18.42C66.1508 18.76 65.7108 19.29 65.3908 20.01C65.0908 20.71 64.9408 21.59 64.9408 22.65C64.9408 24.23 65.2808 25.43 65.9608 26.25C66.6408 27.05 67.5408 27.45 68.6608 27.45ZM85.1491 30.3C83.7091 30.3 82.4791 30.01 81.4591 29.43C80.4591 28.85 79.6891 28.01 79.1491 26.91C78.6091 25.79 78.3391 24.46 78.3391 22.92C78.3391 22.56 78.4591 22.29 78.6991 22.11C78.9591 21.91 79.3191 21.81 79.7791 21.81H89.4091V23.97H80.9791L81.5791 23.52C81.5991 24.42 81.7291 25.19 81.9691 25.83C82.2291 26.45 82.6091 26.93 83.1091 27.27C83.6291 27.59 84.2791 27.75 85.0591 27.75C85.8991 27.75 86.5991 27.56 87.1591 27.18C87.7391 26.78 88.1691 26.22 88.4491 25.5C88.7491 24.78 88.8991 23.94 88.8991 22.98V22.77C88.8991 21.11 88.5091 19.88 87.7291 19.08C86.9691 18.28 85.8391 17.88 84.3391 17.88C83.8391 17.88 83.2591 17.95 82.5991 18.09C81.9591 18.21 81.3491 18.44 80.7691 18.78C80.3491 19.02 79.9791 19.13 79.6591 19.11C79.3391 19.07 79.0791 18.95 78.8791 18.75C78.6991 18.55 78.5891 18.3 78.5491 18C78.5091 17.7 78.5591 17.4 78.6991 17.1C78.8391 16.8 79.0891 16.54 79.4491 16.32C80.1491 15.88 80.9491 15.56 81.8491 15.36C82.7691 15.14 83.6191 15.03 84.3991 15.03C86.0591 15.03 87.4891 15.34 88.6891 15.96C89.8891 16.58 90.8091 17.46 91.4491 18.6C92.1091 19.74 92.4391 21.09 92.4391 22.65C92.4391 24.15 92.1291 25.48 91.5091 26.64C90.8891 27.78 90.0291 28.68 88.9291 29.34C87.8491 29.98 86.5891 30.3 85.1491 30.3Z" fill="black"/>
<g clip-path="url(#clip0_0_1051)">
<path d="M170.241 25.0225L166.318 17.2918C165.581 17.6931 164.733 17.919 163.832 17.9159C161.063 17.9032 158.795 15.6138 158.793 12.8299C158.793 11.1884 159.525 9.74586 160.683 8.80736C159.73 8.28755 158.65 8 157.53 8H106.706C101.686 8 98.4494 13.4288 100.758 17.9775L107.523 31.3076C108.673 33.5749 110.968 35 113.471 35H164.293C169.313 35 172.55 29.5712 170.241 25.0225Z" fill="black"/>
<path d="M143.825 21.5159C143.993 19.819 144.134 18.1632 144.609 16.558C145.346 14.0664 146.64 11.9682 149.074 10.8796C151.648 9.72778 154.254 9.8763 156.804 11.0818C157.193 11.2651 157.331 11.4768 157.267 11.9476C156.848 14.9954 158.289 17.6434 161.039 18.9642C161.296 19.0875 161.567 19.1554 161.594 19.5315C161.821 22.6945 161.65 25.7992 160.102 28.6573C157.81 32.89 152.267 34.3357 148.211 31.7778C146.551 30.7302 145.556 29.1598 144.878 27.3554C144.747 27.0047 144.642 26.6429 144.49 26.1799C143.36 31.0115 140.095 32.9295 135.548 32.9659C131.399 32.9991 128.842 30.7287 127.461 26.7124C127.047 29.3114 125.652 30.934 123.502 31.9484C122.373 32.4808 121.184 32.7937 119.947 32.9122C117.718 33.127 115.544 32.9216 113.494 31.9405C110.792 30.6481 109.275 28.0411 109.429 25.0503C109.446 24.7043 109.545 24.5937 109.889 24.5984C111.276 24.6158 112.664 24.6142 114.051 24.5984C114.377 24.5952 114.511 24.6711 114.524 25.0345C114.569 26.4011 114.972 27.6272 116.341 28.1644C117.947 28.7964 119.585 28.8185 121.088 27.8294C121.974 27.2464 122.184 26.3221 122.058 25.3046C121.931 24.2682 121.409 23.5288 120.434 23.1448C119.444 22.7562 118.405 22.7562 117.37 22.8336C116.866 22.8715 116.659 22.7862 116.693 22.219C116.743 21.3784 116.734 20.5316 116.696 19.691C116.674 19.1949 116.801 19.0148 117.319 19.0827C118.019 19.1744 118.728 19.1396 119.423 19.0006C119.745 18.9358 120.068 18.8489 120.372 18.7241C121.226 18.3765 121.729 17.754 121.729 16.795C121.729 15.8565 121.202 15.2577 120.398 14.9085C119.259 14.414 118.079 14.3934 116.917 14.8153C115.809 15.2182 115.248 16.0887 115.146 17.2421C115.112 17.6292 114.977 17.7098 114.627 17.7066C113.284 17.6908 111.941 17.6876 110.598 17.7113C110.165 17.7192 110.034 17.5992 110.076 17.1504C110.353 14.2007 111.734 11.9998 114.497 10.8985C117.598 9.663 120.721 9.83048 123.712 11.3062C126.168 12.518 127.259 14.9748 126.633 17.5849C126.265 19.1191 125.403 20.214 123.69 20.6801C124.958 21.0861 125.994 21.6486 126.741 22.7088C126.773 21.7892 126.791 20.8807 126.875 19.977C127.049 18.1 127.486 16.2988 128.428 14.6588C130.37 11.284 133.385 9.96951 137.141 10.1528C138.824 10.2349 140.391 10.6931 141.738 11.7707C143.035 12.8087 143.784 14.177 144.156 15.7838C144.231 16.1077 144.143 16.2167 143.811 16.2135C142.402 16.2009 140.993 16.2072 139.584 16.2072C139.385 16.2072 139.184 16.2246 139.109 15.9639C138.788 14.8658 138.068 14.2417 136.927 14.1438C135.672 14.0363 134.573 14.3792 133.702 15.3288C133.493 15.5563 133.31 15.8091 133.139 16.065C132.525 16.9846 132.357 18.0716 132.055 19.1049C132.019 19.2265 131.956 19.4256 132.139 19.5157C132.258 19.5741 132.329 19.4619 132.41 19.3861C135.835 16.1567 141.222 16.9719 143.568 21.0735C143.653 21.2204 143.739 21.3658 143.825 21.5111V21.5159ZM156.434 21.5664C156.434 21.034 156.456 20.5 156.43 19.9691C156.372 18.7699 156.262 17.5786 155.764 16.4616C155.198 15.1945 154.223 14.5546 152.858 14.5403C151.518 14.5261 150.543 15.1376 149.953 16.3605C149.642 17.0067 149.453 17.6892 149.364 18.397C149.096 20.4984 149.096 22.6013 149.364 24.7027C149.46 25.4547 149.656 26.1831 150.007 26.8593C150.46 27.7315 151.127 28.3224 152.116 28.5072C153.844 28.8295 155.217 28.0775 155.858 26.4264C156.466 24.8607 156.436 23.2096 156.436 21.568L156.434 21.5664ZM135.79 21.4195C133.763 21.3942 132.246 22.9347 132.21 25.0503C132.177 27.0489 133.622 28.5357 135.639 28.5752C137.766 28.6162 139.443 27.1248 139.455 25.1814C139.47 22.9726 137.982 21.4464 135.788 21.4195H135.79Z" fill="#F9F9F9"/>
<path d="M162.931 10.5631C163.294 10.3309 163.726 10.2092 164.188 10.2408C165.372 10.3198 166.176 11.2915 166.177 12.6487C166.177 13.5477 165.8 14.2824 165.214 14.6916L166.101 16.4406C167.449 15.7075 168.359 14.2839 168.356 12.6408C168.351 10.2487 166.436 8.32273 164.054 8.31641C163.016 8.31483 162.074 8.66874 161.336 9.26597C161.938 9.5946 162.479 10.0323 162.933 10.5631H162.931Z" fill="#8F00FF"/>
<path d="M159.736 12.6673C159.736 15.0214 161.656 16.9569 163.998 16.9679C164.761 16.9711 165.477 16.7799 166.099 16.4402L165.212 14.6912C164.787 14.9883 164.255 15.1162 163.676 15.0088C162.454 14.7829 161.755 13.65 161.932 12.187C162.018 11.4839 162.397 10.9025 162.93 10.5628C162.477 10.0335 161.935 9.59426 161.333 9.26562C160.353 10.0588 159.734 11.2785 159.734 12.6673H159.736Z" fill="#8F00FF"/>
</g>
<defs>
<clipPath id="clip0_0_1051">
<rect width="71" height="27" fill="white" transform="translate(100 8)"/>
</clipPath>
</defs>
</svg>
