<svg width="383" height="143" viewBox="0 0 383 143" fill="none" xmlns="http://www.w3.org/2000/svg">
<g clip-path="url(#clip0_563_591)">
<path d="M378.91 90.1564L357.748 49.212C353.774 51.3374 349.2 52.534 344.339 52.5173C329.399 52.4503 317.165 40.3252 317.157 25.5808C317.157 16.8865 321.105 9.24659 327.353 4.27603C322.213 1.52297 316.387 0 310.342 0H36.1802C9.09968 0 -8.35938 28.7523 4.09447 52.8436L40.5852 123.444C46.7909 135.452 59.1687 143 72.6709 143H346.825C373.905 143 391.364 114.248 378.91 90.1564Z" fill="black"/>
<path d="M236.414 71.5878C237.319 62.6007 238.08 53.831 240.642 45.3292C244.616 32.1329 251.599 21.0203 264.73 15.2548C278.613 9.15454 292.673 9.94112 306.429 16.3259C308.526 17.2966 309.27 18.4179 308.923 20.9115C306.666 37.0533 314.436 51.078 329.274 58.0736C330.661 58.7263 332.123 59.0861 332.267 61.0777C333.493 77.8303 332.571 94.2734 324.218 109.411C311.857 131.829 281.952 139.485 260.071 125.938C251.117 120.39 245.749 112.072 242.096 102.516C241.386 100.658 240.819 98.7419 239.999 96.29C233.903 121.879 216.292 132.038 191.764 132.23C169.384 132.406 155.586 120.381 148.137 99.1101C145.905 112.875 138.38 121.469 126.78 126.841C120.693 129.661 114.276 131.318 107.605 131.946C95.582 133.084 83.8551 131.996 72.7962 126.8C58.22 119.955 50.0357 106.147 50.8643 90.307C50.9573 88.4744 51.4899 87.8886 53.35 87.9137C60.8325 88.0058 68.3151 87.9974 75.7976 87.9137C77.5562 87.897 78.2834 88.2987 78.351 90.2233C78.5962 97.4616 80.7691 103.955 88.1502 106.8C96.8164 110.147 105.652 110.265 113.76 105.026C118.537 101.938 119.67 97.0432 118.993 91.6542C118.309 86.1648 115.493 82.2486 110.234 80.2152C104.891 78.1567 99.2852 78.1567 93.705 78.5667C90.9825 78.7676 89.8665 78.3157 90.0525 75.3116C90.3231 70.8598 90.2723 66.3746 90.0694 61.9229C89.951 59.2953 90.6359 58.3414 93.426 58.7012C97.2053 59.1865 101.027 59.0024 104.781 58.2661C106.514 57.923 108.256 57.4627 109.896 56.8017C114.504 54.9607 117.218 51.6637 117.218 46.5844C117.218 41.6138 114.377 38.4424 110.04 36.5931C103.893 33.9739 97.5266 33.8651 91.2616 36.0993C85.284 38.2332 82.2571 42.8439 81.7076 48.9525C81.5216 51.0027 80.7944 51.4294 78.909 51.4127C71.6632 51.329 64.4174 51.3123 57.1716 51.4378C54.8381 51.4797 54.1278 50.8437 54.3561 48.4672C55.8526 32.8442 63.3014 21.1877 78.2073 15.3552C94.931 8.81145 111.781 9.69845 127.913 17.5141C141.162 23.9323 147.047 36.9445 143.673 50.7684C141.686 58.8937 137.036 64.6927 127.795 67.1612C134.635 69.3118 140.224 72.2908 144.257 77.9057C144.426 73.0355 144.527 68.2239 144.975 63.4375C145.914 53.4963 148.273 43.9569 153.354 35.2709C163.83 17.397 180.097 10.4348 200.354 11.4055C209.435 11.8406 217.89 14.2674 225.153 19.9743C232.153 25.472 236.195 32.7187 238.198 41.2289C238.604 42.9443 238.131 43.5217 236.338 43.505C228.737 43.438 221.137 43.4715 213.536 43.4715C212.462 43.4715 211.38 43.5636 210.974 42.1829C209.241 36.3671 205.36 33.0618 199.205 32.543C192.432 31.9739 186.505 33.7898 181.805 38.8189C180.68 40.0239 179.691 41.3628 178.769 42.7184C175.455 47.5886 174.55 53.3457 172.918 58.8184C172.724 59.4627 172.386 60.517 173.375 60.994C174.018 61.3036 174.398 60.7095 174.838 60.3078C193.312 43.2037 222.371 47.5216 235.028 69.2448C235.484 70.023 235.949 70.7929 236.414 71.5627V71.5878ZM304.434 71.8556C304.434 69.0356 304.552 66.2073 304.408 63.3956C304.096 57.0443 303.504 50.7349 300.815 44.8188C297.763 38.1077 292.504 34.7186 285.14 34.6433C277.911 34.568 272.652 37.8064 269.473 44.2832C267.79 47.7057 266.776 51.3207 266.294 55.0695C264.848 66.1989 264.848 77.3366 266.294 88.466C266.81 92.4492 267.866 96.3068 269.76 99.8883C272.204 104.507 275.806 107.637 281.141 108.616C290.458 110.323 297.864 106.34 301.322 97.5955C304.603 89.3028 304.442 80.5583 304.442 71.864L304.434 71.8556ZM193.066 71.0774C182.134 70.9435 173.95 79.1023 173.756 90.307C173.578 100.892 181.373 108.767 192.255 108.976C203.728 109.193 212.775 101.294 212.842 91.0015C212.918 79.3031 204.895 71.2197 193.058 71.0774H193.066Z" fill="white"/>
<path d="M339.479 13.5728C341.432 12.3428 343.766 11.6984 346.26 11.8658C352.643 12.2842 356.98 17.4305 356.989 24.6185C356.989 29.3799 354.951 33.271 351.789 35.4383L356.574 44.7016C363.846 40.8189 368.758 33.2794 368.741 24.5767C368.716 11.9076 358.384 1.70708 345.533 1.67361C339.936 1.66524 334.854 3.53967 330.872 6.70275C334.119 8.44329 337.036 10.7612 339.487 13.5728H339.479Z" fill="#8F00FF"/>
<path d="M322.24 24.719C322.24 37.1872 332.597 47.438 345.228 47.4965C349.346 47.5133 353.209 46.5008 356.566 44.7016L351.781 35.4383C349.489 37.0115 346.615 37.6893 343.495 37.1203C336.9 35.9237 333.129 29.9238 334.085 22.1751C334.55 18.4514 336.596 15.372 339.47 13.5729C337.027 10.7696 334.102 8.44329 330.855 6.70276C325.571 10.9035 322.231 17.3635 322.231 24.719H322.24Z" fill="#8F00FF"/>
</g>
<defs>
<clipPath id="clip0_563_591">
<rect width="383.005" height="143" fill="white"/>
</clipPath>
</defs>
</svg>
