<svg width="156" height="36" viewBox="0 0 156 36" fill="none" xmlns="http://www.w3.org/2000/svg">
<path fill-rule="evenodd" clip-rule="evenodd" d="M18 4.5C18.5 4.5 18.9672 4.74919 19.2458 5.1645L24.9158 13.6188L31.8784 5.77819C32.3271 5.27288 33.0583 5.13002 33.6643 5.4293C34.2702 5.72857 34.6011 6.39606 34.4726 7.05951L30.4433 27.856C30.0333 29.9719 28.1807 31.5 26.0254 31.5H9.97453C7.81928 31.5 5.96664 29.9719 5.55668 27.856L1.52737 7.05951C1.39883 6.39606 1.72981 5.72857 2.33572 5.4293C2.94164 5.13002 3.67286 5.27288 4.12159 5.77819L11.0842 13.6188L16.7542 5.1645C17.0328 4.74919 17.4999 4.5 18 4.5ZM18 8.69299L12.4958 16.9C12.2372 17.2856 11.8146 17.5297 11.3514 17.5611C10.8883 17.5925 10.4366 17.4076 10.1284 17.0605L5.51411 11.8644L8.50191 27.2853C8.63857 27.9906 9.25611 28.5 9.97453 28.5H26.0254C26.7439 28.5 27.3614 27.9906 27.4981 27.2853L30.4859 11.8644L25.8716 17.0605C25.5633 17.4076 25.1117 17.5925 24.6485 17.5611C24.1853 17.5297 23.7628 17.2856 23.5042 16.9L18 8.69299Z" fill="url(#paint0_linear_100_83)"/>
<path d="M57.432 11.99V13.664H54.102V24.5H52.05V13.664H48.702V11.99H57.432ZM63.6502 14.42C64.5982 14.42 65.4442 14.636 66.1882 15.068C66.9442 15.488 67.5322 16.088 67.9522 16.868C68.3842 17.636 68.6002 18.53 68.6002 19.55C68.6002 20.57 68.3902 21.47 67.9702 22.25C67.5622 23.018 66.9802 23.612 66.2242 24.032C65.4802 24.452 64.6222 24.662 63.6502 24.662C62.7142 24.662 61.8802 24.458 61.1482 24.05C60.4162 23.642 59.8462 23.072 59.4382 22.34C59.0302 21.596 58.8262 20.744 58.8262 19.784C58.8262 19.412 58.8502 19.076 58.8982 18.776H66.4762C66.4162 17.984 66.1222 17.348 65.5942 16.868C65.0662 16.388 64.4182 16.148 63.6502 16.148C62.5462 16.148 61.7662 16.61 61.3102 17.534H59.0962C59.3962 16.622 59.9362 15.878 60.7162 15.302C61.5082 14.714 62.4862 14.42 63.6502 14.42ZM63.7402 22.934C64.4482 22.934 65.0542 22.712 65.5582 22.268C66.0622 21.812 66.3622 21.2 66.4582 20.432H60.9682C60.9802 21.188 61.2502 21.794 61.7782 22.25C62.3062 22.706 62.9602 22.934 63.7402 22.934ZM72.6715 11.18V24.5H70.6195V11.18H72.6715ZM79.5056 14.42C80.4536 14.42 81.2996 14.636 82.0436 15.068C82.7996 15.488 83.3876 16.088 83.8076 16.868C84.2396 17.636 84.4556 18.53 84.4556 19.55C84.4556 20.57 84.2456 21.47 83.8256 22.25C83.4176 23.018 82.8356 23.612 82.0796 24.032C81.3356 24.452 80.4776 24.662 79.5056 24.662C78.5696 24.662 77.7356 24.458 77.0036 24.05C76.2716 23.642 75.7016 23.072 75.2936 22.34C74.8856 21.596 74.6816 20.744 74.6816 19.784C74.6816 19.412 74.7056 19.076 74.7536 18.776H82.3316C82.2716 17.984 81.9776 17.348 81.4496 16.868C80.9216 16.388 80.2736 16.148 79.5056 16.148C78.4016 16.148 77.6216 16.61 77.1656 17.534H74.9516C75.2516 16.622 75.7916 15.878 76.5716 15.302C77.3636 14.714 78.3416 14.42 79.5056 14.42ZM79.5956 22.934C80.3036 22.934 80.9096 22.712 81.4136 22.268C81.9176 21.812 82.2176 21.2 82.3136 20.432H76.8236C76.8356 21.188 77.1056 21.794 77.6336 22.25C78.1616 22.706 78.8156 22.934 79.5956 22.934ZM88.527 16.058C88.875 15.578 89.349 15.188 89.949 14.888C90.561 14.576 91.239 14.42 91.983 14.42C92.859 14.42 93.651 14.63 94.359 15.05C95.067 15.47 95.625 16.07 96.033 16.85C96.441 17.618 96.645 18.5 96.645 19.496C96.645 20.492 96.441 21.386 96.033 22.178C95.625 22.958 95.061 23.57 94.341 24.014C93.633 24.446 92.847 24.662 91.983 24.662C91.215 24.662 90.531 24.512 89.931 24.212C89.343 23.912 88.875 23.528 88.527 23.06V24.5H86.475V11.18H88.527V16.058ZM94.557 19.496C94.557 18.812 94.413 18.224 94.125 17.732C93.849 17.228 93.477 16.85 93.009 16.598C92.553 16.334 92.061 16.202 91.533 16.202C91.017 16.202 90.525 16.334 90.057 16.598C89.601 16.862 89.229 17.246 88.941 17.75C88.665 18.254 88.527 18.848 88.527 19.532C88.527 20.216 88.665 20.816 88.941 21.332C89.229 21.836 89.601 22.22 90.057 22.484C90.525 22.748 91.017 22.88 91.533 22.88C92.061 22.88 92.553 22.748 93.009 22.484C93.477 22.208 93.849 21.812 94.125 21.296C94.413 20.78 94.557 20.18 94.557 19.496ZM102.814 14.42C103.762 14.42 104.608 14.636 105.352 15.068C106.108 15.488 106.696 16.088 107.116 16.868C107.548 17.636 107.764 18.53 107.764 19.55C107.764 20.57 107.554 21.47 107.134 22.25C106.726 23.018 106.144 23.612 105.388 24.032C104.644 24.452 103.786 24.662 102.814 24.662C101.878 24.662 101.044 24.458 100.312 24.05C99.5802 23.642 99.0102 23.072 98.6022 22.34C98.1942 21.596 97.9902 20.744 97.9902 19.784C97.9902 19.412 98.0142 19.076 98.0622 18.776H105.64C105.58 17.984 105.286 17.348 104.758 16.868C104.23 16.388 103.582 16.148 102.814 16.148C101.71 16.148 100.93 16.61 100.474 17.534H98.2602C98.5602 16.622 99.1002 15.878 99.8802 15.302C100.672 14.714 101.65 14.42 102.814 14.42ZM102.904 22.934C103.612 22.934 104.218 22.712 104.722 22.268C105.226 21.812 105.526 21.2 105.622 20.432H100.132C100.144 21.188 100.414 21.794 100.942 22.25C101.47 22.706 102.124 22.934 102.904 22.934ZM109.478 14.618C109.55 13.502 109.976 12.632 110.756 12.008C111.548 11.384 112.556 11.072 113.78 11.072C114.62 11.072 115.346 11.222 115.958 11.522C116.57 11.822 117.032 12.23 117.344 12.746C117.656 13.262 117.812 13.844 117.812 14.492C117.812 15.236 117.614 15.872 117.218 16.4C116.822 16.928 116.348 17.282 115.796 17.462V17.534C116.504 17.75 117.056 18.146 117.452 18.722C117.848 19.286 118.046 20.012 118.046 20.9C118.046 21.608 117.884 22.238 117.56 22.79C117.236 23.342 116.756 23.78 116.12 24.104C115.484 24.416 114.722 24.572 113.834 24.572C112.538 24.572 111.47 24.242 110.63 23.582C109.802 22.91 109.358 21.95 109.298 20.702H111.278C111.326 21.338 111.572 21.86 112.016 22.268C112.46 22.664 113.06 22.862 113.816 22.862C114.548 22.862 115.112 22.664 115.508 22.268C115.904 21.86 116.102 21.338 116.102 20.702C116.102 19.862 115.832 19.268 115.292 18.92C114.764 18.56 113.948 18.38 112.844 18.38H112.376V16.688H112.862C113.834 16.676 114.572 16.514 115.076 16.202C115.592 15.89 115.85 15.398 115.85 14.726C115.85 14.15 115.664 13.694 115.292 13.358C114.92 13.01 114.392 12.836 113.708 12.836C113.036 12.836 112.514 13.01 112.142 13.358C111.77 13.694 111.548 14.114 111.476 14.618H109.478ZM127.257 14.42C127.125 13.868 126.885 13.454 126.537 13.178C126.189 12.902 125.703 12.764 125.079 12.764C124.131 12.764 123.423 13.13 122.955 13.862C122.487 14.582 122.241 15.782 122.217 17.462C122.529 16.934 122.985 16.526 123.585 16.238C124.185 15.95 124.833 15.806 125.529 15.806C126.321 15.806 127.017 15.98 127.617 16.328C128.229 16.664 128.703 17.156 129.039 17.804C129.387 18.452 129.561 19.226 129.561 20.126C129.561 20.966 129.393 21.716 129.057 22.376C128.733 23.036 128.247 23.558 127.599 23.942C126.951 24.314 126.171 24.5 125.259 24.5C124.023 24.5 123.051 24.23 122.343 23.69C121.647 23.138 121.155 22.364 120.867 21.368C120.591 20.372 120.453 19.13 120.453 17.642C120.453 13.25 122.001 11.054 125.097 11.054C126.297 11.054 127.239 11.378 127.923 12.026C128.619 12.674 129.027 13.472 129.147 14.42H127.257ZM125.079 17.534C124.347 17.534 123.723 17.756 123.207 18.2C122.703 18.632 122.451 19.262 122.451 20.09C122.451 20.918 122.685 21.578 123.153 22.07C123.633 22.55 124.299 22.79 125.151 22.79C125.907 22.79 126.501 22.556 126.933 22.088C127.377 21.62 127.599 20.996 127.599 20.216C127.599 19.4 127.383 18.752 126.951 18.272C126.531 17.78 125.907 17.534 125.079 17.534ZM131.75 17.768C131.75 15.692 132.098 14.072 132.794 12.908C133.502 11.732 134.714 11.144 136.43 11.144C138.146 11.144 139.352 11.732 140.048 12.908C140.756 14.072 141.11 15.692 141.11 17.768C141.11 19.868 140.756 21.512 140.048 22.7C139.352 23.876 138.146 24.464 136.43 24.464C134.714 24.464 133.502 23.876 132.794 22.7C132.098 21.512 131.75 19.868 131.75 17.768ZM139.094 17.768C139.094 16.796 139.028 15.974 138.896 15.302C138.776 14.63 138.524 14.084 138.14 13.664C137.756 13.232 137.186 13.016 136.43 13.016C135.674 13.016 135.104 13.232 134.72 13.664C134.336 14.084 134.078 14.63 133.946 15.302C133.826 15.974 133.766 16.796 133.766 17.768C133.766 18.776 133.826 19.622 133.946 20.306C134.066 20.99 134.318 21.542 134.702 21.962C135.098 22.382 135.674 22.592 136.43 22.592C137.186 22.592 137.756 22.382 138.14 21.962C138.536 21.542 138.794 20.99 138.914 20.306C139.034 19.622 139.094 18.776 139.094 17.768ZM153.217 18.866H149.581V22.592H147.673V18.866H144.037V17.138H147.673V13.412H149.581V17.138H153.217V18.866Z" fill="url(#paint1_linear_100_83)"/>
<defs>
<linearGradient id="paint0_linear_100_83" x1="18" y1="4.5" x2="18" y2="31.5" gradientUnits="userSpaceOnUse">
<stop stop-color="#FF7A00"/>
<stop offset="1" stop-color="#FFC700"/>
</linearGradient>
<linearGradient id="paint1_linear_100_83" x1="102" y1="4.5" x2="102" y2="31.5" gradientUnits="userSpaceOnUse">
<stop stop-color="#FF8201"/>
<stop offset="1" stop-color="#FFD600"/>
</linearGradient>
</defs>
</svg>
