<svg width="34" height="28" viewBox="0 0 34 28" fill="none" xmlns="http://www.w3.org/2000/svg">
<path fill-rule="evenodd" clip-rule="evenodd" d="M17.0001 0.5C17.5002 0.5 17.9673 0.749193 18.2459 1.1645L23.9159 9.61876L30.8785 1.77819C31.3272 1.27288 32.0585 1.13002 32.6644 1.4293C33.2703 1.72857 33.6013 2.39606 33.4727 3.05951L29.4434 23.856C29.0335 25.9719 27.1808 27.5 25.0256 27.5H8.97465C6.8194 27.5 4.96676 25.9719 4.55681 23.856L0.527496 3.05951C0.398952 2.39606 0.72993 1.72857 1.33584 1.4293C1.94176 1.13002 2.67298 1.27288 3.12171 1.77819L10.0843 9.61876L15.7543 1.1645C16.0329 0.749193 16.5001 0.5 17.0001 0.5ZM17.0001 4.69299L11.4959 12.9C11.2373 13.2856 10.8148 13.5297 10.3516 13.5611C9.88839 13.5925 9.43677 13.4076 9.12851 13.0605L4.51423 7.86437L7.50204 23.2853C7.63869 23.9906 8.25623 24.5 8.97465 24.5H25.0256C25.744 24.5 26.3615 23.9906 26.4982 23.2853L29.486 7.86437L24.8717 13.0605C24.5634 13.4076 24.1118 13.5925 23.6486 13.5611C23.1855 13.5297 22.7629 13.2856 22.5043 12.9L17.0001 4.69299Z" fill="url(#paint0_linear_807_245)"/>
<defs>
<linearGradient id="paint0_linear_807_245" x1="17.0001" y1="0.5" x2="17.0001" y2="27.5" gradientUnits="userSpaceOnUse">
<stop stop-color="#FF7A00"/>
<stop offset="1" stop-color="#FFC700"/>
</linearGradient>
</defs>
</svg>
