<svg width="62" height="28" viewBox="0 0 62 28" fill="none" xmlns="http://www.w3.org/2000/svg">
<g filter="url(#filter0_dd_161_233)">
<path fill-rule="evenodd" clip-rule="evenodd" d="M48.0001 0C44.5866 0 41.8195 2.76713 41.8195 6.18056V6.94445C41.8195 8.77828 41.5705 10.4039 41.191 11.5423C40.9999 12.1158 40.7906 12.5198 40.5987 12.7634C40.4566 12.9437 40.3718 12.9801 40.3524 12.9862C39.8962 12.9909 39.5278 13.3622 39.5278 13.8194V13.9931C39.5278 14.4533 39.9009 14.8264 40.3612 14.8264H55.6389C56.0992 14.8264 56.4723 14.4533 56.4723 13.9931V13.8194C56.4723 13.3622 56.1039 12.9909 55.6478 12.9862C55.6283 12.9801 55.5435 12.9437 55.4014 12.7634C55.2095 12.5198 55.0002 12.1158 54.8091 11.5423C54.4296 10.4039 54.1806 8.77828 54.1806 6.94445V6.18056C54.1806 2.76713 51.4135 0 48.0001 0ZM40.3503 12.9868C40.3488 12.987 40.348 12.9872 40.348 12.9872C40.348 12.9873 40.3483 12.9872 40.349 12.9871C40.3493 12.987 40.3498 12.9869 40.3503 12.9868ZM43.4862 6.18056C43.4862 3.6876 45.5071 1.66667 48.0001 1.66667C50.493 1.66667 52.5139 3.6876 52.5139 6.18056V6.94445C52.5139 8.90757 52.778 10.7194 53.2279 12.0693C53.3586 12.4615 53.5102 12.8305 53.6849 13.1597H42.3153C42.4899 12.8305 42.6415 12.4615 42.7722 12.0693C43.2222 10.7194 43.4862 8.90757 43.4862 6.94445V6.18056Z" fill="black"/>
<path d="M46.3784 16.5878C46.1047 16.2178 45.5829 16.1396 45.2129 16.4132C44.8428 16.6869 44.7646 17.2087 45.0383 17.5787C45.7317 18.5165 46.7792 19.1666 48 19.1666C49.2207 19.1666 50.2683 18.5165 50.9617 17.5787C51.2353 17.2087 51.1572 16.6869 50.7871 16.4132C50.417 16.1396 49.8952 16.2178 49.6216 16.5878C49.1789 17.1866 48.5936 17.5 48 17.5C47.4063 17.5 46.8211 17.1866 46.3784 16.5878Z" fill="black"/>
<ellipse cx="53.0001" cy="3.33333" rx="3.33333" ry="3.33333" fill="#FF0000"/>
<g clip-path="url(#clip0_161_233)">
<path d="M10.2499 5.00001C10.2499 5.69037 9.69027 6.25001 8.99992 6.25001C8.30956 6.25001 7.74992 5.69037 7.74992 5.00001C7.74992 4.30965 8.30956 3.75001 8.99992 3.75001C9.69027 3.75001 10.2499 4.30965 10.2499 5.00001Z" fill="black"/>
<path fill-rule="evenodd" clip-rule="evenodd" d="M7.33325 0.833344C5.95254 0.833344 4.83325 1.95263 4.83325 3.33334V6.66668C4.83325 8.04739 5.95254 9.16668 7.33325 9.16668H20.6666C22.0473 9.16668 23.1666 8.04739 23.1666 6.66668V3.33334C23.1666 1.95263 22.0473 0.833344 20.6666 0.833344H7.33325ZM6.49992 3.33334C6.49992 2.87311 6.87301 2.50001 7.33325 2.50001H20.6666C21.1268 2.50001 21.4999 2.87311 21.4999 3.33334V6.66668C21.4999 7.12691 21.1268 7.50001 20.6666 7.50001H7.33325C6.87301 7.50001 6.49992 7.12691 6.49992 6.66668V3.33334Z" fill="black"/>
<path d="M8.99992 16.25C9.69027 16.25 10.2499 15.6904 10.2499 15C10.2499 14.3097 9.69027 13.75 8.99992 13.75C8.30956 13.75 7.74992 14.3097 7.74992 15C7.74992 15.6904 8.30956 16.25 8.99992 16.25Z" fill="black"/>
<path fill-rule="evenodd" clip-rule="evenodd" d="M7.33325 10.8333C5.95254 10.8333 4.83325 11.9526 4.83325 13.3333V16.6667C4.83325 18.0474 5.95254 19.1667 7.33325 19.1667H20.6666C22.0473 19.1667 23.1666 18.0474 23.1666 16.6667V13.3333C23.1666 11.9526 22.0473 10.8333 20.6666 10.8333H7.33325ZM6.49992 13.3333C6.49992 12.8731 6.87301 12.5 7.33325 12.5H20.6666C21.1268 12.5 21.4999 12.8731 21.4999 13.3333V16.6667C21.4999 17.1269 21.1268 17.5 20.6666 17.5H7.33325C6.87301 17.5 6.49992 17.1269 6.49992 16.6667V13.3333Z" fill="black"/>
</g>
</g>
<defs>
<filter id="filter0_dd_161_233" x="0" y="0" width="62" height="28" filterUnits="userSpaceOnUse" color-interpolation-filters="sRGB">
<feFlood flood-opacity="0" result="BackgroundImageFix"/>
<feColorMatrix in="SourceAlpha" type="matrix" values="0 0 0 0 0 0 0 0 0 0 0 0 0 0 0 0 0 0 127 0" result="hardAlpha"/>
<feOffset dy="4"/>
<feGaussianBlur stdDeviation="2"/>
<feComposite in2="hardAlpha" operator="out"/>
<feColorMatrix type="matrix" values="0 0 0 0 0 0 0 0 0 0 0 0 0 0 0 0 0 0 0.25 0"/>
<feBlend mode="normal" in2="BackgroundImageFix" result="effect1_dropShadow_161_233"/>
<feColorMatrix in="SourceAlpha" type="matrix" values="0 0 0 0 0 0 0 0 0 0 0 0 0 0 0 0 0 0 127 0" result="hardAlpha"/>
<feOffset dy="4"/>
<feGaussianBlur stdDeviation="2"/>
<feComposite in2="hardAlpha" operator="out"/>
<feColorMatrix type="matrix" values="0 0 0 0 0 0 0 0 0 0 0 0 0 0 0 0 0 0 0.25 0"/>
<feBlend mode="normal" in2="effect1_dropShadow_161_233" result="effect2_dropShadow_161_233"/>
<feBlend mode="normal" in="SourceGraphic" in2="effect2_dropShadow_161_233" result="shape"/>
</filter>
<clipPath id="clip0_161_233">
<rect width="20" height="20" fill="white" transform="translate(4)"/>
</clipPath>
</defs>
</svg>
