<svg width="20" height="20" viewBox="0 0 20 20" fill="none" xmlns="http://www.w3.org/2000/svg">
<path fill-rule="evenodd" clip-rule="evenodd" d="M10.0001 0C6.58663 0 3.8195 2.76713 3.8195 6.18056V6.94445C3.8195 8.77828 3.5705 10.4039 3.19105 11.5423C2.99987 12.1158 2.79059 12.5198 2.59868 12.7634C2.45659 12.9437 2.37181 12.9801 2.35235 12.9862C1.89617 12.9909 1.52783 13.3622 1.52783 13.8194V13.9931C1.52783 14.4533 1.90093 14.8264 2.36117 14.8264H17.6389C18.0992 14.8264 18.4723 14.4533 18.4723 13.9931V13.8194C18.4723 13.3622 18.1039 12.9909 17.6478 12.9862C17.6283 12.9801 17.5435 12.9437 17.4014 12.7634C17.2095 12.5198 17.0002 12.1158 16.8091 11.5423C16.4296 10.4039 16.1806 8.77828 16.1806 6.94445V6.18056C16.1806 2.76713 13.4135 0 10.0001 0ZM2.35028 12.9868C2.34878 12.987 2.34803 12.9872 2.34803 12.9872C2.34803 12.9873 2.34835 12.9872 2.34897 12.9871C2.34932 12.987 2.34975 12.9869 2.35028 12.9868ZM5.48617 6.18056C5.48617 3.6876 7.5071 1.66667 10.0001 1.66667C12.493 1.66667 14.5139 3.6876 14.5139 6.18056V6.94445C14.5139 8.90757 14.778 10.7194 15.2279 12.0693C15.3586 12.4615 15.5102 12.8305 15.6849 13.1597H4.31525C4.48988 12.8305 4.64147 12.4615 4.77219 12.0693C5.22215 10.7194 5.48617 8.90757 5.48617 6.94445V6.18056Z" fill="black"/>
<path d="M8.37836 16.5878C8.10473 16.2178 7.58291 16.1396 7.21285 16.4132C6.84279 16.6869 6.76462 17.2087 7.03825 17.5787C7.73168 18.5165 8.77923 19.1666 9.99997 19.1666C11.2207 19.1666 12.2683 18.5165 12.9617 17.5787C13.2353 17.2087 13.1572 16.6869 12.7871 16.4132C12.417 16.1396 11.8952 16.2178 11.6216 16.5878C11.1789 17.1866 10.5936 17.5 9.99997 17.5C9.40633 17.5 8.82109 17.1866 8.37836 16.5878Z" fill="black"/>
<ellipse cx="15.0001" cy="3.33333" rx="3.33333" ry="3.33333" fill="#FF0000"/>
</svg>
