<svg width="20" height="20" viewBox="0 0 20 20" fill="none" xmlns="http://www.w3.org/2000/svg">
<g clip-path="url(#clip0_161_236)">
<path d="M6.24992 5.00001C6.24992 5.69037 5.69027 6.25001 4.99992 6.25001C4.30956 6.25001 3.74992 5.69037 3.74992 5.00001C3.74992 4.30965 4.30956 3.75001 4.99992 3.75001C5.69027 3.75001 6.24992 4.30965 6.24992 5.00001Z" fill="black"/>
<path fill-rule="evenodd" clip-rule="evenodd" d="M3.33325 0.833344C1.95254 0.833344 0.833252 1.95263 0.833252 3.33334V6.66668C0.833252 8.04739 1.95254 9.16668 3.33325 9.16668H16.6666C18.0473 9.16668 19.1666 8.04739 19.1666 6.66668V3.33334C19.1666 1.95263 18.0473 0.833344 16.6666 0.833344H3.33325ZM2.49992 3.33334C2.49992 2.87311 2.87301 2.50001 3.33325 2.50001H16.6666C17.1268 2.50001 17.4999 2.87311 17.4999 3.33334V6.66668C17.4999 7.12691 17.1268 7.50001 16.6666 7.50001H3.33325C2.87301 7.50001 2.49992 7.12691 2.49992 6.66668V3.33334Z" fill="black"/>
<path d="M4.99992 16.25C5.69027 16.25 6.24992 15.6904 6.24992 15C6.24992 14.3097 5.69027 13.75 4.99992 13.75C4.30956 13.75 3.74992 14.3097 3.74992 15C3.74992 15.6904 4.30956 16.25 4.99992 16.25Z" fill="black"/>
<path fill-rule="evenodd" clip-rule="evenodd" d="M3.33325 10.8333C1.95254 10.8333 0.833252 11.9526 0.833252 13.3333V16.6667C0.833252 18.0474 1.95254 19.1667 3.33325 19.1667H16.6666C18.0473 19.1667 19.1666 18.0474 19.1666 16.6667V13.3333C19.1666 11.9526 18.0473 10.8333 16.6666 10.8333H3.33325ZM2.49992 13.3333C2.49992 12.8731 2.87301 12.5 3.33325 12.5H16.6666C17.1268 12.5 17.4999 12.8731 17.4999 13.3333V16.6667C17.4999 17.1269 17.1268 17.5 16.6666 17.5H3.33325C2.87301 17.5 2.49992 17.1269 2.49992 16.6667V13.3333Z" fill="black"/>
</g>
<defs>
<clipPath id="clip0_161_236">
<rect width="20" height="20" fill="white"/>
</clipPath>
</defs>
</svg>
