<svg width="1920" height="1406" viewBox="0 0 1920 1406" fill="none" xmlns="http://www.w3.org/2000/svg">
<g opacity="0.3" filter="url(#filter0_d_94_16)">
<mask id="mask0_94_16" style="mask-type:luminance" maskUnits="userSpaceOnUse" x="-170" y="-43" width="2329" height="1441">
<path d="M2159 -43H-170V1398H2159V-43Z" fill="white"/>
</mask>
<g mask="url(#mask0_94_16)">
<path d="M-1645.42 1685.48C-1618.83 1547.68 -1468.61 1465.55 -1323.63 1449.52C-1178.65 1433.3 -1030.95 1464.83 -884.421 1464.83C-491.79 1464.65 -121.673 1213.91 6.80996 861.047C47.9556 747.929 66.0054 627.425 106.181 513.946C146.356 400.468 214.479 290.051 325.107 236.014C484.255 158.38 683.579 218.181 844.086 305.001C1004.59 391.822 1155.01 506.741 1332.98 546.549C1566.85 598.785 1809.65 508.903 1988.6 363.902C2167.35 218.902 2293.69 24.0064 2417.13 -167.647" stroke="#D4E8F7" stroke-miterlimit="10"/>
<path d="M-1654.16 1672.15C-1625.04 1535.08 -1475.21 1453.12 -1330.04 1436.55C-1267.35 1429.34 -1203.88 1431.14 -1140.42 1436.01C-1057.15 1442.31 -973.699 1453.48 -890.826 1455.1C-721.779 1458.52 -557.002 1418.35 -412.216 1340.36C-300.424 1280.2 -200.859 1200.76 -121.479 1105.48C-64.6127 1037.75 -19.3913 961.377 12.2443 878.519C26.4124 841.414 38.0573 803.407 48.7319 765.041C70.4693 687.047 88.325 607.792 116.467 532.319C148.491 446.76 196.818 363.902 268.628 307.523C290.948 289.871 315.208 274.74 341.798 262.852C453.396 213.138 582.461 230.25 705.898 272.579C759.271 290.952 811.674 313.828 860.389 338.505C914.926 366.064 968.299 395.784 1021.48 424.064C1125.89 479.903 1228.95 531.239 1340.55 549.972C1413.14 562.04 1484.75 558.978 1555.6 544.207C1699.61 514.307 1841.09 434.511 1959.09 332.741C1991.51 304.821 2022.37 275.461 2052.25 244.84C2185.01 108.845 2296.02 -48.4037 2405.49 -196.647" stroke="#D4E8F7" stroke-miterlimit="10"/>
<path d="M-1662.89 1658.64C-1631.06 1522.29 -1481.81 1440.33 -1336.44 1423.22C-1273.56 1415.83 -1210.09 1417.63 -1146.43 1422.68C-1063.17 1429.34 -979.716 1441.59 -897.036 1445.01C-728.378 1452.04 -563.795 1418.35 -417.65 1343.6C-304.694 1285.96 -203.576 1210.31 -121.091 1118.63C-62.0897 1053.06 -15.1215 977.948 17.8727 895.631C32.623 858.886 44.6562 820.879 55.913 782.513C78.6208 704.699 97.4468 625.264 126.753 550.512C160.136 465.493 210.209 384.617 284.349 330.939C307.251 314.368 331.705 300.138 358.489 289.331C470.669 244.119 597.988 265.374 721.231 307.883C774.798 326.256 827.589 348.412 876.886 371.468C932.006 397.225 985.961 424.244 1038.95 449.101C1142.97 498.456 1243.32 541.866 1348.51 552.673C1416.63 559.698 1481.65 551.593 1547.06 532.86C1679.61 494.493 1814.11 407.493 1930.18 301.039C1962.01 271.858 1992.87 241.237 2022.95 209.896C2157.06 69.7583 2276.42 -86.0499 2394.23 -226.367" stroke="#D4E8F7" stroke-miterlimit="10"/>
<path d="M-1671.62 1645.13C-1637.08 1509.5 -1488.41 1427.54 -1342.85 1410.07C-1279.96 1402.5 -1216.11 1404.12 -1152.45 1409.53C-1068.99 1416.73 -985.926 1430.06 -903.247 1435.11C-734.782 1445.73 -570.782 1418.53 -423.085 1347.02C-308.964 1291.91 -206.099 1220.04 -120.703 1131.96C-59.3724 1068.55 -10.8516 994.7 23.5012 912.743C38.8338 876.178 51.4492 838.532 63.2883 799.985C86.9664 722.351 106.763 642.736 137.234 568.524C171.975 484.046 223.601 405.151 300.264 354.176C323.748 338.685 348.397 325.356 375.18 315.809C487.749 275.101 613.515 300.678 736.564 343.188C790.325 361.741 843.309 382.996 893.189 404.43C948.891 428.387 1003.23 452.704 1056.22 474.319C1159.86 516.828 1257.68 552.673 1356.27 555.555C1420.13 557.356 1478.54 544.568 1538.13 521.692C1659.24 475.219 1786.75 380.474 1900.68 269.517C1931.92 238.896 1962.59 207.374 1992.87 175.131C2128.14 30.8511 2255.85 -123.516 2382.39 -255.728" stroke="#D4E8F7" stroke-miterlimit="10"/>
<path d="M-1680.36 1631.62C-1643.09 1496.89 -1495.01 1414.75 -1349.06 1396.92C-1285.98 1389.17 -1222.13 1390.61 -1158.27 1396.56C-1074.82 1404.12 -991.749 1418.53 -909.263 1425.38C-741.187 1439.43 -577.381 1418.89 -428.519 1350.81C-313.039 1298.21 -208.428 1230.3 -120.508 1145.65C-56.6551 1084.4 -6.77571 1011.81 28.7415 930.396C44.6564 894.191 57.854 856.544 70.0813 817.998C94.7299 740.364 115.497 660.929 147.327 587.077C183.426 503.319 236.605 426.046 315.791 378.132C339.857 363.542 364.7 351.474 391.678 342.828C504.828 306.623 628.653 336.523 751.896 379.033C805.657 397.766 859.224 418.12 909.492 438.114C965.776 460.449 1020.7 481.884 1073.3 500.257C1176.55 536.282 1271.85 564.021 1363.65 559.158C1423.23 555.916 1475.05 538.083 1529.01 511.065C1638.86 456.307 1758.99 354.176 1871.17 238.716C1902.03 206.834 1932.51 174.051 1962.98 140.908C2099.42 -7.33519 2235.47 -160.622 2370.55 -284.548" stroke="#D4E8F7" stroke-miterlimit="10"/>
<path d="M-1689.09 1618.11C-1649.11 1484.1 -1501.61 1401.96 -1355.46 1383.77C-1292.38 1375.84 -1228.34 1377.29 -1164.29 1383.41C-1080.83 1391.34 -997.765 1406.83 -915.474 1415.47C-747.786 1433.12 -584.368 1418.89 -433.953 1354.23C-317.309 1304.15 -210.951 1240.21 -120.12 1159.15C-53.938 1100.07 -2.50586 1028.56 34.37 947.687C50.8671 911.662 64.6469 874.196 77.2624 835.83C102.881 758.376 124.619 678.761 157.613 605.63C195.071 522.412 249.803 447.12 331.512 401.909C355.966 388.399 381.197 377.231 408.175 369.666C521.714 338.144 643.986 372.008 767.035 414.878C820.99 433.611 874.945 453.244 925.795 471.617C982.661 492.151 1037.98 510.884 1090.57 525.835C1193.44 555.195 1286.6 575.189 1371.41 562.4C1426.92 554.114 1471.75 531.238 1520.27 500.257C1618.87 437.033 1731.82 327.697 1842.06 207.554C1872.34 174.411 1902.81 140.547 1933.48 106.504C2071.08 -45.8821 2215.67 -197.727 2359.29 -313.548" stroke="#D4E8F7" stroke-miterlimit="10"/>
<path d="M-1698.02 1604.78C-1655.32 1471.49 -1508.4 1389.53 -1362.06 1370.8C-1298.79 1362.7 -1234.55 1363.96 -1170.5 1370.44C-1086.85 1378.91 -1004.17 1395.48 -921.879 1405.75C-754.385 1426.82 -591.355 1419.25 -439.582 1357.83C-321.773 1310.46 -213.475 1250.3 -119.926 1172.66C-51.221 1115.74 1.56969 1045.5 39.8041 965.16C56.6894 929.315 71.0515 892.029 84.4433 853.662C111.033 776.389 133.935 696.593 167.899 624.003C206.716 541.506 263 467.834 347.232 425.505C372.269 412.896 397.694 402.809 424.866 396.325C538.792 369.306 659.318 407.493 782.367 450.362C836.516 469.276 890.86 488.008 942.098 504.76C999.546 523.493 1055.25 539.524 1107.84 551.232C1210.32 574.108 1301.54 585.816 1379.17 565.462C1430.8 551.953 1468.65 524.214 1511.34 489.089C1598.49 417.58 1704.46 300.678 1812.76 176.032C1842.45 141.448 1872.92 106.504 1903.78 71.7396C2042.74 -84.789 2195.49 -235.193 2347.65 -343.088" stroke="#D4E8F7" stroke-miterlimit="10"/>
<path d="M-1706.75 1591.27C-1661.34 1458.88 -1515 1376.75 -1368.46 1357.47C-1305.19 1349.19 -1240.76 1350.45 -1176.52 1357.29C-1092.87 1366.12 -1010.19 1383.77 -928.09 1395.84C-760.984 1420.52 -598.148 1419.43 -445.016 1361.25C-326.043 1316.4 -215.804 1260.2 -119.538 1185.99C-48.5037 1131.24 5.83968 1062.25 45.4327 982.452C62.9002 946.967 77.8446 909.681 91.6245 871.315C119.184 794.041 143.057 714.246 178.186 642.196C218.361 560.239 276.198 488.369 362.953 449.102C388.378 437.574 414.191 428.387 441.363 422.983C555.872 400.468 674.651 442.977 797.506 485.847C851.655 504.76 906.58 522.773 958.207 537.903C1016.04 554.835 1072.52 568.164 1124.92 576.45C1227.01 592.661 1316.29 596.084 1386.55 568.344C1434.49 549.431 1464.96 517.009 1502.22 477.922C1578.11 397.946 1676.9 273.84 1783.26 144.51C1812.56 108.665 1842.64 72.6402 1873.89 36.9755C2014.02 -123.696 2175.3 -272.839 2336 -372.449" stroke="#D4E8F7" stroke-miterlimit="10"/>
<path d="M-1715.49 1577.76C-1667.35 1446.09 -1521.6 1363.96 -1374.68 1344.32C-1311.21 1335.86 -1246.58 1336.94 -1182.34 1344.14C-1098.69 1353.51 -1016.01 1372.24 -934.3 1385.93C-767.583 1414.21 -605.135 1419.61 -450.45 1364.86C-330.313 1322.53 -218.327 1270.29 -119.15 1199.5C-45.5926 1146.91 10.1093 1079.18 51.0609 999.744C69.1107 964.439 84.6373 927.333 98.9995 888.967C127.53 811.873 152.372 731.898 188.666 660.388C230.2 578.972 289.395 508.903 378.868 472.518C404.875 461.89 430.882 453.785 458.248 449.642C573.145 431.629 690.177 478.282 813.032 521.331C867.376 540.425 922.689 557.537 974.898 571.226C1033.32 586.537 1090.18 596.984 1142.59 602.027C1244.29 611.754 1332.01 606.531 1394.7 571.586C1438.95 547.089 1462.24 510.164 1493.68 467.114C1558.12 378.673 1649.92 247.361 1754.14 113.348C1782.87 76.2426 1812.95 38.9568 1844.39 2.57153C1985.68 -162.243 2155.31 -309.945 2324.55 -401.449" stroke="#D4E8F7" stroke-miterlimit="10"/>
<path d="M-1724.22 1564.26C-1673.37 1433.3 -1528.2 1351.17 -1381.08 1331.17C-1317.62 1322.53 -1252.79 1323.43 -1188.36 1330.99C-1104.71 1340.72 -1022.22 1360.53 -940.511 1376.2C-773.988 1407.91 -611.928 1419.97 -455.885 1368.46C-334.583 1328.65 -220.656 1280.38 -118.762 1213.19C-42.6816 1162.94 14.3789 1096.29 56.6891 1017.4C75.3211 982.451 91.2359 945.346 106.18 906.979C135.875 830.066 161.494 749.91 198.952 679.121C241.845 598.425 302.593 529.977 394.588 496.654C420.984 487.108 447.379 480.083 474.745 476.84C590.03 463.331 705.51 514.306 828.17 557.356C882.708 576.45 938.216 592.841 991.006 604.909C1050.01 618.419 1107.26 626.164 1159.47 627.785C1260.78 630.847 1346.57 616.617 1402.08 575.009C1442.44 544.748 1458.55 503.499 1484.56 456.306C1537.74 359.399 1622.17 220.703 1724.64 82.1866C1752.98 43.82 1782.87 5.45343 1814.5 -32.0126C1956.96 -200.97 2135.13 -347.231 2312.91 -430.809" stroke="#D4E8F7" stroke-miterlimit="10"/>
<path d="M-1732.95 1550.75C-1679.58 1420.52 -1534.79 1338.56 -1387.48 1318.02C-1323.83 1309.2 -1259 1310.1 -1194.57 1317.84C-1110.72 1328.11 -1028.43 1348.83 -946.916 1366.3C-780.78 1401.6 -619.109 1419.98 -461.513 1371.88C-338.852 1334.6 -222.985 1290.47 -118.568 1226.52C-39.9639 1178.43 18.4551 1113.04 62.1239 1034.51C81.3381 999.744 97.8352 962.818 113.168 924.451C143.833 847.538 170.422 767.382 209.045 697.134C253.296 616.978 315.403 550.151 410.115 519.89C437.093 511.244 463.682 505.3 491.242 503.139C607.11 494.313 720.649 549.251 843.309 592.661C897.847 611.934 953.937 627.425 1007.12 637.872C1066.7 649.58 1124.34 654.804 1176.55 653.003C1277.28 649.581 1361.32 625.804 1409.45 577.891C1446.13 541.506 1455.06 496.294 1475.24 445.139C1516.97 339.766 1594.41 193.864 1694.95 50.6649C1722.7 10.8572 1752.4 -28.41 1784.42 -66.7767C1928.24 -239.877 2114.56 -384.697 2301.07 -460.17" stroke="#D4E8F7" stroke-miterlimit="10"/>
<path d="M-1741.69 1537.42C-1685.6 1408.09 -1541.39 1325.95 -1393.89 1305.06C-1330.23 1296.05 -1265.02 1296.77 -1200.58 1305.06C-1116.74 1315.68 -1034.45 1337.66 -953.127 1356.75C-787.185 1395.66 -625.902 1420.52 -466.948 1375.66C-343.123 1341.08 -225.314 1300.73 -118.18 1240.21C-37.2473 1194.46 22.7245 1130.15 67.7519 1052.16C87.5484 1017.76 104.628 980.831 120.542 942.464C152.178 865.731 179.738 785.575 219.719 715.687C265.329 636.251 328.794 571.046 426.418 543.667C453.783 535.922 480.761 531.058 508.515 529.978C624.771 525.655 736.757 584.916 859.224 628.326C913.955 647.779 970.433 662.37 1024.19 671.376C1084.36 681.283 1142.59 683.804 1194.6 678.761C1294.94 668.854 1376.65 635.531 1417.99 581.493C1450.4 538.984 1452.54 489.81 1467.29 434.511C1497.56 320.672 1568.02 167.566 1666.61 19.8637C1693.78 -21.2047 1723.48 -61.7329 1755.5 -100.82C1900.48 -277.883 2095.15 -421.623 2290.2 -488.809" stroke="#D4E8F7" stroke-miterlimit="10"/>
<path d="M-1750.42 1523.91C-1691.61 1395.3 -1547.99 1313.16 -1400.1 1291.73C-1336.25 1282.54 -1271.04 1283.08 -1206.41 1291.73C-1122.56 1302.71 -1040.46 1325.77 -959.143 1346.66C-793.59 1388.99 -632.501 1420.52 -472.382 1379.09C-347.392 1347.02 -227.643 1310.82 -117.986 1253.54C-34.5299 1209.95 26.8005 1146.91 73.1864 1069.45C93.5651 1035.23 111.227 998.483 127.53 960.116C160.136 883.563 188.666 803.227 229.812 734.059C276.586 655.164 341.604 591.58 441.945 567.444C469.893 560.779 497.064 556.816 524.818 556.816C641.462 556.996 751.702 620.58 874.168 663.991C929.094 683.444 985.96 697.314 1040.11 704.699C1100.86 712.985 1159.47 712.624 1211.49 704.158C1311.44 687.767 1390.62 644.717 1425.37 584.555C1453.51 535.742 1448.85 482.785 1457.97 423.524C1476.8 301.219 1540.26 140.727 1636.92 -11.4781C1663.7 -53.8075 1693.2 -95.4164 1725.42 -135.404C1871.56 -316.61 2074.77 -458.909 2278.36 -517.99" stroke="#D4E8F7" stroke-miterlimit="10"/>
<path d="M-1759.35 1510.4C-1697.82 1382.51 -1554.98 1300.37 -1406.7 1278.58C-1342.85 1269.21 -1277.25 1269.75 -1212.62 1278.58C-1128.58 1290.11 -1046.67 1314.06 -965.547 1336.76C-800.383 1382.69 -639.681 1420.7 -478.01 1382.51C-351.856 1352.97 -230.166 1320.73 -117.791 1267.05C-31.8125 1225.8 30.8765 1163.84 78.621 1086.74C99.582 1052.7 117.632 1016.14 134.711 977.769C168.288 901.215 197.788 820.88 240.098 752.252C288.231 674.078 354.608 611.935 457.666 590.86C486.002 585.096 513.562 582.394 541.51 583.475C658.736 588.158 767.229 655.885 889.695 699.475C944.621 719.109 1002.07 732.078 1056.61 737.842C1117.94 744.326 1176.94 741.444 1228.95 729.556C1328.32 706.68 1404.79 654.084 1433.32 587.618C1456.81 532.679 1445.74 475.76 1449.43 412.356C1456.81 281.585 1513.09 113.889 1607.8 -43C1634.01 -86.7704 1663.51 -129.46 1695.92 -170.168C1843.42 -355.517 2054.78 -496.375 2266.91 -547.53" stroke="#D4E8F7" stroke-miterlimit="10"/>
<path d="M-1768.08 1496.89C-1703.84 1369.9 -1561.58 1287.58 -1413.1 1265.43C-1349.06 1255.88 -1283.46 1256.24 -1218.63 1265.61C-1134.59 1277.5 -1052.88 1302.71 -971.952 1327.03C-806.981 1376.56 -646.668 1421.06 -483.638 1386.11C-356.32 1359.09 -232.495 1330.99 -117.597 1280.56C-29.0952 1241.65 34.9522 1180.77 84.0553 1104.22C105.599 1070.53 124.231 1033.97 141.698 995.781C176.245 919.408 206.716 838.892 250.191 770.805C299.682 693.171 367.417 632.649 473.193 614.636C502.111 609.773 529.865 608.152 557.813 610.313C675.427 619.5 782.173 691.55 904.64 735.14C959.759 754.774 1017.4 767.022 1072.72 771.165C1134.43 775.848 1194.02 770.264 1245.84 754.954C1344.82 725.773 1418.18 663.45 1440.5 590.68C1459.33 529.617 1442.06 468.735 1439.92 401.368C1435.85 262.312 1485.14 87.2303 1577.91 -74.3418C1603.73 -119.373 1632.84 -163.143 1665.64 -204.932C1814.31 -394.424 2034.2 -534.021 2254.88 -576.891" stroke="#D4E8F7" stroke-miterlimit="10"/>
<path d="M-1776.82 1483.38C-1709.86 1357.11 -1568.18 1274.97 -1419.51 1252.28C-1355.46 1242.55 -1289.47 1242.91 -1224.65 1252.46C-1140.61 1264.89 -1058.9 1291.01 -978.163 1317.12C-813.58 1370.08 -653.655 1421.06 -489.073 1389.71C-360.589 1365.4 -234.823 1341.26 -117.209 1294.07C-25.9898 1257.5 39.4164 1197.7 89.684 1121.51C111.809 1088 131.024 1051.8 148.879 1013.43C184.397 937.24 216.032 856.544 260.477 789.177C311.327 712.084 380.615 653.003 488.913 638.413C518.22 634.45 546.556 633.91 574.504 637.152C692.701 650.841 797.7 727.214 919.973 770.985C975.286 790.799 1033.32 802.146 1089.02 804.848C1151.32 807.73 1211.49 799.625 1263.11 780.892C1361.71 745.227 1431.77 673.537 1448.27 594.282C1462.24 527.096 1438.76 462.251 1431.19 390.921C1415.47 243.399 1457.97 60.932 1548.8 -105.143C1574.03 -151.435 1603.15 -196.467 1636.14 -238.976C1785.97 -432.61 2014.21 -570.766 2243.43 -605.531" stroke="#D4E8F7" stroke-miterlimit="10"/>
<path d="M-1785.55 1470.05C-1715.87 1344.5 -1574.78 1262.37 -1425.72 1239.31C-1361.48 1229.4 -1295.49 1229.58 -1230.47 1239.49C-1146.24 1252.28 -1064.72 1279.66 -984.179 1307.4C-819.985 1363.96 -660.254 1421.42 -494.313 1393.32C-364.471 1371.52 -236.958 1351.53 -116.627 1307.58C-22.8845 1273.35 43.8802 1214.45 95.5064 1138.98C118.214 1105.84 138.011 1069.63 156.448 1031.27C192.936 955.073 225.542 874.377 271.152 807.55C323.36 731.177 394.006 673.357 505.022 662.009C534.717 658.947 563.441 659.487 591.389 663.81C709.974 682.183 813.227 762.519 935.499 806.469C991.007 826.283 1049.43 836.911 1105.52 837.991C1168.4 839.252 1228.95 828.265 1280.58 806.109C1378.79 763.96 1445.55 683.084 1456.22 597.164C1465.15 524.214 1435.46 455.046 1422.45 379.573C1394.89 223.585 1430.8 33.9133 1519.69 -136.845C1544.34 -184.398 1573.45 -230.51 1606.64 -273.92C1757.44 -471.698 1994.03 -608.593 2231.98 -635.251" stroke="#D4E8F7" stroke-miterlimit="10"/>
<path d="M-1794.28 1456.54C-1721.89 1331.71 -1581.37 1249.58 -1432.12 1225.98C-1367.88 1215.89 -1301.7 1215.89 -1236.49 1226.16C-1152.26 1239.49 -1070.93 1267.77 -990.39 1297.31C-826.39 1357.47 -667.242 1421.42 -499.748 1396.56C-368.741 1377.29 -239.094 1361.61 -116.239 1320.73C-19.9737 1288.84 48.1496 1231.02 101.134 1156.09C124.23 1123.13 144.609 1087.1 163.629 1048.74C201.281 972.725 234.664 892.029 281.438 825.563C335.005 749.73 407.01 693.531 520.743 685.245C551.02 683.084 579.938 684.885 608.08 690.109C727.053 712.985 828.753 797.643 950.831 841.594C1006.34 861.588 1065.34 871.315 1121.82 870.774C1185.28 870.234 1246.23 856.724 1297.85 831.147C1395.67 782.513 1459.14 692.45 1463.79 599.866C1467.68 520.971 1431.96 447.66 1413.53 368.225C1374.71 203.951 1403.24 6.89454 1490.38 -168.547C1514.64 -217.541 1543.37 -264.734 1576.94 -308.865C1728.91 -510.425 1973.84 -645.879 2220.33 -664.431" stroke="#D4E8F7" stroke-miterlimit="10"/>
<path d="M-1803.02 1443.03C-1727.91 1319.11 -1587.97 1236.79 -1438.53 1212.83C-1374.09 1202.56 -1307.72 1202.56 -1242.5 1213.19C-1158.27 1226.88 -1076.95 1256.24 -996.601 1287.58C-832.989 1351.17 -674.034 1421.78 -505.182 1400.16C-373.011 1383.41 -241.423 1371.88 -115.851 1334.42C-17.0622 1304.88 52.4197 1248.14 106.763 1173.56C130.441 1140.96 151.402 1104.94 171.005 1066.57C209.627 990.737 243.98 909.861 292.113 844.116C347.038 769.004 420.402 713.885 536.852 709.202C567.517 707.941 596.823 710.823 624.966 717.308C744.521 744.687 844.28 833.668 966.358 877.619C1022.06 897.793 1081.45 906.619 1138.51 904.458C1202.56 902.116 1264.08 886.085 1315.51 857.085C1412.94 802.147 1473.11 702.898 1471.95 603.469C1470.97 518.81 1429.25 441.176 1404.99 357.598C1354.72 184.858 1376.26 -19.5837 1461.27 -199.349C1484.95 -249.603 1513.67 -297.877 1547.44 -343.088C1700.96 -548.971 1954.24 -683.164 2209.27 -693.612" stroke="#D4E8F7" stroke-miterlimit="10"/>
<path d="M-1811.75 1429.52C-1734.12 1306.32 -1594.57 1224.18 -1444.93 1199.68C-1380.5 1189.23 -1313.93 1189.05 -1248.52 1200.04C-1164.29 1214.09 -1082.97 1244.71 -1002.81 1277.68C-839.587 1344.86 -680.827 1421.96 -510.81 1403.76C-377.475 1389.53 -243.945 1382.15 -115.656 1347.92C-14.3448 1320.73 56.4956 1265.07 112.003 1191.04C136.264 1158.61 157.807 1122.77 177.798 1084.4C217.391 1008.57 252.714 927.693 302.011 862.488C358.295 787.916 433.211 734.239 552.184 732.798C583.432 732.438 612.933 736.401 641.269 743.966C761.212 775.848 859.418 868.973 981.303 913.103C1037.2 933.277 1096.98 941.383 1154.43 937.78C1219.05 933.638 1281.16 915.085 1332.21 882.482C1429.44 821.24 1486.11 712.984 1479.13 606.531C1473.11 516.288 1425.37 434.151 1395.67 346.61C1333.95 165.404 1348.51 -46.2424 1431.58 -230.69C1454.67 -282.206 1483.4 -331.56 1517.17 -377.672C1671.85 -587.698 1933.67 -720.45 2197.24 -722.972" stroke="#D4E8F7" stroke-miterlimit="10"/>
<path d="M-1820.68 1416.19C-1740.33 1293.71 -1601.37 1211.57 -1451.34 1186.71C-1386.71 1176.09 -1319.94 1175.73 -1254.54 1187.07C-1170.11 1201.66 -1089.18 1233.19 -1009.22 1267.95C-846.187 1338.74 -688.009 1422.14 -516.439 1407.37C-381.939 1395.84 -246.275 1392.78 -115.657 1361.43C-11.8224 1336.94 60.3766 1282 117.243 1208.33C142.086 1176.09 164.017 1140.42 184.59 1102.05C225.153 1026.4 261.447 945.346 311.908 880.681C369.551 806.65 445.826 754.413 567.516 756.215C599.152 756.755 629.041 761.798 657.377 770.444C777.708 806.83 874.168 904.277 996.052 948.588C1051.95 968.942 1112.11 976.147 1170.15 970.924C1235.36 965.16 1297.85 943.725 1348.9 907.88C1445.74 840.153 1499.12 723.072 1486.11 609.593C1475.05 513.586 1421.29 427.306 1385.97 335.623C1312.8 146.131 1320.37 -72.9008 1401.49 -262.032C1424.2 -314.809 1452.54 -365.424 1486.7 -412.256C1642.54 -626.425 1912.71 -757.736 2184.81 -752.152" stroke="#D4E8F7" stroke-miterlimit="10"/>
<path d="M-1829.41 1402.68C-1710.44 1228.5 -1478.51 1135.2 -1260.55 1173.92C-1003.98 1219.5 -779.616 1427.9 -521.873 1410.79C-386.209 1401.78 -248.604 1402.86 -115.268 1374.76C37.4754 1342.7 122.678 1245.79 191.966 1119.71C281.05 957.774 350.532 770.084 583.432 779.811C751.896 786.836 861.165 929.315 1011.58 984.073C1130.75 1027.48 1270.1 1007.49 1366.56 933.277C1463.02 859.066 1513.29 733.158 1494.27 612.655C1478.35 511.064 1418.57 420.281 1377.62 324.455C1269.32 71.1992 1300.38 -228.709 1457.58 -447.02C1614.79 -665.332 1893.11 -795.382 2173.95 -781.512" stroke="#D4E8F7" stroke-miterlimit="10"/>
<path d="M-1815.63 1427.54C-1694.91 1267.05 -1464.34 1180.23 -1247.94 1215.71C-1139.64 1233.37 -1036.97 1278.22 -935.658 1321.63C-831.824 1366.3 -729.542 1409.71 -622.796 1422.32C-588.443 1426.46 -553.508 1427.36 -518.185 1423.94C-385.238 1411.15 -251.126 1408.09 -118.373 1379.09C32.0413 1346.3 118.991 1253.36 190.607 1134.3C207.104 1106.92 223.019 1079 239.322 1051.44C287.067 970.383 337.917 893.65 418.461 850.96C463.489 827.184 517.638 813.674 584.985 815.836C751.314 821.059 860.001 951.29 1005.76 998.122C1025.17 1004.25 1044.96 1008.75 1064.95 1011.63C1164.52 1025.68 1269.91 999.023 1346.76 936.34C1439.15 861.047 1486.89 736.401 1469.62 617.158C1455.06 516.108 1398.97 424.785 1361.32 328.958C1296.3 163.603 1288.93 -20.6646 1335.7 -188.181C1360.93 -277.703 1401.49 -362.181 1457 -436.753C1558.12 -572.928 1706.98 -673.618 1874.09 -726.754C1970.16 -757.376 2072.25 -771.786 2174.53 -767.643" stroke="#D4E8F7" stroke-miterlimit="10"/>
<path d="M-1801.85 1452.58C-1679.39 1305.6 -1450.17 1225.44 -1235.32 1257.86C-1127.41 1274.07 -1025.13 1314.78 -924.79 1353.33C-821.926 1392.96 -721.779 1430.6 -616.78 1439.25C-583.009 1442.13 -548.851 1441.77 -514.304 1437.45C-384.268 1421.06 -253.262 1413.85 -121.285 1383.59C26.9946 1350.09 115.302 1260.74 189.442 1148.89C206.522 1123.13 223.213 1097.01 239.904 1071.25C289.201 995.601 340.633 924.632 421.178 885.364C466.399 863.389 520.16 850.6 586.343 852.041C750.537 855.464 858.836 973.626 999.934 1012.53C1018.76 1017.58 1037.78 1021.18 1057.19 1023.16C1153.07 1032.71 1253.8 1003.35 1327.16 939.942C1415.27 863.569 1460.88 740.184 1444.97 622.022C1431.58 521.512 1379.56 429.828 1345.21 333.822C1285.82 168.467 1282.52 -15.0807 1331.82 -180.616C1358.6 -269.417 1400.52 -352.815 1456.81 -426.126C1559.48 -559.959 1708.53 -658.487 1875.83 -711.444C1971.71 -741.885 2073.41 -756.655 2175.5 -753.413" stroke="#D4E8F7" stroke-miterlimit="10"/>
<path d="M-1788.27 1477.61C-1664.05 1344.32 -1436.2 1270.47 -1222.71 1299.83C-1115.38 1314.42 -1013.49 1351.17 -914.116 1385.03C-812.222 1419.61 -714.016 1451.68 -611.152 1456.18C-577.963 1457.62 -544.775 1456.18 -510.81 1450.96C-383.492 1430.78 -255.979 1419.25 -124.779 1388.09C21.1721 1353.51 111.227 1268.31 187.501 1163.48C205.163 1139.34 222.437 1115.02 239.71 1091.07C290.56 1021 342.768 955.613 423.119 919.768C468.534 899.414 522.101 887.526 587.119 888.246C749.179 889.687 856.895 996.141 993.336 1026.76C1011.39 1030.91 1030.02 1033.25 1048.46 1034.33C1140.64 1039.55 1236.52 1007.49 1306.39 943.004C1390.43 865.55 1433.71 743.425 1419.35 626.344C1407.32 526.195 1358.99 434.331 1327.94 338.144C1274.17 172.609 1274.37 -9.85715 1326.58 -173.411C1354.72 -261.672 1398.19 -343.809 1455.25 -415.859C1559.48 -547.53 1708.73 -643.717 1876.41 -696.674C1972.1 -726.935 2073.6 -741.885 2175.3 -739.543" stroke="#D4E8F7" stroke-miterlimit="10"/>
<path d="M-1774.49 1502.65C-1648.53 1383.05 -1422.03 1315.68 -1210.09 1341.8C-1103.15 1354.77 -1001.84 1387.73 -903.441 1416.55C-802.712 1446.27 -706.252 1472.39 -605.329 1472.75C-572.917 1472.93 -540.311 1470.41 -507.123 1464.11C-382.715 1440.51 -258.308 1424.48 -127.884 1392.42C15.7375 1357.11 107.539 1275.7 186.143 1177.89C204.387 1155.37 222.242 1132.86 240.098 1110.88C292.5 1046.22 345.485 986.595 425.642 953.992C471.251 935.439 524.624 924.632 588.478 924.272C748.402 923.551 855.73 1018.12 987.319 1040.81C1004.79 1043.87 1022.64 1045.32 1040.5 1045.5C1129 1046.22 1220.22 1011.45 1286.6 946.247C1366.36 867.712 1407.12 746.849 1394.51 631.028C1383.64 531.419 1339.39 439.015 1311.63 342.648C1263.5 177.113 1267.58 -4.63308 1322.31 -166.025C1352 -253.746 1396.64 -334.622 1454.67 -405.591C1560.45 -534.921 1710.09 -628.946 1877.77 -681.723C1973.26 -711.804 2074.38 -727.115 2175.89 -725.674" stroke="#D4E8F7" stroke-miterlimit="10"/>
<path d="M-1760.71 1527.69C-1632.81 1421.6 -1408.06 1360.89 -1197.48 1383.77C-1091.12 1395.12 -990.003 1424.12 -892.573 1448.07C-792.814 1472.75 -698.489 1493.29 -599.313 1489.5C-567.483 1488.42 -535.653 1484.64 -503.436 1477.44C-381.745 1450.24 -260.831 1429.88 -131.184 1396.74C10.109 1360.53 103.657 1282.9 184.59 1192.3C203.416 1171.22 222.048 1150.69 240.292 1130.51C294.053 1071.25 347.814 1017.58 428.164 988.216C473.968 971.464 526.953 961.017 589.836 960.296C747.626 958.495 854.371 1040.27 981.302 1055.04C998.187 1057.02 1015.27 1057.38 1032.35 1056.66C1117.16 1052.88 1203.72 1015.59 1266.6 949.489C1342.3 869.693 1380.73 750.271 1369.66 635.531C1360.15 536.462 1319.59 443.698 1295.33 347.151C1253.02 181.616 1260.78 0.770385 1318.04 -158.82C1349.28 -246.001 1395.28 -325.616 1454.09 -395.324C1561.22 -522.313 1711.25 -613.996 1879.33 -666.773C1974.81 -696.674 2075.35 -712.344 2176.47 -711.804" stroke="#D4E8F7" stroke-miterlimit="10"/>
<path d="M-1747.12 1552.55C-1617.47 1460.14 -1394.08 1405.75 -1184.86 1425.74C-1078.89 1435.47 -978.357 1460.5 -881.898 1479.78C-783.109 1499.59 -690.726 1514.18 -593.684 1506.44C-562.437 1503.91 -531.383 1499.23 -499.942 1490.94C-381.163 1459.96 -263.354 1435.47 -134.483 1401.24C4.481 1364.32 99.776 1290.47 183.038 1206.89C202.446 1187.43 221.66 1168.7 240.486 1150.33C295.8 1096.65 350.338 1048.56 430.494 1022.62C476.686 1007.67 529.282 997.942 591.001 996.501C746.656 992.899 853.013 1062.61 975.092 1069.27C991.395 1070.17 1007.7 1069.63 1024 1068.01C1105.13 1059.73 1187.03 1019.92 1246.42 952.911C1317.84 872.035 1353.94 754.053 1344.43 640.214C1336.09 541.686 1299.4 448.381 1278.44 351.834C1241.76 186.299 1253.41 6.35412 1313.18 -151.255C1345.98 -237.715 1393.34 -316.25 1453.12 -384.697C1561.81 -509.524 1712.03 -598.866 1880.3 -651.462C1975.59 -681.363 2075.93 -697.214 2176.66 -697.394" stroke="#D4E8F7" stroke-miterlimit="10"/>
<path d="M-1733.34 1577.58C-1601.95 1498.69 -1379.92 1450.96 -1172.25 1467.71C-1066.86 1475.81 -966.518 1496.89 -871.223 1511.3C-773.405 1526.07 -683.156 1534.89 -587.861 1523.19C-557.39 1519.4 -526.919 1513.46 -496.254 1504.45C-380.192 1469.87 -265.877 1441.05 -137.782 1405.75C-0.953069 1368.1 95.8945 1298.03 181.485 1221.66C201.476 1203.83 221.272 1186.71 240.681 1170.32C297.353 1122.05 352.861 1079.9 432.823 1057.2C479.209 1044.05 531.612 1035.05 591.972 1032.89C745.492 1027.48 851.461 1085.12 968.687 1083.68C984.408 1083.5 1000.13 1081.88 1015.66 1079.36C1092.9 1066.57 1170.34 1024.06 1226.24 956.333C1293.58 874.376 1327.35 757.656 1319.4 645.077C1312.41 547.089 1279.8 453.424 1261.95 356.697C1231.28 190.982 1246.61 11.938 1308.72 -143.51C1343.07 -229.429 1391.6 -306.703 1452.34 -374.07C1562.58 -496.555 1713.19 -583.735 1881.66 -636.332C1976.76 -666.052 2076.71 -682.084 2177.24 -683.344" stroke="#D4E8F7" stroke-miterlimit="10"/>
<path d="M-1719.56 1602.62C-1586.42 1537.42 -1365.75 1496.53 -1159.63 1509.68C-1054.63 1516.34 -954.873 1533.45 -860.354 1542.82C-763.701 1552.55 -675.199 1555.61 -581.845 1539.94C-551.956 1534.89 -522.261 1527.87 -492.372 1517.78C-379.028 1479.6 -268.012 1446.63 -140.693 1410.25C-6.1934 1371.88 92.5951 1305.6 180.127 1236.25C200.7 1220.04 221.078 1204.73 241.069 1190.14C299.1 1147.45 355.578 1110.88 435.346 1091.43C481.926 1080.08 533.94 1071.61 593.33 1068.91C744.715 1061.71 850.296 1107.28 962.671 1097.91C977.615 1096.65 992.754 1094.13 1007.5 1090.71C1081.06 1073.41 1153.65 1028.38 1206.25 959.575C1269.32 876.538 1300.96 761.078 1294.36 649.58C1288.54 551.953 1259.81 458.108 1245.26 361.2C1220.22 195.485 1239.43 17.3418 1304.26 -136.305C1340.16 -221.684 1390.04 -297.697 1451.57 -363.803C1563.36 -484.126 1714.16 -568.965 1882.82 -621.381C1977.73 -650.922 2077.29 -667.313 2177.63 -669.475" stroke="#D4E8F7" stroke-miterlimit="10"/>
<path d="M-1705.98 1627.66C-1571.09 1575.96 -1351.97 1541.74 -1147.02 1551.65C-1042.6 1556.69 -943.034 1569.84 -849.68 1574.34C-753.997 1579.21 -667.63 1576.5 -576.216 1556.69C-546.91 1550.39 -517.991 1542.1 -488.879 1531.11C-378.445 1489.14 -270.729 1452.04 -143.993 1414.57C-11.8219 1375.48 88.7133 1312.8 178.574 1250.66C199.729 1236.07 220.884 1222.56 241.263 1209.77C300.652 1172.48 358.101 1141.86 437.869 1125.65C484.643 1116.1 536.464 1108.36 594.689 1104.94C743.939 1095.93 849.132 1129.25 956.848 1111.96C971.21 1109.62 985.573 1106.02 999.741 1101.69C1069.61 1079.9 1137.54 1032.17 1186.64 962.638C1245.64 878.52 1274.76 764.32 1269.9 654.084C1265.44 556.996 1240.6 462.611 1229.34 365.523C1209.93 199.808 1233.22 22.5655 1300.38 -129.1C1337.83 -213.759 1389.07 -288.691 1451.37 -353.536C1564.52 -471.517 1715.71 -554.195 1884.76 -606.431C1979.47 -635.791 2078.84 -652.543 2178.8 -655.425" stroke="#D4E8F7" stroke-miterlimit="10"/>
<path d="M-1692.2 1652.7C-1555.56 1614.69 -1337.8 1586.77 -1134.4 1593.62C-1030.37 1597.04 -931.389 1606.22 -839.005 1606.04C-744.293 1605.86 -659.866 1597.58 -570.394 1573.44C-541.864 1565.7 -513.528 1556.33 -485.191 1544.44C-377.475 1498.87 -273.058 1457.62 -147.292 1418.89C-17.2565 1379.09 85.0253 1320.19 177.021 1265.07C198.758 1252.1 220.496 1240.39 241.457 1229.4C302.205 1197.52 360.624 1172.84 440.198 1159.87C487.36 1152.13 538.598 1145.1 595.853 1140.96C742.968 1130.15 847.773 1151.41 950.637 1126.01C964.417 1122.59 978.003 1118.09 991.395 1112.86C1057.58 1086.56 1120.85 1036.31 1166.46 965.88C1221.19 880.681 1248.17 767.743 1244.67 658.587C1241.57 562.04 1220.41 467.294 1212.46 370.027C1198.87 204.312 1225.85 27.789 1295.52 -121.715C1334.73 -205.833 1386.94 -279.504 1450.21 -343.268C1564.91 -458.909 1716.3 -539.425 1885.54 -591.661C1980.06 -620.841 2079.04 -637.773 2178.6 -641.736" stroke="#D4E8F7" stroke-miterlimit="10"/>
<path d="M-1678.42 1677.55C-1540.03 1653.24 -1323.63 1631.8 -1121.78 1635.58C-1018.34 1637.57 -919.744 1642.61 -828.137 1637.57C-734.589 1632.52 -652.103 1618.29 -564.377 1590.19C-536.429 1581.19 -508.87 1570.74 -481.504 1557.77C-376.699 1508.42 -275.387 1463.02 -150.398 1423.4C-22.6908 1382.87 81.532 1327.75 175.662 1279.66C197.982 1268.31 220.302 1258.4 241.845 1249.22C303.951 1222.92 363.341 1204.01 442.721 1194.1C490.077 1188.15 541.121 1181.85 597.017 1176.99C741.998 1164.2 846.415 1173.38 944.427 1140.24C957.624 1135.74 970.628 1130.15 983.049 1124.03C1045.54 1093.23 1104.16 1040.45 1146.08 969.122C1196.73 882.842 1221.38 771.165 1219.44 663.09C1217.7 567.083 1200.42 471.977 1195.76 374.53C1187.81 208.815 1218.86 33.1928 1290.87 -114.51C1331.62 -197.908 1385.19 -270.498 1449.24 -333.001C1565.49 -446.48 1717.27 -524.654 1886.7 -576.71C1981.03 -605.711 2079.81 -623.003 2178.99 -627.866" stroke="#D4E8F7" stroke-miterlimit="10"/>
<path d="M-1664.83 1702.59C-1524.51 1691.78 -1309.66 1677.01 -1109.17 1677.55C-1006.11 1677.91 -907.905 1679.18 -817.462 1669.09C-724.884 1659 -644.34 1639.19 -558.749 1606.95C-531.383 1596.68 -504.6 1584.97 -478.01 1571.1C-375.922 1518.14 -278.104 1468.61 -153.891 1427.72C-28.319 1386.47 77.6505 1335.32 173.916 1294.07C196.818 1284.34 219.719 1276.24 241.845 1268.85C305.31 1247.96 365.67 1234.99 444.856 1228.32C492.407 1224.36 543.257 1218.42 597.988 1212.83C740.833 1198.24 844.862 1195.18 938.022 1154.11C950.638 1148.53 962.865 1142.04 974.704 1135.02C1033.51 1099.71 1087.27 1044.23 1125.89 972.005C1172.28 884.644 1194.79 774.227 1194.21 667.413C1193.82 571.767 1180.24 476.301 1178.88 378.853C1176.55 213.138 1211.68 38.4165 1286.01 -107.305C1328.32 -190.162 1383.25 -261.492 1448.27 -322.734C1566.08 -433.871 1718.04 -509.704 1887.67 -561.76C1981.8 -590.76 2080.2 -608.232 2179.19 -613.816" stroke="#D4E8F7" stroke-miterlimit="10"/>
<path d="M-1651.05 1727.63C-1508.98 1730.51 -1295.49 1722.04 -1096.55 1719.52C-994.078 1718.26 -896.26 1715.56 -806.787 1700.79C-715.18 1685.66 -636.576 1660.08 -552.926 1623.88C-526.337 1612.35 -500.136 1599.38 -474.322 1584.61C-375.146 1527.87 -280.433 1474.37 -156.996 1432.22C-33.7532 1390.25 74.3514 1342.88 172.363 1308.84C196.042 1300.73 219.331 1294.43 242.039 1289.02C306.863 1273.53 368.387 1266.69 447.379 1263.09C495.318 1260.92 545.586 1255.7 599.347 1249.4C740.251 1233.01 843.697 1217.69 932.005 1168.7C944.039 1162.04 955.49 1154.47 966.552 1146.55C1021.67 1106.74 1070.78 1048.74 1105.9 975.607C1148.21 887.166 1168.4 778.01 1169.37 672.276C1170.15 577.17 1160.64 481.344 1162.58 383.716C1165.88 217.821 1204.89 44.1805 1281.74 -99.5593C1325.61 -181.876 1381.7 -251.945 1447.69 -311.927C1566.85 -420.722 1719.21 -494.393 1889.22 -546.269C1983.36 -575.089 2081.17 -592.922 2179.96 -599.406" stroke="#D4E8F7" stroke-miterlimit="10"/>
<path d="M-1637.27 1752.67C-1493.45 1769.06 -1281.32 1767.26 -1083.94 1761.49C-981.851 1758.61 -884.421 1751.95 -795.919 1732.31C-705.282 1712.32 -628.813 1680.98 -546.91 1640.63C-520.903 1627.84 -495.478 1613.61 -470.441 1597.94C-373.982 1537.42 -282.762 1479.78 -160.102 1436.73C-38.9937 1394.04 70.8574 1350.63 171.004 1323.43C195.265 1316.94 219.137 1312.44 242.427 1308.84C308.61 1298.57 371.104 1295.87 449.902 1297.31C498.035 1298.21 548.108 1292.45 600.705 1285.42C739.475 1267.05 842.533 1239.67 925.989 1182.75C937.44 1175.01 948.114 1166.54 958.595 1157.71C1010.03 1113.4 1054.47 1052.7 1086.11 978.849C1124.15 889.327 1142.2 781.432 1144.53 676.779C1146.66 582.214 1140.84 486.027 1146.08 388.039C1155.01 222.144 1198.09 49.4041 1277.47 -92.5344C1323.08 -174.131 1380.34 -243.119 1447.1 -302.02C1567.82 -408.654 1720.57 -479.983 1890.58 -531.859C1984.52 -560.499 2082.14 -578.512 2180.54 -585.897" stroke="#D4E8F7" stroke-miterlimit="10"/>
<path d="M-1623.68 1777.52C-1478.12 1807.6 -1267.54 1811.75 -1071.32 1803.28C-969.817 1798.6 -872.776 1788.33 -785.244 1763.65C-695.772 1738.62 -621.05 1701.69 -541.282 1657.02C-515.857 1642.79 -491.208 1627.66 -466.948 1610.91C-373.399 1546.78 -285.286 1485 -163.401 1440.69C-44.6222 1397.46 67.1699 1357.65 169.452 1337.48C194.295 1332.61 218.749 1329.73 242.621 1328.11C309.968 1323.25 373.627 1328.65 452.231 1331.17C500.752 1332.79 550.243 1328.83 601.675 1321.09C738.31 1300.91 840.98 1261.29 919.778 1196.62C930.453 1187.79 940.739 1178.25 950.249 1168.52C997.994 1119.71 1037.78 1056.48 1065.92 981.731C1099.89 891.128 1115.41 784.494 1119.3 681.103C1122.79 587.077 1120.46 490.35 1129.39 392.362C1143.56 226.467 1191.11 54.6279 1272.82 -85.3292C1319.98 -166.385 1378.59 -234.113 1446.13 -291.753C1568.4 -396.045 1721.34 -465.213 1891.75 -516.909C1985.49 -545.369 2082.73 -563.741 2180.74 -572.027" stroke="#D4E8F7" stroke-miterlimit="10"/>
<path d="M-1609.9 1802.56C-1462.6 1846.33 -1253.37 1856.96 -1058.71 1845.43C-957.59 1839.13 -861.131 1824.9 -774.569 1795.54C-686.067 1765.64 -613.48 1722.77 -535.459 1674.13C-510.81 1658.64 -486.938 1642.25 -463.26 1624.6C-372.429 1556.69 -287.614 1490.94 -166.506 1445.37C-49.8623 1401.42 63.6764 1365.76 168.093 1352.25C193.518 1349.01 218.555 1348.29 243.009 1348.11C311.715 1347.39 376.345 1359.99 454.755 1365.76C503.469 1369.18 552.766 1365.76 603.034 1357.47C737.534 1335.32 839.622 1283.44 913.762 1211.03C923.854 1201.12 933.364 1190.68 942.098 1180.05C986.155 1126.73 1021.28 1060.81 1045.93 985.334C1075.63 893.65 1089.02 788.277 1094.45 685.966C1099.31 592.301 1100.86 495.394 1112.89 397.226C1132.88 231.331 1184.31 60.3918 1268.35 -77.764C1317.26 -158.1 1376.84 -224.746 1445.36 -281.125C1568.99 -383.076 1722.31 -450.082 1892.91 -501.598C1986.46 -529.878 2083.31 -548.611 2181.13 -557.797" stroke="#D4E8F7" stroke-miterlimit="10"/>
<path d="M-1596.12 1827.6C-1447.07 1884.88 -1239.21 1902.17 -1046.09 1887.4C-945.557 1879.47 -849.292 1861.28 -763.701 1827.06C-676.17 1792.11 -605.329 1743.84 -529.443 1690.88C-505.376 1674.13 -482.28 1656.48 -459.573 1637.93C-371.653 1566.24 -289.944 1496.53 -169.806 1449.7C-55.4911 1405.21 59.9886 1373.32 166.54 1366.66C192.547 1365.04 218.166 1365.76 243.203 1367.74C313.267 1373.5 378.867 1391.16 457.083 1399.8C505.992 1405.21 555.095 1402.32 604.198 1393.32C736.563 1369.18 838.069 1305.24 907.55 1224.9C917.06 1213.91 925.794 1202.38 933.946 1190.86C974.121 1133.04 1004.59 1064.59 1025.94 988.036C1051.56 895.091 1062.62 791.159 1069.42 689.929C1075.63 596.804 1080.87 499.536 1096.39 401.188C1122.01 235.293 1177.52 65.2551 1263.89 -70.9194C1314.35 -150.535 1375.29 -216.28 1444.58 -271.398C1569.76 -371.188 1723.28 -435.853 1894.27 -487.188C1987.62 -515.288 2084.28 -534.201 2181.71 -544.288" stroke="#D4E8F7" stroke-miterlimit="10"/>
<path d="M-1582.54 1852.64C-1431.74 1923.6 -1225.23 1947.2 -1033.48 1929.37C-933.33 1919.82 -837.647 1897.67 -753.026 1858.58C-666.659 1818.77 -597.76 1764.55 -523.62 1707.63C-500.136 1689.62 -477.816 1670.71 -455.885 1651.26C-371.07 1575.6 -292.272 1502.29 -172.911 1454.2C-60.7309 1408.99 56.4954 1379.81 164.988 1381.43C191.772 1381.79 217.973 1383.77 243.592 1387.73C315.014 1398.72 381.585 1422.68 459.801 1434.39C508.904 1441.77 557.619 1439.25 605.751 1429.7C735.981 1403.76 837.099 1327.57 901.728 1239.49C910.656 1227.42 918.614 1214.99 925.989 1202.56C962.476 1140.24 988.29 1069.27 1006.15 991.818C1027.49 897.793 1036.62 795.122 1044.77 695.152C1052.34 602.568 1061.46 504.76 1080.29 406.412C1111.53 240.337 1171.31 71.3794 1259.81 -62.8137C1312.02 -141.889 1374.13 -206.373 1444.19 -260.231C1570.93 -357.678 1724.84 -420.182 1895.82 -471.517C1988.98 -499.437 2085.25 -518.71 2182.48 -529.698" stroke="#D4E8F7" stroke-miterlimit="10"/>
<path d="M-1568.76 1877.67C-1416.01 1962.15 -1211.06 1992.41 -1020.86 1971.34C-921.296 1960.17 -825.807 1934.23 -742.157 1890.28C-656.761 1845.43 -589.802 1785.63 -517.797 1724.57C-494.895 1705.29 -473.352 1685.3 -452.197 1664.76C-370.099 1585.51 -294.601 1508.06 -176.21 1458.7C-66.1649 1412.95 52.8081 1388.99 163.436 1396.02C190.801 1397.82 217.585 1401.78 243.786 1407.55C316.762 1423.76 383.915 1454.02 462.13 1468.79C511.427 1478.16 559.948 1476.17 606.722 1465.91C734.817 1437.99 835.353 1349.73 895.324 1253.72C903.67 1240.57 911.045 1227.06 917.644 1213.73C950.444 1146.91 971.599 1073.23 985.767 995.06C1003.04 899.954 1009.83 798.544 1019.34 699.655C1028.47 607.611 1041.08 509.443 1063.21 410.735C1100.08 244.66 1164.13 76.783 1254.77 -55.789C1308.72 -134.143 1371.8 -197.547 1443.03 -250.144C1571.32 -345.43 1725.42 -405.412 1896.79 -456.747C1989.76 -484.667 2085.83 -504.12 2182.49 -516.008" stroke="#D4E8F7" stroke-miterlimit="10"/>
<path d="M-1554.98 1902.53C-1400.49 2000.7 -1197.09 2037.44 -1008.25 2013.31C-909.07 2000.52 -814.163 1970.62 -731.483 1921.8C-647.057 1871.91 -582.039 1806.52 -511.975 1741.14C-489.85 1720.6 -468.889 1699.35 -448.51 1678.09C-369.324 1595.06 -296.931 1513.82 -179.316 1463.03C-71.4059 1416.73 49.1199 1396.74 162.076 1410.43C190.024 1413.85 217.39 1419.43 244.174 1427.18C318.508 1448.62 386.631 1485.18 464.652 1503.01C514.338 1514.36 562.276 1512.74 608.08 1501.93C733.846 1471.85 833.799 1371.52 889.306 1267.77C896.876 1253.54 903.669 1239.13 909.491 1224.9C938.604 1153.57 955.101 1077.38 965.775 998.303C978.779 902.116 983.437 801.966 994.5 704.158C1004.98 612.655 1021.48 514.127 1046.9 415.238C1089.41 249.163 1157.53 82.1867 1250.69 -48.4039C1306.39 -126.038 1370.63 -188.361 1442.64 -239.877C1572.29 -332.821 1726.78 -390.641 1898.35 -441.797C1991.31 -469.536 2086.8 -489.35 2183.26 -501.959" stroke="#D4E8F7" stroke-miterlimit="10"/>
<path d="M-1541.2 1927.57C-1302.67 2098.15 -957.396 2108.95 -720.614 1953.32C-637.353 1898.57 -574.275 1827.24 -505.958 1757.89C-400.571 1650.72 -329.148 1532.55 -182.421 1467.35C-50.6387 1408.81 107.151 1398.18 244.368 1446.99C320.061 1473.83 389.154 1516.52 466.982 1537.24C673.874 1592.17 846.026 1400.88 901.34 1236.07C957.624 1068.19 946.756 884.824 969.657 708.661C1001.29 464.592 1093.68 164.143 1246.23 -41.0189C1406.54 -256.809 1632.65 -347.411 1899.51 -426.847C1992.28 -454.406 2087.38 -474.4 2183.65 -488.089" stroke="#D4E8F7" stroke-miterlimit="10"/>
</g>
<mask id="mask1_94_16" style="mask-type:luminance" maskUnits="userSpaceOnUse" x="-170" y="-43" width="2329" height="1441">
<path d="M2159 -43H-170V1398H2159V-43Z" fill="white"/>
</mask>
<g mask="url(#mask1_94_16)">
<path d="M2546.59 818.718C2493.21 729.556 2432.08 643.096 2351.14 574.108C2270.21 505.12 2167.73 454.325 2058.27 446.94C1948.81 439.555 1832.94 480.263 1768.89 563.121C1733.57 608.692 1715.71 663.45 1693.2 715.506C1670.69 767.562 1641.19 819.979 1591.11 851.321C1541.04 882.662 1465.73 885.364 1425.17 843.755C1380.92 798.184 1394.12 722.531 1352.97 674.438C1306.78 620.4 1218.08 626.705 1144.72 638.053C1071.36 649.401 982.855 656.245 936.081 602.748C898.623 559.878 908.521 491.971 949.085 451.623C989.648 411.275 1053.31 396.325 1112.5 401.549C1171.7 406.772 1227.4 429.468 1280 455.046C1347.15 487.648 1425.56 526.375 1493.88 496.294C1531.72 479.723 1556.57 444.779 1571.7 408.573C1586.84 372.368 1594.22 333.822 1607.8 297.076C1651.28 179.815 1763.46 86.8702 1893.88 59.8514C1993.06 39.3172 2100.97 54.2675 2193.16 14.8202C2267.49 -16.8818 2320.48 -79.3852 2370.36 -139.547L2546.59 818.718Z" fill="#2B3640"/>
</g>
<mask id="mask2_94_16" style="mask-type:luminance" maskUnits="userSpaceOnUse" x="-170" y="-43" width="2329" height="1441">
<path d="M2159 -43H-170V1398H2159V-43Z" fill="white"/>
</mask>
<g mask="url(#mask2_94_16)">
<path d="M-576.41 1579.57C-392.419 1606.58 -197.754 1564.08 -46.1747 1463.57C76.2919 1382.51 175.857 1263.63 319.867 1223.28C394.589 1202.38 474.163 1205.09 551.99 1209.23C629.818 1213.37 708.81 1218.96 784.89 1203.46C860.971 1187.97 935.499 1147.63 969.657 1082.6C996.829 1030.91 994.888 966.781 964.417 916.526C933.946 866.271 876.109 831.327 814.391 825.923C722.783 817.997 639.134 870.054 565.188 920.669C491.242 971.284 409.727 1025.14 317.926 1021.54C188.86 1016.5 93.1772 900.495 -34.1415 880.321C-145.351 862.668 -252.485 921.209 -347.78 977.228L-576.41 1579.57Z" fill="#2B3640"/>
</g>
<mask id="mask3_94_16" style="mask-type:luminance" maskUnits="userSpaceOnUse" x="-170" y="-43" width="2329" height="1441">
<path d="M2159 -43H-170V1398H2159V-43Z" fill="white"/>
</mask>
<g mask="url(#mask3_94_16)">
<path d="M-252.292 1317.3C-235.6 1230.12 -140.305 1178.07 -48.698 1167.98C42.9093 1157.89 136.457 1177.71 229.229 1177.71C477.656 1177.53 711.914 1018.84 793.235 795.482C819.243 723.972 830.694 647.599 856.118 575.729C881.543 504.04 924.63 433.971 994.694 399.927C1095.42 350.753 1221.58 388.579 1323.28 443.518C1424.98 498.456 1520.08 571.226 1632.65 596.444C1780.54 629.587 1934.45 572.487 2047.6 480.803C2160.75 389.12 2240.71 265.734 2318.73 144.33" stroke="#FF4DC4" stroke-miterlimit="10"/>
<path d="M-257.92 1308.84C-239.482 1222.02 -144.575 1170.14 -52.7738 1159.69C-12.9867 1155.19 26.9944 1156.27 67.1697 1159.33C119.96 1163.3 172.751 1170.32 225.154 1171.4C332.094 1173.56 436.51 1148.17 528.118 1098.81C598.958 1060.63 661.841 1010.37 712.109 950.029C748.014 907.159 776.739 858.886 796.729 806.47C805.657 783.053 813.032 758.917 819.825 734.6C833.605 685.246 844.862 635.171 862.717 587.438C882.902 533.22 913.567 480.804 958.983 445.139C973.151 433.971 988.483 424.424 1005.37 416.859C1076.02 385.337 1157.72 396.145 1235.94 422.983C1269.71 434.511 1302.9 449.102 1333.76 464.592C1368.3 482.064 1402.07 500.798 1435.65 518.81C1501.64 554.115 1567.05 586.717 1637.69 598.425C1683.69 606.171 1728.91 604.009 1773.94 594.823C1864.96 575.91 1954.63 525.475 2029.35 460.99C2049.73 443.338 2069.33 424.605 2088.35 405.331C2172.39 319.231 2242.65 219.802 2311.94 125.777" stroke="#F552C5" stroke-miterlimit="10"/>
<path d="M-263.354 1300.37C-243.17 1214.09 -148.651 1162.22 -56.6554 1151.41C-16.8684 1146.73 23.3069 1147.81 63.6762 1151.05C116.467 1155.37 169.063 1163.12 221.66 1165.28C328.406 1169.78 432.435 1148.35 525.012 1101.15C596.629 1064.59 660.483 1016.68 712.691 958.675C749.955 917.066 779.65 869.513 800.611 817.457C809.927 794.221 817.69 770.084 824.677 745.768C839.039 696.593 850.878 646.338 869.51 598.966C890.666 545.108 922.301 493.953 969.269 460.089C983.826 449.642 999.352 440.636 1016.24 433.791C1087.27 405.151 1167.82 418.66 1245.84 445.499C1279.8 457.207 1313.19 471.077 1344.24 485.667C1379.17 501.878 1413.33 519.17 1446.71 534.841C1512.51 566.003 1575.97 593.562 1642.54 600.407C1685.63 604.91 1726.97 599.686 1768.31 587.798C1852.15 563.481 1937.36 508.363 2010.72 441.176C2030.91 422.623 2050.31 403.35 2069.33 383.536C2154.15 294.915 2229.65 196.206 2304.37 107.404" stroke="#EB57C7" stroke-miterlimit="10"/>
<path d="M-268.982 1291.73C-247.051 1205.99 -153.115 1153.93 -60.9252 1142.94C-21.1381 1138.26 19.2313 1139.16 59.6006 1142.58C112.391 1147.09 164.988 1155.55 217.39 1158.79C323.942 1165.46 427.777 1148.35 521.325 1103.14C593.524 1068.19 658.736 1022.8 712.691 966.961C751.508 926.793 782.173 879.961 803.91 828.265C813.614 805.209 821.572 781.252 829.141 756.935C844.085 707.761 856.701 657.506 875.915 610.493C897.847 556.996 930.647 507.102 978.973 474.859C993.918 464.952 1009.44 456.667 1026.52 450.542C1097.75 424.785 1177.33 440.996 1255.35 467.834C1289.31 479.543 1322.89 493.052 1354.52 506.561C1389.85 521.692 1424.2 537.003 1457.58 550.872C1523.18 577.891 1585.1 600.407 1647.4 602.208C1687.77 603.469 1724.84 595.183 1762.49 580.773C1839.15 551.412 1919.89 491.431 1991.89 421.182C2011.69 401.909 2031.1 381.735 2050.31 361.381C2135.9 270.057 2216.84 172.249 2296.8 88.6714" stroke="#E15DC8" stroke-miterlimit="10"/>
<path d="M-274.611 1283.26C-250.933 1197.88 -157.385 1146.01 -65.0011 1134.66C-25.0199 1129.79 15.3495 1130.69 55.7188 1134.48C108.509 1139.34 161.106 1148.35 213.314 1152.85C319.672 1161.68 423.313 1148.71 517.637 1105.66C590.612 1072.33 656.989 1029.46 712.691 975.787C753.06 937.06 784.696 890.948 807.21 839.612C817.302 816.556 825.647 792.78 833.411 768.463C848.937 719.469 862.135 669.034 882.32 622.382C905.222 569.425 938.798 520.431 988.871 490.17C1004.01 480.984 1019.92 473.238 1036.81 467.834C1108.43 444.959 1186.84 463.872 1264.66 490.891C1298.63 502.779 1332.59 515.568 1364.42 528.176C1399.94 542.226 1434.88 555.916 1468.06 567.444C1533.47 590.139 1593.83 607.792 1651.86 604.729C1689.51 602.748 1722.31 591.4 1756.47 574.288C1825.95 539.524 1902.03 475.039 1973.07 401.909C1992.48 381.735 2011.88 361.02 2031.29 340.126C2117.66 246.281 2203.83 149.374 2289.23 70.8391" stroke="#D762CA" stroke-miterlimit="10"/>
<path d="M-280.045 1274.79C-254.814 1189.96 -161.46 1138.08 -68.8825 1126.37C-28.9013 1121.33 11.6621 1122.23 52.0314 1126.19C104.822 1131.23 157.419 1141.14 209.433 1146.55C315.597 1157.71 419.043 1148.71 514.338 1107.82C588.09 1076.12 655.437 1035.59 713.079 984.253C755.001 946.787 787.413 901.575 810.897 850.42C821.378 827.544 830.112 803.767 838.069 779.451C854.372 730.457 868.152 680.022 888.919 633.73C912.597 581.133 947.338 533.4 998.964 504.76C1014.49 496.114 1030.41 489.089 1047.48 484.406C1119.3 464.412 1196.73 485.847 1274.56 513.046C1308.72 524.934 1342.88 537.363 1375.1 548.891C1411 561.86 1446.13 573.748 1479.32 583.295C1544.53 601.847 1603.34 614.456 1657.1 606.351C1692.23 601.127 1720.57 586.717 1751.23 566.903C1813.53 526.915 1885.15 457.567 1954.82 381.555C1974.04 360.48 1993.25 339.045 2012.66 317.61C2099.81 221.063 2191.22 125.057 2282.24 51.7458" stroke="#CD67CB" stroke-miterlimit="10"/>
<path d="M-285.674 1266.15C-258.696 1181.85 -165.73 1129.79 -72.9586 1118.09C-32.9775 1113.04 7.77998 1113.76 48.1493 1117.91C101.134 1123.31 153.537 1133.76 205.551 1140.24C311.521 1153.57 414.773 1148.89 510.844 1109.98C585.372 1079.9 653.884 1041.89 713.273 992.719C756.748 956.694 790.13 912.203 814.39 861.408C825.065 838.712 834.187 815.116 842.727 790.799C859.612 741.805 873.974 691.37 895.517 645.438C919.972 593.202 955.683 546.549 1009.06 519.891C1024.97 511.965 1041.08 505.481 1058.16 501.518C1130.36 484.406 1206.63 508.543 1284.46 535.742C1318.62 547.63 1353.17 559.518 1385.58 570.146C1421.87 582.034 1457.19 592.121 1490.58 599.506C1555.4 613.916 1613.24 621.481 1662.34 608.512C1694.95 599.866 1719.01 582.394 1745.99 560.239C1801.11 515.027 1868.26 440.996 1936.77 362.101C1955.6 340.306 1974.82 318.151 1994.42 296.175C2082.34 197.107 2179.18 101.821 2275.45 33.5531" stroke="#C36CCD" stroke-miterlimit="10"/>
<path d="M-291.108 1257.68C-262.384 1173.92 -169.806 1121.87 -77.0342 1109.8C-36.859 1104.58 3.89861 1105.3 44.462 1109.62C97.4468 1115.2 149.655 1126.37 201.67 1134.12C307.445 1149.79 410.503 1149.07 507.351 1112.32C582.655 1083.86 652.331 1048.38 713.273 1001.36C758.301 966.781 792.653 923.01 817.69 872.575C828.753 850.06 838.263 826.463 846.997 802.147C864.464 753.333 879.409 702.718 901.728 657.146C927.153 605.27 963.641 559.878 1018.76 534.841C1034.87 527.456 1051.17 521.692 1068.45 518.269C1140.84 504.04 1216.14 530.878 1293.78 558.077C1328.13 570.146 1362.87 581.493 1395.48 591.04C1432.16 601.848 1467.87 610.133 1501.06 615.537C1565.69 625.804 1622.17 627.966 1666.61 610.494C1696.89 598.605 1716.3 578.071 1739.78 553.214C1787.72 502.599 1850.21 424.064 1917.56 342.107C1936.19 319.411 1955.21 296.536 1975.01 274.02C2063.71 172.249 2165.79 78.044 2267.49 14.8201" stroke="#B972CE" stroke-miterlimit="10"/>
<path d="M-296.737 1249.22C-266.265 1165.82 -174.076 1113.94 -81.1099 1101.51C-40.9347 1096.11 0.0169576 1096.83 40.5804 1101.33C93.5651 1107.28 145.774 1118.99 197.594 1127.81C303.175 1145.64 406.039 1149.07 503.857 1114.48C579.938 1087.64 650.778 1054.68 713.467 1009.83C760.047 976.508 795.176 933.638 821.183 883.383C832.634 861.047 842.339 837.451 851.46 813.134C869.51 764.32 885.231 713.705 908.133 668.494C934.334 616.978 971.986 572.667 1028.46 549.611C1044.96 542.947 1061.46 537.723 1078.73 535.021C1151.51 523.673 1225.46 553.214 1303.29 580.413C1337.64 592.481 1372.57 603.288 1405.76 611.934C1442.83 621.661 1478.74 628.326 1511.93 631.388C1576.36 637.512 1631.68 634.27 1671.46 612.115C1699.41 596.624 1714.16 573.208 1734.15 546.009C1774.91 489.99 1832.94 406.952 1899.12 322.113C1917.37 298.697 1936.39 275.101 1956.18 251.865C2045.66 147.572 2152.98 54.0874 2260.12 -3.91284" stroke="#AF77CF" stroke-miterlimit="10"/>
<path d="M-302.171 1240.57C-269.953 1157.71 -178.152 1105.66 -84.9916 1093.05C-44.8163 1087.64 -3.86477 1088.18 36.8927 1092.87C89.8775 1098.99 142.086 1111.6 193.712 1121.51C299.099 1141.68 401.575 1149.25 500.364 1116.64C577.221 1091.43 649.226 1060.99 713.661 1018.3C761.794 986.414 797.894 944.265 824.677 894.371C836.516 872.215 846.608 848.799 856.118 824.482C874.945 775.848 891.054 725.053 914.926 680.202C942.097 629.046 980.526 585.816 1038.75 564.742C1055.44 558.618 1072.13 554.295 1089.6 552.133C1162.58 543.667 1235.55 575.91 1313.38 603.108C1347.93 615.177 1383.05 625.624 1416.44 633.189C1453.9 641.655 1489.99 646.699 1523.18 647.779C1587.23 649.761 1641.57 640.754 1676.7 614.456C1702.32 595.363 1712.41 569.245 1728.91 539.344C1762.49 478.102 1816.05 390.201 1880.88 302.66C1898.73 278.343 1917.75 254.026 1937.75 230.43C2027.99 123.616 2140.56 30.8512 2253.13 -21.9254" stroke="#A57CD1" stroke-miterlimit="10"/>
<path d="M-307.799 1232.1C-274.029 1149.79 -182.421 1097.73 -89.0673 1084.76C-48.892 1079.18 -7.74629 1079.72 33.0112 1084.76C85.996 1091.25 138.204 1104.4 189.831 1115.38C295.024 1137.72 397.306 1149.43 497.064 1118.99C574.698 1095.39 648.061 1067.47 714.05 1026.94C763.735 996.501 800.805 955.073 828.365 905.538C840.592 883.563 851.072 860.147 860.777 835.83C880.185 787.196 897.07 736.401 921.525 691.91C949.473 641.295 988.872 598.966 1048.84 579.692C1065.92 574.288 1082.81 570.506 1100.28 569.065C1173.64 563.481 1245.45 598.245 1323.08 625.624C1357.63 637.873 1393.15 647.599 1426.72 654.264C1464.38 661.649 1501.06 664.891 1534.05 663.811C1597.91 661.649 1651.08 646.699 1681.56 616.258C1704.65 593.202 1710.47 564.562 1723.28 532.139C1749.68 465.493 1798.78 373.089 1862.25 282.486C1879.91 257.268 1898.73 232.411 1918.92 208.094C2009.94 98.5783 2127.95 6.89466 2245.95 -40.8385" stroke="#9B81D2" stroke-miterlimit="10"/>
<path d="M-313.428 1223.64C-277.91 1141.68 -186.691 1089.81 -93.3372 1076.48C-52.9678 1070.71 -11.8222 1071.25 29.1294 1076.48C82.1141 1083.14 134.128 1097.01 185.755 1109.08C290.754 1133.76 392.841 1149.43 493.377 1121.15C571.786 1099.17 646.314 1073.77 714.05 1035.41C765.288 1006.41 803.328 965.7 831.664 916.346C844.279 894.551 854.954 871.134 865.046 846.817C885.037 798.184 902.504 747.569 927.735 703.258C956.46 653.003 996.829 611.754 1058.55 594.462C1075.82 589.599 1093.09 586.537 1110.37 585.816C1183.93 583.114 1254.77 620.58 1332.4 647.959C1367.14 660.208 1402.85 669.574 1436.82 675.158C1474.86 681.463 1511.73 683.084 1544.73 679.842C1608.19 673.537 1660.01 652.463 1686.21 618.239C1706.79 591.4 1708.14 560.239 1717.46 525.294C1736.67 453.244 1781.12 356.337 1843.61 262.852C1860.89 236.914 1879.71 211.156 1899.9 186.479C1991.7 74.4415 2114.94 -16.5217 2238.38 -59.0312" stroke="#9187D4" stroke-miterlimit="10"/>
<path d="M-318.862 1214.99C-281.598 1133.58 -190.767 1081.52 -97.2186 1068.01C-56.8493 1062.25 -15.5096 1062.61 25.442 1068.01C78.6208 1075.04 130.441 1089.63 181.873 1102.77C286.678 1129.61 388.572 1149.43 490.078 1123.31C569.264 1102.96 644.956 1080.08 714.438 1043.87C767.229 1016.32 806.045 976.327 835.352 927.333C848.161 905.718 859.418 882.482 869.705 858.165C890.277 809.712 908.327 758.916 934.334 715.146C964.029 665.251 1005.17 624.903 1068.64 609.593C1086.3 605.27 1103.57 602.928 1121.04 602.928C1194.99 603.108 1264.66 643.276 1342.3 670.835C1377.04 683.084 1412.94 691.91 1447.3 696.593C1485.73 701.817 1522.79 701.637 1555.79 696.233C1619.06 685.966 1669.13 658.587 1691.07 620.4C1708.92 589.599 1706.01 555.916 1711.64 518.45C1723.48 440.996 1763.65 339.405 1824.79 243.038C1841.67 216.2 1860.31 189.902 1880.88 164.504C1973.46 49.7644 2101.94 -40.2981 2230.81 -77.7641" stroke="#878CD5" stroke-miterlimit="10"/>
<path d="M-324.49 1206.53C-285.48 1125.65 -195.037 1073.59 -101.295 1059.91C-60.9253 1053.96 -19.3915 1054.32 21.5601 1059.91C74.7389 1067.11 126.559 1082.42 177.797 1096.65C282.408 1125.65 384.108 1149.79 486.39 1125.65C566.158 1106.92 643.209 1086.56 714.438 1052.52C768.975 1026.4 808.568 987.135 838.651 938.501C851.849 917.066 863.494 893.83 874.168 869.513C895.517 821.06 914.15 770.264 940.933 726.854C971.404 677.32 1013.52 638.053 1078.54 624.723C1096.39 621.121 1114.06 619.32 1131.52 620.04C1205.66 623.102 1274.37 665.972 1351.81 693.531C1386.55 705.96 1422.84 714.065 1457.39 717.848C1496.21 721.991 1533.47 720.19 1566.46 712.624C1629.35 698.214 1677.67 664.711 1695.72 622.742C1710.67 587.978 1703.68 551.953 1705.82 511.785C1710.47 429.108 1746.18 322.834 1806.16 223.585C1822.85 195.846 1841.29 168.827 1861.86 143.069C1955.21 25.8077 2088.94 -63.3541 2223.24 -95.7766" stroke="#7D91D7" stroke-miterlimit="10"/>
<path d="M-329.925 1198.06C-289.167 1117.55 -199.113 1065.67 -105.176 1051.62C-64.6129 1045.5 -23.079 1045.86 17.8726 1051.62C71.0514 1059.18 122.872 1075.04 174.11 1090.53C278.526 1121.87 380.032 1149.97 483.284 1127.99C563.829 1110.88 642.239 1093.23 715.02 1061.17C771.11 1036.49 811.673 997.942 842.533 949.489C856.119 928.054 867.958 904.998 879.02 880.681C900.952 832.408 920.166 781.432 947.726 738.382C979.168 689.208 1022.06 650.842 1088.82 639.494C1107.07 636.432 1124.73 635.351 1142.39 636.792C1216.92 642.556 1284.46 688.308 1361.9 715.867C1396.83 728.295 1433.32 736.041 1468.26 738.743C1507.46 741.805 1545.11 738.202 1577.91 728.475C1640.6 709.923 1686.99 670.475 1701.16 624.543C1713 585.816 1702.13 547.27 1700.77 504.76C1698.05 416.679 1729.49 305.902 1788.11 203.591C1804.41 175.131 1822.85 147.392 1843.61 120.914C1937.75 0.950459 2076.9 -87.3108 2216.64 -114.51" stroke="#7396D8" stroke-miterlimit="10"/>
<path d="M-335.553 1189.42C-293.243 1109.44 -203.382 1057.38 -109.446 1043.15C-68.8827 1037.03 -27.1547 1037.21 13.991 1043.33C67.1698 1051.08 118.99 1067.83 170.034 1084.22C274.257 1117.73 375.374 1149.97 479.597 1130.15C560.918 1114.66 640.492 1099.53 715.02 1069.63C772.663 1046.4 814.003 1008.57 845.832 960.476C859.806 939.222 872.033 916.346 883.29 892.029C905.804 843.755 925.794 792.78 953.937 750.09C986.154 701.277 1029.82 663.991 1098.53 654.624C1117.16 652.102 1135.02 651.742 1152.68 653.904C1227.4 662.55 1293.97 710.823 1371.22 738.563C1406.15 751.171 1443.03 758.196 1478.16 759.997C1517.55 761.799 1555.59 756.755 1588.4 744.867C1650.89 722.351 1695.14 676.96 1705.62 626.705C1714.36 584.195 1699.6 543.127 1694.75 497.915C1684.85 404.431 1711.64 289.151 1769.28 183.958C1785.2 154.597 1803.63 126.137 1824.59 99.2988C1919.5 -23.1862 2063.9 -110.727 2209.07 -132.702" stroke="#699CD9" stroke-miterlimit="10"/>
<path d="M-340.988 1180.95C-296.931 1101.51 -207.458 1049.46 -113.328 1034.87C-72.7644 1028.56 -30.8423 1028.74 10.3033 1035.05C63.4822 1043.15 115.108 1060.45 166.152 1077.92C270.181 1113.76 371.104 1150.15 476.104 1132.32C558.201 1118.45 639.133 1105.84 715.214 1078.1C774.41 1056.48 816.72 1019.2 849.326 971.464C863.688 950.389 876.109 927.514 887.948 903.197C911.044 855.103 931.617 803.948 960.536 761.618C993.53 713.345 1038.17 676.779 1108.62 669.574C1127.45 667.593 1145.5 667.953 1163.35 670.835C1238.46 682.363 1303.87 733.339 1381.11 761.078C1416.24 773.687 1453.31 780.351 1488.83 781.072C1528.62 781.792 1566.85 774.948 1599.65 760.898C1661.76 734.239 1704.07 682.904 1710.86 628.686C1716.49 582.394 1697.66 538.804 1689.51 491.071C1672.05 392.362 1694.75 272.219 1751.04 164.324C1766.76 134.243 1785 105.063 1805.96 77.5036C1901.65 -47.6833 2051.28 -134.323 2201.89 -151.075" stroke="#5FA1DB" stroke-miterlimit="10"/>
<path d="M-346.616 1172.48C-300.812 1093.59 -211.728 1041.53 -117.404 1026.58C-76.6461 1020.1 -34.7241 1020.28 6.42159 1026.76C59.7945 1035.23 111.227 1053.06 162.271 1071.79C266.105 1109.8 366.834 1150.33 472.804 1134.66C555.677 1122.41 637.775 1112.5 715.602 1086.74C776.544 1066.57 819.631 1030 853.013 982.632C867.764 961.737 880.573 938.861 892.606 914.544C916.284 866.451 937.44 815.296 967.134 773.326C1001.1 725.413 1046.71 689.749 1118.52 684.525C1137.73 683.084 1155.98 684.165 1173.83 687.587C1249.14 701.997 1313.57 755.674 1390.82 783.413C1425.95 796.022 1463.21 802.146 1499.12 801.966C1539.29 801.606 1577.91 793.14 1610.52 776.929C1672.43 746.128 1712.61 689.208 1715.52 630.487C1718.04 580.593 1695.33 534.12 1683.69 483.866C1659.04 379.933 1677.29 255.107 1732.21 144.15C1747.54 113.168 1765.79 83.2676 1786.94 55.3482C1883.4 -72.3604 2038.28 -158.1 2194.32 -169.988" stroke="#55A6DC" stroke-miterlimit="10"/>
<path d="M-352.244 1163.84C-304.694 1085.3 -216.192 1033.25 -121.479 1018.12C-80.7215 1011.63 -38.7995 1011.63 2.54021 1018.3C55.9131 1026.94 107.345 1045.68 158.195 1065.31C261.836 1105.66 362.371 1150.15 469.117 1136.64C552.766 1126.01 636.028 1118.81 715.602 1095.03C778.097 1076.3 821.96 1040.45 856.313 993.259C871.451 972.545 884.649 949.849 896.876 925.532C921.331 877.439 943.068 826.283 973.539 784.674C1008.28 737.121 1054.86 702.357 1128.42 699.295C1147.83 698.575 1166.26 700.376 1184.31 704.339C1260.01 721.631 1323.08 778.01 1400.33 805.749C1435.65 818.538 1473.11 824.122 1509.21 822.861C1549.77 821.42 1588.59 811.153 1621.2 792.78C1682.91 758.016 1720.95 695.152 1720.18 632.289C1719.6 578.792 1693.2 529.617 1677.87 476.661C1646.04 367.325 1659.62 237.995 1713.58 124.156C1728.52 92.2738 1746.77 61.8327 1768.12 33.1928C1865.35 -97.2177 2025.67 -182.057 2186.95 -188.721" stroke="#4BABDE" stroke-miterlimit="10"/>
<path d="M-357.678 1155.37C-308.575 1077.38 -220.268 1025.32 -125.555 1009.83C-84.7973 1003.17 -42.6812 1003.17 -1.14736 1010.01C52.2256 1019.02 103.658 1038.29 154.313 1059.19C257.76 1101.69 358.101 1150.51 465.817 1138.98C550.243 1129.97 634.864 1125.29 715.797 1103.68C779.844 1086.56 824.677 1051.26 860 1004.43C875.333 983.893 888.919 961.197 901.728 936.88C926.765 888.967 949.085 837.631 980.332 796.383C1016.04 749.19 1063.4 715.326 1138.7 714.246C1158.5 714.066 1177.13 716.587 1194.99 721.27C1270.87 741.444 1332.98 800.525 1410.23 828.445C1445.55 841.234 1483.4 846.277 1519.88 844.116C1560.84 841.594 1600.04 829.706 1632.45 809.171C1693.98 770.445 1729.88 701.817 1725.42 634.45C1721.54 577.351 1691.45 525.475 1672.63 469.996C1633.62 355.256 1642.74 221.424 1695.34 104.522C1710.09 71.9198 1728.14 40.578 1749.48 11.5779C1847.5 -121.354 2013.05 -205.473 2179.96 -206.914" stroke="#41B1DF" stroke-miterlimit="10"/>
<path d="M-363.307 1146.91C-312.457 1069.45 -224.537 1017.4 -129.631 1001.73C-88.6791 994.88 -46.563 994.88 -5.02918 1001.91C48.3437 1011.09 99.7758 1031.09 150.238 1053.06C253.49 1097.91 353.637 1150.69 462.129 1141.32C547.332 1133.94 633.117 1132.14 715.796 1112.32C781.397 1096.83 827.2 1062.07 863.3 1015.59C879.021 995.241 892.995 972.545 905.998 948.228C931.617 900.315 954.713 848.979 986.543 808.091C1023.03 761.258 1071.36 728.115 1148.41 729.376C1168.4 729.736 1187.22 732.979 1205.27 738.382C1281.55 761.438 1342.49 823.041 1419.74 851.141C1455.25 863.93 1493.29 868.613 1529.98 865.371C1571.12 861.768 1610.71 848.079 1643.13 825.383C1704.46 782.513 1738.23 708.301 1730.08 636.612C1723.09 575.91 1689.12 521.152 1666.8 463.151C1620.42 343.188 1625.27 204.492 1676.7 84.8888C1691.07 51.3855 1709.11 19.5034 1730.66 -10.2172C1829.45 -145.851 2000.24 -228.889 2172.59 -225.287" stroke="#37B6E1" stroke-miterlimit="10"/>
<path d="M-368.741 1138.26C-293.437 1028.02 -146.516 968.942 -8.71658 993.439C153.731 1022.26 295.606 1154.29 458.83 1143.3C544.809 1137.54 631.758 1138.26 716.185 1120.61C812.838 1100.43 866.793 1039.01 910.656 959.216C966.94 856.724 1011 737.842 1158.5 744.146C1265.05 748.649 1334.15 838.712 1429.44 873.476C1504.75 900.855 1593.05 888.246 1654.19 841.234C1715.33 794.221 1746.96 714.606 1735.12 638.413C1725.03 574.108 1687.18 516.648 1661.37 455.946C1592.86 295.635 1612.46 105.783 1712.03 -32.3726C1811.59 -170.529 1987.82 -252.846 2165.41 -244.02" stroke="#2DBBE2" stroke-miterlimit="10"/>
<path d="M-360.202 1154.11C-283.733 1052.52 -137.782 997.582 -0.953658 1020.1C67.5578 1031.27 132.576 1059.73 196.817 1087.1C262.612 1115.38 327.241 1142.76 394.782 1150.87C416.52 1153.39 438.645 1154.11 460.965 1151.95C545.003 1143.84 630.011 1141.86 714.049 1123.49C809.344 1102.78 864.27 1043.87 909.685 968.582C920.166 951.29 930.258 933.638 940.545 916.166C970.822 864.83 1003.04 816.196 1053.89 789.358C1082.42 774.227 1116.58 765.761 1159.28 767.202C1264.47 770.444 1333.37 852.942 1425.56 882.662C1437.79 886.625 1450.4 889.507 1463.02 891.308C1526.09 900.315 1592.66 883.383 1641.38 843.575C1699.8 795.842 1730.08 716.947 1719.01 641.475C1709.7 577.531 1674.37 519.711 1650.5 459.008C1609.36 354.356 1604.7 237.635 1634.39 131.721C1650.31 75.1621 1676.12 21.665 1711.06 -25.5278C1775.1 -111.627 1869.23 -175.392 1975.01 -209.075C2035.76 -228.349 2100.39 -237.535 2165.21 -235.013" stroke="#33B4E3" stroke-miterlimit="10"/>
<path d="M-351.468 1169.96C-274.029 1077.02 -128.854 1026.22 7.19827 1046.76C75.5156 1057.02 140.145 1082.78 203.611 1107.28C268.629 1132.32 332.094 1156.27 398.47 1161.68C419.82 1163.48 441.363 1163.3 463.294 1160.6C545.585 1150.15 628.459 1145.64 711.915 1126.55C805.657 1105.48 861.747 1048.74 908.521 977.948C919.39 961.557 929.871 945.166 940.545 928.774C971.793 880.861 1004.4 836.01 1055.25 811.153C1083.97 797.283 1117.94 789.178 1159.86 790.078C1263.69 792.24 1332.4 866.992 1421.48 891.669C1433.32 894.911 1445.36 897.072 1457.58 898.333C1518.33 904.457 1581.99 885.905 1628.38 845.557C1684.08 797.103 1713 719.109 1702.9 644.357C1694.56 580.773 1661.37 522.773 1639.83 461.89C1602.18 357.238 1600.04 241.057 1631.29 136.405C1648.17 80.2055 1674.76 27.4289 1710.47 -19.0434C1775.49 -103.702 1869.82 -166.025 1975.79 -199.709C2036.53 -218.982 2100.78 -228.349 2165.41 -226.187" stroke="#38ADE5" stroke-miterlimit="10"/>
<path d="M-342.734 1185.81C-264.13 1101.51 -119.926 1054.68 15.1556 1073.23C83.0847 1082.42 147.52 1105.84 210.404 1127.09C274.839 1149.07 337.14 1169.24 402.158 1172.12C423.119 1173.02 444.274 1172.12 465.623 1168.88C546.168 1156.09 626.906 1148.71 709.974 1129.07C802.358 1107.28 859.418 1053.24 907.745 986.955C918.808 971.644 929.87 956.333 940.739 941.203C972.957 896.892 1005.95 855.463 1056.8 832.768C1085.53 819.979 1119.49 812.233 1160.64 812.774C1263.11 813.674 1331.43 881.041 1417.8 900.495C1429.25 903.016 1440.89 904.638 1452.73 905.358C1511.15 908.6 1571.9 888.426 1616.15 847.538C1669.33 798.544 1696.69 721.27 1687.57 647.239C1680 583.835 1649.34 525.655 1629.74 464.772C1595.77 360.12 1595.77 244.479 1628.76 141.088C1646.62 85.249 1673.99 33.1928 1710.28 -12.3788C1776.27 -95.5965 1870.79 -156.479 1976.76 -190.162C2037.31 -209.255 2101.55 -218.802 2165.99 -217.361" stroke="#3EA6E6" stroke-miterlimit="10"/>
<path d="M-334 1201.66C-254.232 1125.83 -110.999 1083.32 23.3072 1099.89C91.0423 1108 155.09 1128.89 217.391 1147.27C281.244 1166 342.186 1182.57 406.039 1182.93C426.612 1183.11 447.185 1181.49 468.146 1177.53C546.944 1162.58 625.548 1152.49 708.227 1132.14C799.058 1109.8 857.283 1058.28 906.969 996.321C918.42 982.091 929.871 967.861 941.127 953.812C974.316 912.923 1007.7 875.097 1058.55 854.563C1087.47 842.855 1121.24 836.01 1161.61 835.83C1262.72 835.47 1330.65 895.271 1414.11 909.681C1425.17 911.662 1436.43 912.563 1447.68 912.563C1503.78 912.923 1561.42 891.128 1603.53 849.699C1654 799.985 1679.81 723.612 1671.85 650.121C1665.06 587.077 1636.92 528.537 1619.45 467.654C1588.98 362.822 1591.5 247.902 1626.24 145.591C1645.07 90.1124 1673.4 38.9569 1710.09 -6.07437C1777.04 -87.8511 1871.76 -147.472 1977.92 -180.796C2038.47 -199.889 2102.33 -209.616 2166.57 -208.535" stroke="#43A0E8" stroke-miterlimit="10"/>
<path d="M-325.461 1217.33C-244.528 1150.15 -102.265 1111.78 31.0704 1126.19C98.4173 1133.4 162.465 1151.77 223.989 1166.9C287.066 1182.57 346.844 1195.54 409.533 1193.2C429.718 1192.48 449.902 1190.14 470.281 1185.63C547.332 1168.34 623.801 1155.55 705.898 1134.48C795.37 1111.6 854.566 1062.43 905.804 1005.15C917.643 991.818 929.482 978.849 941.127 966.06C975.092 928.594 1009.25 894.551 1060.1 875.998C1089.21 865.37 1122.6 858.706 1162.38 858.345C1262.14 857.265 1329.88 908.961 1410.23 918.327C1420.9 919.588 1431.77 919.768 1442.44 919.408C1496.01 917.066 1550.94 893.47 1590.72 851.501C1638.66 801.066 1662.92 725.413 1655.94 652.823C1649.92 590.139 1624.3 531.419 1608.77 470.356C1581.99 365.523 1586.84 251.144 1623.14 150.094C1642.93 94.9757 1672.04 44.5407 1709.31 0.410112C1777.24 -79.9256 1872.15 -138.106 1978.5 -171.429C2038.86 -190.342 2102.52 -200.249 2166.57 -199.889" stroke="#4999E9" stroke-miterlimit="10"/>
<path d="M-316.727 1233.19C-234.63 1174.64 -93.3371 1140.24 39.0277 1152.85C105.987 1158.97 169.84 1174.83 230.782 1187.07C293.277 1199.5 351.696 1208.87 413.221 1204.01C433.017 1202.38 452.619 1199.5 472.61 1194.28C547.914 1174.65 622.248 1159.15 703.957 1137.54C791.877 1114.12 852.237 1067.47 904.834 1014.51C917.061 1002.27 929.288 990.377 941.127 978.669C976.062 944.625 1010.61 914.184 1061.46 897.793C1090.57 888.246 1123.95 882.122 1162.96 881.221C1261.56 878.88 1328.91 923.01 1406.15 927.333C1416.44 927.874 1426.72 927.514 1437.2 926.433C1488.44 921.209 1540.46 895.992 1578.11 853.482C1623.33 802.327 1646.23 727.575 1640.22 655.705C1634.98 593.382 1611.69 534.301 1598.49 473.238C1575.2 368.405 1582.77 254.566 1620.42 154.777C1641.19 100.019 1671.07 50.3048 1708.92 6.89464C1777.63 -72.0001 1872.73 -128.74 1979.28 -162.063C2039.64 -180.976 2103.1 -191.063 2166.96 -191.243" stroke="#4F92EA" stroke-miterlimit="10"/>
<path d="M-307.993 1249.04C-224.926 1199.14 -84.2153 1168.88 47.1791 1179.51C113.944 1184.55 177.409 1198.06 237.769 1207.07C299.682 1216.43 356.936 1222.02 417.102 1214.63C436.51 1212.29 455.725 1208.51 475.133 1202.74C548.691 1180.95 621.083 1162.58 702.016 1140.24C788.577 1116.46 849.908 1071.97 904.057 1023.7C916.673 1012.35 929.288 1001.72 941.515 991.278C977.421 960.837 1012.55 933.998 1063.21 919.588C1092.51 911.302 1125.7 905.538 1163.93 904.097C1261.17 900.675 1328.13 937.24 1402.46 936.34C1412.36 936.159 1422.26 935.259 1432.16 933.638C1481.07 925.532 1529.98 898.693 1565.49 855.644C1608 803.768 1629.54 729.916 1624.49 658.587C1620.03 596.444 1599.46 537.182 1588.01 475.94C1568.6 371.107 1578.3 257.809 1617.7 159.28C1639.44 104.883 1670.1 56.0687 1708.53 13.3791C1778.21 -64.0747 1873.5 -119.373 1980.25 -152.516C2040.42 -171.249 2103.69 -181.516 2167.35 -182.237" stroke="#548BEC" stroke-miterlimit="10"/>
<path d="M-299.26 1264.89C-215.028 1223.64 -75.2875 1197.7 55.1365 1205.99C121.513 1210.31 184.784 1220.94 244.562 1227.06C305.698 1233.19 361.788 1235.17 420.79 1225.26C439.81 1222.02 458.442 1217.51 477.462 1211.21C549.079 1187.07 619.531 1166.18 700.075 1143.12C785.278 1118.81 847.773 1076.84 903.281 1032.89C916.284 1022.62 929.288 1013.07 941.903 1003.71C978.585 976.687 1014.3 953.632 1064.95 941.203C1094.45 933.998 1127.45 928.774 1164.91 926.973C1260.78 922.47 1327.55 951.29 1398.78 945.346C1408.29 944.625 1417.8 943.004 1427.11 940.843C1473.69 929.855 1519.69 901.395 1552.88 857.805C1592.86 805.209 1612.85 732.078 1608.58 661.649C1604.89 599.866 1586.84 540.425 1577.53 479.002C1561.61 374.169 1573.84 261.411 1614.79 164.144C1637.5 110.106 1669.13 62.0129 1707.95 20.2239C1778.6 -55.7889 1874.09 -109.646 1980.83 -142.789C2040.8 -161.522 2104.07 -171.789 2167.35 -173.23" stroke="#5A84ED" stroke-miterlimit="10"/>
<path d="M-290.719 1280.74C-205.323 1248.14 -66.5532 1226.34 63.0944 1232.65C129.277 1235.89 192.16 1244.17 251.355 1247.06C311.909 1250.12 366.641 1248.5 424.478 1235.89C442.915 1231.92 461.353 1226.7 479.791 1219.68C549.661 1193.2 617.979 1169.6 697.941 1146.01C781.591 1121.15 845.25 1081.7 902.117 1042.25C915.509 1033.07 928.9 1024.6 941.904 1016.32C979.556 992.719 1015.85 973.265 1066.31 962.998C1096.01 956.874 1128.61 952.011 1165.49 949.849C1260.01 944.085 1326.58 965.34 1394.7 954.352C1403.82 952.911 1412.94 950.569 1421.68 947.868C1465.93 933.998 1509.02 903.917 1539.87 859.787C1577.14 806.65 1595.77 734.239 1592.47 664.351C1589.75 602.928 1573.84 543.127 1566.85 481.704C1554.63 376.871 1569.18 264.654 1611.88 168.647C1635.56 114.97 1667.97 67.5968 1707.37 26.5283C1778.99 -48.0435 1874.67 -100.46 1981.61 -133.603C2041.58 -152.156 2104.46 -162.783 2167.73 -164.584" stroke="#607DEE" stroke-miterlimit="10"/>
<path d="M-281.986 1296.59C-195.425 1272.45 -57.6256 1254.98 71.0517 1259.3C136.846 1261.47 199.535 1267.23 258.148 1267.23C318.12 1267.23 371.493 1261.83 428.165 1246.69C446.215 1241.83 464.071 1235.89 482.12 1228.32C550.244 1199.5 616.426 1173.38 696 1148.89C778.291 1123.67 843.115 1086.38 901.34 1051.62C915.12 1043.33 928.9 1036.13 942.098 1029.1C980.526 1008.93 1017.6 993.259 1067.86 984.973C1097.75 980.11 1130.16 975.607 1166.26 972.905C1259.42 966.06 1325.8 979.389 1390.82 963.538C1399.55 961.377 1408.09 958.495 1416.63 955.253C1458.55 938.681 1498.53 906.799 1527.45 862.128C1562.19 808.271 1579.27 736.761 1576.94 667.593C1575 606.531 1561.61 546.549 1556.57 484.946C1547.83 380.113 1565.11 268.436 1609.16 173.69C1634 120.553 1667 73.7209 1707.17 33.553C1779.76 -39.5777 1875.64 -90.5531 1982.77 -123.696C2042.55 -142.249 2105.24 -152.876 2168.32 -155.398" stroke="#6576F0" stroke-miterlimit="10"/>
<path d="M-273.252 1312.26C-185.527 1296.77 -48.6978 1283.26 79.2031 1285.6C144.803 1286.86 207.104 1290.11 264.941 1286.86C324.136 1283.62 376.345 1274.61 431.853 1256.96C449.514 1251.2 466.982 1244.53 484.449 1236.43C550.826 1205.27 614.873 1176.45 694.059 1151.41C774.992 1125.65 840.98 1090.89 900.37 1060.45C914.538 1053.24 928.512 1046.94 942.292 1041.17C981.691 1024.42 1019.15 1012.53 1069.42 1006.23C1099.5 1002.45 1131.72 998.483 1167.23 995.421C1259.04 987.315 1325.02 993.079 1387.13 972.184C1395.48 969.302 1403.63 965.88 1411.59 961.917C1451.18 942.464 1488.25 908.961 1514.84 863.749C1546.86 809.171 1562.58 738.382 1561.22 670.115C1560.06 609.233 1549.19 549.071 1546.28 487.468C1541.23 382.455 1560.84 271.498 1606.44 178.013C1632.26 125.237 1666.22 79.3049 1706.79 39.6774C1780.34 -32.0124 1876.42 -81.5468 1983.55 -114.51C2043.33 -132.882 2105.82 -143.87 2168.51 -146.752" stroke="#6B70F1" stroke-miterlimit="10"/>
<path d="M-264.519 1328.11C-175.822 1321.27 -39.77 1311.9 87.1605 1312.26C152.373 1312.44 214.479 1313.34 271.734 1306.86C330.347 1300.55 381.391 1287.94 435.54 1267.59C452.814 1261.11 469.893 1253.72 486.778 1244.89C551.408 1211.39 613.32 1180.05 691.924 1154.11C771.304 1127.99 838.457 1095.57 899.399 1069.63C913.956 1063.51 928.318 1058.28 942.486 1053.78C982.661 1040.45 1020.9 1032.35 1070.97 1028.2C1101.05 1025.68 1133.27 1022.08 1168.01 1018.48C1258.45 1009.29 1324.25 1007.31 1383.25 981.371C1391.21 977.769 1398.97 973.806 1406.34 969.303C1443.61 946.967 1477.57 911.843 1502.03 866.091C1531.33 810.793 1545.7 740.904 1545.31 673.177C1544.92 612.655 1536.57 552.313 1535.6 490.53C1534.05 385.517 1556.37 275.101 1603.53 182.877C1630.32 130.46 1665.06 85.2491 1706.2 46.5222C1780.73 -23.9067 1877 -71.8199 1984.33 -104.783C2043.91 -123.156 2106.21 -134.143 2168.9 -137.746" stroke="#7069F3" stroke-miterlimit="10"/>
<path d="M-255.979 1343.96C-166.118 1345.76 -31.0363 1340.36 94.9238 1338.92C159.748 1338.02 221.66 1336.4 278.333 1327.03C336.363 1317.48 386.049 1301.27 439.033 1278.4C455.919 1271.01 472.416 1262.91 488.719 1253.54C551.602 1217.7 611.38 1183.65 689.595 1157.17C767.617 1130.69 835.934 1100.61 898.041 1079C912.985 1073.78 927.735 1069.81 942.098 1066.39C983.049 1056.48 1022.06 1052.16 1071.94 1050C1102.22 1048.56 1134.24 1045.32 1168.2 1041.35C1257.29 1030.91 1322.89 1021.36 1378.79 990.197C1386.35 986.054 1393.73 981.191 1400.72 976.147C1435.65 950.93 1466.7 914.184 1489.02 867.892C1515.81 811.873 1528.62 742.885 1529.2 675.879C1529.78 615.717 1523.57 555.015 1524.93 493.232C1527.06 388.219 1551.71 278.343 1600.43 187.38C1628.18 135.324 1663.7 90.8329 1705.43 52.8265C1780.93 -16.1614 1877.39 -62.6337 1984.91 -95.5966C2044.49 -113.789 2106.4 -125.137 2168.9 -129.28" stroke="#7662F4" stroke-miterlimit="10"/>
<path d="M-247.245 1359.81C-156.22 1370.26 -21.9143 1369 103.075 1365.4C167.705 1363.6 229.23 1359.45 285.32 1346.84C342.574 1334.24 391.095 1314.42 442.915 1288.84C459.412 1280.74 475.521 1271.73 491.242 1261.83C552.184 1223.64 610.021 1187.07 687.655 1159.69C764.318 1132.68 833.799 1105.12 897.265 1088C912.597 1083.86 927.736 1080.98 942.486 1078.64C984.408 1072.15 1023.81 1070.35 1073.69 1071.43C1104.16 1071.97 1135.79 1068.37 1169.18 1063.87C1256.9 1052.34 1322.11 1034.87 1375.1 998.843C1382.28 993.98 1389.07 988.576 1395.67 982.992C1428.28 954.892 1456.42 916.526 1476.41 869.693C1500.48 812.954 1511.93 744.687 1513.48 678.581C1514.84 618.779 1511.15 557.717 1514.45 495.934C1520.08 390.921 1547.44 281.585 1597.52 191.703C1626.44 140.007 1662.54 96.4168 1704.85 59.1309C1781.31 -8.41596 1877.97 -53.4472 1985.49 -86.23C2044.88 -104.423 2106.79 -115.77 2168.9 -120.454" stroke="#7C5BF5" stroke-miterlimit="10"/>
<path d="M-238.511 1375.66C-146.322 1394.76 -12.9866 1397.28 111.033 1392.06C175.274 1388.99 236.799 1382.51 292.112 1367.02C348.785 1351.17 395.947 1327.75 446.603 1299.65C462.712 1290.65 478.238 1281.1 493.571 1270.47C552.766 1229.76 608.662 1190.86 685.713 1162.76C760.824 1135.38 831.664 1110.34 896.488 1097.37C912.209 1094.31 927.735 1092.51 942.874 1091.43C985.572 1088.37 1025.75 1091.79 1075.63 1093.41C1106.29 1094.49 1137.73 1091.79 1170.34 1087.1C1256.71 1074.32 1321.72 1049.28 1371.6 1008.21C1378.4 1002.63 1384.8 996.682 1390.82 990.557C1421.1 959.756 1446.13 919.588 1463.99 872.215C1485.53 814.755 1495.43 747.389 1497.76 681.823C1500.09 622.202 1498.53 561.139 1504.16 498.996C1513.09 393.983 1543.17 285.188 1594.99 196.566C1624.88 145.231 1661.95 102.361 1704.65 65.9757C1782.09 -0.130194 1878.74 -43.9006 1986.65 -76.5032C2046.04 -94.5157 2107.57 -106.224 2169.67 -111.447" stroke="#8154F7" stroke-miterlimit="10"/>
<path d="M-229.972 1391.52C-136.618 1419.25 -4.25299 1425.92 118.99 1418.53C183.037 1414.57 244.174 1405.57 298.905 1386.83C354.995 1367.92 400.993 1340.9 450.29 1309.92C466.011 1300.19 481.15 1289.74 495.9 1278.58C553.349 1235.53 607.11 1194.1 683.773 1165.1C757.524 1137.36 829.529 1114.66 895.518 1106.2C911.626 1104.22 927.541 1103.68 943.068 1103.5C986.543 1102.96 1027.49 1111.06 1077.18 1114.66C1108.04 1116.82 1139.29 1114.66 1171.12 1109.44C1256.12 1095.39 1320.75 1062.61 1367.72 1016.68C1374.13 1010.37 1380.14 1003.71 1385.77 997.042C1413.53 963.358 1435.85 921.569 1451.57 873.656C1470.39 815.656 1478.93 749.01 1482.23 684.165C1485.34 624.903 1486.31 563.481 1493.88 501.338C1506.49 396.325 1539.1 288.07 1592.28 200.709C1623.14 149.914 1660.98 107.584 1704.26 71.9197C1782.48 7.25478 1879.52 -35.0746 1987.62 -67.6772C2046.82 -85.5096 2108.15 -97.3978 2170.06 -103.162" stroke="#874DF8" stroke-miterlimit="10"/>
<path d="M-221.238 1407.37C-126.914 1443.57 4.67504 1454.56 126.948 1445.19C190.607 1440.15 251.549 1428.62 305.698 1407.01C361.012 1384.85 405.845 1354.23 453.978 1320.73C469.311 1310.1 483.867 1298.93 498.229 1287.22C553.931 1241.83 605.557 1197.7 681.638 1168.16C754.031 1139.88 827.2 1119.89 894.547 1115.56C911.044 1114.48 927.347 1115.02 943.068 1116.28C987.513 1119.89 1028.85 1131.05 1078.54 1136.64C1109.59 1140.06 1140.64 1138.26 1171.7 1132.5C1255.35 1117.19 1319.78 1076.84 1363.65 1025.86C1369.66 1018.84 1375.29 1011.63 1380.34 1004.43C1405.76 967.861 1425.17 924.451 1438.56 875.998C1454.67 817.277 1461.85 751.351 1466.12 687.407C1470 628.506 1473.5 566.903 1483.2 504.58C1499.31 399.567 1534.63 292.033 1589.17 205.753C1621.2 155.318 1659.62 113.709 1703.68 78.9447C1782.87 15.7208 1880.1 -25.1676 1988.21 -57.7702C2047.4 -75.6026 2108.54 -87.6709 2170.06 -93.9753" stroke="#8D46F9" stroke-miterlimit="10"/>
<path d="M-212.504 1423.04C-117.015 1467.89 13.6027 1482.84 134.905 1471.67C198.176 1465.55 258.924 1451.68 312.491 1426.82C367.223 1401.6 410.891 1367.38 457.666 1331.17C472.61 1319.83 486.584 1307.76 500.558 1295.51C554.319 1247.6 604.004 1201.12 679.697 1170.68C750.731 1142.04 824.871 1123.67 893.577 1124.57C910.462 1124.75 927.153 1126.01 943.262 1128.53C988.483 1135.56 1030.6 1150.69 1080.09 1158.07C1111.14 1162.76 1142 1161.14 1172.47 1155.01C1254.77 1138.62 1318.81 1090.35 1359.76 1034.51C1365.39 1026.94 1370.44 1019.02 1375.1 1011.09C1398.19 971.644 1414.5 926.613 1425.75 877.619C1439.34 818.178 1444.97 753.153 1450.21 689.749C1455.06 631.208 1460.69 569.245 1472.72 506.922C1492.52 401.909 1530.36 294.915 1586.45 209.896C1619.45 159.821 1658.85 119.113 1703.29 84.8888C1783.45 23.1059 1880.88 -16.3415 1989.18 -48.764C2048.18 -66.4162 2109.12 -78.6647 2170.64 -85.6896" stroke="#9240FB" stroke-miterlimit="10"/>
<path d="M-203.771 1438.89C-107.117 1492.39 22.5307 1511.48 143.056 1498.15C206.134 1491.12 266.493 1474.55 319.478 1446.81C373.627 1418.35 415.938 1380.53 461.547 1341.8C475.91 1329.55 489.689 1316.94 503.081 1303.97C555.095 1253.72 602.84 1204.73 677.756 1173.56C747.432 1144.56 822.736 1129.43 892.8 1133.94C910.074 1135.02 926.959 1137.54 943.65 1141.32C989.842 1151.59 1032.35 1170.68 1081.84 1180.05C1113.09 1185.99 1143.75 1184.73 1173.44 1178.25C1254.38 1160.6 1318.04 1104.76 1356.08 1043.87C1361.32 1035.59 1365.98 1027.12 1370.05 1018.66C1390.82 976.327 1404.21 929.675 1413.14 880.141C1424.01 819.979 1428.47 755.854 1434.49 693.171C1440.31 634.81 1448.27 572.667 1462.24 510.344C1485.53 405.331 1526.09 299.057 1583.54 215.119C1617.7 165.585 1657.68 125.417 1702.71 92.0937C1783.84 31.7518 1881.46 -6.25459 1989.95 -38.6771C2048.76 -56.3293 2109.51 -68.5778 2170.84 -76.1431" stroke="#9839FC" stroke-miterlimit="10"/>
<path d="M-195.231 1454.74C-97.4129 1516.88 31.2643 1540.12 150.82 1524.81C213.509 1516.7 273.674 1497.79 326.077 1466.81C379.45 1435.29 420.595 1393.86 465.04 1352.43C479.014 1339.46 492.212 1325.95 505.216 1312.44C555.289 1259.84 601.093 1208.51 675.621 1176.45C743.938 1147.27 820.213 1134.48 891.636 1143.12C909.297 1145.28 926.571 1148.89 943.456 1153.75C990.424 1167.26 1033.7 1190.5 1083 1201.66C1114.44 1208.87 1144.91 1207.79 1173.83 1200.94C1253.41 1181.85 1316.68 1118.45 1351.81 1052.7C1356.66 1043.69 1360.93 1034.51 1364.62 1025.5C1383.05 980.47 1393.54 932.017 1400.33 881.942C1408.67 821.06 1411.59 757.656 1418.57 695.873C1425.17 637.873 1435.65 575.549 1451.76 513.046C1478.74 407.853 1521.82 302.3 1580.63 219.622C1615.76 170.448 1656.52 131.001 1702.13 98.3981C1784.23 39.4972 1882.04 2.93187 1990.54 -29.4906C2049.34 -46.9628 2109.9 -59.5715 2170.84 -67.6772" stroke="#9D32FE" stroke-miterlimit="10"/>
<path d="M-186.497 1470.59C-35.5001 1578.49 183.038 1585.51 332.87 1486.8C385.661 1452.04 425.448 1407.01 468.728 1363.06C535.299 1295.33 580.52 1220.4 673.486 1179.15C756.942 1142.04 856.895 1135.38 943.65 1166.18C991.589 1183.11 1035.26 1210.13 1084.55 1223.28C1215.56 1258.04 1324.44 1137 1359.38 1032.71C1395.09 926.433 1388.1 810.432 1402.66 698.935C1422.65 544.568 1481.26 354.356 1577.72 224.306C1679.23 87.5907 1822.27 30.3109 1991.31 -19.7638C2049.93 -37.236 2110.29 -49.8447 2171.23 -58.4907" stroke="#A32BFF" stroke-miterlimit="10"/>
</g>
<mask id="mask4_94_16" style="mask-type:luminance" maskUnits="userSpaceOnUse" x="-170" y="-43" width="2329" height="1441">
<path d="M2159 -43H-170V1398H2159V-43Z" fill="white"/>
</mask>
<g mask="url(#mask4_94_16)">
<path d="M1246.81 1171.04C1248.95 1171.04 1250.69 1169.43 1250.69 1167.44C1250.69 1165.45 1248.95 1163.84 1246.81 1163.84C1244.66 1163.84 1242.93 1165.45 1242.93 1167.44C1242.93 1169.43 1244.66 1171.04 1246.81 1171.04Z" fill="#2B3640"/>
<path d="M1246.81 1129.61C1248.95 1129.61 1250.69 1128 1250.69 1126.01C1250.69 1124.02 1248.95 1122.41 1246.81 1122.41C1244.66 1122.41 1242.93 1124.02 1242.93 1126.01C1242.93 1128 1244.66 1129.61 1246.81 1129.61Z" fill="#2B3640"/>
<path d="M1246.81 1088.18C1248.95 1088.18 1250.69 1086.57 1250.69 1084.58C1250.69 1082.59 1248.95 1080.98 1246.81 1080.98C1244.66 1080.98 1242.93 1082.59 1242.93 1084.58C1242.93 1086.57 1244.66 1088.18 1246.81 1088.18Z" fill="#2B3640"/>
<path d="M1246.81 1046.76C1248.95 1046.76 1250.69 1045.14 1250.69 1043.15C1250.69 1041.16 1248.95 1039.55 1246.81 1039.55C1244.66 1039.55 1242.93 1041.16 1242.93 1043.15C1242.93 1045.14 1244.66 1046.76 1246.81 1046.76Z" fill="#2B3640"/>
<path d="M1246.81 1005.33C1248.95 1005.33 1250.69 1003.71 1250.69 1001.73C1250.69 999.735 1248.95 998.123 1246.81 998.123C1244.66 998.123 1242.93 999.735 1242.93 1001.73C1242.93 1003.71 1244.66 1005.33 1246.81 1005.33Z" fill="#2B3640"/>
<path d="M1295.33 1171.04C1297.47 1171.04 1299.21 1169.43 1299.21 1167.44C1299.21 1165.45 1297.47 1163.84 1295.33 1163.84C1293.19 1163.84 1291.45 1165.45 1291.45 1167.44C1291.45 1169.43 1293.19 1171.04 1295.33 1171.04Z" fill="#2B3640"/>
<path d="M1295.33 1129.61C1297.47 1129.61 1299.21 1128 1299.21 1126.01C1299.21 1124.02 1297.47 1122.41 1295.33 1122.41C1293.19 1122.41 1291.45 1124.02 1291.45 1126.01C1291.45 1128 1293.19 1129.61 1295.33 1129.61Z" fill="#2B3640"/>
<path d="M1295.33 1088.18C1297.47 1088.18 1299.21 1086.57 1299.21 1084.58C1299.21 1082.59 1297.47 1080.98 1295.33 1080.98C1293.19 1080.98 1291.45 1082.59 1291.45 1084.58C1291.45 1086.57 1293.19 1088.18 1295.33 1088.18Z" fill="#2B3640"/>
<path d="M1295.33 1046.76C1297.47 1046.76 1299.21 1045.14 1299.21 1043.15C1299.21 1041.16 1297.47 1039.55 1295.33 1039.55C1293.19 1039.55 1291.45 1041.16 1291.45 1043.15C1291.45 1045.14 1293.19 1046.76 1295.33 1046.76Z" fill="#2B3640"/>
<path d="M1295.33 1005.33C1297.47 1005.33 1299.21 1003.71 1299.21 1001.73C1299.21 999.735 1297.47 998.123 1295.33 998.123C1293.19 998.123 1291.45 999.735 1291.45 1001.73C1291.45 1003.71 1293.19 1005.33 1295.33 1005.33Z" fill="#2B3640"/>
<path d="M1343.85 1171.04C1345.99 1171.04 1347.73 1169.43 1347.73 1167.44C1347.73 1165.45 1345.99 1163.84 1343.85 1163.84C1341.71 1163.84 1339.97 1165.45 1339.97 1167.44C1339.97 1169.43 1341.71 1171.04 1343.85 1171.04Z" fill="#2B3640"/>
<path d="M1343.85 1129.61C1345.99 1129.61 1347.73 1128 1347.73 1126.01C1347.73 1124.02 1345.99 1122.41 1343.85 1122.41C1341.71 1122.41 1339.97 1124.02 1339.97 1126.01C1339.97 1128 1341.71 1129.61 1343.85 1129.61Z" fill="#2B3640"/>
<path d="M1343.85 1088.18C1345.99 1088.18 1347.73 1086.57 1347.73 1084.58C1347.73 1082.59 1345.99 1080.98 1343.85 1080.98C1341.71 1080.98 1339.97 1082.59 1339.97 1084.58C1339.97 1086.57 1341.71 1088.18 1343.85 1088.18Z" fill="#2B3640"/>
<path d="M1343.85 1046.76C1345.99 1046.76 1347.73 1045.14 1347.73 1043.15C1347.73 1041.16 1345.99 1039.55 1343.85 1039.55C1341.71 1039.55 1339.97 1041.16 1339.97 1043.15C1339.97 1045.14 1341.71 1046.76 1343.85 1046.76Z" fill="#2B3640"/>
<path d="M1343.85 1005.33C1345.99 1005.33 1347.73 1003.71 1347.73 1001.73C1347.73 999.735 1345.99 998.123 1343.85 998.123C1341.71 998.123 1339.97 999.735 1339.97 1001.73C1339.97 1003.71 1341.71 1005.33 1343.85 1005.33Z" fill="#2B3640"/>
<path d="M1392.37 1171.04C1394.51 1171.04 1396.25 1169.43 1396.25 1167.44C1396.25 1165.45 1394.51 1163.84 1392.37 1163.84C1390.23 1163.84 1388.49 1165.45 1388.49 1167.44C1388.49 1169.43 1390.23 1171.04 1392.37 1171.04Z" fill="#2B3640"/>
<path d="M1392.37 1129.61C1394.51 1129.61 1396.25 1128 1396.25 1126.01C1396.25 1124.02 1394.51 1122.41 1392.37 1122.41C1390.23 1122.41 1388.49 1124.02 1388.49 1126.01C1388.49 1128 1390.23 1129.61 1392.37 1129.61Z" fill="#2B3640"/>
<path d="M1392.37 1088.18C1394.51 1088.18 1396.25 1086.57 1396.25 1084.58C1396.25 1082.59 1394.51 1080.98 1392.37 1080.98C1390.23 1080.98 1388.49 1082.59 1388.49 1084.58C1388.49 1086.57 1390.23 1088.18 1392.37 1088.18Z" fill="#2B3640"/>
<path d="M1392.37 1046.76C1394.51 1046.76 1396.25 1045.14 1396.25 1043.15C1396.25 1041.16 1394.51 1039.55 1392.37 1039.55C1390.23 1039.55 1388.49 1041.16 1388.49 1043.15C1388.49 1045.14 1390.23 1046.76 1392.37 1046.76Z" fill="#2B3640"/>
<path d="M1392.37 1005.33C1394.51 1005.33 1396.25 1003.71 1396.25 1001.73C1396.25 999.735 1394.51 998.123 1392.37 998.123C1390.23 998.123 1388.49 999.735 1388.49 1001.73C1388.49 1003.71 1390.23 1005.33 1392.37 1005.33Z" fill="#2B3640"/>
<path d="M1440.89 1171.04C1443.04 1171.04 1444.77 1169.43 1444.77 1167.44C1444.77 1165.45 1443.04 1163.84 1440.89 1163.84C1438.75 1163.84 1437.01 1165.45 1437.01 1167.44C1437.01 1169.43 1438.75 1171.04 1440.89 1171.04Z" fill="#2B3640"/>
<path d="M1440.89 1129.61C1443.04 1129.61 1444.77 1128 1444.77 1126.01C1444.77 1124.02 1443.04 1122.41 1440.89 1122.41C1438.75 1122.41 1437.01 1124.02 1437.01 1126.01C1437.01 1128 1438.75 1129.61 1440.89 1129.61Z" fill="#2B3640"/>
<path d="M1440.89 1088.18C1443.04 1088.18 1444.77 1086.57 1444.77 1084.58C1444.77 1082.59 1443.04 1080.98 1440.89 1080.98C1438.75 1080.98 1437.01 1082.59 1437.01 1084.58C1437.01 1086.57 1438.75 1088.18 1440.89 1088.18Z" fill="#2B3640"/>
<path d="M1440.89 1046.76C1443.04 1046.76 1444.77 1045.14 1444.77 1043.15C1444.77 1041.16 1443.04 1039.55 1440.89 1039.55C1438.75 1039.55 1437.01 1041.16 1437.01 1043.15C1437.01 1045.14 1438.75 1046.76 1440.89 1046.76Z" fill="#2B3640"/>
<path d="M1440.89 1005.33C1443.04 1005.33 1444.77 1003.71 1444.77 1001.73C1444.77 999.735 1443.04 998.123 1440.89 998.123C1438.75 998.123 1437.01 999.735 1437.01 1001.73C1437.01 1003.71 1438.75 1005.33 1440.89 1005.33Z" fill="#2B3640"/>
<path d="M1489.41 1171.04C1491.56 1171.04 1493.29 1169.43 1493.29 1167.44C1493.29 1165.45 1491.56 1163.84 1489.41 1163.84C1487.27 1163.84 1485.53 1165.45 1485.53 1167.44C1485.53 1169.43 1487.27 1171.04 1489.41 1171.04Z" fill="#2B3640"/>
<path d="M1489.41 1129.61C1491.56 1129.61 1493.29 1128 1493.29 1126.01C1493.29 1124.02 1491.56 1122.41 1489.41 1122.41C1487.27 1122.41 1485.53 1124.02 1485.53 1126.01C1485.53 1128 1487.27 1129.61 1489.41 1129.61Z" fill="#2B3640"/>
<path d="M1489.41 1088.18C1491.56 1088.18 1493.29 1086.57 1493.29 1084.58C1493.29 1082.59 1491.56 1080.98 1489.41 1080.98C1487.27 1080.98 1485.53 1082.59 1485.53 1084.58C1485.53 1086.57 1487.27 1088.18 1489.41 1088.18Z" fill="#2B3640"/>
<path d="M1489.41 1046.76C1491.56 1046.76 1493.29 1045.14 1493.29 1043.15C1493.29 1041.16 1491.56 1039.55 1489.41 1039.55C1487.27 1039.55 1485.53 1041.16 1485.53 1043.15C1485.53 1045.14 1487.27 1046.76 1489.41 1046.76Z" fill="#2B3640"/>
<path d="M1489.41 1005.33C1491.56 1005.33 1493.29 1003.71 1493.29 1001.73C1493.29 999.735 1491.56 998.123 1489.41 998.123C1487.27 998.123 1485.53 999.735 1485.53 1001.73C1485.53 1003.71 1487.27 1005.33 1489.41 1005.33Z" fill="#2B3640"/>
<path d="M1537.93 1171.04C1540.08 1171.04 1541.82 1169.43 1541.82 1167.44C1541.82 1165.45 1540.08 1163.84 1537.93 1163.84C1535.79 1163.84 1534.05 1165.45 1534.05 1167.44C1534.05 1169.43 1535.79 1171.04 1537.93 1171.04Z" fill="#2B3640"/>
<path d="M1537.93 1129.61C1540.08 1129.61 1541.82 1128 1541.82 1126.01C1541.82 1124.02 1540.08 1122.41 1537.93 1122.41C1535.79 1122.41 1534.05 1124.02 1534.05 1126.01C1534.05 1128 1535.79 1129.61 1537.93 1129.61Z" fill="#2B3640"/>
<path d="M1537.93 1088.18C1540.08 1088.18 1541.82 1086.57 1541.82 1084.58C1541.82 1082.59 1540.08 1080.98 1537.93 1080.98C1535.79 1080.98 1534.05 1082.59 1534.05 1084.58C1534.05 1086.57 1535.79 1088.18 1537.93 1088.18Z" fill="#2B3640"/>
<path d="M1537.93 1046.76C1540.08 1046.76 1541.82 1045.14 1541.82 1043.15C1541.82 1041.16 1540.08 1039.55 1537.93 1039.55C1535.79 1039.55 1534.05 1041.16 1534.05 1043.15C1534.05 1045.14 1535.79 1046.76 1537.93 1046.76Z" fill="#2B3640"/>
<path d="M1537.93 1005.33C1540.08 1005.33 1541.82 1003.71 1541.82 1001.73C1541.82 999.735 1540.08 998.123 1537.93 998.123C1535.79 998.123 1534.05 999.735 1534.05 1001.73C1534.05 1003.71 1535.79 1005.33 1537.93 1005.33Z" fill="#2B3640"/>
<path d="M1586.45 1171.04C1588.6 1171.04 1590.34 1169.43 1590.34 1167.44C1590.34 1165.45 1588.6 1163.84 1586.45 1163.84C1584.31 1163.84 1582.57 1165.45 1582.57 1167.44C1582.57 1169.43 1584.31 1171.04 1586.45 1171.04Z" fill="#2B3640"/>
<path d="M1586.45 1129.61C1588.6 1129.61 1590.34 1128 1590.34 1126.01C1590.34 1124.02 1588.6 1122.41 1586.45 1122.41C1584.31 1122.41 1582.57 1124.02 1582.57 1126.01C1582.57 1128 1584.31 1129.61 1586.45 1129.61Z" fill="#2B3640"/>
<path d="M1586.45 1088.18C1588.6 1088.18 1590.34 1086.57 1590.34 1084.58C1590.34 1082.59 1588.6 1080.98 1586.45 1080.98C1584.31 1080.98 1582.57 1082.59 1582.57 1084.58C1582.57 1086.57 1584.31 1088.18 1586.45 1088.18Z" fill="#2B3640"/>
<path d="M1586.45 1046.76C1588.6 1046.76 1590.34 1045.14 1590.34 1043.15C1590.34 1041.16 1588.6 1039.55 1586.45 1039.55C1584.31 1039.55 1582.57 1041.16 1582.57 1043.15C1582.57 1045.14 1584.31 1046.76 1586.45 1046.76Z" fill="#2B3640"/>
<path d="M1586.45 1005.33C1588.6 1005.33 1590.34 1003.71 1590.34 1001.73C1590.34 999.735 1588.6 998.123 1586.45 998.123C1584.31 998.123 1582.57 999.735 1582.57 1001.73C1582.57 1003.71 1584.31 1005.33 1586.45 1005.33Z" fill="#2B3640"/>
<path d="M1634.98 1171.04C1637.12 1171.04 1638.86 1169.43 1638.86 1167.44C1638.86 1165.45 1637.12 1163.84 1634.98 1163.84C1632.83 1163.84 1631.09 1165.45 1631.09 1167.44C1631.09 1169.43 1632.83 1171.04 1634.98 1171.04Z" fill="#2B3640"/>
<path d="M1634.98 1129.61C1637.12 1129.61 1638.86 1128 1638.86 1126.01C1638.86 1124.02 1637.12 1122.41 1634.98 1122.41C1632.83 1122.41 1631.09 1124.02 1631.09 1126.01C1631.09 1128 1632.83 1129.61 1634.98 1129.61Z" fill="#2B3640"/>
<path d="M1634.98 1088.18C1637.12 1088.18 1638.86 1086.57 1638.86 1084.58C1638.86 1082.59 1637.12 1080.98 1634.98 1080.98C1632.83 1080.98 1631.09 1082.59 1631.09 1084.58C1631.09 1086.57 1632.83 1088.18 1634.98 1088.18Z" fill="#2B3640"/>
<path d="M1634.98 1046.76C1637.12 1046.76 1638.86 1045.14 1638.86 1043.15C1638.86 1041.16 1637.12 1039.55 1634.98 1039.55C1632.83 1039.55 1631.09 1041.16 1631.09 1043.15C1631.09 1045.14 1632.83 1046.76 1634.98 1046.76Z" fill="#2B3640"/>
<path d="M1634.98 1005.33C1637.12 1005.33 1638.86 1003.71 1638.86 1001.73C1638.86 999.735 1637.12 998.123 1634.98 998.123C1632.83 998.123 1631.09 999.735 1631.09 1001.73C1631.09 1003.71 1632.83 1005.33 1634.98 1005.33Z" fill="#2B3640"/>
<path d="M1683.5 1171.04C1685.64 1171.04 1687.38 1169.43 1687.38 1167.44C1687.38 1165.45 1685.64 1163.84 1683.5 1163.84C1681.35 1163.84 1679.61 1165.45 1679.61 1167.44C1679.61 1169.43 1681.35 1171.04 1683.5 1171.04Z" fill="#2B3640"/>
<path d="M1683.5 1129.61C1685.64 1129.61 1687.38 1128 1687.38 1126.01C1687.38 1124.02 1685.64 1122.41 1683.5 1122.41C1681.35 1122.41 1679.61 1124.02 1679.61 1126.01C1679.61 1128 1681.35 1129.61 1683.5 1129.61Z" fill="#2B3640"/>
<path d="M1683.5 1088.18C1685.64 1088.18 1687.38 1086.57 1687.38 1084.58C1687.38 1082.59 1685.64 1080.98 1683.5 1080.98C1681.35 1080.98 1679.61 1082.59 1679.61 1084.58C1679.61 1086.57 1681.35 1088.18 1683.5 1088.18Z" fill="#2B3640"/>
<path d="M1683.5 1046.76C1685.64 1046.76 1687.38 1045.14 1687.38 1043.15C1687.38 1041.16 1685.64 1039.55 1683.5 1039.55C1681.35 1039.55 1679.61 1041.16 1679.61 1043.15C1679.61 1045.14 1681.35 1046.76 1683.5 1046.76Z" fill="#2B3640"/>
<path d="M1683.5 1005.33C1685.64 1005.33 1687.38 1003.71 1687.38 1001.73C1687.38 999.735 1685.64 998.123 1683.5 998.123C1681.35 998.123 1679.61 999.735 1679.61 1001.73C1679.61 1003.71 1681.35 1005.33 1683.5 1005.33Z" fill="#2B3640"/>
<path d="M1732.02 1171.04C1734.16 1171.04 1735.9 1169.43 1735.9 1167.44C1735.9 1165.45 1734.16 1163.84 1732.02 1163.84C1729.87 1163.84 1728.14 1165.45 1728.14 1167.44C1728.14 1169.43 1729.87 1171.04 1732.02 1171.04Z" fill="#2B3640"/>
<path d="M1732.02 1129.61C1734.16 1129.61 1735.9 1128 1735.9 1126.01C1735.9 1124.02 1734.16 1122.41 1732.02 1122.41C1729.87 1122.41 1728.14 1124.02 1728.14 1126.01C1728.14 1128 1729.87 1129.61 1732.02 1129.61Z" fill="#2B3640"/>
<path d="M1732.02 1088.18C1734.16 1088.18 1735.9 1086.57 1735.9 1084.58C1735.9 1082.59 1734.16 1080.98 1732.02 1080.98C1729.87 1080.98 1728.14 1082.59 1728.14 1084.58C1728.14 1086.57 1729.87 1088.18 1732.02 1088.18Z" fill="#2B3640"/>
<path d="M1732.02 1046.76C1734.16 1046.76 1735.9 1045.14 1735.9 1043.15C1735.9 1041.16 1734.16 1039.55 1732.02 1039.55C1729.87 1039.55 1728.14 1041.16 1728.14 1043.15C1728.14 1045.14 1729.87 1046.76 1732.02 1046.76Z" fill="#2B3640"/>
<path d="M1732.02 1005.33C1734.16 1005.33 1735.9 1003.71 1735.9 1001.73C1735.9 999.735 1734.16 998.123 1732.02 998.123C1729.87 998.123 1728.14 999.735 1728.14 1001.73C1728.14 1003.71 1729.87 1005.33 1732.02 1005.33Z" fill="#2B3640"/>
<path d="M1780.54 1171.04C1782.68 1171.04 1784.42 1169.43 1784.42 1167.44C1784.42 1165.45 1782.68 1163.84 1780.54 1163.84C1778.39 1163.84 1776.66 1165.45 1776.66 1167.44C1776.66 1169.43 1778.39 1171.04 1780.54 1171.04Z" fill="#2B3640"/>
<path d="M1780.54 1129.61C1782.68 1129.61 1784.42 1128 1784.42 1126.01C1784.42 1124.02 1782.68 1122.41 1780.54 1122.41C1778.39 1122.41 1776.66 1124.02 1776.66 1126.01C1776.66 1128 1778.39 1129.61 1780.54 1129.61Z" fill="#2B3640"/>
<path d="M1780.54 1088.18C1782.68 1088.18 1784.42 1086.57 1784.42 1084.58C1784.42 1082.59 1782.68 1080.98 1780.54 1080.98C1778.39 1080.98 1776.66 1082.59 1776.66 1084.58C1776.66 1086.57 1778.39 1088.18 1780.54 1088.18Z" fill="#2B3640"/>
<path d="M1780.54 1046.76C1782.68 1046.76 1784.42 1045.14 1784.42 1043.15C1784.42 1041.16 1782.68 1039.55 1780.54 1039.55C1778.39 1039.55 1776.66 1041.16 1776.66 1043.15C1776.66 1045.14 1778.39 1046.76 1780.54 1046.76Z" fill="#2B3640"/>
<path d="M1780.54 1005.33C1782.68 1005.33 1784.42 1003.71 1784.42 1001.73C1784.42 999.735 1782.68 998.123 1780.54 998.123C1778.39 998.123 1776.66 999.735 1776.66 1001.73C1776.66 1003.71 1778.39 1005.33 1780.54 1005.33Z" fill="#2B3640"/>
<path d="M1829.06 1171.04C1831.2 1171.04 1832.94 1169.43 1832.94 1167.44C1832.94 1165.45 1831.2 1163.84 1829.06 1163.84C1826.91 1163.84 1825.18 1165.45 1825.18 1167.44C1825.18 1169.43 1826.91 1171.04 1829.06 1171.04Z" fill="#2B3640"/>
<path d="M1829.06 1129.61C1831.2 1129.61 1832.94 1128 1832.94 1126.01C1832.94 1124.02 1831.2 1122.41 1829.06 1122.41C1826.91 1122.41 1825.18 1124.02 1825.18 1126.01C1825.18 1128 1826.91 1129.61 1829.06 1129.61Z" fill="#2B3640"/>
<path d="M1829.06 1088.18C1831.2 1088.18 1832.94 1086.57 1832.94 1084.58C1832.94 1082.59 1831.2 1080.98 1829.06 1080.98C1826.91 1080.98 1825.18 1082.59 1825.18 1084.58C1825.18 1086.57 1826.91 1088.18 1829.06 1088.18Z" fill="#2B3640"/>
<path d="M1829.06 1046.76C1831.2 1046.76 1832.94 1045.14 1832.94 1043.15C1832.94 1041.16 1831.2 1039.55 1829.06 1039.55C1826.91 1039.55 1825.18 1041.16 1825.18 1043.15C1825.18 1045.14 1826.91 1046.76 1829.06 1046.76Z" fill="#2B3640"/>
<path d="M1829.06 1005.33C1831.2 1005.33 1832.94 1003.71 1832.94 1001.73C1832.94 999.735 1831.2 998.123 1829.06 998.123C1826.91 998.123 1825.18 999.735 1825.18 1001.73C1825.18 1003.71 1826.91 1005.33 1829.06 1005.33Z" fill="#2B3640"/>
</g>
</g>
<defs>
<filter id="filter0_d_94_16" x="-174" y="-43" width="2337" height="1449" filterUnits="userSpaceOnUse" color-interpolation-filters="sRGB">
<feFlood flood-opacity="0" result="BackgroundImageFix"/>
<feColorMatrix in="SourceAlpha" type="matrix" values="0 0 0 0 0 0 0 0 0 0 0 0 0 0 0 0 0 0 127 0" result="hardAlpha"/>
<feOffset dy="4"/>
<feGaussianBlur stdDeviation="2"/>
<feComposite in2="hardAlpha" operator="out"/>
<feColorMatrix type="matrix" values="0 0 0 0 0 0 0 0 0 0 0 0 0 0 0 0 0 0 0.25 0"/>
<feBlend mode="normal" in2="BackgroundImageFix" result="effect1_dropShadow_94_16"/>
<feBlend mode="normal" in="SourceGraphic" in2="effect1_dropShadow_94_16" result="shape"/>
</filter>
</defs>
</svg>
