<svg width="231" height="154" viewBox="0 0 231 154" fill="none" xmlns="http://www.w3.org/2000/svg">
<g filter="url(#filter0_d_99_761)">
<path d="M129.655 5.04184C126.352 7.09762 127.824 8.67009 133.276 8.89199C140.391 9.18462 147.587 14.0495 150.914 20.8873C153.616 26.2769 155.893 26.6972 156.403 21.8363C156.844 16.0705 153.409 10.1693 147.429 6.46398C140.956 2.57108 134.448 2.07874 129.655 5.04184Z" fill="#A9A9A9"/>
<path d="M103.647 24.349C96.9769 28.1049 92.9648 31.8463 88.5384 38.4134C83.4543 45.9232 80.2848 53.3672 78.5245 62.0281C77.7351 65.8379 77.0443 69.1714 76.8982 69.3809C76.8409 69.5746 74.7205 68.4844 72.1494 66.9241C64.8552 62.5354 55.5585 62.356 51.0762 66.548C46.1396 71.2796 42.9115 81.486 42.4384 93.7704C42.2616 97.9297 41.7292 102.152 41.2334 102.974C40.7535 103.886 35.6768 109.376 30.0094 115.155C19.3066 126.142 15.9704 130.588 16.4928 133.522C16.8727 135.656 18.7399 135.324 22.7897 132.31C24.4828 130.999 29.1513 128.884 33.1463 127.622C37.0682 126.465 43.515 124.033 47.5197 122.311C60.5534 116.688 63.0686 115.874 64.697 116.776C65.5191 117.272 68.5943 120.119 71.5234 123.175C80.2948 132.254 89.3039 135.97 98.3888 134.444C105.857 133.115 111.801 126.828 114.81 116.936L115.888 113.717L119.246 116.605C125.349 122.031 135.021 127.923 140.145 129.395C146.713 131.253 153.696 130.285 157.609 127.02C162.066 123.199 163.953 115.25 162.656 105.39L161.676 97.3089L164.527 97.3517C189.696 97.5488 208.367 90.0969 216.931 76.372C219.775 71.7378 221.595 64.4423 220.867 60.3523C220.186 56.5291 216.018 50.1163 212.079 47.0566C201.907 38.869 185.748 39.8195 163.869 49.8607C159.112 51.9919 154.735 53.6884 154.066 53.5324C153.411 53.4654 152.203 50.2865 150.914 45.104C147.682 32.1033 144.766 27.5772 136.599 23.4357C126.908 18.4648 113.207 18.7943 103.647 24.349ZM128.393 25.2636C139.2 27.7426 143.294 32.7011 146.883 47.1975C150.21 60.7317 150.88 60.8876 167.118 53.6853C174.093 50.609 178.605 49.1634 186.074 47.8338C194.86 46.1777 196.419 46.1753 201.334 47.5019C218.369 51.9909 220.249 70.2775 204.676 81.2141C195.556 87.6994 184.099 90.84 168.217 91.2827C160.098 91.5357 158.942 91.7415 157.28 93.2297C155.254 95.2417 155.232 94.6035 156.938 105.216C160.856 129.285 145.391 132.589 122.719 112.409C118.58 108.743 114.584 105.876 113.962 105.987C112.272 106.288 111.344 108.288 110.608 112.914C109.229 121.14 103.621 128.284 97.4865 129.376C90.5513 130.611 80.7713 125.656 72.3555 116.514C68.703 112.486 65.4048 110.963 61.8484 111.596C60.7814 111.786 54.6744 114.066 48.3482 116.66C32.5168 123.056 29.4999 124.143 29.3099 123.077C29.2149 122.543 32.735 118.614 37.2015 114.333C41.5632 109.979 45.5376 105.51 45.9859 104.422C46.4183 103.244 46.8521 99.4975 46.9777 96.0811C47.3619 83.8125 50.4949 73.0726 54.7482 69.6552C58.9443 66.4314 68.9765 68.6814 74.0698 74.1041C76.9258 77.2648 79.7101 77.9616 81.0097 75.9873C81.5055 75.1652 82.2376 71.5491 82.792 67.9647C85.0874 49.9437 95.2021 34.1082 108.522 27.5171C113.588 25.0559 122.93 23.943 128.393 25.2636Z" fill="#A9A9A9"/>
<path d="M72.0668 36.576C71.2945 37.906 69.683 41.22 68.6147 43.9787L66.5769 49.0198L61.7732 48.3156C56.6712 47.481 53.6068 48.3018 53.955 50.2579C54.0658 50.8803 55.1291 51.7 56.3958 52.1166C57.5577 52.4601 60.9131 53.7891 63.7192 55.1241C71.0744 58.3094 71.9416 57.5129 74.4597 44.8644C75.6597 39.2387 76.3797 34.524 76.0655 34.3047C74.9133 33.5008 73.4237 34.4081 72.0668 36.576Z" fill="#A9A9A9"/>
<path d="M24.8972 97.2601C21.3795 102.748 17.4829 110.23 17.0468 112.417C16.6581 114.872 18.5472 115.177 20.3486 112.93C22.7348 109.845 30.3087 95.1959 30.1188 94.129C29.7072 91.8173 27.5538 93.118 24.8972 97.2601Z" fill="#A9A9A9"/>
<path d="M40.5672 132.722C31.9949 137.642 29.4724 140.476 33.3236 140.983C35.1079 141.216 47.9042 134.259 49.7945 131.997C52.6825 128.639 47.1639 129.071 40.5672 132.722Z" fill="#A9A9A9"/>
<path d="M171.946 118.413C171.476 118.864 170.564 120.952 169.845 123.098C168.341 128.044 166.205 130.993 161.533 134.118C156.626 137.469 148.462 139.014 141.988 137.69C137.524 136.833 137.153 136.808 136.873 138.325C136.437 140.513 142.023 143.554 147.345 144.074C155.654 144.888 166.899 140.043 171.017 133.806C173.617 129.857 175.287 123.781 174.638 120.135C174.131 117.29 173.503 116.852 171.946 118.413Z" fill="#A9A9A9"/>
<path d="M85.0998 106.879C84.9464 107.736 84.7268 108.402 84.4412 108.877C84.1629 109.368 83.7846 109.731 83.3064 109.967C82.6936 110.27 81.7649 110.422 80.5201 110.423C80.6175 110.319 80.7225 110.193 80.8351 110.044C80.955 109.911 81.0487 109.818 81.116 109.766C81.7367 109.367 82.153 108.855 82.3649 108.23C82.5768 107.604 82.6512 106.889 82.5882 106.084C82.4779 104.317 82.1019 102.783 81.46 101.483C81.3641 101.289 81.209 101.012 80.9947 100.653C80.5656 100.01 80.1718 99.7771 79.8131 99.9541C79.6636 100.028 79.4874 100.236 79.2844 100.578L78.02 102.986C77.8997 103.194 77.7498 103.343 77.5705 103.431C77.4061 103.512 77.2382 103.549 77.0668 103.54C76.8954 103.532 76.6571 103.501 76.3517 103.447C76.3368 103.455 76.3146 103.428 76.2851 103.369C76.2187 103.234 76.2049 102.999 76.2439 102.664L76.4897 100.507L76.7241 98.3843C76.7547 98.2205 76.7263 97.9558 76.6387 97.5901C76.5874 97.4109 76.5396 97.2765 76.4954 97.1869C76.3478 96.888 76.1171 96.816 75.8033 96.9709C75.6987 97.0226 75.4742 97.1891 75.1299 97.4706C74.733 97.8338 74.4076 98.0781 74.1535 98.2036C73.8845 98.3364 73.6383 98.3836 73.4149 98.3452C73.3259 98.2404 73.263 98.1506 73.2262 98.0759C73.1745 97.9712 73.1751 97.8594 73.2279 97.7405C73.2733 97.6065 73.3598 97.443 73.4875 97.2498C73.6152 97.0567 73.7278 96.9082 73.8252 96.8043C74.2544 95.9419 74.8502 95.3225 75.6123 94.9463C76.24 94.6364 76.8629 94.5427 77.4809 94.6651C78.1807 94.8401 78.6486 95.1667 78.8847 95.6449C79.0544 95.9887 79.1191 96.4399 79.079 96.9988C79.0715 97.0211 79.0368 97.2333 78.9752 97.6355C78.8605 98.194 78.7953 98.5514 78.7796 98.7079C79.7503 98.3774 80.545 98.1988 81.1638 98.1721C81.7826 98.1455 82.3147 98.301 82.7603 98.6387C83.1984 98.9614 83.6093 99.5113 83.9929 100.288C84.5462 101.409 84.9245 102.514 85.1276 103.604C85.3234 104.678 85.3141 105.77 85.0998 106.879ZM94.0568 103.099C93.2354 103.393 92.2472 103.5 91.0923 103.419C89.9523 103.331 88.8806 103.024 87.877 102.497C86.8734 101.97 86.1651 101.289 85.7519 100.452C85.6708 100.287 85.6119 100.149 85.5752 100.037C84.3304 97.1015 84.2387 93.8847 85.3 90.3869C85.4061 90.0371 85.6052 89.7251 85.8973 89.4508C86.197 89.1542 86.5336 88.9136 86.9072 88.7292C87.4752 88.4489 87.9639 88.347 88.3734 88.4236C88.5223 88.4616 88.6673 88.5295 88.8085 88.6271C88.9496 88.7247 89.1054 88.8708 89.2758 89.0655C89.3203 89.1179 89.3122 89.2334 89.2517 89.412C89.2061 89.5832 89.1459 89.6872 89.0712 89.7241C88.5631 89.9749 88.185 90.301 87.937 90.7022C87.6816 91.0885 87.5193 91.4939 87.4501 91.9184C87.3734 92.328 87.3223 92.8644 87.2965 93.5276C87.2961 93.6021 87.292 93.6878 87.284 93.7847C87.291 93.8742 87.2868 93.9785 87.2713 94.0977C87.2368 95.0069 87.255 95.8343 87.3257 96.58C87.4114 97.3184 87.6277 98.0201 87.9747 98.6853C88.4396 99.5895 89.0248 100.323 89.73 100.886C90.0714 101.163 90.287 101.28 90.3767 101.235C90.4365 101.206 90.4743 101.094 90.4902 100.901C90.5136 100.685 90.5407 100.495 90.5713 100.331C90.6633 99.8394 90.7734 99.4411 90.9017 99.1362C91.0225 98.8163 91.1771 98.4705 91.3653 98.0988C91.5912 97.6527 91.9582 97.3042 92.4663 97.0534C92.9446 96.8173 93.4744 96.7045 94.0557 96.7149C94.6446 96.703 95.1844 96.8175 95.6751 97.0585C96.1808 97.2922 96.5406 97.6257 96.7545 98.0591C96.9463 98.4477 97.0371 98.914 97.0269 99.458C97.0243 99.9798 96.9325 100.434 96.7517 100.821C96.3447 101.691 95.6519 102.358 94.6731 102.823C94.4041 102.955 94.1986 103.047 94.0568 103.099ZM92.9487 98.9342C92.7009 99.2981 92.528 99.588 92.43 99.8036C92.3246 100.004 92.26 100.25 92.2362 100.541C92.2273 100.824 92.304 101.13 92.4663 101.459C92.727 101.497 93.0367 101.428 93.3953 101.251C93.8437 101.029 94.2031 100.703 94.4736 100.272C94.7442 99.8415 94.802 99.4691 94.647 99.1552C94.5806 99.0207 94.4657 98.9009 94.3023 98.7957C93.901 98.5477 93.5584 98.4938 93.2745 98.634C93.1549 98.693 93.0463 98.7931 92.9487 98.9342ZM96.6811 90.6513C96.766 90.0703 96.9224 89.3705 97.1502 88.5518C97.3929 87.7256 97.665 86.9779 97.9666 86.3086C98.5848 84.9254 99.5592 83.8682 100.89 83.1371L100.957 83.1039C101.181 82.9932 101.431 82.9348 101.707 82.9288C101.998 82.9154 102.378 82.9136 102.847 82.9234C102.929 82.9387 103.044 83.0213 103.193 83.1711C103.341 83.321 103.43 83.463 103.459 83.5973C103.444 83.642 103.342 83.7756 103.155 83.9983L102.941 84.2432L102.762 84.3876L102.548 84.5207L102.245 84.7539L102.602 84.9123C102.863 85.0627 103.112 85.1907 103.35 85.2962C103.996 85.6275 104.431 85.8682 104.654 86.0184C105.493 86.5892 106.134 87.3042 106.577 88.1637C106.895 88.8063 107.096 89.4968 107.182 90.2351C107.282 90.9661 107.334 91.8049 107.337 92.7515C107.343 94.3839 107.094 95.7057 106.59 96.7168C106.13 97.6313 105.475 98.2988 104.623 98.7193C104.175 98.9406 103.667 99.0796 103.1 99.1364C102.302 99.2143 101.524 99.0874 100.765 98.7556C100.007 98.4237 99.3535 97.9285 98.8053 97.2698C98.1534 96.4764 97.6504 95.721 97.2962 95.0036C96.5954 93.5839 96.3903 92.1331 96.6811 90.6513ZM99.7991 88.7218C99.0802 90.8424 99.1999 92.9487 100.158 95.0406C100.313 95.3917 100.516 95.7467 100.768 96.1058C100.968 96.3975 101.242 96.671 101.591 96.9262C101.94 97.1814 102.245 97.291 102.506 97.255C102.611 97.2407 102.715 97.2077 102.82 97.156C103.059 97.038 103.276 96.8565 103.471 96.6115C103.673 96.3442 103.82 96.0766 103.911 95.8087C104.827 93.1077 104.548 90.095 103.074 86.7706L103.063 86.7482L102.974 86.6248C102.907 86.4903 102.852 86.3968 102.808 86.3444C102.453 85.7016 102.112 85.3682 101.784 85.3442C101.709 85.3438 101.627 85.3657 101.538 85.41C101.328 85.5133 101.111 85.788 100.885 86.234C100.502 86.888 100.14 87.7172 99.7991 88.7218ZM108.386 73.9997C108.669 74.1576 108.936 74.3602 109.188 74.6075C109.433 74.8398 109.614 75.0755 109.732 75.3146C109.902 75.6584 109.955 76.1431 109.893 76.7689C109.83 77.3947 109.644 77.9789 109.336 78.5214C109.042 79.0566 108.657 79.405 108.179 79.5665C107.208 79.9715 106.339 80.0193 105.573 79.7098C104.822 79.3929 104.259 78.7602 103.883 77.8117C103.743 77.4905 103.719 77.1773 103.81 76.8721C103.894 76.5521 104.055 76.2212 104.296 75.8796C104.393 75.7384 104.495 75.5116 104.601 75.1991C104.744 74.8868 104.82 74.7194 104.827 74.6971C105.038 74.2584 105.233 74.0135 105.412 73.9622C106.039 73.8014 106.588 73.7073 107.057 73.6799C107.527 73.6524 107.97 73.759 108.386 73.9997ZM107.976 77.799C108.155 77.5986 108.243 77.286 108.237 76.8611C108.232 76.4362 108.145 76.0519 107.975 75.7082C107.872 75.499 107.761 75.3493 107.642 75.2593C107.345 74.9969 107.022 74.8126 106.672 74.7065C106.322 74.6004 105.964 74.647 105.598 74.8464C105.553 74.9058 105.44 75.0357 105.261 75.236C105.096 75.4289 105.017 75.5702 105.024 75.6596C105.103 76.234 105.308 76.8574 105.64 77.5299C105.736 77.7242 105.881 77.9038 106.073 78.0688C106.266 78.2338 106.463 78.3503 106.664 78.4184C106.903 78.4121 107.149 78.3463 107.403 78.2209C107.642 78.1029 107.833 77.9622 107.976 77.799ZM115.743 78.2022C115.654 78.2464 115.56 78.2832 115.463 78.3126C115.239 78.386 115.027 78.3886 114.826 78.3205C114.64 78.245 114.529 78.0954 114.493 77.8716C114.485 77.8194 114.464 77.7 114.427 77.5135C114.407 77.0587 114.454 76.5894 114.569 76.1054C114.676 75.6066 114.737 75.2976 114.752 75.1784C114.973 74.1956 115.082 73.4732 115.076 73.011C115.071 72.5116 115.401 72.1816 116.065 72.021C116.23 71.9771 116.713 72.0914 117.517 72.3638C118.336 72.6288 119.146 72.9348 119.95 73.2818C120.753 73.6287 121.225 73.8697 121.366 74.0045C121.455 74.0721 121.563 74.1583 121.689 74.2633C121.823 74.346 121.923 74.4173 121.99 74.4773C122.004 74.5445 122.097 74.6567 122.267 74.8141C122.431 74.9566 122.508 75.0949 122.5 75.229C122.485 75.3482 122.357 75.4854 122.118 75.6407C121.894 75.7887 121.699 75.8846 121.535 75.9285C121.222 76.0088 120.935 76.0297 120.674 75.9912C120.428 75.9452 120.038 75.7755 119.502 75.4821C119.257 75.3988 118.718 75.1725 117.885 74.803L117.238 74.509C117.2 74.5834 117.14 74.7061 117.057 74.8771C116.967 75.0331 116.914 75.1521 116.899 75.234L116.694 75.8367C116.49 76.4395 116.365 76.8823 116.319 77.1653C116.28 77.3515 116.212 77.5524 116.114 77.768C116.031 77.9763 115.908 78.121 115.743 78.2022ZM143.34 81.5019C143.28 81.6059 143.168 81.6985 143.004 81.7797C142.862 81.8684 142.749 81.9424 142.667 82.0016L137.198 84.5341C136.802 84.711 136.223 84.9875 135.461 85.3638L134.06 86.0834C133.507 86.3564 132.958 86.4691 132.414 86.4216C132.116 86.4201 131.852 86.3554 131.622 86.2275C131.391 86.0997 131.224 85.9311 131.121 85.7219C131.084 85.6471 131.051 85.5426 131.022 85.4083C130.979 85.1696 131.025 84.9238 131.16 84.6711C131.303 84.4333 131.52 84.2332 131.812 84.0707C132.006 83.9748 132.181 83.8974 132.338 83.8386C132.51 83.7724 132.652 83.7209 132.764 83.6842C133.182 83.5149 133.877 83.2464 134.847 82.8786C135.139 82.7534 135.512 82.6062 135.968 82.4371C136.438 82.2606 136.98 82.0397 137.592 81.7745C137.854 81.6641 138.224 81.4908 138.702 81.2547L140.473 80.3804L141.347 79.9488C141.758 79.7646 142.217 79.6589 142.724 79.6316C142.903 79.6176 143.096 79.6708 143.304 79.7911C143.513 79.9114 143.657 80.0538 143.738 80.2182C143.783 80.3078 143.801 80.3825 143.793 80.442C143.792 80.7402 143.641 81.0935 143.34 81.5019ZM141.16 65.6551C141.07 65.6994 140.977 65.7362 140.88 65.7655C140.656 65.8389 140.443 65.8416 140.242 65.7734C140.056 65.698 139.945 65.5483 139.909 65.3245C139.902 65.2723 139.88 65.153 139.844 64.9664C139.824 64.5117 139.871 64.0423 139.985 63.5584C140.092 63.0596 140.153 62.7505 140.169 62.6314C140.39 61.6486 140.498 60.9261 140.493 60.464C140.488 59.9646 140.818 59.6346 141.482 59.474C141.646 59.4301 142.13 59.5443 142.933 59.8168C143.752 60.0818 144.563 60.3878 145.366 60.7348C146.169 61.0817 146.641 61.3226 146.782 61.4575C146.872 61.525 146.979 61.6113 147.105 61.7163C147.239 61.799 147.339 61.8703 147.406 61.9303C147.421 61.9974 147.513 62.1097 147.684 62.2671C147.847 62.4095 147.925 62.5478 147.917 62.6819C147.901 62.8011 147.774 62.9384 147.534 63.0937C147.31 63.2416 147.116 63.3375 146.952 63.3814C146.638 63.4618 146.351 63.4827 146.09 63.4441C145.845 63.3981 145.454 63.2284 144.919 62.935C144.673 62.8518 144.134 62.6254 143.301 62.256L142.654 61.962C142.617 62.0363 142.556 62.159 142.473 62.33C142.383 62.4861 142.33 62.6051 142.315 62.687L142.111 63.2897C141.907 63.8924 141.781 64.3353 141.735 64.6183C141.697 64.8044 141.629 65.0053 141.531 65.221C141.448 65.4293 141.324 65.574 141.16 65.6551Z" fill="#A9A9A9"/>
</g>
<defs>
<filter id="filter0_d_99_761" x="12.4408" y="3.13184" width="212.587" height="149.032" filterUnits="userSpaceOnUse" color-interpolation-filters="sRGB">
<feFlood flood-opacity="0" result="BackgroundImageFix"/>
<feColorMatrix in="SourceAlpha" type="matrix" values="0 0 0 0 0 0 0 0 0 0 0 0 0 0 0 0 0 0 127 0" result="hardAlpha"/>
<feOffset dy="4"/>
<feGaussianBlur stdDeviation="2"/>
<feComposite in2="hardAlpha" operator="out"/>
<feColorMatrix type="matrix" values="0 0 0 0 0 0 0 0 0 0 0 0 0 0 0 0 0 0 0.25 0"/>
<feBlend mode="normal" in2="BackgroundImageFix" result="effect1_dropShadow_99_761"/>
<feBlend mode="normal" in="SourceGraphic" in2="effect1_dropShadow_99_761" result="shape"/>
</filter>
</defs>
</svg>
