<svg width="76" height="76" viewBox="0 0 76 76" fill="none" xmlns="http://www.w3.org/2000/svg">
<path d="M52.1075 23.6076C52.7766 22.9705 53.6671 22.6184 54.5909 22.6253C55.5147 22.6323 56.3997 22.9979 57.0591 23.645C57.7185 24.2921 58.1008 25.17 58.1252 26.0936C58.1496 27.0171 57.8143 27.914 57.19 28.5951L38.2375 52.2976C37.9116 52.6486 37.5183 52.9303 37.081 53.1258C36.6438 53.3213 36.1716 53.4267 35.6927 53.4356C35.2138 53.4444 34.7381 53.3566 34.2939 53.1774C33.8497 52.9982 33.4462 52.7313 33.1075 52.3926L20.539 39.8241C20.189 39.4979 19.9083 39.1046 19.7136 38.6676C19.5188 38.2306 19.4141 37.7589 19.4057 37.2805C19.3973 36.8022 19.4853 36.3271 19.6644 35.8835C19.8436 35.4399 20.1103 35.0369 20.4486 34.6986C20.7869 34.3603 21.1898 34.0937 21.6334 33.9145C22.077 33.7353 22.5522 33.6473 23.0305 33.6557C23.5088 33.6642 23.9806 33.7689 24.4176 33.9636C24.8546 34.1583 25.2479 34.439 25.574 34.7891L35.5205 44.7308L52.0173 23.7121C52.047 23.6755 52.0739 23.6406 52.1075 23.6076Z" fill="url(#paint0_linear_295_892)"/>
<defs>
<linearGradient id="paint0_linear_295_892" x1="38.7658" y1="22.6252" x2="38.7658" y2="53.4362" gradientUnits="userSpaceOnUse">
<stop stop-color="#FF8A00"/>
<stop offset="1" stop-color="#FFB800"/>
</linearGradient>
</defs>
</svg>
