<svg width="218" height="138" viewBox="0 0 218 138" fill="none" xmlns="http://www.w3.org/2000/svg">
<path d="M22.77 71.56C21.3233 71.56 20.2033 71.1633 19.41 70.37C18.6633 69.53 18.29 68.3867 18.29 66.94V29.14H4.64C3.42667 29.14 2.47 28.8133 1.77 28.16C1.11667 27.46 0.79 26.5267 0.79 25.36C0.79 24.1467 1.11667 23.2367 1.77 22.63C2.47 21.9767 3.42667 21.65 4.64 21.65H40.9C42.1133 21.65 43.0467 21.9767 43.7 22.63C44.4 23.2367 44.75 24.1467 44.75 25.36C44.75 26.5267 44.4 27.46 43.7 28.16C43.0467 28.8133 42.1133 29.14 40.9 29.14H27.25V66.94C27.25 68.3867 26.8767 69.53 26.13 70.37C25.3833 71.1633 24.2633 71.56 22.77 71.56ZM57.3478 71.7C53.9878 71.7 51.1178 71.0233 48.7378 69.67C46.4045 68.3167 44.6078 66.3567 43.3478 63.79C42.0878 61.1767 41.4578 58.0733 41.4578 54.48C41.4578 53.64 41.7378 53.01 42.2978 52.59C42.9045 52.1233 43.7445 51.89 44.8178 51.89H67.2878V56.93H47.6178L49.0178 55.88C49.0645 57.98 49.3678 59.7767 49.9278 61.27C50.5345 62.7167 51.4211 63.8367 52.5878 64.63C53.8011 65.3767 55.3178 65.75 57.1378 65.75C59.0978 65.75 60.7311 65.3067 62.0378 64.42C63.3911 63.4867 64.3945 62.18 65.0478 60.5C65.7478 58.82 66.0978 56.86 66.0978 54.62V54.13C66.0978 50.2567 65.1878 47.3867 63.3678 45.52C61.5945 43.6533 58.9578 42.72 55.4578 42.72C54.2911 42.72 52.9378 42.8833 51.3978 43.21C49.9045 43.49 48.4811 44.0267 47.1278 44.82C46.1478 45.38 45.2845 45.6367 44.5378 45.59C43.7911 45.4967 43.1845 45.2167 42.7178 44.75C42.2978 44.2833 42.0411 43.7 41.9478 43C41.8545 42.3 41.9711 41.6 42.2978 40.9C42.6245 40.2 43.2078 39.5933 44.0478 39.08C45.6811 38.0533 47.5478 37.3067 49.6478 36.84C51.7945 36.3267 53.7778 36.07 55.5978 36.07C59.4711 36.07 62.8078 36.7933 65.6078 38.24C68.4078 39.6867 70.5545 41.74 72.0478 44.4C73.5878 47.06 74.3578 50.21 74.3578 53.85C74.3578 57.35 73.6345 60.4533 72.1878 63.16C70.7411 65.82 68.7345 67.92 66.1678 69.46C63.6478 70.9533 60.7078 71.7 57.3478 71.7ZM93.2556 71.7C89.3823 71.7 86.4656 70.6033 84.5056 68.41C82.5456 66.17 81.5656 62.9033 81.5656 58.61V25.5C81.5656 24.0533 81.939 22.9567 82.6856 22.21C83.4323 21.4633 84.5056 21.09 85.9056 21.09C87.3056 21.09 88.379 21.4633 89.1256 22.21C89.919 22.9567 90.3156 24.0533 90.3156 25.5V58.19C90.3156 60.3367 90.759 61.9233 91.6456 62.95C92.579 63.9767 93.8856 64.49 95.5656 64.49C95.939 64.49 96.289 64.49 96.6156 64.49C96.9423 64.4433 97.269 64.3967 97.5956 64.35C98.249 64.2567 98.6923 64.4433 98.9256 64.91C99.159 65.33 99.2756 66.2167 99.2756 67.57C99.2756 68.7367 99.0423 69.6467 98.5756 70.3C98.109 70.9533 97.339 71.35 96.2656 71.49C95.799 71.5367 95.309 71.5833 94.7956 71.63C94.2823 71.6767 93.769 71.7 93.2556 71.7ZM117.367 71.7C114.007 71.7 111.137 71.0233 108.757 69.67C106.424 68.3167 104.627 66.3567 103.367 63.79C102.107 61.1767 101.477 58.0733 101.477 54.48C101.477 53.64 101.757 53.01 102.317 52.59C102.924 52.1233 103.764 51.89 104.837 51.89H127.307V56.93H107.637L109.037 55.88C109.084 57.98 109.387 59.7767 109.947 61.27C110.554 62.7167 111.441 63.8367 112.607 64.63C113.821 65.3767 115.337 65.75 117.157 65.75C119.117 65.75 120.751 65.3067 122.057 64.42C123.411 63.4867 124.414 62.18 125.067 60.5C125.767 58.82 126.117 56.86 126.117 54.62V54.13C126.117 50.2567 125.207 47.3867 123.387 45.52C121.614 43.6533 118.977 42.72 115.477 42.72C114.311 42.72 112.957 42.8833 111.417 43.21C109.924 43.49 108.501 44.0267 107.147 44.82C106.167 45.38 105.304 45.6367 104.557 45.59C103.811 45.4967 103.204 45.2167 102.737 44.75C102.317 44.2833 102.061 43.7 101.967 43C101.874 42.3 101.991 41.6 102.317 40.9C102.644 40.2 103.227 39.5933 104.067 39.08C105.701 38.0533 107.567 37.3067 109.667 36.84C111.814 36.3267 113.797 36.07 115.617 36.07C119.491 36.07 122.827 36.7933 125.627 38.24C128.427 39.6867 130.574 41.74 132.067 44.4C133.607 47.06 134.377 50.21 134.377 53.85C134.377 57.35 133.654 60.4533 132.207 63.16C130.761 65.82 128.754 67.92 126.187 69.46C123.667 70.9533 120.727 71.7 117.367 71.7ZM161.325 71.7C158.432 71.7 155.888 70.9767 153.695 69.53C151.548 68.0833 150.125 66.1467 149.425 63.72L150.195 61.97V67.08C150.195 68.5267 149.822 69.6467 149.075 70.44C148.328 71.1867 147.278 71.56 145.925 71.56C144.525 71.56 143.452 71.1867 142.705 70.44C141.958 69.6467 141.585 68.5267 141.585 67.08V25.5C141.585 24.0533 141.958 22.9567 142.705 22.21C143.452 21.4633 144.525 21.09 145.925 21.09C147.325 21.09 148.398 21.4633 149.145 22.21C149.938 22.9567 150.335 24.0533 150.335 25.5V43.7H149.495C150.242 41.4133 151.688 39.57 153.835 38.17C155.982 36.77 158.478 36.07 161.325 36.07C164.358 36.07 166.995 36.7933 169.235 38.24C171.475 39.6867 173.225 41.74 174.485 44.4C175.745 47.0133 176.375 50.1633 176.375 53.85C176.375 57.49 175.745 60.6633 174.485 63.37C173.225 66.03 171.452 68.0833 169.165 69.53C166.925 70.9767 164.312 71.7 161.325 71.7ZM158.875 65.05C160.602 65.05 162.118 64.63 163.425 63.79C164.732 62.95 165.735 61.7133 166.435 60.08C167.182 58.4 167.555 56.3233 167.555 53.85C167.555 50.1167 166.762 47.34 165.175 45.52C163.588 43.6533 161.488 42.72 158.875 42.72C157.148 42.72 155.632 43.14 154.325 43.98C153.018 44.7733 151.992 46.01 151.245 47.69C150.545 49.3233 150.195 51.3767 150.195 53.85C150.195 57.5367 150.988 60.3367 152.575 62.25C154.162 64.1167 156.262 65.05 158.875 65.05ZM197.348 71.7C193.988 71.7 191.118 71.0233 188.738 69.67C186.404 68.3167 184.608 66.3567 183.348 63.79C182.088 61.1767 181.458 58.0733 181.458 54.48C181.458 53.64 181.738 53.01 182.298 52.59C182.904 52.1233 183.744 51.89 184.818 51.89H207.288V56.93H187.618L189.018 55.88C189.064 57.98 189.368 59.7767 189.928 61.27C190.534 62.7167 191.421 63.8367 192.588 64.63C193.801 65.3767 195.318 65.75 197.138 65.75C199.098 65.75 200.731 65.3067 202.038 64.42C203.391 63.4867 204.394 62.18 205.048 60.5C205.748 58.82 206.098 56.86 206.098 54.62V54.13C206.098 50.2567 205.188 47.3867 203.368 45.52C201.594 43.6533 198.958 42.72 195.458 42.72C194.291 42.72 192.938 42.8833 191.398 43.21C189.904 43.49 188.481 44.0267 187.128 44.82C186.148 45.38 185.284 45.6367 184.538 45.59C183.791 45.4967 183.184 45.2167 182.718 44.75C182.298 44.2833 182.041 43.7 181.948 43C181.854 42.3 181.971 41.6 182.298 40.9C182.624 40.2 183.208 39.5933 184.048 39.08C185.681 38.0533 187.548 37.3067 189.648 36.84C191.794 36.3267 193.778 36.07 195.598 36.07C199.471 36.07 202.808 36.7933 205.608 38.24C208.408 39.6867 210.554 41.74 212.048 44.4C213.588 47.06 214.358 50.21 214.358 53.85C214.358 57.35 213.634 60.4533 212.188 63.16C210.741 65.82 208.734 67.92 206.168 69.46C203.648 70.9533 200.708 71.7 197.348 71.7Z" fill="black"/>
<g clip-path="url(#clip0_100_12)">
<path d="M166.749 122.11L160.285 109.798C159.071 110.437 157.674 110.797 156.188 110.792C151.625 110.772 147.887 107.126 147.885 102.692C147.885 100.078 149.091 97.7804 151 96.2858C149.429 95.458 147.65 95 145.803 95H62.0512C53.7786 95 48.4451 103.646 52.2496 110.89L63.3969 132.12C65.2926 135.73 69.0738 138 73.1985 138H156.948C165.22 138 170.554 129.354 166.749 122.11Z" fill="black"/>
<path d="M123.22 116.526C123.496 113.824 123.729 111.187 124.511 108.63C125.725 104.662 127.858 101.321 131.869 99.587C136.11 97.7527 140.406 97.9892 144.608 99.9091C145.248 100.201 145.476 100.538 145.37 101.288C144.68 106.142 147.054 110.359 151.586 112.463C152.01 112.659 152.457 112.767 152.501 113.366C152.875 118.403 152.594 123.348 150.042 127.9C146.266 134.641 137.131 136.943 130.446 132.869C127.711 131.201 126.071 128.7 124.955 125.826C124.738 125.268 124.565 124.692 124.315 123.954C122.453 131.649 117.073 134.704 109.58 134.762C102.743 134.814 98.5284 131.199 96.2529 124.802C95.5711 128.941 93.2724 131.526 89.7288 133.141C87.8692 133.989 85.9089 134.487 83.8711 134.676C80.1984 135.018 76.6161 134.691 73.2378 133.129C68.7851 131.07 66.2849 126.918 66.538 122.155C66.5664 121.604 66.7292 121.428 67.2974 121.436C69.5831 121.463 71.8689 121.461 74.1547 121.436C74.6919 121.431 74.914 121.551 74.9347 122.13C75.0096 124.307 75.6733 126.259 77.9281 127.115C80.5755 128.121 83.2745 128.156 85.7513 126.581C87.2106 125.653 87.5567 124.181 87.3501 122.56C87.1409 120.91 86.2808 119.732 84.6743 119.121C83.042 118.502 81.3296 118.502 79.625 118.625C78.7933 118.685 78.4524 118.549 78.5092 117.646C78.5919 116.307 78.5764 114.959 78.5144 113.62C78.4782 112.83 78.6874 112.543 79.5398 112.651C80.6943 112.797 81.8617 112.742 83.0084 112.521C83.5379 112.417 84.07 112.279 84.571 112.08C85.9786 111.527 86.8077 110.535 86.8077 109.008C86.8077 107.513 85.9399 106.56 84.6149 106.003C82.7372 105.216 80.7924 105.183 78.8786 105.855C77.0525 106.497 76.1279 107.883 75.96 109.72C75.9032 110.336 75.6811 110.465 75.1051 110.46C72.8917 110.435 70.6782 110.43 68.4648 110.467C67.7519 110.48 67.535 110.289 67.6047 109.574C68.0619 104.876 70.3373 101.371 74.8908 99.6172C79.9995 97.6495 85.147 97.9163 90.0749 100.266C94.1221 102.196 95.9198 106.109 94.8892 110.266C94.2823 112.709 92.8617 114.453 90.0388 115.195C92.1282 115.842 93.8355 116.738 95.0674 118.426C95.1191 116.962 95.1501 115.515 95.287 114.076C95.5737 111.086 96.2943 108.218 97.8465 105.606C101.047 100.231 106.016 98.1377 112.204 98.4296C114.978 98.5604 117.561 99.2901 119.779 101.006C121.918 102.659 123.153 104.838 123.765 107.397C123.889 107.913 123.744 108.087 123.197 108.082C120.875 108.062 118.553 108.072 116.231 108.072C115.903 108.072 115.572 108.099 115.448 107.684C114.919 105.936 113.733 104.942 111.853 104.786C109.784 104.614 107.974 105.161 106.538 106.673C106.194 107.035 105.892 107.438 105.61 107.845C104.598 109.31 104.322 111.041 103.823 112.687C103.764 112.88 103.66 113.197 103.963 113.341C104.159 113.434 104.275 113.255 104.409 113.134C110.053 107.991 118.93 109.29 122.796 115.822C122.936 116.056 123.078 116.287 123.22 116.519V116.526ZM143.998 116.607C143.998 115.759 144.034 114.908 143.99 114.063C143.895 112.153 143.714 110.256 142.893 108.477C141.96 106.459 140.354 105.44 138.104 105.417C135.896 105.395 134.29 106.368 133.318 108.316C132.804 109.345 132.495 110.432 132.347 111.559C131.906 114.906 131.906 118.255 132.347 121.602C132.505 122.799 132.828 123.959 133.406 125.036C134.153 126.425 135.253 127.366 136.883 127.661C139.729 128.174 141.991 126.976 143.048 124.347C144.05 121.853 144.001 119.224 144.001 116.609L143.998 116.607ZM109.978 116.373C106.638 116.333 104.138 118.786 104.079 122.155C104.025 125.338 106.406 127.706 109.73 127.769C113.235 127.834 115.998 125.459 116.019 122.364C116.042 118.846 113.591 116.416 109.975 116.373H109.978Z" fill="white"/>
<path d="M154.704 99.0814C155.3 98.7115 156.013 98.5178 156.775 98.5681C158.725 98.6939 160.05 100.241 160.053 102.403C160.053 103.835 159.43 105.005 158.464 105.656L159.926 108.442C162.147 107.274 163.648 105.007 163.643 102.39C163.635 98.5807 160.479 95.5134 156.553 95.5033C154.843 95.5008 153.291 96.0644 152.075 97.0156C153.066 97.5389 153.957 98.2359 154.706 99.0814H154.704Z" fill="#8F00FF"/>
<path d="M149.438 102.433C149.438 106.182 152.601 109.265 156.46 109.282C157.718 109.287 158.898 108.983 159.924 108.442L158.462 105.656C157.762 106.129 156.884 106.333 155.931 106.162C153.916 105.802 152.764 103.998 153.056 101.668C153.198 100.548 153.823 99.6223 154.701 99.0813C153.955 98.2384 153.061 97.5389 152.069 97.0155C150.455 98.2787 149.435 100.221 149.435 102.433H149.438Z" fill="#8F00FF"/>
</g>
<defs>
<clipPath id="clip0_100_12">
<rect width="117" height="43" fill="white" transform="translate(51 95)"/>
</clipPath>
</defs>
</svg>
