<svg width="229" height="22" viewBox="0 0 229 22" fill="none" xmlns="http://www.w3.org/2000/svg">
<path d="M217.734 8.14532C214.183 8.88323 207.167 10.9405 202.242 12.7246C191.867 16.3968 185.423 17.7307 179.759 17.3027C176.541 17.0595 173.649 15.9306 161.523 10.2227C146.648 3.20499 142.612 1.79792 134.156 0.631876C127.234 -0.274518 116.939 0.624619 110.96 2.66441C108.435 3.52778 102.644 6.49226 98.0337 9.25842C93.4196 12.0722 87.9117 14.7227 85.8018 15.234C79.0822 16.7867 74.1018 15.8833 52.583 9.41767C34.1031 3.85253 23.323 2.60669 11.3898 4.62786C1.68813 6.24264 -2.79453 10.7434 2.56762 13.4486C6.43554 15.37 8.39154 15.1824 8.29971 12.9713C8.21508 10.665 11.434 9.18323 17.9672 8.38317C26.721 7.31967 34.9015 8.70448 50.1814 13.7882C70.2555 20.528 87.4716 22.2602 96.8168 18.5101C98.5514 17.8266 103.967 14.69 108.988 11.6195C116.064 7.07504 119.011 5.76441 122.815 5.09361C132.388 3.46909 138.105 4.90732 152.926 12.6397C165.38 19.1391 170.3 20.8524 179.178 21.5712C185.614 22.0576 191.607 21.5521 198.337 19.8565C206.784 17.7157 228.915 9.22976 228.998 8.13395C229.113 6.60934 224.972 6.58395 217.734 8.14532Z" fill="#FFB800"/>
</svg>
