<svg width="426" height="109" viewBox="0 0 426 109" fill="none" xmlns="http://www.w3.org/2000/svg">
<path d="M25.88 81.64C24.2267 81.64 22.9467 81.1867 22.04 80.28C21.1867 79.32 20.76 78.0133 20.76 76.36V33.16H5.16C3.77333 33.16 2.68 32.7867 1.88 32.04C1.13333 31.24 0.76 30.1733 0.76 28.84C0.76 27.4533 1.13333 26.4133 1.88 25.72C2.68 24.9733 3.77333 24.6 5.16 24.6H46.6C47.9867 24.6 49.0533 24.9733 49.8 25.72C50.6 26.4133 51 27.4533 51 28.84C51 30.1733 50.6 31.24 49.8 32.04C49.0533 32.7867 47.9867 33.16 46.6 33.16H31V76.36C31 78.0133 30.5733 79.32 29.72 80.28C28.8667 81.1867 27.5867 81.64 25.88 81.64ZM65.3975 81.8C61.5575 81.8 58.2775 81.0267 55.5575 79.48C52.8908 77.9333 50.8375 75.6933 49.3975 72.76C47.9575 69.7733 47.2375 66.2267 47.2375 62.12C47.2375 61.16 47.5575 60.44 48.1975 59.96C48.8908 59.4267 49.8508 59.16 51.0775 59.16H76.7575V64.92H54.2775L55.8775 63.72C55.9308 66.12 56.2775 68.1733 56.9175 69.88C57.6108 71.5333 58.6242 72.8133 59.9575 73.72C61.3442 74.5733 63.0775 75 65.1575 75C67.3975 75 69.2642 74.4933 70.7575 73.48C72.3042 72.4133 73.4508 70.92 74.1975 69C74.9975 67.08 75.3975 64.84 75.3975 62.28V61.72C75.3975 57.2933 74.3575 54.0133 72.2775 51.88C70.2508 49.7467 67.2375 48.68 63.2375 48.68C61.9042 48.68 60.3575 48.8667 58.5975 49.24C56.8908 49.56 55.2642 50.1733 53.7175 51.08C52.5975 51.72 51.6108 52.0133 50.7575 51.96C49.9042 51.8533 49.2108 51.5333 48.6775 51C48.1975 50.4667 47.9042 49.8 47.7975 49C47.6908 48.2 47.8242 47.4 48.1975 46.6C48.5708 45.8 49.2375 45.1067 50.1975 44.52C52.0642 43.3467 54.1975 42.4933 56.5975 41.96C59.0508 41.3733 61.3175 41.08 63.3975 41.08C67.8242 41.08 71.6375 41.9067 74.8375 43.56C78.0375 45.2133 80.4908 47.56 82.1975 50.6C83.9575 53.64 84.8375 57.24 84.8375 61.4C84.8375 65.4 84.0108 68.9467 82.3575 72.04C80.7042 75.08 78.4108 77.48 75.4775 79.24C72.5975 80.9467 69.2375 81.8 65.3975 81.8ZM106.435 81.8C102.008 81.8 98.675 80.5467 96.435 78.04C94.195 75.48 93.075 71.7467 93.075 66.84V29C93.075 27.3467 93.5017 26.0933 94.355 25.24C95.2083 24.3867 96.435 23.96 98.035 23.96C99.635 23.96 100.862 24.3867 101.715 25.24C102.622 26.0933 103.075 27.3467 103.075 29V66.36C103.075 68.8133 103.582 70.6267 104.595 71.8C105.662 72.9733 107.155 73.56 109.075 73.56C109.502 73.56 109.902 73.56 110.275 73.56C110.648 73.5067 111.022 73.4533 111.395 73.4C112.142 73.2933 112.648 73.5067 112.915 74.04C113.182 74.52 113.315 75.5333 113.315 77.08C113.315 78.4133 113.048 79.4533 112.515 80.2C111.982 80.9467 111.102 81.4 109.875 81.56C109.342 81.6133 108.782 81.6667 108.195 81.72C107.608 81.7733 107.022 81.8 106.435 81.8ZM133.991 81.8C130.151 81.8 126.871 81.0267 124.151 79.48C121.485 77.9333 119.431 75.6933 117.991 72.76C116.551 69.7733 115.831 66.2267 115.831 62.12C115.831 61.16 116.151 60.44 116.791 59.96C117.485 59.4267 118.445 59.16 119.671 59.16H145.351V64.92H122.871L124.471 63.72C124.525 66.12 124.871 68.1733 125.511 69.88C126.205 71.5333 127.218 72.8133 128.551 73.72C129.938 74.5733 131.671 75 133.751 75C135.991 75 137.858 74.4933 139.351 73.48C140.898 72.4133 142.045 70.92 142.791 69C143.591 67.08 143.991 64.84 143.991 62.28V61.72C143.991 57.2933 142.951 54.0133 140.871 51.88C138.845 49.7467 135.831 48.68 131.831 48.68C130.498 48.68 128.951 48.8667 127.191 49.24C125.485 49.56 123.858 50.1733 122.311 51.08C121.191 51.72 120.205 52.0133 119.351 51.96C118.498 51.8533 117.805 51.5333 117.271 51C116.791 50.4667 116.498 49.8 116.391 49C116.285 48.2 116.418 47.4 116.791 46.6C117.165 45.8 117.831 45.1067 118.791 44.52C120.658 43.3467 122.791 42.4933 125.191 41.96C127.645 41.3733 129.911 41.08 131.991 41.08C136.418 41.08 140.231 41.9067 143.431 43.56C146.631 45.2133 149.085 47.56 150.791 50.6C152.551 53.64 153.431 57.24 153.431 61.4C153.431 65.4 152.605 68.9467 150.951 72.04C149.298 75.08 147.005 77.48 144.071 79.24C141.191 80.9467 137.831 81.8 133.991 81.8ZM184.229 81.8C180.922 81.8 178.015 80.9733 175.509 79.32C173.055 77.6667 171.429 75.4533 170.629 72.68L171.509 70.68V76.52C171.509 78.1733 171.082 79.4533 170.229 80.36C169.375 81.2133 168.175 81.64 166.629 81.64C165.029 81.64 163.802 81.2133 162.949 80.36C162.095 79.4533 161.669 78.1733 161.669 76.52V29C161.669 27.3467 162.095 26.0933 162.949 25.24C163.802 24.3867 165.029 23.96 166.629 23.96C168.229 23.96 169.455 24.3867 170.309 25.24C171.215 26.0933 171.669 27.3467 171.669 29V49.8H170.709C171.562 47.1867 173.215 45.08 175.669 43.48C178.122 41.88 180.975 41.08 184.229 41.08C187.695 41.08 190.709 41.9067 193.269 43.56C195.829 45.2133 197.829 47.56 199.269 50.6C200.709 53.5867 201.429 57.1867 201.429 61.4C201.429 65.56 200.709 69.1867 199.269 72.28C197.829 75.32 195.802 77.6667 193.189 79.32C190.629 80.9733 187.642 81.8 184.229 81.8ZM181.429 74.2C183.402 74.2 185.135 73.72 186.629 72.76C188.122 71.8 189.269 70.3867 190.069 68.52C190.922 66.6 191.349 64.2267 191.349 61.4C191.349 57.1333 190.442 53.96 188.629 51.88C186.815 49.7467 184.415 48.68 181.429 48.68C179.455 48.68 177.722 49.16 176.229 50.12C174.735 51.0267 173.562 52.44 172.709 54.36C171.909 56.2267 171.509 58.5733 171.509 61.4C171.509 65.6133 172.415 68.8133 174.229 71C176.042 73.1333 178.442 74.2 181.429 74.2ZM225.398 81.8C221.558 81.8 218.278 81.0267 215.558 79.48C212.891 77.9333 210.838 75.6933 209.398 72.76C207.958 69.7733 207.238 66.2267 207.238 62.12C207.238 61.16 207.558 60.44 208.198 59.96C208.891 59.4267 209.851 59.16 211.078 59.16H236.758V64.92H214.278L215.878 63.72C215.931 66.12 216.278 68.1733 216.918 69.88C217.611 71.5333 218.624 72.8133 219.958 73.72C221.344 74.5733 223.078 75 225.158 75C227.398 75 229.264 74.4933 230.758 73.48C232.304 72.4133 233.451 70.92 234.198 69C234.998 67.08 235.398 64.84 235.398 62.28V61.72C235.398 57.2933 234.358 54.0133 232.278 51.88C230.251 49.7467 227.238 48.68 223.238 48.68C221.904 48.68 220.358 48.8667 218.598 49.24C216.891 49.56 215.264 50.1733 213.718 51.08C212.598 51.72 211.611 52.0133 210.758 51.96C209.904 51.8533 209.211 51.5333 208.678 51C208.198 50.4667 207.904 49.8 207.798 49C207.691 48.2 207.824 47.4 208.198 46.6C208.571 45.8 209.238 45.1067 210.198 44.52C212.064 43.3467 214.198 42.4933 216.598 41.96C219.051 41.3733 221.318 41.08 223.398 41.08C227.824 41.08 231.638 41.9067 234.838 43.56C238.038 45.2133 240.491 47.56 242.198 50.6C243.958 53.64 244.837 57.24 244.837 61.4C244.837 65.4 244.011 68.9467 242.358 72.04C240.704 75.08 238.411 77.48 235.478 79.24C232.598 80.9467 229.238 81.8 225.398 81.8Z" fill="black"/>
<g clip-path="url(#clip0_94_510)">
<path d="M424.151 62.9802L414.592 44.3691C412.797 45.3352 410.731 45.8791 408.535 45.8715C401.787 45.8411 396.261 40.3296 396.257 33.6277C396.257 29.6757 398.041 26.203 400.863 23.9436C398.541 22.6923 395.91 22 393.179 22H269.341C257.109 22 249.222 35.0692 254.848 46.0198L271.331 78.111C274.134 83.5691 279.725 87 285.824 87H409.658C421.89 87 429.776 73.9308 424.151 62.9802Z" fill="black"/>
<path d="M359.786 54.5399C360.195 50.4549 360.539 46.4687 361.696 42.6042C363.491 36.6059 366.645 31.5547 372.576 28.934C378.847 26.1612 385.198 26.5187 391.411 29.4209C392.359 29.8621 392.695 30.3718 392.538 31.5052C391.518 38.8424 395.028 45.2173 401.73 48.3971C402.357 48.6938 403.017 48.8573 403.082 49.7626C403.636 57.3774 403.22 64.8515 399.447 71.7323C393.863 81.9222 380.356 85.4025 370.472 79.2444C366.428 76.7226 364.003 72.9418 362.353 68.5981C362.032 67.7537 361.776 66.8827 361.406 65.7682C358.652 77.3997 350.697 82.0173 339.618 82.1047C329.51 82.1846 323.277 76.7188 319.912 67.05C318.904 73.307 315.505 77.2133 310.266 79.6552C307.516 80.937 304.617 81.6901 301.604 81.9754C296.174 82.4927 290.877 81.9982 285.881 79.6362C279.298 76.5248 275.601 70.2489 275.975 63.0486C276.017 62.2156 276.258 61.9494 277.098 61.9608C280.478 62.0026 283.857 61.9988 287.237 61.9608C288.032 61.9532 288.36 62.1358 288.391 63.0106C288.501 66.3007 289.483 69.2523 292.817 70.5456C296.731 72.067 300.722 72.1203 304.384 69.7392C306.542 68.3357 307.054 66.1105 306.748 63.661C306.439 61.1658 305.167 59.3857 302.792 58.4615C300.378 57.5258 297.846 57.5258 295.326 57.7122C294.096 57.8034 293.592 57.598 293.676 56.2325C293.798 54.209 293.775 52.1703 293.684 50.1468C293.63 48.9524 293.94 48.5188 295.2 48.6824C296.907 48.903 298.633 48.8193 300.329 48.4846C301.112 48.3286 301.898 48.1194 302.639 47.8189C304.721 46.9822 305.946 45.4835 305.946 43.1747C305.946 40.9154 304.663 39.4738 302.704 38.6332C299.928 37.4427 297.052 37.3932 294.222 38.4088C291.522 39.3787 290.155 41.4745 289.907 44.2512C289.823 45.183 289.494 45.377 288.643 45.3694C285.37 45.3314 282.097 45.3238 278.824 45.3808C277.77 45.3998 277.449 45.1108 277.552 44.0305C278.228 36.9292 281.593 31.6308 288.326 28.9796C295.88 26.0052 303.491 26.4084 310.777 29.961C316.762 32.8783 319.42 38.793 317.896 45.0765C316.999 48.7699 314.898 51.4058 310.724 52.5278C313.814 53.5054 316.338 54.8594 318.16 57.4117C318.236 55.198 318.282 53.0109 318.484 50.8352C318.908 46.3165 319.974 41.9804 322.269 38.0322C327 29.9077 334.348 26.7431 343.498 27.1843C347.6 27.3821 351.419 28.4852 354.7 31.0792C357.862 33.5782 359.687 36.8721 360.592 40.7404C360.776 41.5202 360.562 41.7826 359.752 41.775C356.319 41.7446 352.886 41.7598 349.452 41.7598C348.967 41.7598 348.478 41.8016 348.295 41.174C347.512 38.5305 345.759 37.0281 342.979 36.7923C339.92 36.5336 337.243 37.359 335.12 39.645C334.612 40.1927 334.165 40.8013 333.749 41.4175C332.252 43.6312 331.843 46.2481 331.106 48.7356C331.018 49.0285 330.865 49.5078 331.312 49.7246C331.602 49.8653 331.774 49.5952 331.973 49.4127C340.317 41.6381 353.443 43.6007 359.16 53.4749C359.366 53.8287 359.576 54.1786 359.786 54.5285V54.5399ZM390.51 54.6617C390.51 53.3798 390.564 52.0942 390.499 50.8162C390.357 47.9293 390.09 45.0613 388.876 42.3722C387.497 39.3217 385.122 37.7812 381.795 37.747C378.53 37.7127 376.155 39.1847 374.719 42.1287C373.959 43.6844 373.5 45.3276 373.283 47.0316C372.63 52.0904 372.63 57.153 373.283 62.2118C373.516 64.0224 373.993 65.7758 374.849 67.4038C375.952 69.5034 377.579 70.9259 379.989 71.3709C384.197 72.1469 387.543 70.3364 389.105 66.3616C390.587 62.5922 390.514 58.6174 390.514 54.6655L390.51 54.6617ZM340.207 54.3079C335.269 54.2471 331.572 57.9556 331.484 63.0486C331.404 67.8602 334.925 71.4394 339.84 71.5345C345.022 71.6334 349.109 68.0428 349.139 63.3643C349.173 58.0469 345.549 54.3726 340.203 54.3079H340.207Z" fill="white"/>
<path d="M406.34 28.1695C407.222 27.6103 408.276 27.3175 409.403 27.3935C412.286 27.5837 414.245 29.9229 414.249 33.1902C414.249 35.3545 413.329 37.1232 411.9 38.1083L414.062 42.3189C417.346 40.554 419.565 37.127 419.557 33.1712C419.546 27.4125 414.879 22.7759 409.074 22.7607C406.546 22.7569 404.251 23.6089 402.452 25.0467C403.919 25.8378 405.236 26.8915 406.344 28.1695H406.34Z" fill="#8F00FF"/>
<path d="M398.553 33.2359C398.553 38.9033 403.231 43.5627 408.937 43.5893C410.797 43.5969 412.542 43.1367 414.058 42.3189L411.896 38.1083C410.862 38.8234 409.563 39.1315 408.154 38.8728C405.175 38.3289 403.472 35.6017 403.903 32.0796C404.113 30.387 405.038 28.9872 406.336 28.1695C405.232 26.8952 403.911 25.8378 402.445 25.0467C400.058 26.9561 398.549 29.8925 398.549 33.2359H398.553Z" fill="#8F00FF"/>
</g>
<defs>
<clipPath id="clip0_94_510">
<rect width="173" height="65" fill="white" transform="translate(253 22)"/>
</clipPath>
</defs>
</svg>
