<svg width="322" height="292" viewBox="0 0 322 292" fill="none" xmlns="http://www.w3.org/2000/svg">
<rect width="321.019" height="190.435" rx="15" fill="url(#paint0_linear_257_164)"/>
<path d="M28.2928 32.3228V21.1228H30.7248L34.2928 28.2268L37.8128 21.1228H40.2448V32.3228H38.1968V24.5948L35.0768 30.7228H33.4608L30.3408 24.5948V32.3228H28.2928ZM45.1058 32.5148C44.4232 32.5148 43.8632 32.4081 43.4258 32.1948C42.9885 31.9708 42.6632 31.6774 42.4498 31.3148C42.2365 30.9521 42.1298 30.5521 42.1298 30.1148C42.1298 29.3788 42.4178 28.7814 42.9938 28.3228C43.5698 27.8641 44.4338 27.6348 45.5858 27.6348H47.6018V27.4428C47.6018 26.8988 47.4472 26.4988 47.1378 26.2428C46.8285 25.9868 46.4445 25.8588 45.9858 25.8588C45.5698 25.8588 45.2072 25.9601 44.8978 26.1628C44.5885 26.3548 44.3965 26.6428 44.3218 27.0268H42.3218C42.3752 26.4508 42.5672 25.9494 42.8978 25.5228C43.2392 25.0961 43.6765 24.7708 44.2098 24.5468C44.7432 24.3121 45.3405 24.1948 46.0018 24.1948C47.1325 24.1948 48.0232 24.4774 48.6738 25.0428C49.3245 25.6081 49.6498 26.4081 49.6498 27.4428V32.3228H47.9058L47.7138 31.0428C47.4792 31.4694 47.1485 31.8214 46.7218 32.0988C46.3058 32.3761 45.7672 32.5148 45.1058 32.5148ZM45.5698 30.9148C46.1565 30.9148 46.6098 30.7228 46.9298 30.3388C47.2605 29.9548 47.4685 29.4801 47.5538 28.9148H45.8098C45.2658 28.9148 44.8765 29.0161 44.6418 29.2188C44.4072 29.4108 44.2898 29.6508 44.2898 29.9388C44.2898 30.2481 44.4072 30.4881 44.6418 30.6588C44.8765 30.8294 45.1858 30.9148 45.5698 30.9148ZM54.9642 29.9548C54.5802 29.9548 54.2229 29.9121 53.8922 29.8268L53.3002 30.4188C53.4815 30.5148 53.7269 30.5948 54.0362 30.6588C54.3455 30.7228 54.8469 30.7868 55.5402 30.8508C56.5962 30.9468 57.3642 31.1974 57.8442 31.6028C58.3242 32.0081 58.5642 32.5681 58.5642 33.2828C58.5642 33.7521 58.4362 34.1948 58.1802 34.6108C57.9242 35.0374 57.5295 35.3788 56.9962 35.6348C56.4629 35.9014 55.7802 36.0348 54.9482 36.0348C53.8175 36.0348 52.9055 35.8214 52.2122 35.3948C51.5189 34.9788 51.1722 34.3494 51.1722 33.5068C51.1722 32.7921 51.5189 32.1734 52.2122 31.6508C51.9989 31.5548 51.8122 31.4534 51.6522 31.3468C51.5029 31.2401 51.3695 31.1281 51.2522 31.0108V30.6428L52.6442 29.1708C52.0255 28.6268 51.7162 27.9281 51.7162 27.0748C51.7162 26.5414 51.8442 26.0561 52.1002 25.6188C52.3669 25.1814 52.7402 24.8348 53.2202 24.5788C53.7002 24.3228 54.2815 24.1948 54.9642 24.1948C55.4122 24.1948 55.8282 24.2588 56.2122 24.3868H59.2202V25.6348L57.8602 25.7308C58.0735 26.1361 58.1802 26.5841 58.1802 27.0748C58.1802 27.6081 58.0522 28.0934 57.7962 28.5308C57.5402 28.9681 57.1669 29.3148 56.6762 29.5708C56.1962 29.8268 55.6255 29.9548 54.9642 29.9548ZM54.9642 28.3868C55.3802 28.3868 55.7215 28.2748 55.9882 28.0508C56.2655 27.8268 56.4042 27.5068 56.4042 27.0908C56.4042 26.6748 56.2655 26.3548 55.9882 26.1308C55.7215 25.9068 55.3802 25.7948 54.9642 25.7948C54.5269 25.7948 54.1749 25.9068 53.9082 26.1308C53.6415 26.3548 53.5082 26.6748 53.5082 27.0908C53.5082 27.5068 53.6415 27.8268 53.9082 28.0508C54.1749 28.2748 54.5269 28.3868 54.9642 28.3868ZM53.0442 33.2988C53.0442 33.6934 53.2255 33.9868 53.5882 34.1788C53.9615 34.3814 54.4149 34.4828 54.9482 34.4828C55.4602 34.4828 55.8762 34.3761 56.1962 34.1628C56.5162 33.9601 56.6762 33.6828 56.6762 33.3308C56.6762 33.0428 56.5695 32.8028 56.3562 32.6108C56.1535 32.4188 55.7429 32.3014 55.1242 32.2588C54.6869 32.2268 54.2815 32.1788 53.9082 32.1148C53.5989 32.2854 53.3749 32.4721 53.2362 32.6748C53.1082 32.8774 53.0442 33.0854 53.0442 33.2988ZM60.7136 32.3228V20.8028H62.7616V32.3228H60.7136ZM68.6622 32.5148C67.8942 32.5148 67.2009 32.3388 66.5822 31.9868C65.9742 31.6348 65.4889 31.1494 65.1262 30.5308C64.7742 29.9014 64.5982 29.1761 64.5982 28.3548C64.5982 27.5334 64.7795 26.8134 65.1422 26.1948C65.5049 25.5654 65.9902 25.0748 66.5982 24.7228C67.2169 24.3708 67.9102 24.1948 68.6782 24.1948C69.4355 24.1948 70.1182 24.3708 70.7262 24.7228C71.3449 25.0748 71.8302 25.5654 72.1822 26.1948C72.5449 26.8134 72.7262 27.5334 72.7262 28.3548C72.7262 29.1761 72.5449 29.9014 72.1822 30.5308C71.8302 31.1494 71.3449 31.6348 70.7262 31.9868C70.1075 32.3388 69.4195 32.5148 68.6622 32.5148ZM68.6622 30.7388C69.1955 30.7388 69.6595 30.5414 70.0542 30.1468C70.4489 29.7414 70.6462 29.1441 70.6462 28.3548C70.6462 27.5654 70.4489 26.9734 70.0542 26.5788C69.6595 26.1734 69.2009 25.9708 68.6782 25.9708C68.1342 25.9708 67.6649 26.1734 67.2702 26.5788C66.8862 26.9734 66.6942 27.5654 66.6942 28.3548C66.6942 29.1441 66.8862 29.7414 67.2702 30.1468C67.6649 30.5414 68.1289 30.7388 68.6622 30.7388ZM75.4373 32.4348C75.064 32.4348 74.7547 32.3174 74.5093 32.0828C74.2747 31.8481 74.1573 31.5654 74.1573 31.2348C74.1573 30.8934 74.2747 30.6054 74.5093 30.3708C74.7547 30.1361 75.064 30.0188 75.4373 30.0188C75.8107 30.0188 76.1147 30.1361 76.3493 30.3708C76.5947 30.6054 76.7173 30.8934 76.7173 31.2348C76.7173 31.5654 76.5947 31.8481 76.3493 32.0828C76.1147 32.3174 75.8107 32.4348 75.4373 32.4348Z" fill="white"/>
<path d="M99.141 31.1875C98.565 31.1875 98.041 31.0755 97.569 30.8515C97.105 30.6195 96.733 30.2635 96.453 29.7835C96.173 29.3035 96.033 28.6915 96.033 27.9475V22.6435H97.041V27.9595C97.041 28.7755 97.237 29.3675 97.629 29.7355C98.021 30.1035 98.533 30.2875 99.165 30.2875C99.797 30.2875 100.305 30.1035 100.689 29.7355C101.073 29.3675 101.265 28.7755 101.265 27.9595V22.6435H102.273V27.9475C102.273 28.6915 102.133 29.3035 101.853 29.7835C101.573 30.2635 101.197 30.6195 100.725 30.8515C100.253 31.0755 99.725 31.1875 99.141 31.1875ZM103.92 31.0435V25.0915H104.832L104.892 26.1595C105.084 25.7835 105.36 25.4875 105.72 25.2715C106.08 25.0555 106.488 24.9475 106.944 24.9475C107.648 24.9475 108.208 25.1635 108.624 25.5955C109.048 26.0195 109.26 26.6755 109.26 27.5635V31.0435H108.252V27.6715C108.252 26.4315 107.74 25.8115 106.716 25.8115C106.204 25.8115 105.776 25.9995 105.432 26.3755C105.096 26.7435 104.928 27.2715 104.928 27.9595V31.0435H103.92ZM111.399 23.7715C111.199 23.7715 111.031 23.7075 110.895 23.5795C110.767 23.4435 110.703 23.2755 110.703 23.0755C110.703 22.8835 110.767 22.7235 110.895 22.5955C111.031 22.4675 111.199 22.4035 111.399 22.4035C111.591 22.4035 111.755 22.4675 111.891 22.5955C112.027 22.7235 112.095 22.8835 112.095 23.0755C112.095 23.2755 112.027 23.4435 111.891 23.5795C111.755 23.7075 111.591 23.7715 111.399 23.7715ZM110.895 31.0435V25.0915H111.903V31.0435H110.895ZM115.374 31.0435L113.118 25.0915H114.174L115.962 30.0715L117.762 25.0915H118.794L116.538 31.0435H115.374ZM122.287 31.1875C121.719 31.1875 121.215 31.0595 120.775 30.8035C120.335 30.5395 119.987 30.1755 119.731 29.7115C119.483 29.2475 119.359 28.6995 119.359 28.0675C119.359 27.4435 119.483 26.8995 119.731 26.4355C119.979 25.9635 120.323 25.5995 120.763 25.3435C121.211 25.0795 121.727 24.9475 122.311 24.9475C122.887 24.9475 123.383 25.0795 123.799 25.3435C124.223 25.5995 124.547 25.9395 124.771 26.3635C124.995 26.7875 125.107 27.2435 125.107 27.7315C125.107 27.8195 125.103 27.9075 125.095 27.9955C125.095 28.0835 125.095 28.1835 125.095 28.2955H120.355C120.379 28.7515 120.483 29.1315 120.667 29.4355C120.859 29.7315 121.095 29.9555 121.375 30.1075C121.663 30.2595 121.967 30.3355 122.287 30.3355C122.703 30.3355 123.051 30.2395 123.331 30.0475C123.611 29.8555 123.815 29.5955 123.943 29.2675H124.939C124.779 29.8195 124.471 30.2795 124.015 30.6475C123.567 31.0075 122.991 31.1875 122.287 31.1875ZM122.287 25.7995C121.807 25.7995 121.379 25.9475 121.003 26.2435C120.635 26.5315 120.423 26.9555 120.367 27.5155H124.111C124.087 26.9795 123.903 26.5595 123.559 26.2555C123.215 25.9515 122.791 25.7995 122.287 25.7995ZM126.443 31.0435V25.0915H127.355L127.439 26.2315C127.623 25.8395 127.903 25.5275 128.279 25.2955C128.655 25.0635 129.119 24.9475 129.671 24.9475V26.0035H129.395C129.043 26.0035 128.719 26.0675 128.423 26.1955C128.127 26.3155 127.891 26.5235 127.715 26.8195C127.539 27.1155 127.451 27.5235 127.451 28.0435V31.0435H126.443ZM133.083 31.1875C132.371 31.1875 131.779 31.0075 131.307 30.6475C130.835 30.2875 130.559 29.7995 130.479 29.1835H131.511C131.575 29.4955 131.739 29.7675 132.003 29.9995C132.275 30.2235 132.639 30.3355 133.095 30.3355C133.519 30.3355 133.831 30.2475 134.031 30.0715C134.231 29.8875 134.331 29.6715 134.331 29.4235C134.331 29.0635 134.199 28.8235 133.935 28.7035C133.679 28.5835 133.315 28.4755 132.843 28.3795C132.523 28.3155 132.203 28.2235 131.883 28.1035C131.563 27.9835 131.295 27.8155 131.079 27.5995C130.863 27.3755 130.755 27.0835 130.755 26.7235C130.755 26.2035 130.947 25.7795 131.331 25.4515C131.723 25.1155 132.251 24.9475 132.915 24.9475C133.547 24.9475 134.063 25.1075 134.463 25.4275C134.871 25.7395 135.107 26.1875 135.171 26.7715H134.175C134.135 26.4675 134.003 26.2315 133.779 26.0635C133.563 25.8875 133.271 25.7995 132.903 25.7995C132.543 25.7995 132.263 25.8755 132.063 26.0275C131.871 26.1795 131.775 26.3795 131.775 26.6275C131.775 26.8675 131.899 27.0555 132.147 27.1915C132.403 27.3275 132.747 27.4435 133.179 27.5395C133.547 27.6195 133.895 27.7195 134.223 27.8395C134.559 27.9515 134.831 28.1235 135.039 28.3555C135.255 28.5795 135.363 28.9075 135.363 29.3395C135.371 29.8755 135.167 30.3195 134.751 30.6715C134.343 31.0155 133.787 31.1875 133.083 31.1875ZM138.783 31.1875C138.287 31.1875 137.875 31.1035 137.547 30.9355C137.219 30.7675 136.975 30.5435 136.815 30.2635C136.655 29.9835 136.575 29.6795 136.575 29.3515C136.575 28.7435 136.807 28.2755 137.271 27.9475C137.735 27.6195 138.367 27.4555 139.167 27.4555H140.775V27.3835C140.775 26.8635 140.639 26.4715 140.367 26.2075C140.095 25.9355 139.731 25.7995 139.275 25.7995C138.883 25.7995 138.543 25.8995 138.255 26.0995C137.975 26.2915 137.799 26.5755 137.727 26.9515H136.695C136.735 26.5195 136.879 26.1555 137.127 25.8595C137.383 25.5635 137.699 25.3395 138.075 25.1875C138.451 25.0275 138.851 24.9475 139.275 24.9475C140.107 24.9475 140.731 25.1715 141.147 25.6195C141.571 26.0595 141.783 26.6475 141.783 27.3835V31.0435H140.883L140.823 29.9755C140.655 30.3115 140.407 30.5995 140.079 30.8395C139.759 31.0715 139.327 31.1875 138.783 31.1875ZM138.939 30.3355C139.323 30.3355 139.651 30.2355 139.923 30.0355C140.203 29.8355 140.415 29.5755 140.559 29.2555C140.703 28.9355 140.775 28.5995 140.775 28.2475V28.2355H139.251C138.659 28.2355 138.239 28.3395 137.991 28.5475C137.751 28.7475 137.631 28.9995 137.631 29.3035C137.631 29.6155 137.743 29.8675 137.967 30.0595C138.199 30.2435 138.523 30.3355 138.939 30.3355ZM143.295 31.0435V22.4035H144.303V31.0435H143.295ZM149.191 31.0435V22.6435H152.143C152.735 22.6435 153.223 22.7395 153.607 22.9315C153.999 23.1155 154.291 23.3715 154.483 23.6995C154.675 24.0195 154.771 24.3795 154.771 24.7795C154.771 25.3235 154.623 25.7515 154.327 26.0635C154.039 26.3755 153.691 26.5915 153.283 26.7115C153.595 26.7675 153.879 26.8915 154.135 27.0835C154.391 27.2755 154.591 27.5155 154.735 27.8035C154.887 28.0915 154.963 28.4075 154.963 28.7515C154.963 29.1755 154.859 29.5635 154.651 29.9155C154.443 30.2595 154.135 30.5355 153.727 30.7435C153.319 30.9435 152.823 31.0435 152.239 31.0435H149.191ZM150.199 26.3155H152.071C152.607 26.3155 153.019 26.1915 153.307 25.9435C153.595 25.6875 153.739 25.3355 153.739 24.8875C153.739 24.4635 153.595 24.1235 153.307 23.8675C153.027 23.6115 152.603 23.4835 152.035 23.4835H150.199V26.3155ZM150.199 30.2035H152.131C152.707 30.2035 153.151 30.0715 153.463 29.8075C153.775 29.5355 153.931 29.1595 153.931 28.6795C153.931 28.2075 153.767 27.8315 153.439 27.5515C153.111 27.2635 152.667 27.1195 152.107 27.1195H150.199V30.2035ZM158.33 31.1875C157.834 31.1875 157.422 31.1035 157.094 30.9355C156.766 30.7675 156.522 30.5435 156.362 30.2635C156.202 29.9835 156.122 29.6795 156.122 29.3515C156.122 28.7435 156.354 28.2755 156.818 27.9475C157.282 27.6195 157.914 27.4555 158.714 27.4555H160.322V27.3835C160.322 26.8635 160.186 26.4715 159.914 26.2075C159.642 25.9355 159.278 25.7995 158.822 25.7995C158.43 25.7995 158.09 25.8995 157.802 26.0995C157.522 26.2915 157.346 26.5755 157.274 26.9515H156.242C156.282 26.5195 156.426 26.1555 156.674 25.8595C156.93 25.5635 157.246 25.3395 157.622 25.1875C157.998 25.0275 158.398 24.9475 158.822 24.9475C159.654 24.9475 160.278 25.1715 160.694 25.6195C161.118 26.0595 161.33 26.6475 161.33 27.3835V31.0435H160.43L160.37 29.9755C160.202 30.3115 159.954 30.5995 159.626 30.8395C159.306 31.0715 158.874 31.1875 158.33 31.1875ZM158.486 30.3355C158.87 30.3355 159.198 30.2355 159.47 30.0355C159.75 29.8355 159.962 29.5755 160.106 29.2555C160.25 28.9355 160.322 28.5995 160.322 28.2475V28.2355H158.798C158.206 28.2355 157.786 28.3395 157.538 28.5475C157.298 28.7475 157.178 28.9995 157.178 29.3035C157.178 29.6155 157.29 29.8675 157.514 30.0595C157.746 30.2435 158.07 30.3355 158.486 30.3355ZM162.842 31.0435V25.0915H163.754L163.814 26.1595C164.006 25.7835 164.282 25.4875 164.642 25.2715C165.002 25.0555 165.41 24.9475 165.866 24.9475C166.57 24.9475 167.13 25.1635 167.546 25.5955C167.97 26.0195 168.182 26.6755 168.182 27.5635V31.0435H167.174V27.6715C167.174 26.4315 166.662 25.8115 165.638 25.8115C165.126 25.8115 164.698 25.9995 164.354 26.3755C164.018 26.7435 163.85 27.2715 163.85 27.9595V31.0435H162.842ZM169.709 31.0435V22.4035H170.717V27.5995L173.153 25.0915H174.389L171.749 27.7795L174.725 31.0435H173.441L170.717 27.9595V31.0435H169.709Z" fill="#8F8F8D"/>
<rect x="87.0557" y="18.1362" width="0.906832" height="18.1366" fill="#626261"/>
<path d="M58.2717 88.7531L30.6436 88.8695C28.813 88.88 27.2999 87.3775 27.2893 85.5469L27.2046 65.1353C27.1941 63.3047 28.6966 61.7916 30.5272 61.781L58.1553 61.6646C59.9859 61.654 61.4991 63.1566 61.5096 64.9872L61.5943 85.3988C61.6049 87.2399 60.1023 88.7531 58.2717 88.7531Z" fill="#B2AEA9"/>
<path d="M40.4944 85.2193C40.3463 85.2193 40.2087 85.1452 40.1346 85.0077C40.0288 84.8172 40.1135 84.5738 40.3039 84.468C40.8753 84.1717 41.6584 83.6109 42.1028 82.6586C42.6742 81.4417 42.5155 80.119 42.2721 80.0132C42.2086 79.9815 41.9758 80.1084 41.8277 80.1825C41.4573 80.373 40.9388 80.6375 40.3357 80.4365C39.7431 80.2354 39.4574 79.7169 39.3199 79.463C38.4099 77.8229 38.1136 73.5374 39.0553 71.3999C39.3728 70.691 39.796 70.2677 40.3251 70.1407C40.8648 70.0138 41.3092 70.236 41.669 70.4159C41.9652 70.564 42.1134 70.6275 42.198 70.5746C42.5684 70.3524 42.5578 68.9874 42.0287 67.9081C41.5737 66.9557 40.7907 66.4055 40.2087 66.1092C40.0183 66.014 39.9336 65.7706 40.0394 65.5801C40.1346 65.3897 40.378 65.305 40.5685 65.4108C41.2563 65.76 42.1874 66.4161 42.7377 67.5695C43.2879 68.7122 43.5525 70.6804 42.6001 71.2624C42.124 71.5587 41.6584 71.3259 41.2986 71.1354C41.0235 70.9978 40.759 70.8603 40.505 70.9238C40.1558 71.0084 39.9124 71.4105 39.7749 71.728C38.9495 73.5903 39.2035 77.643 40.0077 79.082C40.1452 79.3254 40.304 79.59 40.5897 79.6852C40.8542 79.7804 41.1081 79.664 41.4679 79.4736C41.8171 79.2937 42.2086 79.0926 42.6213 79.2937C43.5101 79.7169 43.4572 81.6322 42.8223 82.9972C42.2827 84.1611 41.3515 84.8172 40.6637 85.177C40.6214 85.2087 40.5579 85.2193 40.4944 85.2193Z" fill="#3D3D3C"/>
<path d="M39.2465 72.1193L32.0935 72.151C31.8713 72.151 31.6914 71.9711 31.6914 71.7595C31.6914 71.5373 31.8713 71.3574 32.0829 71.3574L39.236 71.3257C39.4582 71.3257 39.6381 71.5056 39.6381 71.7172C39.6486 71.9394 39.4688 72.1193 39.2465 72.1193Z" fill="#3D3D3C"/>
<path d="M39.2776 79.2726L32.1245 79.3044C31.9023 79.3044 31.7224 79.1245 31.7224 78.9128C31.7224 78.6906 31.9023 78.5107 32.1139 78.5107L39.267 78.479C39.4892 78.479 39.6691 78.6589 39.6691 78.8705C39.6691 79.0821 39.4998 79.2726 39.2776 79.2726Z" fill="#3D3D3C"/>
<path d="M48.8327 85.1877C48.7692 85.1877 48.7057 85.1771 48.6528 85.1454C47.965 84.7962 47.0339 84.1401 46.4836 82.9868C45.8276 81.6323 45.7641 79.7171 46.6529 79.2833C47.0656 79.0822 47.4571 79.2833 47.8063 79.4526C48.1661 79.6325 48.4201 79.7489 48.6846 79.6536C48.9809 79.5478 49.1502 79.2304 49.256 79.0399C50.039 77.5902 50.2612 73.5376 49.4253 71.6858C49.2771 71.3684 49.0338 70.9663 48.6846 70.8922C48.473 70.8393 48.3354 70.6277 48.3883 70.416C48.4412 70.2044 48.6528 70.0668 48.8645 70.1198C49.3935 70.2467 49.8274 70.6594 50.1448 71.3684C51.1077 73.4952 50.8432 77.7807 49.9544 79.4314C49.8168 79.6854 49.5311 80.2144 48.9491 80.4155C48.346 80.6271 47.8275 80.3626 47.4571 80.1721C47.309 80.098 47.0656 79.9816 47.0127 80.0028C46.7693 80.1192 46.6318 81.4419 47.2138 82.6482C47.6688 83.6005 48.4518 84.1507 49.0338 84.447C49.2242 84.5422 49.3089 84.7856 49.2031 84.9761C49.1184 85.1031 48.9809 85.1877 48.8327 85.1877Z" fill="#3D3D3C"/>
<path d="M47.1823 70.5004C47.013 70.5004 46.8649 70.3945 46.8014 70.2252C45.9443 67.6751 47.923 65.6964 48.5685 65.3684C48.759 65.2625 49.0023 65.3472 49.1082 65.5377C49.214 65.7281 49.1293 65.9715 48.9389 66.0773C48.6532 66.2255 46.8331 67.8021 47.5633 69.9713C47.6373 70.1829 47.5209 70.4051 47.3093 70.4792C47.267 70.4898 47.2247 70.5004 47.1823 70.5004Z" fill="#3D3D3C"/>
<path d="M57.1184 72.0451L49.9653 72.0768C49.7431 72.0768 49.5632 71.8969 49.5632 71.6853C49.5632 71.4631 49.7431 71.2832 49.9547 71.2832L57.1078 71.2515C57.33 71.2515 57.5099 71.4313 57.5099 71.643C57.5205 71.8652 57.3406 72.0451 57.1184 72.0451Z" fill="#3D3D3C"/>
<path d="M57.1494 79.1984L49.9963 79.2301C49.7741 79.2301 49.5942 79.0503 49.5942 78.8386C49.5942 78.6164 49.7741 78.4365 49.9858 78.4365L57.1388 78.4048C57.361 78.4048 57.5409 78.5847 57.5409 78.7963C57.5515 79.0185 57.3716 79.1984 57.1494 79.1984Z" fill="#3D3D3C"/>
<path d="M277.696 65.066C281.961 70.4276 281.961 77.3977 277.696 82.7594M282.167 61.4375C288.179 68.9937 288.179 78.8192 282.167 86.3754M273.007 67.4102C276.141 71.3379 276.141 76.4626 273.007 80.3903M268.305 70.6645C269.872 72.6346 269.872 75.1907 268.305 77.1608" stroke="#AFAFAF" stroke-width="2" stroke-linecap="round" stroke-linejoin="round"/>
<path d="M32.1188 151.1C31.2322 151.1 30.4668 150.89 29.8228 150.47C29.1882 150.04 28.6982 149.448 28.3528 148.692C28.0168 147.926 27.8488 147.04 27.8488 146.032C27.8488 145.024 28.0168 144.142 28.3528 143.386C28.6982 142.62 29.1882 142.028 29.8228 141.608C30.4668 141.178 31.2322 140.964 32.1188 140.964C33.0055 140.964 33.7662 141.178 34.4008 141.608C35.0355 142.028 35.5208 142.62 35.8568 143.386C36.2022 144.142 36.3748 145.024 36.3748 146.032C36.3748 147.04 36.2022 147.926 35.8568 148.692C35.5208 149.448 35.0355 150.04 34.4008 150.47C33.7662 150.89 33.0055 151.1 32.1188 151.1ZM32.1188 149.77C32.6508 149.77 33.1222 149.62 33.5328 149.322C33.9528 149.023 34.2795 148.594 34.5128 148.034C34.7462 147.474 34.8628 146.806 34.8628 146.032C34.8628 145.257 34.7462 144.59 34.5128 144.03C34.2795 143.47 33.9528 143.04 33.5328 142.742C33.1222 142.443 32.6508 142.294 32.1188 142.294C31.5775 142.294 31.1015 142.443 30.6908 142.742C30.2802 143.04 29.9582 143.47 29.7248 144.03C29.4915 144.59 29.3748 145.257 29.3748 146.032C29.3748 146.806 29.4915 147.474 29.7248 148.034C29.9582 148.594 30.2802 149.023 30.6908 149.322C31.1015 149.62 31.5775 149.77 32.1188 149.77ZM42.7749 150.932V148.972H37.8609V147.796L42.5369 141.132H44.2449V147.684H45.6169V148.972H44.2449V150.932H42.7749ZM39.4709 147.684H42.8589V142.77L39.4709 147.684ZM46.6816 152.374L50.1816 140.138H51.6376L48.1236 152.374H46.6816ZM53.0831 150.932V149.868C53.7177 149.364 54.3244 148.855 54.9031 148.342C55.4817 147.828 55.9951 147.324 56.4431 146.83C56.9004 146.326 57.2597 145.836 57.5211 145.36C57.7824 144.874 57.9131 144.408 57.9131 143.96C57.9131 143.661 57.8617 143.381 57.7591 143.12C57.6564 142.849 57.4884 142.634 57.2551 142.476C57.0217 142.308 56.7091 142.224 56.3171 142.224C55.7291 142.224 55.2857 142.41 54.9871 142.784C54.6977 143.157 54.5577 143.605 54.5671 144.128H53.1251C53.1344 143.437 53.2791 142.858 53.5591 142.392C53.8484 141.925 54.2311 141.57 54.7071 141.328C55.1924 141.085 55.7384 140.964 56.3451 140.964C57.2691 140.964 58.0064 141.225 58.5571 141.748C59.1171 142.261 59.3971 142.98 59.3971 143.904C59.3971 144.454 59.2617 145 58.9911 145.542C58.7297 146.083 58.3844 146.606 57.9551 147.11C57.5351 147.604 57.0824 148.071 56.5971 148.51C56.1117 148.948 55.6497 149.345 55.2111 149.7H59.6911V150.932H53.0831ZM65.8591 150.932V148.972H60.9451V147.796L65.6211 141.132H67.3291V147.684H68.7011V148.972H67.3291V150.932H65.8591ZM62.5551 147.684H65.9431V142.77L62.5551 147.684Z" fill="#868685"/>
<path fill-rule="evenodd" clip-rule="evenodd" d="M267.766 168.758V170.485V172.211H267.006V171.792C266.765 172.103 266.399 172.298 265.901 172.298C264.921 172.298 264.152 171.54 264.152 170.485C264.152 169.43 264.921 168.671 265.901 168.671C266.399 168.671 266.765 168.866 267.006 169.177V168.758H267.766ZM265.996 169.379C265.338 169.379 264.935 169.877 264.935 170.485C264.935 171.092 265.338 171.59 265.996 171.59C266.625 171.59 267.049 171.113 267.049 170.485C267.049 169.856 266.625 169.379 265.996 169.379ZM293.462 170.485C293.462 169.877 293.865 169.379 294.523 169.379C295.153 169.379 295.577 169.856 295.577 170.485C295.577 171.113 295.153 171.59 294.523 171.59C293.865 171.59 293.462 171.092 293.462 170.485ZM296.294 167.371V170.485V172.211H295.533V171.792C295.292 172.103 294.926 172.298 294.428 172.298C293.448 172.298 292.679 171.54 292.679 170.485C292.679 169.43 293.448 168.671 294.428 168.671C294.926 168.671 295.292 168.866 295.533 169.177V167.371H296.294ZM277.205 169.343C277.695 169.343 278.01 169.647 278.09 170.181H276.275C276.357 169.682 276.663 169.343 277.205 169.343ZM275.478 170.485C275.478 169.408 276.195 168.671 277.22 168.671C278.2 168.671 278.873 169.408 278.881 170.485C278.881 170.585 278.873 170.68 278.866 170.773H276.269C276.378 171.395 276.825 171.619 277.315 171.619C277.666 171.619 278.039 171.489 278.332 171.258L278.705 171.814C278.28 172.168 277.798 172.298 277.271 172.298C276.224 172.298 275.478 171.583 275.478 170.485ZM286.402 170.485C286.402 169.877 286.804 169.379 287.463 169.379C288.092 169.379 288.516 169.856 288.516 170.485C288.516 171.113 288.092 171.59 287.463 171.59C286.804 171.59 286.402 171.092 286.402 170.485ZM289.233 168.758V170.485V172.211H288.473V171.792C288.231 172.103 287.866 172.298 287.368 172.298C286.387 172.298 285.619 171.54 285.619 170.485C285.619 169.43 286.387 168.671 287.368 168.671C287.866 168.671 288.231 168.866 288.473 169.177V168.758H289.233ZM282.107 170.485C282.107 171.532 282.846 172.298 283.973 172.298C284.5 172.298 284.851 172.183 285.231 171.886L284.866 171.279C284.58 171.482 284.28 171.59 283.95 171.59C283.343 171.583 282.897 171.15 282.897 170.485C282.897 169.82 283.343 169.386 283.95 169.379C284.28 169.379 284.58 169.487 284.866 169.69L285.231 169.083C284.851 168.787 284.5 168.671 283.973 168.671C282.846 168.671 282.107 169.437 282.107 170.485ZM290.989 169.177C291.187 168.873 291.472 168.671 291.911 168.671C292.065 168.671 292.285 168.7 292.453 168.765L292.218 169.473C292.058 169.408 291.897 169.386 291.743 169.386C291.245 169.386 290.997 169.704 290.997 170.275V172.211H290.235V168.758H290.989V169.177ZM271.527 169.032C271.161 168.794 270.657 168.671 270.101 168.671C269.215 168.671 268.645 169.09 268.645 169.777C268.645 170.34 269.069 170.687 269.851 170.796L270.211 170.846C270.628 170.904 270.825 171.012 270.825 171.207C270.825 171.475 270.547 171.627 270.027 171.627C269.501 171.627 269.12 171.461 268.864 171.265L268.506 171.85C268.923 172.154 269.449 172.298 270.02 172.298C271.03 172.298 271.615 171.829 271.615 171.171C271.615 170.564 271.154 170.246 270.393 170.138L270.035 170.087C269.706 170.044 269.442 169.979 269.442 169.748C269.442 169.495 269.691 169.343 270.108 169.343C270.554 169.343 270.986 169.509 271.198 169.639L271.527 169.032ZM280.417 169.177C280.614 168.873 280.9 168.671 281.339 168.671C281.493 168.671 281.712 168.7 281.88 168.765L281.646 169.473C281.485 169.408 281.324 169.386 281.17 169.386C280.673 169.386 280.424 169.704 280.424 170.275V172.211H279.664V168.758H280.417V169.177ZM274.849 168.758H273.606V167.71H272.837V168.758H272.127V169.444H272.837V171.02C272.837 171.821 273.152 172.298 274.051 172.298C274.381 172.298 274.761 172.197 275.002 172.031L274.783 171.388C274.556 171.518 274.307 171.583 274.11 171.583C273.73 171.583 273.606 171.351 273.606 171.005V169.444H274.849V168.758ZM263.479 170.044V172.211H262.711V170.289C262.711 169.704 262.462 169.379 261.943 169.379C261.438 169.379 261.087 169.697 261.087 170.297V172.211H260.318V170.289C260.318 169.704 260.063 169.379 259.558 169.379C259.038 169.379 258.701 169.697 258.701 170.297V172.211H257.933V168.758H258.694V169.184C258.98 168.779 259.345 168.671 259.719 168.671C260.253 168.671 260.633 168.902 260.874 169.285C261.197 168.801 261.657 168.663 262.104 168.671C262.953 168.678 263.479 169.227 263.479 170.044Z" fill="white"/>
<path d="M282.8 162.889H271.275V142.434H282.8V162.889Z" fill="#FF5F00"/>
<path d="M272.006 152.661C272.006 148.512 273.973 144.816 277.037 142.434C274.797 140.692 271.969 139.652 268.897 139.652C261.623 139.652 255.727 145.476 255.727 152.661C255.727 159.846 261.623 165.67 268.897 165.67C271.969 165.67 274.797 164.631 277.037 162.889C273.973 160.507 272.006 156.811 272.006 152.661Z" fill="#EB001B"/>
<path d="M298.348 152.661C298.348 159.846 292.451 165.67 285.177 165.67C282.105 165.67 279.278 164.631 277.037 162.889C280.101 160.507 282.068 156.811 282.068 152.661C282.068 148.512 280.101 144.816 277.037 142.434C279.278 140.692 282.105 139.652 285.177 139.652C292.451 139.652 298.348 145.476 298.348 152.661Z" fill="#F79E1B"/>
<rect opacity="0.1" x="13.6025" y="136.025" width="293.814" height="155.975" rx="15" fill="url(#paint1_linear_257_164)"/>
<g filter="url(#filter0_b_257_164)">
<rect x="13.6025" y="136.025" width="293.814" height="155.975" rx="15" fill="url(#paint2_linear_257_164)"/>
<rect x="13.8525" y="136.275" width="293.314" height="155.475" rx="14.75" stroke="url(#paint3_linear_257_164)" stroke-width="0.5"/>
</g>
<path d="M285.136 260.973H283.398C283.515 260.667 283.792 259.927 284.229 258.754L284.267 258.642C284.3 258.559 284.342 258.452 284.393 258.32C284.443 258.187 284.481 258.08 284.506 257.997L284.657 258.679L285.136 260.973ZM266.949 260.167L266.218 256.509C266.126 256.063 265.811 255.84 265.274 255.84H261.898L261.873 256.001C264.484 256.654 266.176 258.043 266.949 260.167ZM269.203 255.84L267.163 261.27L266.949 260.167C266.73 259.588 266.373 259.053 265.878 258.561C265.383 258.07 264.833 257.704 264.228 257.464L265.928 263.787H268.133L271.42 255.84H269.203ZM270.954 263.8H273.045L274.354 255.84H272.264L270.954 263.8ZM280.627 256.038C280.047 255.815 279.422 255.704 278.75 255.704C277.717 255.704 276.873 255.947 276.218 256.435C275.564 256.923 275.232 257.555 275.223 258.332C275.215 259.175 275.824 259.894 277.05 260.489C277.453 260.679 277.734 260.849 277.894 260.998C278.053 261.146 278.133 261.308 278.133 261.481C278.133 261.729 278.007 261.919 277.755 262.051C277.503 262.184 277.213 262.25 276.886 262.25C276.164 262.25 275.509 262.113 274.921 261.841L274.644 261.704L274.354 263.49C274.976 263.771 275.752 263.911 276.684 263.911C277.776 263.919 278.651 263.676 279.311 263.18C279.97 262.684 280.308 262.023 280.324 261.196C280.324 260.32 279.737 259.601 278.561 259.039C278.15 258.832 277.852 258.658 277.667 258.518C277.482 258.377 277.39 258.22 277.39 258.047C277.39 257.865 277.493 257.706 277.698 257.57C277.904 257.433 278.2 257.365 278.586 257.365C279.174 257.357 279.695 257.456 280.148 257.663L280.337 257.762L280.627 256.038ZM285.98 255.84H284.367C283.822 255.84 283.456 256.063 283.272 256.509L280.173 263.8H282.365L282.806 262.609H285.476C285.518 262.791 285.602 263.188 285.728 263.8H287.667L285.98 255.84ZM289.279 251.873V267.742C289.279 268.172 289.12 268.544 288.801 268.858C288.482 269.172 288.104 269.329 287.667 269.329H261.873C261.436 269.329 261.058 269.172 260.739 268.858C260.42 268.544 260.261 268.172 260.261 267.742V251.873C260.261 251.443 260.42 251.071 260.739 250.757C261.058 250.443 261.436 250.286 261.873 250.286H287.667C288.104 250.286 288.482 250.443 288.801 250.757C289.12 251.071 289.279 251.443 289.279 251.873Z" fill="#3E2180"/>
<path d="M32.827 165.627V154.427H35.259L38.827 161.531L42.347 154.427H44.779V165.627H42.731V157.899L39.611 164.027H37.995L34.875 157.899V165.627H32.827ZM49.64 165.819C48.9573 165.819 48.3973 165.713 47.96 165.499C47.5227 165.275 47.1973 164.982 46.984 164.619C46.7707 164.257 46.664 163.857 46.664 163.419C46.664 162.683 46.952 162.086 47.528 161.627C48.104 161.169 48.968 160.939 50.12 160.939H52.136V160.747C52.136 160.203 51.9813 159.803 51.672 159.547C51.3627 159.291 50.9787 159.163 50.52 159.163C50.104 159.163 49.7413 159.265 49.432 159.467C49.1227 159.659 48.9307 159.947 48.856 160.331H46.856C46.9093 159.755 47.1013 159.254 47.432 158.827C47.7733 158.401 48.2107 158.075 48.744 157.851C49.2773 157.617 49.8747 157.499 50.536 157.499C51.6667 157.499 52.5573 157.782 53.208 158.347C53.8587 158.913 54.184 159.713 54.184 160.747V165.627H52.44L52.248 164.347C52.0133 164.774 51.6827 165.126 51.256 165.403C50.84 165.681 50.3013 165.819 49.64 165.819ZM50.104 164.219C50.6907 164.219 51.144 164.027 51.464 163.643C51.7947 163.259 52.0027 162.785 52.088 162.219H50.344C49.8 162.219 49.4107 162.321 49.176 162.523C48.9413 162.715 48.824 162.955 48.824 163.243C48.824 163.553 48.9413 163.793 49.176 163.963C49.4107 164.134 49.72 164.219 50.104 164.219ZM59.4984 163.259C59.1144 163.259 58.7571 163.217 58.4264 163.131L57.8344 163.723C58.0157 163.819 58.2611 163.899 58.5704 163.963C58.8797 164.027 59.3811 164.091 60.0744 164.155C61.1304 164.251 61.8984 164.502 62.3784 164.907C62.8584 165.313 63.0984 165.873 63.0984 166.587C63.0984 167.057 62.9704 167.499 62.7144 167.915C62.4584 168.342 62.0637 168.683 61.5304 168.939C60.9971 169.206 60.3144 169.339 59.4824 169.339C58.3517 169.339 57.4397 169.126 56.7464 168.699C56.0531 168.283 55.7064 167.654 55.7064 166.811C55.7064 166.097 56.0531 165.478 56.7464 164.955C56.5331 164.859 56.3464 164.758 56.1864 164.651C56.0371 164.545 55.9037 164.433 55.7864 164.315V163.947L57.1784 162.475C56.5597 161.931 56.2504 161.233 56.2504 160.379C56.2504 159.846 56.3784 159.361 56.6344 158.923C56.9011 158.486 57.2744 158.139 57.7544 157.883C58.2344 157.627 58.8157 157.499 59.4984 157.499C59.9464 157.499 60.3624 157.563 60.7464 157.691H63.7544V158.939L62.3944 159.035C62.6077 159.441 62.7144 159.889 62.7144 160.379C62.7144 160.913 62.5864 161.398 62.3304 161.835C62.0744 162.273 61.7011 162.619 61.2104 162.875C60.7304 163.131 60.1597 163.259 59.4984 163.259ZM59.4984 161.691C59.9144 161.691 60.2557 161.579 60.5224 161.355C60.7997 161.131 60.9384 160.811 60.9384 160.395C60.9384 159.979 60.7997 159.659 60.5224 159.435C60.2557 159.211 59.9144 159.099 59.4984 159.099C59.0611 159.099 58.7091 159.211 58.4424 159.435C58.1757 159.659 58.0424 159.979 58.0424 160.395C58.0424 160.811 58.1757 161.131 58.4424 161.355C58.7091 161.579 59.0611 161.691 59.4984 161.691ZM57.5784 166.603C57.5784 166.998 57.7597 167.291 58.1224 167.483C58.4957 167.686 58.9491 167.787 59.4824 167.787C59.9944 167.787 60.4104 167.681 60.7304 167.467C61.0504 167.265 61.2104 166.987 61.2104 166.635C61.2104 166.347 61.1037 166.107 60.8904 165.915C60.6877 165.723 60.2771 165.606 59.6584 165.563C59.2211 165.531 58.8157 165.483 58.4424 165.419C58.1331 165.59 57.9091 165.777 57.7704 165.979C57.6424 166.182 57.5784 166.39 57.5784 166.603ZM65.2478 165.627V154.107H67.2958V165.627H65.2478ZM73.1964 165.819C72.4284 165.819 71.7351 165.643 71.1164 165.291C70.5084 164.939 70.0231 164.454 69.6604 163.835C69.3084 163.206 69.1324 162.481 69.1324 161.659C69.1324 160.838 69.3137 160.118 69.6764 159.499C70.0391 158.87 70.5244 158.379 71.1324 158.027C71.7511 157.675 72.4444 157.499 73.2124 157.499C73.9697 157.499 74.6524 157.675 75.2604 158.027C75.8791 158.379 76.3644 158.87 76.7164 159.499C77.0791 160.118 77.2604 160.838 77.2604 161.659C77.2604 162.481 77.0791 163.206 76.7164 163.835C76.3644 164.454 75.8791 164.939 75.2604 165.291C74.6417 165.643 73.9537 165.819 73.1964 165.819ZM73.1964 164.043C73.7297 164.043 74.1937 163.846 74.5884 163.451C74.9831 163.046 75.1804 162.449 75.1804 161.659C75.1804 160.87 74.9831 160.278 74.5884 159.883C74.1937 159.478 73.7351 159.275 73.2124 159.275C72.6684 159.275 72.1991 159.478 71.8044 159.883C71.4204 160.278 71.2284 160.87 71.2284 161.659C71.2284 162.449 71.4204 163.046 71.8044 163.451C72.1991 163.846 72.6631 164.043 73.1964 164.043ZM79.9715 165.739C79.5982 165.739 79.2888 165.622 79.0435 165.387C78.8088 165.153 78.6915 164.87 78.6915 164.539C78.6915 164.198 78.8088 163.91 79.0435 163.675C79.2888 163.441 79.5982 163.323 79.9715 163.323C80.3448 163.323 80.6488 163.441 80.8835 163.675C81.1288 163.91 81.2515 164.198 81.2515 164.539C81.2515 164.87 81.1288 165.153 80.8835 165.387C80.6488 165.622 80.3448 165.739 79.9715 165.739Z" fill="white"/>
<path d="M104.323 164.492C103.499 164.492 102.787 164.312 102.187 163.952C101.595 163.584 101.135 163.076 100.807 162.428C100.479 161.772 100.315 161.012 100.315 160.148C100.315 159.292 100.479 158.54 100.807 157.892C101.135 157.236 101.595 156.724 102.187 156.356C102.787 155.988 103.499 155.804 104.323 155.804C105.283 155.804 106.063 156.036 106.663 156.5C107.271 156.956 107.659 157.596 107.827 158.42H106.711C106.583 157.9 106.319 157.484 105.919 157.172C105.527 156.852 104.995 156.692 104.323 156.692C103.723 156.692 103.199 156.832 102.751 157.112C102.303 157.384 101.955 157.78 101.707 158.3C101.467 158.812 101.347 159.428 101.347 160.148C101.347 160.868 101.467 161.488 101.707 162.008C101.955 162.52 102.303 162.916 102.751 163.196C103.199 163.468 103.723 163.604 104.323 163.604C104.995 163.604 105.527 163.452 105.919 163.148C106.319 162.836 106.583 162.424 106.711 161.912H107.827C107.659 162.72 107.271 163.352 106.663 163.808C106.063 164.264 105.283 164.492 104.323 164.492ZM111.928 164.492C111.368 164.492 110.864 164.364 110.416 164.108C109.968 163.852 109.612 163.492 109.348 163.028C109.092 162.556 108.964 162.004 108.964 161.372C108.964 160.74 109.096 160.192 109.36 159.728C109.624 159.256 109.98 158.892 110.428 158.636C110.884 158.38 111.392 158.252 111.952 158.252C112.512 158.252 113.016 158.38 113.464 158.636C113.912 158.892 114.264 159.256 114.52 159.728C114.784 160.192 114.916 160.74 114.916 161.372C114.916 162.004 114.784 162.556 114.52 163.028C114.256 163.492 113.896 163.852 113.44 164.108C112.992 164.364 112.488 164.492 111.928 164.492ZM111.928 163.628C112.272 163.628 112.592 163.544 112.888 163.376C113.184 163.208 113.424 162.956 113.608 162.62C113.792 162.284 113.884 161.868 113.884 161.372C113.884 160.876 113.792 160.46 113.608 160.124C113.432 159.788 113.196 159.536 112.9 159.368C112.604 159.2 112.288 159.116 111.952 159.116C111.608 159.116 111.288 159.2 110.992 159.368C110.696 159.536 110.456 159.788 110.272 160.124C110.088 160.46 109.996 160.876 109.996 161.372C109.996 161.868 110.088 162.284 110.272 162.62C110.456 162.956 110.692 163.208 110.98 163.376C111.276 163.544 111.592 163.628 111.928 163.628ZM116.318 164.348V158.396H117.23L117.302 159.26C117.494 158.94 117.75 158.692 118.07 158.516C118.39 158.34 118.75 158.252 119.15 158.252C119.622 158.252 120.026 158.348 120.362 158.54C120.706 158.732 120.97 159.024 121.154 159.416C121.362 159.056 121.646 158.772 122.006 158.564C122.374 158.356 122.77 158.252 123.194 158.252C123.906 158.252 124.474 158.468 124.898 158.9C125.322 159.324 125.534 159.98 125.534 160.868V164.348H124.538V160.976C124.538 160.36 124.414 159.896 124.166 159.584C123.918 159.272 123.562 159.116 123.098 159.116C122.618 159.116 122.218 159.304 121.898 159.68C121.586 160.048 121.43 160.576 121.43 161.264V164.348H120.422V160.976C120.422 160.36 120.298 159.896 120.05 159.584C119.802 159.272 119.446 159.116 118.982 159.116C118.51 159.116 118.114 159.304 117.794 159.68C117.482 160.048 117.326 160.576 117.326 161.264V164.348H116.318ZM127.052 164.348V158.396H127.964L128.036 159.26C128.228 158.94 128.484 158.692 128.804 158.516C129.124 158.34 129.484 158.252 129.884 158.252C130.356 158.252 130.76 158.348 131.096 158.54C131.44 158.732 131.704 159.024 131.888 159.416C132.096 159.056 132.38 158.772 132.74 158.564C133.108 158.356 133.504 158.252 133.928 158.252C134.64 158.252 135.208 158.468 135.632 158.9C136.056 159.324 136.268 159.98 136.268 160.868V164.348H135.272V160.976C135.272 160.36 135.148 159.896 134.9 159.584C134.652 159.272 134.296 159.116 133.832 159.116C133.352 159.116 132.952 159.304 132.632 159.68C132.32 160.048 132.164 160.576 132.164 161.264V164.348H131.156V160.976C131.156 160.36 131.032 159.896 130.784 159.584C130.536 159.272 130.18 159.116 129.716 159.116C129.244 159.116 128.848 159.304 128.528 159.68C128.216 160.048 128.06 160.576 128.06 161.264V164.348H127.052ZM140.462 164.492C139.894 164.492 139.39 164.364 138.95 164.108C138.51 163.844 138.162 163.48 137.906 163.016C137.658 162.552 137.534 162.004 137.534 161.372C137.534 160.748 137.658 160.204 137.906 159.74C138.154 159.268 138.498 158.904 138.938 158.648C139.386 158.384 139.902 158.252 140.486 158.252C141.062 158.252 141.558 158.384 141.974 158.648C142.398 158.904 142.722 159.244 142.946 159.668C143.17 160.092 143.282 160.548 143.282 161.036C143.282 161.124 143.278 161.212 143.27 161.3C143.27 161.388 143.27 161.488 143.27 161.6H138.53C138.554 162.056 138.658 162.436 138.842 162.74C139.034 163.036 139.27 163.26 139.55 163.412C139.838 163.564 140.142 163.64 140.462 163.64C140.878 163.64 141.226 163.544 141.506 163.352C141.786 163.16 141.99 162.9 142.118 162.572H143.114C142.954 163.124 142.646 163.584 142.19 163.952C141.742 164.312 141.166 164.492 140.462 164.492ZM140.462 159.104C139.982 159.104 139.554 159.252 139.178 159.548C138.81 159.836 138.598 160.26 138.542 160.82H142.286C142.262 160.284 142.078 159.864 141.734 159.56C141.39 159.256 140.966 159.104 140.462 159.104ZM144.618 164.348V158.396H145.53L145.614 159.536C145.798 159.144 146.078 158.832 146.454 158.6C146.83 158.368 147.294 158.252 147.846 158.252V159.308H147.57C147.218 159.308 146.894 159.372 146.598 159.5C146.302 159.62 146.066 159.828 145.89 160.124C145.714 160.42 145.626 160.828 145.626 161.348V164.348H144.618ZM151.491 164.492C150.923 164.492 150.411 164.364 149.955 164.108C149.507 163.844 149.151 163.48 148.887 163.016C148.631 162.544 148.503 161.996 148.503 161.372C148.503 160.748 148.631 160.204 148.887 159.74C149.151 159.268 149.507 158.904 149.955 158.648C150.411 158.384 150.923 158.252 151.491 158.252C152.195 158.252 152.787 158.436 153.267 158.804C153.755 159.172 154.063 159.664 154.191 160.28H153.159C153.079 159.912 152.883 159.628 152.571 159.428C152.259 159.22 151.895 159.116 151.479 159.116C151.143 159.116 150.827 159.2 150.531 159.368C150.235 159.536 149.995 159.788 149.811 160.124C149.627 160.46 149.535 160.876 149.535 161.372C149.535 161.868 149.627 162.284 149.811 162.62C149.995 162.956 150.235 163.212 150.531 163.388C150.827 163.556 151.143 163.64 151.479 163.64C151.895 163.64 152.259 163.54 152.571 163.34C152.883 163.132 153.079 162.84 153.159 162.464H154.191C154.071 163.064 153.767 163.552 153.279 163.928C152.791 164.304 152.195 164.492 151.491 164.492ZM156.211 157.076C156.011 157.076 155.843 157.012 155.707 156.884C155.579 156.748 155.515 156.58 155.515 156.38C155.515 156.188 155.579 156.028 155.707 155.9C155.843 155.772 156.011 155.708 156.211 155.708C156.403 155.708 156.567 155.772 156.703 155.9C156.839 156.028 156.907 156.188 156.907 156.38C156.907 156.58 156.839 156.748 156.703 156.884C156.567 157.012 156.403 157.076 156.211 157.076ZM155.707 164.348V158.396H156.715V164.348H155.707ZM160.45 164.492C159.954 164.492 159.542 164.408 159.214 164.24C158.886 164.072 158.642 163.848 158.482 163.568C158.322 163.288 158.242 162.984 158.242 162.656C158.242 162.048 158.474 161.58 158.938 161.252C159.402 160.924 160.034 160.76 160.834 160.76H162.442V160.688C162.442 160.168 162.306 159.776 162.034 159.512C161.762 159.24 161.398 159.104 160.942 159.104C160.55 159.104 160.21 159.204 159.922 159.404C159.642 159.596 159.466 159.88 159.394 160.256H158.362C158.402 159.824 158.546 159.46 158.794 159.164C159.05 158.868 159.366 158.644 159.742 158.492C160.118 158.332 160.518 158.252 160.942 158.252C161.774 158.252 162.398 158.476 162.814 158.924C163.238 159.364 163.45 159.952 163.45 160.688V164.348H162.55L162.49 163.28C162.322 163.616 162.074 163.904 161.746 164.144C161.426 164.376 160.994 164.492 160.45 164.492ZM160.606 163.64C160.99 163.64 161.318 163.54 161.59 163.34C161.87 163.14 162.082 162.88 162.226 162.56C162.37 162.24 162.442 161.904 162.442 161.552V161.54H160.918C160.326 161.54 159.906 161.644 159.658 161.852C159.418 162.052 159.298 162.304 159.298 162.608C159.298 162.92 159.41 163.172 159.634 163.364C159.866 163.548 160.19 163.64 160.606 163.64ZM164.962 164.348V155.708H165.97V164.348H164.962ZM170.858 164.348V155.948H173.81C174.402 155.948 174.89 156.044 175.274 156.236C175.666 156.42 175.958 156.676 176.15 157.004C176.342 157.324 176.438 157.684 176.438 158.084C176.438 158.628 176.29 159.056 175.994 159.368C175.706 159.68 175.358 159.896 174.95 160.016C175.262 160.072 175.546 160.196 175.802 160.388C176.058 160.58 176.258 160.82 176.402 161.108C176.554 161.396 176.63 161.712 176.63 162.056C176.63 162.48 176.526 162.868 176.318 163.22C176.11 163.564 175.802 163.84 175.394 164.048C174.986 164.248 174.49 164.348 173.906 164.348H170.858ZM171.866 159.62H173.738C174.274 159.62 174.686 159.496 174.974 159.248C175.262 158.992 175.406 158.64 175.406 158.192C175.406 157.768 175.262 157.428 174.974 157.172C174.694 156.916 174.27 156.788 173.702 156.788H171.866V159.62ZM171.866 163.508H173.798C174.374 163.508 174.818 163.376 175.13 163.112C175.442 162.84 175.598 162.464 175.598 161.984C175.598 161.512 175.434 161.136 175.106 160.856C174.778 160.568 174.334 160.424 173.774 160.424H171.866V163.508ZM179.997 164.492C179.501 164.492 179.089 164.408 178.761 164.24C178.433 164.072 178.189 163.848 178.029 163.568C177.869 163.288 177.789 162.984 177.789 162.656C177.789 162.048 178.021 161.58 178.485 161.252C178.949 160.924 179.581 160.76 180.381 160.76H181.989V160.688C181.989 160.168 181.853 159.776 181.581 159.512C181.309 159.24 180.945 159.104 180.489 159.104C180.097 159.104 179.757 159.204 179.469 159.404C179.189 159.596 179.013 159.88 178.941 160.256H177.909C177.949 159.824 178.093 159.46 178.341 159.164C178.597 158.868 178.913 158.644 179.289 158.492C179.665 158.332 180.065 158.252 180.489 158.252C181.321 158.252 181.945 158.476 182.361 158.924C182.785 159.364 182.997 159.952 182.997 160.688V164.348H182.097L182.037 163.28C181.869 163.616 181.621 163.904 181.293 164.144C180.973 164.376 180.541 164.492 179.997 164.492ZM180.153 163.64C180.537 163.64 180.865 163.54 181.137 163.34C181.417 163.14 181.629 162.88 181.773 162.56C181.917 162.24 181.989 161.904 181.989 161.552V161.54H180.465C179.873 161.54 179.453 161.644 179.205 161.852C178.965 162.052 178.845 162.304 178.845 162.608C178.845 162.92 178.957 163.172 179.181 163.364C179.413 163.548 179.737 163.64 180.153 163.64ZM184.509 164.348V158.396H185.421L185.481 159.464C185.673 159.088 185.949 158.792 186.309 158.576C186.669 158.36 187.077 158.252 187.533 158.252C188.237 158.252 188.797 158.468 189.213 158.9C189.637 159.324 189.849 159.98 189.849 160.868V164.348H188.841V160.976C188.841 159.736 188.329 159.116 187.305 159.116C186.793 159.116 186.365 159.304 186.021 159.68C185.685 160.048 185.517 160.576 185.517 161.264V164.348H184.509ZM191.376 164.348V155.708H192.384V160.904L194.82 158.396H196.056L193.416 161.084L196.392 164.348H195.108L192.384 161.264V164.348H191.376Z" fill="#F5F5F5"/>
<rect x="91.5898" y="151.441" width="0.906832" height="18.1366" fill="#F5F5F5"/>
<path d="M56.3153 203.944L34.4593 204.037C33.0112 204.046 31.8141 202.844 31.8058 201.379L31.7388 185.05C31.7304 183.586 32.9191 182.375 34.3672 182.367L56.2232 182.273C57.6713 182.265 58.8684 183.467 58.8767 184.932L58.9437 201.261C58.9521 202.734 57.7634 203.944 56.3153 203.944Z" fill="#B2AEA9"/>
<path d="M42.254 201.117C42.1368 201.117 42.0279 201.058 41.9694 200.948C41.8856 200.795 41.9526 200.601 42.1033 200.516C42.5553 200.279 43.1747 199.83 43.5263 199.068C43.9783 198.095 43.8528 197.037 43.6602 196.952C43.61 196.927 43.4259 197.028 43.3087 197.088C43.0157 197.24 42.6055 197.452 42.1284 197.291C41.6596 197.13 41.4336 196.715 41.3248 196.512C40.6049 195.2 40.3705 191.772 41.1155 190.062C41.3667 189.494 41.7015 189.156 42.12 189.054C42.5469 188.953 42.8985 189.13 43.1831 189.274C43.4175 189.393 43.5347 189.444 43.6016 189.401C43.8946 189.223 43.8862 188.131 43.4677 187.268C43.1078 186.506 42.4883 186.066 42.0279 185.829C41.8773 185.753 41.8103 185.558 41.894 185.406C41.9693 185.253 42.1619 185.186 42.3125 185.27C42.8566 185.55 43.5933 186.074 44.0285 186.997C44.4638 187.911 44.6731 189.486 43.9197 189.951C43.543 190.189 43.1747 190.002 42.8901 189.85C42.6725 189.74 42.4632 189.63 42.2623 189.681C41.9861 189.748 41.7936 190.07 41.6847 190.324C41.0318 191.814 41.2327 195.056 41.8689 196.207C41.9777 196.402 42.1033 196.614 42.3293 196.69C42.5386 196.766 42.7395 196.673 43.0241 196.52C43.3003 196.377 43.61 196.216 43.9365 196.377C44.6396 196.715 44.5978 198.247 44.0955 199.339C43.6686 200.271 42.932 200.795 42.3879 201.083C42.3544 201.109 42.3042 201.117 42.254 201.117Z" fill="#3D3D3C"/>
<path d="M41.2667 190.637L35.6081 190.663C35.4323 190.663 35.29 190.519 35.29 190.35C35.29 190.172 35.4323 190.028 35.5998 190.028L41.2584 190.002C41.4342 190.002 41.5765 190.146 41.5765 190.316C41.5848 190.493 41.4425 190.637 41.2667 190.637Z" fill="#3D3D3C"/>
<path d="M41.2907 196.36L35.6321 196.385C35.4563 196.385 35.314 196.241 35.314 196.072C35.314 195.894 35.4563 195.75 35.6237 195.75L41.2823 195.725C41.4581 195.725 41.6004 195.869 41.6004 196.038C41.6004 196.208 41.4665 196.36 41.2907 196.36Z" fill="#3D3D3C"/>
<path d="M48.8491 201.092C48.7988 201.092 48.7486 201.083 48.7067 201.058C48.1626 200.779 47.426 200.254 46.9907 199.331C46.4718 198.247 46.4215 196.715 47.1247 196.368C47.4511 196.207 47.7609 196.368 48.0371 196.504C48.3217 196.648 48.5226 196.741 48.7319 196.664C48.9662 196.58 49.1002 196.326 49.1839 196.174C49.8033 195.014 49.9791 191.772 49.3178 190.29C49.2006 190.036 49.0081 189.715 48.7319 189.655C48.5644 189.613 48.4556 189.444 48.4975 189.274C48.5393 189.105 48.7067 188.995 48.8742 189.037C49.2927 189.139 49.6359 189.469 49.887 190.036C50.6488 191.738 50.4395 195.166 49.7363 196.487C49.6275 196.69 49.4015 197.113 48.9411 197.274C48.464 197.443 48.0538 197.232 47.7609 197.079C47.6437 197.02 47.4511 196.927 47.4093 196.944C47.2168 197.037 47.1079 198.095 47.5683 199.06C47.9283 199.822 48.5477 200.262 49.0081 200.499C49.1588 200.575 49.2257 200.77 49.142 200.922C49.0751 201.024 48.9662 201.092 48.8491 201.092Z" fill="#3D3D3C"/>
<path d="M47.5441 189.342C47.4102 189.342 47.293 189.258 47.2427 189.122C46.5647 187.082 48.13 185.499 48.6407 185.237C48.7913 185.152 48.9839 185.22 49.0676 185.372C49.1513 185.524 49.0843 185.719 48.9336 185.804C48.7076 185.922 47.2679 187.184 47.8454 188.919C47.904 189.088 47.812 189.266 47.6445 189.325C47.6111 189.334 47.5776 189.342 47.5441 189.342Z" fill="#3D3D3C"/>
<path d="M55.4042 190.578L49.7456 190.603C49.5698 190.603 49.4275 190.459 49.4275 190.29C49.4275 190.112 49.5698 189.968 49.7372 189.968L55.3958 189.943C55.5716 189.943 55.7139 190.087 55.7139 190.256C55.7223 190.434 55.58 190.578 55.4042 190.578Z" fill="#3D3D3C"/>
<path d="M55.4289 196.3L49.7702 196.326C49.5945 196.326 49.4521 196.182 49.4521 196.013C49.4521 195.835 49.5945 195.691 49.7619 195.691L55.4205 195.666C55.5963 195.666 55.7386 195.809 55.7386 195.979C55.7469 196.157 55.6046 196.3 55.4289 196.3Z" fill="#3D3D3C"/>
<path d="M279.51 187.489C283.775 192.85 283.775 199.821 279.51 205.182M283.98 183.86C289.993 191.417 289.993 201.242 283.98 208.798M274.82 189.833C277.955 193.761 277.955 198.885 274.82 202.813M270.119 193.087C271.686 195.057 271.686 197.614 270.119 199.584" stroke="#363B41" stroke-width="2" stroke-linecap="round" stroke-linejoin="round"/>
<defs>
<filter id="filter0_b_257_164" x="3.60254" y="126.025" width="313.814" height="175.975" filterUnits="userSpaceOnUse" color-interpolation-filters="sRGB">
<feFlood flood-opacity="0" result="BackgroundImageFix"/>
<feGaussianBlur in="BackgroundImageFix" stdDeviation="5"/>
<feComposite in2="SourceAlpha" operator="in" result="effect1_backgroundBlur_257_164"/>
<feBlend mode="normal" in="SourceGraphic" in2="effect1_backgroundBlur_257_164" result="shape"/>
</filter>
<linearGradient id="paint0_linear_257_164" x1="6.82051" y1="9.06832" x2="305.75" y2="137.544" gradientUnits="userSpaceOnUse">
<stop stop-color="#545357"/>
<stop offset="1" stop-color="#3E2180"/>
</linearGradient>
<linearGradient id="paint1_linear_257_164" x1="62.1181" y1="66.6522" x2="295.497" y2="457.742" gradientUnits="userSpaceOnUse">
<stop stop-color="#959595"/>
<stop offset="1" stop-color="#324000"/>
</linearGradient>
<linearGradient id="paint2_linear_257_164" x1="160.509" y1="136.025" x2="160.509" y2="292" gradientUnits="userSpaceOnUse">
<stop stop-color="white" stop-opacity="0.4"/>
<stop offset="1" stop-color="white" stop-opacity="0.1"/>
</linearGradient>
<linearGradient id="paint3_linear_257_164" x1="-43.8041" y1="-1.8136" x2="313.775" y2="304.966" gradientUnits="userSpaceOnUse">
<stop stop-color="white" stop-opacity="0.4"/>
<stop offset="1" stop-color="white" stop-opacity="0.1"/>
</linearGradient>
</defs>
</svg>
