<svg width="25" height="25" viewBox="0 0 25 25" fill="none" xmlns="http://www.w3.org/2000/svg">
<path fill-rule="evenodd" clip-rule="evenodd" d="M5.07812 5.46875C3.99944 5.46875 3.125 6.34319 3.125 7.42188V17.5781C3.125 18.6568 3.99944 19.5312 5.07812 19.5312H19.9219C21.0006 19.5312 21.875 18.6568 21.875 17.5781V7.42188C21.875 6.34319 21.0006 5.46875 19.9219 5.46875H5.07812ZM1.5625 7.42188C1.5625 5.48025 3.1365 3.90625 5.07812 3.90625H19.9219C21.8635 3.90625 23.4375 5.48025 23.4375 7.42188V17.5781C23.4375 19.5198 21.8635 21.0938 19.9219 21.0938H5.07812C3.1365 21.0938 1.5625 19.5198 1.5625 17.5781V7.42188Z" fill="#8F00FF"/>
<path fill-rule="evenodd" clip-rule="evenodd" d="M22.6562 10.8398H2.34375V7.91016H22.6562V10.8398Z" fill="#8F00FF"/>
<path fill-rule="evenodd" clip-rule="evenodd" d="M4.78516 14.6484C4.78516 13.8394 5.44099 13.1836 6.25 13.1836H8.59375C9.40276 13.1836 10.0586 13.8394 10.0586 14.6484V15.625C10.0586 16.434 9.40276 17.0898 8.59375 17.0898H6.25C5.44099 17.0898 4.78516 16.434 4.78516 15.625V14.6484Z" fill="#8F00FF"/>
</svg>
