<svg width="17" height="20" viewBox="0 0 17 20" fill="none" xmlns="http://www.w3.org/2000/svg">
<path d="M6.41699 14H1.41699V19M10.417 6H15.417V1M1 7.00316C1.56068 5.61542 2.49943 4.41279 3.70954 3.53198C4.91965 2.65117 6.35301 2.12752 7.84591 2.02051C9.33881 1.9135 10.8316 2.2274 12.155 2.92661C13.4783 3.62582 14.5783 4.68228 15.3312 5.97587M15.8345 12.9968C15.2739 14.3846 14.3351 15.5872 13.125 16.468C11.9149 17.3488 10.4822 17.8725 8.98926 17.9795C7.49636 18.0865 6.00306 17.7726 4.67969 17.0734C3.35632 16.3742 2.25581 15.3178 1.50293 14.0242" stroke="#565656" stroke-width="2" stroke-linecap="round" stroke-linejoin="round"/>
</svg>
