<svg width="23" height="23" viewBox="0 0 23 23" fill="none" xmlns="http://www.w3.org/2000/svg">
<path d="M15.4062 0.5625C14.3083 0.562248 13.2255 0.819192 12.2447 1.31274C11.2639 1.80629 10.4124 2.52272 9.75833 3.40462C9.10427 4.28652 8.66588 5.30937 8.4783 6.3912C8.29072 7.47303 8.35915 8.58376 8.67812 9.63438L0.5625 17.75V22.4375H5.25L13.3656 14.3219C14.3327 14.6154 15.3518 14.697 16.3533 14.5612C17.3548 14.4253 18.3152 14.0751 19.1691 13.5344C20.0231 12.9938 20.7504 12.2754 21.3016 11.4282C21.8527 10.581 22.2148 9.62501 22.3631 8.62526C22.5113 7.62551 22.4423 6.60555 22.1608 5.63488C21.8792 4.66421 21.3917 3.76565 20.7314 3.00044C20.0712 2.23523 19.2537 1.62135 18.3347 1.20063C17.4158 0.779921 16.4169 0.562266 15.4062 0.5625ZM15.4062 13.0625C14.8684 13.0622 14.3335 12.9827 13.8187 12.8266L12.9227 12.5547L12.2609 13.2164L9.77578 15.7016L8.69844 14.625L7.59375 15.7297L8.67109 16.807L7.43203 18.0461L6.35469 16.9688L5.25 18.0734L6.32734 19.1508L4.60312 20.875H2.125V18.3969L9.78281 10.7391L10.4453 10.0773L10.1734 9.18125C9.83952 8.08046 9.86121 6.90241 10.2354 5.81466C10.6097 4.72691 11.3173 3.78487 12.2578 3.12252C13.1983 2.46018 14.3237 2.11126 15.474 2.12541C16.6242 2.13957 17.7407 2.51606 18.6646 3.20134C19.5885 3.88663 20.2728 4.8458 20.6202 5.94242C20.9675 7.03905 20.9602 8.21728 20.5993 9.30952C20.2384 10.4018 19.5423 11.3524 18.61 12.0262C17.6776 12.7 16.5566 13.0626 15.4062 13.0625Z" fill="#8F00FF"/>
</svg>
