<svg width="25" height="25" viewBox="0 0 25 25" fill="none" xmlns="http://www.w3.org/2000/svg">
<path d="M5.21289 6.24896H21.8796V8.3323H5.21289V6.24896Z" fill="#8F00FF"/>
<path d="M7.2959 2.08334H19.7959V4.16668H7.2959V2.08334Z" fill="#8F00FF"/>
<path d="M21.8719 10.4073H5.21146C4.93678 10.408 4.66493 10.4627 4.41141 10.5685C4.1579 10.6742 3.9277 10.8289 3.73396 11.0236C3.54021 11.2183 3.38671 11.4493 3.28223 11.7033C3.17775 11.9574 3.12432 12.2295 3.12501 12.5042V20.8104C3.12432 21.0851 3.17775 21.3572 3.28223 21.6113C3.38671 21.8653 3.54021 22.0963 3.73396 22.291C3.9277 22.4857 4.1579 22.6403 4.41141 22.7461C4.66493 22.8518 4.93678 22.9066 5.21146 22.9073H21.8719C22.1466 22.9066 22.4184 22.8518 22.6719 22.7461C22.9254 22.6403 23.1556 22.4857 23.3494 22.291C23.5431 22.0963 23.6966 21.8653 23.8011 21.6113C23.9056 21.3572 23.959 21.0851 23.9583 20.8104V12.5042C23.959 12.2295 23.9056 11.9574 23.8011 11.7033C23.6966 11.4493 23.5431 11.2183 23.3494 11.0236C23.1556 10.8289 22.9254 10.6742 22.6719 10.5685C22.4184 10.4627 22.1466 10.408 21.8719 10.4073ZM21.875 20.8333H5.20834V12.5H21.875V20.8333Z" fill="#8F00FF"/>
<path d="M12.5042 19.7823H14.5876V17.7104H16.6709V15.6229H14.5876V13.5323H12.5042V15.626H10.4209V17.7104H12.5042V19.7823Z" fill="#8F00FF"/>
</svg>
